<svg width="32" height="32" viewBox="0 0 32 32" fill="none" xmlns="http://www.w3.org/2000/svg">
<path d="M4.91113 10.6911V21.3067C4.91113 21.9845 5.27335 22.6111 5.86002 22.9489L15.0534 28.2578C15.64 28.5956 16.3622 28.5956 16.9489 28.2578L26.1422 22.9489C26.7289 22.6111 27.0911 21.9845 27.0911 21.3067V10.6911C27.0911 10.0134 26.7289 9.38669 26.1422 9.04892L16.9489 3.74003C16.3622 3.40225 15.64 3.40225 15.0534 3.74003L5.8578 9.04892C5.27113 9.38669 4.91113 10.0134 4.91113 10.6911Z" fill="#213147"/>
<path d="M18.0067 18.0578L16.6956 21.6534C16.6601 21.7534 16.6601 21.8623 16.6956 21.9623L18.9512 28.1489L21.5601 26.6423L18.4289 18.0578C18.3578 17.86 18.0778 17.86 18.0067 18.0578Z" fill="#12AAFF"/>
<path d="M20.6355 12.0111C20.5644 11.8133 20.2844 11.8133 20.2133 12.0111L18.9022 15.6067C18.8666 15.7067 18.8666 15.8156 18.9022 15.9156L22.5977 26.0445L25.2066 24.5378L20.6355 12.0111Z" fill="#12AAFF"/>
<path d="M16 4.1378C16.0644 4.1378 16.1289 4.15558 16.1867 4.18669L26.1356 9.93113C26.2511 9.9978 26.3222 10.1222 26.3222 10.2534V21.74C26.3222 21.8734 26.2511 21.9956 26.1356 22.0622L16.1867 27.8067C16.1311 27.84 16.0644 27.8556 16 27.8556C15.9356 27.8556 15.8711 27.8378 15.8133 27.8067L5.86444 22.0667C5.74889 22 5.67778 21.8756 5.67778 21.7445V10.2556C5.67778 10.1222 5.74889 10 5.86444 9.93336L15.8133 4.18891C15.8711 4.15558 15.9356 4.1378 16 4.1378ZM16 2.46002C15.6467 2.46002 15.2911 2.55113 14.9733 2.73558L5.02667 8.4778C4.39111 8.84447 4 9.52224 4 10.2556V21.7422C4 22.4756 4.39111 23.1534 5.02667 23.52L14.9756 29.2645C15.2933 29.4467 15.6467 29.54 16.0022 29.54C16.3556 29.54 16.7111 29.4489 17.0289 29.2645L26.9778 23.52C27.6133 23.1534 28.0044 22.4756 28.0044 21.7422V10.2556C28.0044 9.52224 27.6133 8.84447 26.9778 8.4778L17.0267 2.73558C16.7089 2.55113 16.3533 2.46002 16 2.46002Z" fill="#9DCCED"/>
<path d="M9.41992 26.0578L10.3355 23.5511L12.1777 25.0823L10.4555 26.6556L9.41992 26.0578Z" fill="#213147"/>
<path d="M15.1621 9.43335H12.6399C12.451 9.43335 12.2821 9.55113 12.2177 9.72891L6.81104 24.5511L9.41992 26.0578L15.3733 9.73557C15.4288 9.58891 15.3199 9.43335 15.1621 9.43335Z" fill="white"/>
<path d="M19.5753 9.43335H17.0531C16.8642 9.43335 16.6953 9.55113 16.6309 9.72891L10.4575 26.6533L13.0664 28.16L19.7864 9.73557C19.8397 9.58891 19.7309 9.43335 19.5753 9.43335Z" fill="white"/>
</svg>

