<svg width="131" height="32" viewBox="0 0 131 32" fill="none" xmlns="http://www.w3.org/2000/svg">
<path d="M11.5238 0.0459044C17.1127 -0.44916 20.6343 3.20569 21.4397 4.01111C21.9376 4.50901 22.4756 5.37037 22.8734 6.02627C23.0906 6.38431 23.2673 6.68483 23.4215 6.93368C23.4967 7.05502 23.5552 7.14513 23.5982 7.20664C23.6047 7.21586 23.6106 7.22346 23.6154 7.23001L25.4666 8.741L23.0099 8.88247H23.008C23.0071 8.88252 23.0058 8.8827 23.0043 8.88278C23.0013 8.88295 22.9971 8.88312 22.9918 8.8834C22.9813 8.88396 22.9661 8.88468 22.9473 8.88558C22.9097 8.88739 22.8563 8.88978 22.7912 8.89213C22.7746 8.89272 22.7572 8.89279 22.7391 8.89337C23.0329 9.51091 23.4314 10.2801 23.9292 11.088C25.1246 13.0285 26.7905 15.0257 28.8127 15.8466L30.2392 16.4256L29.0891 17.4489L28.4528 16.7334L29.0881 17.4495L29.0875 17.4501C29.0869 17.4506 29.0861 17.4513 29.0853 17.452C29.0838 17.4533 29.0821 17.4549 29.08 17.4567C29.0759 17.4603 29.0706 17.4648 29.0641 17.4704C29.0512 17.4815 29.0336 17.4968 29.0115 17.5152C28.9673 17.5521 28.905 17.6027 28.8258 17.6642C28.6673 17.787 28.4397 17.9537 28.1517 18.1397C27.5782 18.5103 26.7518 18.9661 25.7421 19.3001C25.0051 19.544 24.1688 19.7215 23.2657 19.7557L23.1009 20.0947L22.3749 19.7411C23.068 20.0786 23.099 20.0943 23.1003 20.0954C23.1002 20.0955 23.1001 20.096 23.1 20.0963C23.0997 20.0969 23.0991 20.0977 23.0987 20.0985C23.098 20.1 23.0973 20.102 23.0962 20.1041C23.0941 20.1083 23.0914 20.1136 23.0881 20.12C23.0816 20.1329 23.0728 20.1504 23.0616 20.1717C23.0394 20.2143 23.0076 20.2729 22.9666 20.3453C22.8847 20.49 22.7648 20.6904 22.6061 20.9258C22.29 21.3944 21.8122 22.0137 21.1652 22.6122C19.8939 23.7882 17.9233 24.9157 15.268 24.5809C15.235 24.5885 15.1965 24.5971 15.153 24.6074C14.9739 24.6501 14.7082 24.7172 14.3722 24.8131C13.6994 25.005 12.7477 25.3111 11.6456 25.7641C9.43417 26.6732 6.65615 28.1587 4.30537 30.47L2.7492 32L2.67753 29.8187C2.67752 29.8185 2.67754 29.8182 2.67753 29.8178C2.67747 29.8161 2.67738 29.813 2.67722 29.8088C2.67688 29.8002 2.6762 29.7861 2.67535 29.7673C2.67364 29.7298 2.67077 29.6725 2.66631 29.5969C2.65738 29.4454 2.64199 29.2209 2.61645 28.936C2.56534 28.3656 2.47372 27.5553 2.31232 26.6051C1.98785 24.6949 1.38874 22.2645 0.298718 20.0844L0.221439 19.9302L0.203054 19.7585L1.15501 19.6563C3.44791 24.2421 3.63344 29.7655 3.63416 29.7873C8.56363 24.9407 15.2083 23.6136 15.2266 23.61C19.9703 24.3204 22.2331 19.6903 22.2402 19.6756C20.0898 19.9015 18.4911 18.4908 18.4813 18.4822C18.5834 18.1248 18.5673 17.3588 18.5673 17.3588C23.7174 20.9453 28.4528 16.7334 28.4528 16.7334C23.8326 14.858 21.2586 7.88616 21.2478 7.85666C21.7335 7.9963 22.9421 7.92749 22.9548 7.92677C22.6771 7.69997 21.5635 5.48877 20.7626 4.68792C19.9615 3.88679 16.7229 0.546363 11.6082 0.999423L11.3704 1.02217C6.42736 1.52969 4.36994 3.95492 4.282 6.01225L4.27794 6.20545C4.28147 8.16803 5.62927 9.26914 5.63811 9.27634C5.56831 9.51748 5.55198 10.1563 5.5518 10.1635H5.54868C3.53335 11.0553 2.57556 12.4113 2.56535 12.4258L1.3909 11.9026C0.581895 14.301 1.15296 19.6371 1.15501 19.6563L0.203054 19.7585V19.7569C0.20296 19.7561 0.202592 19.7547 0.202431 19.7532C0.202106 19.7501 0.201767 19.7457 0.201185 19.7401C0.200015 19.7289 0.198312 19.7125 0.196199 19.6915C0.191973 19.6496 0.186026 19.5886 0.178749 19.5108C0.164182 19.355 0.144329 19.131 0.123283 18.8555C0.0812398 18.305 0.0336979 17.5443 0.0120388 16.7051C-0.0299402 15.0784 0.0177486 12.9792 0.484124 11.5966L0.820037 10.6L2.30547 11.2619C2.40533 11.1585 2.51968 11.0455 2.64886 10.9266C3.10345 10.5081 3.74516 10.009 4.58301 9.568C4.44057 9.40333 4.27759 9.19334 4.11716 8.93918C3.68958 8.26178 3.2708 7.25546 3.32567 5.97143C3.44474 3.18607 6.18206 0.519093 11.5238 0.0459044Z" fill="white"/>
<path d="M5.55149 10.1637C5.55149 10.1637 5.56744 9.5191 5.63764 9.27659C5.63764 9.27659 4.19218 8.10236 4.28152 6.01235C4.37086 3.92233 6.49279 1.45261 11.6077 0.999504C16.7227 0.546402 19.9614 3.88723 20.7623 4.68814C21.5632 5.48904 22.6768 7.70031 22.9544 7.92686C22.9544 7.92686 21.7355 7.99706 21.2473 7.85666C21.2473 7.85666 23.8223 14.8542 28.4523 16.7336C28.4523 16.7336 23.7171 20.9456 18.567 17.359C18.567 17.359 18.583 18.1249 18.4808 18.4822C18.4808 18.4822 20.0827 19.9022 22.2397 19.6756C22.2397 19.6756 19.9774 24.3215 15.2262 23.6099C15.2262 23.6099 8.57004 24.9341 3.63378 29.7874C3.63378 29.7874 3.4519 24.2513 1.15448 19.6565C1.15448 19.6565 0.580123 14.3054 1.3906 11.9027L2.56484 12.426C2.56484 12.426 3.5221 11.0603 5.54829 10.1637H5.55149Z" fill="black"/>
<path d="M6.76962 8.0385C6.76962 8.0385 5.41351 6.49731 6.62922 5.0008C7.84494 3.50429 9.97006 2.52788 13.5215 2.63318C17.0729 2.73848 19.6639 5.52091 20.3084 6.25481C20.3084 6.25481 17.7334 4.73915 14.1118 5.489C14.1118 5.489 17.4462 5.71555 18.9332 7.46414C20.4201 9.21273 21.4125 13.9639 25.4872 16.574C25.4872 16.574 22.6665 17.1229 19.9383 13.6225C19.9383 13.6225 19.8202 14.6404 19.9255 15.0584C19.9255 15.0584 18.7066 14.3979 17.0697 10.604C15.4328 6.81002 10.9433 7.61092 9.51695 8.41183C9.51695 8.41183 8.70009 8.32568 8.32357 8.29058C8.32357 8.29058 6.98979 7.33332 8.40334 5.1763C8.40334 5.1763 6.52393 5.61025 6.76643 8.0385H6.76962Z" fill="#6CE99E"/>
<path d="M7.16313 9.00525C7.16313 9.00525 7.09931 9.47431 7.16313 10.0359C7.16313 10.0359 7.96085 9.71043 9.47331 9.78701C9.47331 9.78701 9.38078 9.6179 9.32973 9.14884C9.32973 9.14884 8.14272 8.92548 7.16313 9.00525Z" fill="white"/>
<path d="M17.0573 18.9607C17.0573 18.9607 18.0305 20.4764 19.8078 20.6997C19.8078 20.6997 17.1115 23.7278 13.9238 21.223C13.9238 21.223 15.264 21.2932 17.0573 18.9607Z" fill="white"/>
<path d="M13.1778 15.7443C13.1778 15.7443 12.5333 15.0806 11.9429 15.8975C11.3526 16.7144 11.8217 18.5268 13.1778 17.6206C13.1778 17.6206 12.2493 17.8663 12.4343 16.6793C12.6194 15.4923 13.1778 15.7443 13.1778 15.7443Z" fill="white"/>
<path d="M4.59076 27.1358C4.59076 27.1358 7.25832 24.6693 11.9585 23.0164C11.9585 23.0164 11.2086 21.188 11.1767 20.0744C11.1448 18.9608 11.8212 18.5269 11.8212 18.5269C11.8212 18.5269 10.8448 18.1408 10.864 16.6793C10.8799 15.3711 11.7861 14.9754 11.7861 14.9754C11.7861 14.9754 11.0554 13.7055 8.89842 12.7291C8.89842 12.7291 11.2309 11.5453 14.0676 12.8152C14.0676 12.8152 9.55893 7.85343 3.81538 13.3545C3.81538 13.3545 5.76499 14.4681 7.80076 14.8701C7.80076 14.8701 5.5193 15.253 2.56137 14.0884C2.56137 14.0884 2.30929 15.4892 2.45607 17.7419C2.45607 17.7419 5.414 17.9078 8.6272 17.1644C8.6272 17.1644 8.62719 17.8695 8.67825 18.3514C8.67825 18.3514 7.12111 19.449 2.75282 20.0042C2.75282 20.0042 4.11851 23.3387 4.59395 27.1358H4.59076Z" fill="white"/>
<path d="M3.06872 17.7578C2.95704 15.4763 3.16444 14.3085 3.16444 14.3085H3.17083C2.9698 14.2415 2.76878 14.1681 2.56137 14.0883C2.56137 14.0883 2.30929 15.4891 2.45607 17.7419C2.45607 17.7419 2.68262 17.7546 3.06872 17.7578Z" fill="#6CE99E"/>
<path d="M3.8125 13.3576C3.8125 13.3576 5.2803 14.1968 6.99698 14.6786C5.81955 14.2287 5.1399 12.9874 5.1399 12.9874C6.30456 11.7494 8.36905 11.092 9.7124 10.7793C8.05315 10.674 6.02377 11.2388 3.8125 13.3576Z" fill="#6CE99E"/>
<path d="M5.5069 26.3986C5.31226 25.1765 4.91341 22.8089 4.68367 22.2154C4.37096 21.4081 4.08378 20.8561 4.42201 20.1796C4.51774 19.985 4.71557 19.8031 4.94212 19.6404C4.30714 19.7744 3.57962 19.8988 2.75 20.0041C2.75 20.0041 4.11569 23.3386 4.59113 27.1357C4.59113 27.1357 4.91021 26.8453 5.5069 26.3986Z" fill="#6CE99E"/>
<path d="M7.78854 8.99257C7.57794 8.98619 7.36734 8.99257 7.16313 9.00534C7.16313 9.00534 7.09931 9.47439 7.16313 10.036C7.16313 10.036 7.37373 9.94983 7.78216 9.87644C7.76301 9.56055 7.77259 9.24146 7.78854 8.98938V8.99257Z" fill="#6CE99E"/>
<path d="M119.469 23.7648L121.863 8.69495H125.091L124.065 15.2573H123.829C124.186 14.5448 124.684 14.0032 125.326 13.6327C125.967 13.248 126.722 13.0556 127.592 13.0556C128.361 13.0556 129.009 13.2123 129.537 13.5259C130.064 13.8394 130.434 14.3239 130.648 14.9794C130.876 15.6349 130.912 16.4828 130.755 17.5231L129.772 23.7648H126.544L127.506 17.5872C127.577 17.1312 127.577 16.7536 127.506 16.4543C127.449 16.1551 127.314 15.9342 127.1 15.7917C126.886 15.6349 126.587 15.5565 126.202 15.5565C125.718 15.5565 125.29 15.6634 124.92 15.8772C124.563 16.0767 124.271 16.3688 124.043 16.7536C123.829 17.1383 123.68 17.6086 123.594 18.1644L122.696 23.7648H119.469Z" fill="white"/>
<path d="M113.224 15.6846L111.996 15.6846L111.052 14.4769L111.233 13.2691L113.587 13.2691L114.584 11.7301L114.079 10.191L115.888 8L117.306 10.191L116.31 11.7301L116.815 13.2691L119.57 13.2691L119.378 14.4769L117.684 15.6846L116.451 15.6846L115.138 23.7646H111.947L113.224 15.6846Z" fill="#6CE99E"/>
<path d="M102.562 24.0001C101.907 24.0001 101.308 23.8504 100.766 23.5512C100.239 23.2377 99.8117 22.8315 99.4839 22.3328C99.1704 21.834 99.0137 21.2925 99.0137 20.7082C99.0137 19.9672 99.2203 19.3616 99.6336 18.8913C100.047 18.421 100.688 18.079 101.557 17.8653C102.427 17.6372 103.538 17.5232 104.892 17.5232H106.581L106.324 19.1905H104.956C104.258 19.1905 103.702 19.2333 103.289 19.3188C102.876 19.3901 102.576 19.5254 102.391 19.7249C102.206 19.9102 102.113 20.1667 102.113 20.4945C102.113 20.922 102.256 21.2569 102.541 21.4991C102.84 21.7271 103.21 21.8411 103.652 21.8411C104.065 21.8411 104.429 21.7556 104.742 21.5846C105.07 21.4136 105.341 21.1714 105.555 20.8578C105.783 20.5443 105.925 20.1738 105.982 19.7463L106.388 17.2454C106.488 16.6611 106.381 16.2122 106.068 15.8987C105.768 15.5852 105.255 15.4284 104.529 15.4284C103.902 15.4284 103.289 15.5139 102.69 15.6849C102.092 15.8559 101.493 16.1196 100.895 16.4758L100.232 14.2955C100.603 14.039 101.044 13.8181 101.557 13.6329C102.07 13.4476 102.619 13.3051 103.203 13.2054C103.802 13.1056 104.393 13.0557 104.977 13.0557C106.175 13.0557 107.115 13.2766 107.799 13.7184C108.483 14.1601 108.946 14.7587 109.188 15.5139C109.431 16.255 109.474 17.0886 109.317 18.0149L108.419 23.7649H105.405L105.747 21.6274H105.939C105.726 22.1689 105.441 22.6178 105.084 22.974C104.742 23.3303 104.358 23.5939 103.93 23.7649C103.503 23.9217 103.047 24.0001 102.562 24.0001Z" fill="white"/>
<path d="M85.4922 23.7648L87.8863 8.69495H93.9783C95.1469 8.69495 96.123 8.86595 96.9068 9.20796C97.6906 9.53572 98.2748 10.0202 98.6596 10.6615C99.0586 11.2885 99.2581 12.0581 99.2581 12.9701C99.2581 14.1101 99.023 15.0792 98.5527 15.8772C98.0967 16.6752 97.4127 17.288 96.5007 17.7155C95.6029 18.1287 94.4913 18.3354 93.1661 18.3354H89.6604L88.8054 23.7648H85.4922ZM90.088 15.7703H93.2943C94.2063 15.7703 94.8975 15.5565 95.3678 15.129C95.838 14.6873 96.0732 14.0602 96.0732 13.248C96.0732 12.5639 95.8665 12.0652 95.4533 11.7517C95.04 11.4382 94.413 11.2814 93.5722 11.2814H90.7934L90.088 15.7703Z" fill="white"/>
<path d="M78.0773 24.0001C76.9943 24.0001 76.068 23.8006 75.2985 23.4016C74.529 23.0025 73.9376 22.4396 73.5243 21.7129C73.1253 20.9861 72.9258 20.1382 72.9258 19.1692C72.9258 18.2001 73.0825 17.338 73.396 16.5827C73.7238 15.8132 74.1656 15.1719 74.7213 14.6589C75.2914 14.1316 75.9326 13.7326 76.6451 13.4619C77.3719 13.1911 78.1343 13.0557 78.9323 13.0557C80.0154 13.0557 80.9417 13.2552 81.7112 13.6542C82.4807 14.039 83.0721 14.5948 83.4854 15.3215C83.8986 16.0483 84.1053 16.8962 84.1053 17.8653C84.1053 18.8485 83.9414 19.7178 83.6136 20.4731C83.2859 21.2284 82.837 21.8696 82.267 22.3969C81.7112 22.9242 81.0699 23.3232 80.3431 23.5939C79.6306 23.8647 78.8753 24.0001 78.0773 24.0001ZM78.1628 21.5846C78.7328 21.5846 79.2102 21.4207 79.595 21.093C79.994 20.751 80.3004 20.295 80.5141 19.7249C80.7422 19.1407 80.8562 18.4851 80.8562 17.7584C80.8562 17.0174 80.678 16.4545 80.3218 16.0697C79.9655 15.6707 79.481 15.4712 78.8682 15.4712C78.3125 15.4712 77.8279 15.6351 77.4147 15.9628C77.0157 16.2906 76.7093 16.7466 76.4955 17.3309C76.2818 17.9009 76.1749 18.5493 76.1749 19.276C76.1749 20.0171 76.3459 20.5871 76.6879 20.9861C77.0442 21.3851 77.5358 21.5846 78.1628 21.5846Z" fill="white"/>
<path d="M64.0049 23.7647L65.6722 13.2692H68.8358L68.4083 15.8343H68.2159C68.4724 15.0363 68.9142 14.3879 69.5412 13.8891C70.1825 13.3903 70.9734 13.1125 71.9139 13.0555L72.8972 12.9913L72.7903 15.706L70.7382 15.9198C70.1682 15.9768 69.7051 16.1051 69.3488 16.3046C68.9925 16.5041 68.7218 16.7891 68.5365 17.1596C68.3513 17.5159 68.2159 17.9647 68.1304 18.5063L67.2967 23.7647H64.0049Z" fill="white"/>
<path d="M57.9803 24.0001C56.883 24.0001 55.9282 23.8006 55.116 23.4016C54.3037 22.9883 53.6767 22.4183 53.2349 21.6915C52.7931 20.9647 52.5723 20.124 52.5723 19.1692C52.5723 17.9721 52.8288 16.9176 53.3418 16.0056C53.8548 15.0935 54.5531 14.3739 55.4366 13.8466C56.3344 13.3194 57.3462 13.0557 58.472 13.0557C59.6405 13.0557 60.5739 13.3122 61.2722 13.8253C61.9704 14.324 62.455 15.0009 62.7257 15.8559C62.9965 16.6967 63.0677 17.6301 62.9395 18.6562L62.854 19.2119H55.1801L55.4152 17.5446H60.7805L60.4385 17.8439C60.5098 17.3309 60.4884 16.882 60.3744 16.4972C60.2604 16.0982 60.0466 15.7847 59.7331 15.5567C59.4196 15.3144 58.9921 15.1933 58.4506 15.1933C57.9091 15.1933 57.4459 15.3215 57.0612 15.5781C56.6906 15.8203 56.3985 16.1409 56.1848 16.54C55.971 16.9247 55.8214 17.3522 55.7359 17.8225L55.629 18.5707C55.5292 19.1977 55.5649 19.7392 55.7359 20.1952C55.9211 20.637 56.2275 20.979 56.655 21.2212C57.0968 21.4635 57.6454 21.5846 58.3009 21.5846C58.8995 21.5846 59.4766 21.4991 60.0324 21.3281C60.6024 21.1571 61.1083 20.9077 61.5501 20.58L62.2555 22.6962C61.7424 23.0952 61.1083 23.4158 60.353 23.6581C59.5977 23.8861 58.8068 24.0001 57.9803 24.0001Z" fill="white"/>
<path d="M35.8721 23.7648L38.2661 8.69495H41.5794L40.6175 14.7443H47.6073L48.5906 8.69495H51.9038L49.5098 23.7648H46.1965L47.1798 17.5017H40.1686L39.1853 23.7648H35.8721Z" fill="white"/>
</svg>

