<svg width="32" height="32" viewBox="0 0 32 32" fill="none" xmlns="http://www.w3.org/2000/svg">
<path d="M16 29.5C23.4558 29.5 29.5 23.4558 29.5 16C29.5 8.54416 23.4558 2.5 16 2.5C8.54416 2.5 2.5 8.54416 2.5 16C2.5 23.4558 8.54416 29.5 16 29.5Z" fill="#FF0420"/>
<path d="M12.0635 19.5856C11.2589 19.5856 10.6001 19.3966 10.0871 19.0186C9.57948 18.6352 9.32568 18.0844 9.32568 17.377C9.32568 17.2258 9.34188 17.0476 9.37428 16.8316C9.46068 16.3456 9.58488 15.7624 9.74688 15.0766C10.2059 13.219 11.3939 12.2902 13.3055 12.2902C13.8239 12.2902 14.2937 12.3766 14.7041 12.5548C15.1145 12.7222 15.4385 12.9814 15.6761 13.327C15.9137 13.6672 16.0325 14.0722 16.0325 14.542C16.0325 14.6824 16.0163 14.8606 15.9839 15.0766C15.8813 15.676 15.7625 16.2646 15.6167 16.8316C15.3791 17.755 14.9741 18.4516 14.3909 18.9106C13.8131 19.3642 13.0355 19.5856 12.0635 19.5856ZM12.2093 18.1276C12.5873 18.1276 12.9059 18.0142 13.1705 17.7928C13.4405 17.5714 13.6349 17.2312 13.7483 16.7668C13.9049 16.1296 14.0237 15.5788 14.1047 15.1036C14.1317 14.9632 14.1479 14.8174 14.1479 14.6662C14.1479 14.0506 13.8293 13.7428 13.1867 13.7428C12.8087 13.7428 12.4847 13.8562 12.2147 14.0776C11.9501 14.299 11.7611 14.6392 11.6477 15.1036C11.5235 15.5572 11.4047 16.108 11.2805 16.7668C11.2535 16.9018 11.2373 17.0422 11.2373 17.1934C11.2319 17.8198 11.5613 18.1276 12.2093 18.1276Z" fill="white"/>
<path d="M16.5022 19.4884C16.4266 19.4884 16.3726 19.4668 16.3294 19.4182C16.297 19.3642 16.2862 19.3048 16.297 19.2346L17.6956 12.6466C17.7064 12.571 17.7442 12.5116 17.809 12.463C17.8684 12.4144 17.9332 12.3928 18.0034 12.3928H20.698C21.4486 12.3928 22.048 12.5494 22.5016 12.8572C22.9606 13.1704 23.1928 13.6186 23.1928 14.2072C23.1928 14.3746 23.1712 14.5528 23.1334 14.7364C22.966 15.514 22.6258 16.0864 22.1074 16.459C21.5998 16.8316 20.9032 17.0152 20.0176 17.0152H18.6514L18.187 19.2346C18.1708 19.3102 18.1384 19.3696 18.0736 19.4182C18.0142 19.4668 17.9494 19.4884 17.8792 19.4884H16.5022ZM20.0878 15.6166C20.374 15.6166 20.617 15.541 20.8276 15.3844C21.0436 15.2278 21.184 15.0064 21.2542 14.7148C21.2758 14.6014 21.2866 14.4988 21.2866 14.4124C21.2866 14.218 21.2272 14.0668 21.1138 13.9642C21.0004 13.8562 20.8006 13.8022 20.5252 13.8022H19.3102L18.9268 15.6166H20.0878Z" fill="white"/>
</svg>

