<svg width="14" height="14" viewBox="0 0 14 14" fill="none" xmlns="http://www.w3.org/2000/svg">
<g clip-path="url(#clip0_85271_182202)">
<path d="M11.0756 2.86942C11.1018 2.91335 11.1284 2.95815 11.1508 3.00443C11.2179 3.14443 11.2833 3.28513 11.3431 3.42828C11.3632 3.47641 11.3779 3.52663 11.3926 3.57695C11.4013 3.6067 11.4101 3.63645 11.42 3.66576C11.4338 3.70694 11.448 3.74798 11.4627 3.78887C11.4803 3.83805 11.4978 3.88783 11.5139 3.93753C11.5261 3.97533 11.5337 4.01462 11.5413 4.05373L11.5455 4.07508C11.5603 4.14934 11.574 4.22369 11.5866 4.29812C11.6065 4.41537 11.6252 4.53262 11.6438 4.65013C11.6476 4.67386 11.6496 4.69785 11.6498 4.72188C11.6504 4.91053 11.6504 5.09901 11.6507 5.28766C11.6512 5.72367 11.6522 6.15977 11.6575 6.59578C11.662 6.95978 11.6777 7.32413 11.6977 7.68787C11.7074 7.86585 11.7295 8.04312 11.7515 8.22022L11.7617 8.30396C11.7784 8.44571 11.8004 8.5868 11.8275 8.72693C11.8685 8.93335 11.9117 9.13985 11.9634 9.3439C11.9956 9.47121 12.0346 9.59677 12.0728 9.72242C12.0887 9.77475 12.1043 9.82716 12.1198 9.87966C12.1305 9.91635 12.1411 9.9531 12.1514 9.98991C12.1765 10.0791 12.2014 10.1687 12.2326 10.2556C12.2839 10.3988 12.3425 10.5398 12.4009 10.6803L12.4171 10.7188C12.4757 10.8602 12.5373 11.0011 12.5991 11.1409C12.6188 11.1853 12.6397 11.2293 12.6607 11.2734C12.6782 11.3097 12.6953 11.3462 12.712 11.3827C12.7179 11.3977 12.7225 11.4131 12.7256 11.4288L12.7291 11.4425L12.7307 11.4502L12.7248 11.4468L12.7128 11.4408C12.7005 11.4345 12.6887 11.4271 12.6778 11.4186C12.5231 11.295 12.3681 11.1716 12.2138 11.0478L11.2003 10.2334L11.1576 10.3001C11.1219 10.3545 11.0865 10.4075 11.0533 10.4615C11.0132 10.5272 10.9733 10.593 10.9337 10.6589C10.8898 10.7323 10.8461 10.8066 10.8013 10.8794C10.762 10.9435 10.7211 11.0066 10.6809 11.07C10.6468 11.1236 10.6126 11.1775 10.5792 11.2314C10.5423 11.2909 10.506 11.3511 10.4698 11.4109C10.4369 11.4651 10.4038 11.5202 10.3707 11.5741C10.3414 11.6215 10.3114 11.6687 10.2818 11.7159C10.2221 11.8106 10.1637 11.906 10.1066 12.0022C10.081 12.0455 10.0621 12.0386 10.0331 12.0116L9.70926 11.7082C9.57786 11.5853 9.44655 11.4623 9.31533 11.3392C9.23028 11.2592 9.14558 11.1787 9.05817 11.0956L8.89664 10.9426L7.01163 14C6.38346 12.9813 5.75541 11.9624 5.12749 10.9435L3.94826 12.0501L3.85769 11.9056C3.78254 11.7865 3.70764 11.6672 3.63299 11.5477L3.60736 11.5058C3.48214 11.3052 3.35684 11.1049 3.23303 10.9033C3.10613 10.696 2.98024 10.4881 2.85538 10.2795C2.83281 10.2418 2.82021 10.233 2.77847 10.2676C2.62053 10.3984 2.46084 10.5272 2.30081 10.6555C2.22293 10.7178 2.14517 10.7801 2.06753 10.8427C1.96691 10.9239 1.86628 11.0056 1.76592 11.0871C1.66529 11.1687 1.56336 11.2509 1.46256 11.3323C1.42299 11.3643 1.38312 11.396 1.34294 11.4272L1.27881 11.4758C1.27822 11.4703 1.27738 11.4649 1.27627 11.4596C1.27382 11.449 1.27119 11.4391 1.27452 11.4323C1.29836 11.3839 1.32256 11.3358 1.34714 11.2879C1.38188 11.2199 1.41714 11.1517 1.44978 11.0828C1.50386 10.9673 1.55512 10.8504 1.60352 10.7324C1.65943 10.5987 1.71491 10.4643 1.76417 10.3283C1.7926 10.2475 1.81883 10.166 1.84283 10.0839C1.85447 10.0451 1.86576 10.0062 1.87783 9.96768C1.89297 9.91938 1.90872 9.87065 1.92403 9.82243C1.94888 9.74427 1.97338 9.66592 1.99753 9.58741C2.01419 9.53154 2.02899 9.47513 2.04189 9.41827L2.05388 9.36525C2.09326 9.19681 2.13263 9.02828 2.17008 8.85941C2.18496 8.79177 2.19519 8.72212 2.20508 8.65343L2.20683 8.64153C2.21465 8.58571 2.22206 8.52988 2.22906 8.47406C2.2348 8.42873 2.24078 8.38343 2.24699 8.33817C2.25854 8.25294 2.27079 8.16781 2.28287 8.08267L2.30334 7.93305C2.3042 7.92742 2.30479 7.92175 2.30509 7.91607C2.30536 7.911 2.30536 7.90557 2.30597 7.90067C2.35042 7.52241 2.35086 7.1424 2.35121 6.76247L2.35208 6.65992C2.35234 6.49046 2.35234 6.321 2.35208 6.15155C2.35164 5.77923 2.35042 5.40683 2.35558 5.0347C2.35724 4.90896 2.37396 4.7834 2.39058 4.65783C2.39671 4.61102 2.40309 4.56368 2.40852 4.51687L2.40939 4.50751C2.42103 4.40513 2.43346 4.30232 2.45376 4.20161C2.47493 4.09661 2.50302 3.99292 2.53154 3.88967L2.53837 3.86491C2.56199 3.77872 2.58737 3.69271 2.61782 3.60853C2.65651 3.50258 2.69811 3.39771 2.74259 3.29406C2.78284 3.19991 2.82607 3.10681 2.86903 3.0138L2.88784 2.97276C2.9086 2.92661 2.9317 2.88154 2.95706 2.83775C2.97517 2.80738 2.99783 2.80616 3.02119 2.83775C3.04333 2.8682 3.06582 2.89865 3.08778 2.92918C3.15778 3.02648 3.22761 3.12413 3.30399 3.21636C3.38406 3.31305 3.46919 3.40588 3.55433 3.49828C3.58968 3.5367 3.62529 3.57493 3.66029 3.6137C3.75409 3.71747 3.75549 3.72762 3.68856 3.85038C3.61086 3.99301 3.55941 4.1443 3.52187 4.30328C3.48048 4.4789 3.48074 4.65355 3.49964 4.82793C3.52169 5.03303 3.59887 5.22168 3.71839 5.39275C3.80729 5.51962 3.91028 5.63153 4.03287 5.72516C4.18647 5.84348 4.35893 5.93503 4.54299 5.99597C4.74731 6.06335 4.95276 6.10132 5.16678 6.09423C5.22051 6.09248 5.22208 6.12223 5.21893 6.16091C5.20528 6.31666 5.19186 6.47247 5.17868 6.62833V6.63516C5.20896 6.75853 5.13353 6.81392 5.03947 6.8659C4.93902 6.92128 4.84014 6.97956 4.74127 7.03766C4.67258 7.07791 4.60363 7.11868 4.53442 7.15815C4.45689 7.20242 4.37849 7.24556 4.30036 7.28887C4.22865 7.32865 4.15716 7.36881 4.08589 7.40936C4.03077 7.4406 3.97678 7.47376 3.92262 7.50674C3.89339 7.52454 3.86405 7.54218 3.83459 7.55968L3.68086 7.65033L3.80476 7.72033C3.90039 7.77441 3.99008 7.82568 4.07986 7.87669L4.15073 7.91695C4.32092 8.01355 4.49198 8.11006 4.66173 8.20745C4.69542 8.2267 4.72998 8.24542 4.76428 8.26379C4.84933 8.30929 4.93456 8.3548 5.00867 8.41421C5.13152 8.51282 5.24142 8.63007 5.34537 8.74916C5.42246 8.83753 5.48642 8.93868 5.54706 9.03966C5.63018 9.17808 5.70779 9.31992 5.78112 9.46351C5.85357 9.60543 5.92208 9.75007 5.98456 9.89672C6.01833 9.97626 6.04694 10.0579 6.07599 10.1394C6.09264 10.1863 6.10973 10.233 6.12727 10.2795C6.14768 10.3335 6.16848 10.3874 6.18966 10.4411C6.22221 10.5237 6.25511 10.6062 6.28529 10.6897C6.30323 10.7406 6.31919 10.7922 6.33316 10.8443C6.34261 10.8786 6.35162 10.9132 6.36221 10.9469C6.37498 10.9878 6.38933 11.0286 6.40324 11.0691C6.41637 11.1075 6.42949 11.1466 6.44174 11.1853C6.45968 11.2424 6.47674 11.2998 6.49381 11.3571C6.50606 11.398 6.51804 11.4392 6.53056 11.4801C6.54403 11.524 6.55856 11.568 6.57247 11.6117C6.58621 11.6554 6.59994 11.6995 6.61342 11.7433C6.64229 11.8376 6.67003 11.9324 6.69803 12.027L6.72883 12.1295C6.74913 12.1979 6.76934 12.2663 6.78947 12.3346L7.00052 13.0575H7.01846C7.02283 13.047 7.02764 13.0363 7.03211 13.0259C7.04307 13.0014 7.05276 12.9763 7.06115 12.9507C7.07559 12.9042 7.08889 12.8574 7.10228 12.8106C7.11234 12.7749 7.12328 12.7392 7.13378 12.7037C7.1467 12.6607 7.15982 12.6177 7.17316 12.5747C7.19276 12.5116 7.21218 12.4478 7.23038 12.3842C7.24307 12.3391 7.25503 12.2938 7.26626 12.2483C7.27854 12.1976 7.29196 12.1472 7.30651 12.0971C7.3218 12.0461 7.33802 11.9954 7.35516 11.945C7.37003 11.9004 7.38508 11.8558 7.39873 11.8108C7.41273 11.7647 7.42551 11.718 7.43811 11.6716C7.44948 11.6292 7.46059 11.5862 7.47311 11.5442C7.48973 11.4885 7.50749 11.433 7.52517 11.3776C7.53882 11.3352 7.55223 11.2928 7.56542 11.2503C7.57766 11.2102 7.58962 11.17 7.60129 11.1298C7.6152 11.082 7.62894 11.0337 7.64399 10.9863C7.66377 10.9235 7.68582 10.8611 7.70717 10.7991L7.72598 10.7444L7.74646 10.6837C7.76829 10.6191 7.7908 10.5547 7.814 10.4906C7.85128 10.3888 7.89057 10.2868 7.92933 10.1856L7.94219 10.1531C7.9645 10.0946 7.98647 10.0361 8.01132 9.9788C8.06303 9.86076 8.11684 9.74351 8.17118 9.62669C8.18215 9.60319 8.19297 9.57956 8.20364 9.55582C8.23785 9.48048 8.27259 9.40479 8.31389 9.33366L8.35913 9.25499C8.45442 9.09014 8.54962 8.92442 8.65908 8.76963C8.80048 8.57013 8.98309 8.40878 9.19913 8.28943C9.28523 8.24207 9.37153 8.19508 9.45804 8.14847C9.69236 8.02252 9.92453 7.89262 10.1545 7.75883C10.2147 7.72383 10.2756 7.68796 10.3382 7.652C10.319 7.63957 10.2992 7.62644 10.2809 7.61437C10.2445 7.59001 10.2075 7.56667 10.1699 7.54437C9.92039 7.39824 9.67119 7.25168 9.42042 7.10775C9.30588 7.04186 9.18994 6.9779 9.07435 6.91367C9.01993 6.88363 8.96553 6.85344 8.91117 6.82311C8.87354 6.80211 8.85429 6.77472 8.85219 6.72572C8.84694 6.60112 8.83732 6.4767 8.8283 6.35236C8.8248 6.30336 8.82139 6.25436 8.81807 6.20536C8.818 6.20306 8.81771 6.20077 8.81719 6.19853C8.80275 6.09546 8.80354 6.09126 8.91292 6.09598C9.08914 6.10351 9.2595 6.06728 9.4247 6.0182C9.73787 5.92562 10.0119 5.7599 10.2228 5.50895C10.3394 5.37 10.4251 5.20917 10.4792 5.03041C10.5281 4.87034 10.5478 4.70274 10.5373 4.53568C10.526 4.36095 10.4891 4.1912 10.4151 4.03063C10.3817 3.9581 10.352 3.88363 10.3228 3.81276C10.31 3.7817 10.2968 3.7509 10.2843 3.72132L10.4211 3.55726C10.6253 3.31077 10.8297 3.06341 11.0397 2.80957C11.0512 2.82961 11.0636 2.84938 11.0756 2.86942Z" fill="#C4CCCC"/>
<path d="M6.67227 5.12356C6.87317 5.01244 7.09008 4.99984 7.30463 5.10475C7.5393 5.21964 7.70783 5.40365 7.83952 5.62345C7.92369 5.76397 7.97549 5.91719 8.01636 6.07714C8.09327 6.37831 8.09423 6.68351 8.08898 6.98976C8.08565 7.18506 8.13894 7.25025 8.29408 7.33749L8.43758 7.41869C8.5158 7.46261 8.59455 7.50619 8.67261 7.55029C8.68512 7.55729 8.69719 7.5656 8.70935 7.57339C8.72747 7.58485 8.74575 7.59666 8.76492 7.60576C8.81427 7.62939 8.80219 7.65126 8.76579 7.67331C8.48824 7.84149 8.24368 8.04554 8.03867 8.30051C7.89141 8.48373 7.76153 8.68026 7.65069 8.88755C7.57474 9.02886 7.5134 9.17875 7.45242 9.32759L7.43448 9.37037C7.36618 9.53794 7.30208 9.70719 7.24224 9.87796C7.21722 9.9511 7.19414 10.0249 7.17303 10.0992C7.15929 10.1466 7.1459 10.1941 7.13112 10.2411C7.10697 10.3171 7.08218 10.3929 7.05674 10.4684L7.01492 10.594L6.98587 10.5171C6.96732 10.4688 6.95017 10.4252 6.93547 10.3812C6.89853 10.2701 6.86236 10.1587 6.82697 10.0471L6.80728 9.98559C6.79503 9.94761 6.78392 9.90929 6.77228 9.87105C6.74778 9.7909 6.72293 9.71031 6.69362 9.63182C6.65179 9.51991 6.60402 9.4101 6.55607 9.30029L6.53559 9.25417L6.50059 9.1721C6.45413 9.06456 6.40714 8.95738 6.35359 8.85343C6.29422 8.73836 6.22741 8.62729 6.15357 8.52092C6.02905 8.34164 5.8901 8.17329 5.72805 8.02541C5.58228 7.89215 5.42854 7.76965 5.25468 7.67419C5.24269 7.66762 5.22869 7.66377 5.2153 7.65966C5.20953 7.65791 5.20393 7.65564 5.19824 7.65371L5.21198 7.63997L5.2265 7.62632L5.38199 7.53322C5.48583 7.47116 5.58978 7.40932 5.69384 7.34772C5.71134 7.3374 5.72972 7.32804 5.74774 7.31876C5.77612 7.30468 5.80351 7.28869 5.82973 7.2709C5.89089 7.22715 5.92624 7.16546 5.92633 7.08802C5.92633 7.05198 5.92607 7.01557 5.92545 6.97952C5.92432 6.91084 5.92257 6.84189 5.92545 6.77355L5.92808 6.7095C5.93385 6.56565 5.94024 6.4211 5.95958 6.27882C5.97533 6.16306 6.0126 6.04887 6.05102 5.93784C6.08908 5.82794 6.13353 5.71856 6.18865 5.61654C6.30197 5.40724 6.46603 5.23766 6.67227 5.12356Z" fill="#C4CCCC"/>
<path d="M4.33132 4.22363C4.80303 4.5942 5.29119 4.8973 5.82494 5.16872C5.79721 5.1822 5.77174 5.19655 5.74707 5.20976C5.69649 5.23706 5.65021 5.26138 5.60103 5.27556C5.41772 5.32823 5.22942 5.37242 5.03788 5.34302C4.75263 5.29927 4.48794 5.2088 4.32528 4.94315C4.23288 4.7923 4.20593 4.63077 4.25861 4.45953L4.33132 4.22363Z" fill="#C4CCCC"/>
<path d="M9.68358 4.23153C9.78036 4.42211 9.82201 4.61566 9.76049 4.81682C9.71324 4.9703 9.6058 5.08711 9.47253 5.17312C9.24538 5.31951 8.99067 5.37288 8.72572 5.3406C8.62308 5.32808 8.52237 5.29571 8.42236 5.26281C8.38736 5.25135 8.35236 5.23918 8.31727 5.22868C8.29347 5.22133 8.27089 5.20891 8.24464 5.19368C8.23108 5.18581 8.21665 5.17662 8.2002 5.16796C8.735 4.89592 9.22351 4.59063 9.68358 4.23153Z" fill="#C4CCCC"/>
<path d="M6.99463 0.271704C7.07277 0.266979 7.15248 0.275817 7.23132 0.284567L7.2672 0.287979C7.43712 0.306354 7.60678 0.328054 7.77645 0.350367H7.77907C7.87243 0.362617 7.96632 0.374604 8.05758 0.395604C8.15488 0.418092 8.25087 0.447929 8.34633 0.477679L8.37118 0.485379L8.39341 0.492204C8.4901 0.522129 8.58687 0.552754 8.68137 0.588717C8.80623 0.636492 8.93223 0.684442 9.05141 0.744292C9.20891 0.823742 9.36623 0.905904 9.5128 1.0032C9.78378 1.18258 10.0444 1.37884 10.2691 1.615C10.3472 1.69708 10.4316 1.69148 10.5108 1.66374C10.6424 1.61741 10.7691 1.55845 10.8893 1.48769C11.1052 1.36047 11.2769 1.18057 11.4346 0.986929L11.4516 0.992967C11.4471 1.00662 11.4422 1.02088 11.438 1.03479C11.4285 1.06603 11.4192 1.09779 11.4055 1.1271C11.3923 1.15545 11.3792 1.18392 11.3662 1.2125C11.3213 1.31024 11.2765 1.40833 11.2209 1.49968C11.1068 1.68745 10.9873 1.87392 10.8561 2.04997C10.7142 2.24054 10.5613 2.42359 10.4041 2.60192C10.2875 2.73413 10.1595 2.85672 10.0315 2.9779C9.88458 3.11694 9.73636 3.25528 9.58026 3.38382C9.39143 3.53904 9.19955 3.69217 8.99838 3.83068C8.71243 4.02747 8.41826 4.2134 8.12426 4.39803C8.06213 4.43714 7.99493 4.46812 7.92773 4.49892C7.89474 4.51378 7.86199 4.52915 7.82947 4.54503C7.8188 4.55054 7.80891 4.55955 7.80891 4.55955C7.76866 4.53882 7.72955 4.51773 7.69105 4.49717C7.6067 4.45237 7.52532 4.40914 7.4415 4.3716C7.24138 4.28218 7.02736 4.27973 6.81605 4.30668C6.65067 4.32785 6.49475 4.39059 6.35378 4.48352L6.33235 4.49717C6.31253 4.50907 6.29369 4.52253 6.276 4.53742C6.23373 4.5753 6.19322 4.55229 6.15892 4.53304L6.15035 4.52884L6.11622 4.51003C5.95662 4.42367 5.79641 4.33722 5.64285 4.24088C5.41167 4.09633 5.1805 3.95047 4.96096 3.78964C4.75288 3.63757 4.55338 3.47175 4.36193 3.2992C4.10412 3.06698 3.85281 2.82763 3.6083 2.58144C3.4711 2.44319 3.34632 2.29094 3.2289 2.13537C3.08828 1.94908 2.95082 1.75824 2.83068 1.55857C2.76165 1.44394 2.70696 1.32039 2.6521 1.19719C2.63113 1.14999 2.60975 1.10297 2.58796 1.05614C2.58341 1.04608 2.5842 1.03304 2.58542 1.01685C2.58612 1.00819 2.58717 0.998567 2.58717 0.987804L2.65376 1.0613C2.68858 1.09945 2.72201 1.13603 2.75465 1.17243C2.93551 1.37359 3.15601 1.52024 3.39978 1.63294C3.42656 1.64528 3.45648 1.65184 3.48606 1.65858C3.50531 1.66295 3.52473 1.66715 3.54328 1.6731C3.65187 1.70784 3.71925 1.64755 3.78767 1.58595C3.79773 1.57694 3.80736 1.5674 3.8176 1.55857C3.86076 1.52153 3.90378 1.48422 3.94666 1.44665C4.0773 1.33194 4.20863 1.21732 4.34916 1.1159C4.48365 1.01895 4.6296 0.937229 4.77546 0.856204C4.81133 0.836342 4.84756 0.816479 4.88308 0.796354C4.98569 0.737871 5.09189 0.685938 5.20106 0.640867C5.33073 0.588279 5.46443 0.544354 5.59743 0.500779L5.61633 0.494742C5.72256 0.460495 5.8297 0.429158 5.93763 0.400767C6.00235 0.383516 6.06795 0.369817 6.13416 0.359729C6.23041 0.345117 6.32701 0.333829 6.42378 0.323854L6.54086 0.311867C6.69197 0.296204 6.84308 0.280892 6.99463 0.271704Z" fill="#C4CCCC"/>
</g>
<defs>
<clipPath id="clip0_85271_182202">
<rect width="14" height="14" fill="white"/>
</clipPath>
</defs>
</svg>
