<svg width="16" height="16" viewBox="0 0 16 16" fill="none" xmlns="http://www.w3.org/2000/svg">
<path fill-rule="evenodd" clip-rule="evenodd" d="M12.0015 8.147C12.1854 8.14718 12.35 8.25927 12.404 8.43488C12.4261 8.50689 12.4501 8.59325 12.4758 8.69125C12.4789 8.70101 12.4853 8.70944 12.4937 8.71523C12.6615 9.11344 13.0566 9.3937 13.5157 9.3937C13.565 9.3937 13.6135 9.3888 13.661 9.38259C13.6705 9.38745 13.6814 9.38866 13.6918 9.386C13.7768 9.36187 13.8623 9.33935 13.9481 9.31845C14.1286 9.27505 14.3106 9.36203 14.4036 9.52268L14.7838 10.1823C14.8753 10.3416 14.8619 10.54 14.7368 10.6745C14.6772 10.7382 14.6162 10.8006 14.5539 10.8617C14.5484 10.8672 14.5443 10.8739 14.5421 10.8814C14.5398 10.8889 14.5395 10.8968 14.5411 10.9044C14.5415 10.9062 14.5416 10.9086 14.542 10.9104C14.4015 11.1004 14.3257 11.3304 14.3258 11.5667C14.326 11.8131 14.4073 12.0407 14.5437 12.2246C14.5422 12.2323 14.5427 12.2402 14.5451 12.2477C14.5475 12.2552 14.5517 12.2619 14.5573 12.2674C14.6285 12.3365 14.6908 12.3991 14.7419 12.4528C14.8695 12.5874 14.886 12.7884 14.7932 12.9492L14.4121 13.6089C14.3201 13.7675 14.1413 13.8545 13.9627 13.8139C13.8762 13.7934 13.7902 13.7712 13.7045 13.7474C13.6971 13.7454 13.6892 13.7454 13.6818 13.7474C13.6743 13.7493 13.6674 13.7531 13.6618 13.7585C13.659 13.7611 13.6554 13.7635 13.6525 13.7661C13.6068 13.7602 13.5609 13.757 13.5148 13.7567C12.9541 13.7568 12.4913 14.1745 12.4186 14.7155C12.4153 14.7251 12.4132 14.7354 12.41 14.7445C12.3528 14.9041 12.1985 14.9998 12.0289 15H11.2138C11.0558 14.9997 10.9117 14.9165 10.8463 14.777C10.8019 14.2064 10.3259 13.7569 9.74404 13.7567C9.70072 13.7567 9.65776 13.7596 9.61585 13.7644C9.60709 13.7611 9.59756 13.7605 9.58846 13.7627C9.46509 13.7943 9.36043 13.8188 9.27486 13.8345C9.10826 13.8648 8.94805 13.7792 8.863 13.6328L8.45455 12.9253C8.36897 12.7766 8.37606 12.5932 8.48867 12.4639C8.4906 12.4618 8.49208 12.4592 8.49392 12.4571C8.76745 12.2555 8.94665 11.9324 8.94673 11.5667C8.94673 11.2183 8.78468 10.9082 8.53321 10.7053C8.52008 10.6905 8.50635 10.6772 8.49471 10.6634C8.38507 10.5342 8.37939 10.3532 8.464 10.2063L8.87157 9.49879C8.95741 9.35004 9.12007 9.26429 9.2886 9.2971L9.29708 9.29885C9.43358 9.35923 9.58514 9.39362 9.74404 9.3937C10.3061 9.39344 10.7695 8.97283 10.8403 8.4298C10.896 8.25743 11.059 8.14727 11.2411 8.147H12.0015ZM11.6384 10.4405C11.0133 10.4406 10.5064 10.9475 10.5062 11.5726C10.5062 12.1979 11.0132 12.7055 11.6384 12.7057C12.2639 12.7057 12.7714 12.1981 12.7714 11.5726C12.7713 10.9474 12.2637 10.4405 11.6384 10.4405Z" fill="#9B9B9B"/>
<path d="M14 8V2H2V14H7.5" stroke="#9B9B9B" stroke-linecap="square"/>
<path fill-rule="evenodd" clip-rule="evenodd" d="M8.39736 4.41199C9.7852 4.41199 10.7446 5.36022 10.7446 6.44146C10.7446 6.89769 10.5907 7.31681 10.3353 7.65482C10.3613 7.67119 10.3862 7.68895 10.4114 7.7061C10.2099 8.12628 9.82378 8.43909 9.3561 8.53752C9.20192 8.48887 9.02298 8.45755 8.81605 8.45457C8.78603 8.45589 8.75585 8.45974 8.72548 8.45974H6.72348V10.3567H7.44886C7.46092 10.3991 7.48032 10.439 7.50617 10.4746C7.54886 10.5332 7.59301 10.5908 7.63856 10.6472C7.6397 10.6487 7.64022 10.6508 7.64118 10.6523C7.83132 10.9064 7.94525 11.2214 7.94533 11.5633C7.94533 11.5692 7.94455 11.5752 7.94446 11.5812H6.19796C6.01235 11.5812 5.83435 11.5075 5.7031 11.3762C5.57185 11.245 5.49809 11.067 5.49805 10.8814V5.11181C5.49816 4.92624 5.57193 4.74831 5.70315 4.61709C5.83437 4.48587 6.0123 4.4121 6.19787 4.41199H8.39736ZM6.72348 7.22844H8.78183C8.79242 7.22844 8.80301 7.22914 8.81351 7.22931C9.21032 7.18539 9.5192 6.84991 9.51928 6.44137C9.51928 6.14554 9.22275 5.63734 8.39736 5.63734H6.72348V7.22844Z" fill="#9B9B9B"/>
</svg>
