<svg width="16" height="16" viewBox="0 0 16 16" fill="none" xmlns="http://www.w3.org/2000/svg">
<path d="M14.0232 14.25H1.87849V10.7663H14.0232V14.25ZM2.98147 13.1413H12.9202V11.875H2.98147V13.1413ZM13.9901 7.04096H1.92733L1.936 6.47868C1.93679 6.42958 1.96279 5.2583 2.72542 4.09098C3.42346 3.02265 4.88728 1.75 7.8945 1.75C10.8962 1.75 12.39 3.01869 13.1148 4.08306C13.9066 5.24642 13.9641 6.41533 13.9664 6.46443L13.9901 7.04096ZM3.11935 5.93224H12.7642C12.494 4.90034 11.5028 2.85793 7.8945 2.85793C4.28379 2.85793 3.35728 4.90668 3.11935 5.93224Z" fill="#9B9B9B"/>
<path d="M8.00473 10.105C7.05379 10.105 6.6906 9.58466 6.4503 9.24016C6.26122 8.96853 6.20371 8.88696 5.90826 8.88696C5.64985 8.88696 5.55688 8.97961 5.32604 9.2465C5.05739 9.55694 4.65164 10.0258 3.79998 10.0258C2.2684 10.0258 1.77048 8.79668 1.75 8.74441L2.77657 8.33893L2.77341 8.33102C2.79941 8.3912 3.04759 8.91705 3.79998 8.91705C4.149 8.91705 4.26402 8.78401 4.49408 8.5187C4.76431 8.20589 5.1346 7.77824 5.90905 7.77824C6.77884 7.77824 7.1247 8.27479 7.35396 8.60344C7.54778 8.88141 7.62814 8.99625 8.00551 8.99625C8.36477 8.99625 8.42229 8.91309 8.59325 8.66759C8.81463 8.34844 9.14868 7.86773 10.076 7.86773H10.1051C10.9158 7.86773 11.2806 8.26766 11.5477 8.55909C11.7659 8.79747 11.8746 8.91705 12.2654 8.91705C12.9965 8.91705 13.147 8.43397 13.1699 8.33735L13.1675 8.34685L14.25 8.55989C14.1515 9.06673 13.6087 10.0258 12.2646 10.0258C11.3893 10.0258 10.9954 9.59416 10.7346 9.30906C10.5258 9.08098 10.4305 8.97645 10.0988 8.97645C9.72696 8.97328 9.66866 9.05564 9.4977 9.30194C9.27553 9.62188 8.9399 10.105 8.00473 10.105Z" fill="#9B9B9B"/>
</svg>
