<svg width="16" height="16" viewBox="0 0 16 16" fill="none" xmlns="http://www.w3.org/2000/svg">
<path d="M1.39092 5.96099C1.47649 4.2781 2.86827 2.94031 4.57216 2.94031C4.59771 2.94031 4.62308 2.94224 4.64828 2.94294C5.34137 1.82031 6.58299 1.06982 8.00119 1.06982C9.41957 1.06982 10.6596 1.82145 11.3524 2.94372C11.3785 2.94302 11.4047 2.94119 11.4311 2.94119C13.1898 2.94119 14.6158 4.36717 14.6158 6.12592C14.6156 7.42862 13.8318 8.54075 12.7146 9.03372V14.3913H3.28101C3.28101 12.6046 3.28101 10.8179 3.28101 9.03119C2.16722 8.53637 1.38672 7.42556 1.38672 6.12505L1.39092 5.96099ZM2.61198 6.12505C2.61198 7.00854 3.19849 7.75552 4.00647 7.99895C4.29321 8.08549 4.50627 8.35122 4.50636 8.6706V12.9037C4.50636 13.0487 4.36251 13.1661 4.50749 13.1661H11.4893C11.489 11.6681 11.4893 10.1702 11.4893 8.67226C11.4895 8.35201 11.704 8.08645 11.9917 8.00061L12.1404 7.94934C12.8242 7.68395 13.3205 7.04826 13.3837 6.28999L13.3905 6.12592C13.3905 5.11119 12.6194 4.27705 11.6311 4.17677L11.4312 4.16654C11.3411 4.16706 11.2512 4.1739 11.162 4.18701C11.0155 4.20784 10.8662 4.18199 10.7352 4.11313C10.6042 4.04427 10.4982 3.93591 10.4323 3.80341C9.98727 2.90829 9.06537 2.29517 8.00128 2.29517C6.93676 2.29517 6.01416 2.90855 5.56939 3.80341C5.5034 3.9358 5.39739 4.04404 5.26639 4.11276C5.13539 4.18148 4.98608 4.20718 4.83964 4.18622C4.79453 4.17962 4.74921 4.17448 4.70376 4.17082L4.57216 4.16566C3.48952 4.16566 2.61216 5.04276 2.61198 6.12505Z" fill="#10C8A8"/>
<path d="M3.89499 10.9747C3.89499 10.8123 3.95952 10.6565 4.07439 10.5416C4.18926 10.4268 4.34505 10.3622 4.50749 10.3622H11.4938C11.6562 10.3622 11.812 10.4268 11.9269 10.5416C12.0417 10.6565 12.1063 10.8123 12.1063 10.9747C12.1063 11.1372 12.0417 11.293 11.9269 11.4078C11.812 11.5227 11.6562 11.5872 11.4938 11.5872H4.50749C4.34505 11.5872 4.18926 11.5227 4.07439 11.4078C3.95952 11.293 3.89499 11.1372 3.89499 10.9747Z" fill="#10C8A8"/>
</svg>
