<svg width="14" height="14" viewBox="0 0 14 14" fill="none" xmlns="http://www.w3.org/2000/svg">
<path d="M7 14C10.866 14 14 10.866 14 7C14 3.13401 10.866 0 7 0C3.13401 0 0 3.13401 0 7C0 10.866 3.13401 14 7 14Z" fill="#010101"/>
<path d="M4.38967 6.99999L3.31867 8.07843L2.24023 6.99999L3.31867 5.92155L4.38967 6.99999ZM7.00023 4.38943L8.84473 6.23393L9.92317 5.15549L8.07867 3.31843L7.00023 2.23999L5.9218 3.31843L4.08473 5.15549L5.16317 6.23393L7.00023 4.38943ZM10.6818 5.92155L9.6108 6.99999L10.6892 8.07843L11.7602 6.99999L10.6818 5.92155ZM7.00023 9.61055L5.15573 7.76605L4.08473 8.84449L5.92923 10.689L7.00023 11.76L8.07867 10.6816L9.92317 8.83705L8.84473 7.76605L7.00023 9.61055ZM7.00023 8.07843L8.07867 6.99999L7.00023 5.92155L5.9218 6.99999L7.00023 8.07843Z" fill="#F0B90B"/>
</svg>
