<svg width="20" height="20" viewBox="0 0 20 20" fill="none" xmlns="http://www.w3.org/2000/svg">
    <path
        d="M2.38975 7.7864C2.18263 7.7864 2.00319 7.7864 2.00319 7.7864L2.00334 3.99997L18.0001 4.00003L18 7.78643C18 7.78643 17.8203 7.78643 17.613 7.78643C16.4582 7.78643 15.522 8.77747 15.522 9.99997C15.522 11.2225 16.4582 12.2135 17.613 12.2135C17.8203 12.2135 18 12.2135 18 12.2135L18.0001 16L2 16V12.2134C2 12.2134 2.18263 12.2134 2.38975 12.2134C3.54457 12.2134 4.48074 11.2224 4.48074 9.99994C4.48074 8.77744 3.54457 7.7864 2.38975 7.7864Z"
        stroke="#6CE99E" stroke-width="2" />
    <path d="M7 12.9997L12.9998 6.99994" stroke="#6CE99E" stroke-width="2" stroke-linejoin="round" />
    <path d="M11 12H13" stroke="#6CE99E" stroke-width="2" />
    <path d="M7 8H9" stroke="#6CE99E" stroke-width="2" />
</svg>