<svg width="16" height="16" viewBox="0 0 16 16" fill="none" xmlns="http://www.w3.org/2000/svg">
<path d="M3.32951 13.287H7.23805L7.23802 8.61269H3.32948L3.32951 13.287ZM3.32948 7.38734H7.23802V3.22535H3.32948V7.38734ZM8.46328 7.38734H9.59894C10.7103 7.38734 11.611 8.28833 11.6113 9.39966L11.6113 12.5C11.6115 12.9348 11.9643 13.287 12.3991 13.287H12.5426C12.7514 13.2869 12.9515 13.204 13.0991 13.0564C13.2466 12.9088 13.3296 12.7087 13.3296 12.5L13.3296 5.62565C13.3296 5.55607 13.3019 5.48935 13.2527 5.44015L10.8584 3.04589C10.7471 2.93027 10.6855 2.77557 10.687 2.61505C10.6885 2.45453 10.7529 2.30101 10.8665 2.1875C10.98 2.07399 11.1335 2.00956 11.294 2.00806C11.4545 2.00655 11.6092 2.0681 11.7248 2.17946L14.1192 4.57372C14.3981 4.85259 14.5549 5.2312 14.5549 5.62565L14.555 12.5C14.5548 13.6112 13.6539 14.5121 12.5426 14.5123H12.3991C11.2877 14.5123 10.387 13.6113 10.3867 12.5L10.3867 9.39966C10.3865 8.96488 10.0337 8.61269 9.59894 8.61269H8.46328L8.46331 13.287C8.78972 13.287 9.11612 13.287 9.44252 13.287V14.5123C6.68336 14.5122 3.9242 14.5122 1.16504 14.5123C1.16513 14.1039 1.16514 13.6954 1.16521 13.287C1.47849 13.287 1.79176 13.287 2.10504 13.287V2H8.46328V7.38734Z" fill="#9B9B9B"/>
<path d="M11.7231 3.5L13.4092 3.97296V7.0541C12.478 7.0541 11.7231 6.29915 11.7231 5.36797V3.5Z" fill="#9B9B9B"/>
</svg>
