<svg width="16" height="16" viewBox="0 0 16 16" fill="none" xmlns="http://www.w3.org/2000/svg">
<path d="M7.58939 1.29077C8.96404 1.29077 10.1659 2.01923 10.8374 3.10691C10.8626 3.10623 10.8881 3.10437 10.9136 3.10437C12.618 3.10437 14.0001 4.48649 14.0001 6.19094C14 7.44204 13.2536 8.51089 12.1865 8.99512H10.9699V8.65879C10.9701 8.34858 11.1782 8.09095 11.4569 8.00784L11.601 7.95815C12.2637 7.70094 12.7446 7.08476 12.806 6.34986L12.8126 6.19085C12.8125 5.20756 12.0651 4.39897 11.1074 4.30187L10.9136 4.29195C10.8292 4.29195 10.7425 4.2989 10.6527 4.31179C10.5107 4.33197 10.366 4.3069 10.239 4.24015C10.1121 4.1734 10.0093 4.06836 9.94547 3.93993C9.51416 3.07257 8.62059 2.47835 7.58939 2.47835C6.55785 2.47835 5.66351 3.07282 5.23246 3.94001C5.16856 4.06837 5.06581 4.17331 4.93884 4.23992C4.81187 4.30652 4.66713 4.33141 4.5252 4.31103C4.48151 4.30463 4.43761 4.29965 4.39359 4.2961L4.26605 4.29118C3.21695 4.29127 2.36655 5.14133 2.36621 6.19009C2.36621 7.04626 2.93481 7.77022 3.7178 8.00623C3.99561 8.09018 4.20202 8.34773 4.20227 8.65718V10.2969H8.51272V11.4845H4.20389L4.20219 11.4837C4.20219 11.9938 4.20219 12.504 4.20219 13.0141H8.51272V14.2017H3.01469V9.00665C1.93541 8.52709 1.17871 7.45043 1.17871 6.19018L1.18278 6.03117C1.26589 4.40041 2.61485 3.10377 4.26605 3.10369C4.29064 3.10369 4.3154 3.10547 4.33974 3.10623C5.01155 2.01813 6.21507 1.29086 7.58939 1.29077Z" fill="#9B9B9B"/>
<path d="M10.0718 10.067L13.6759 13.6711M13.6759 10.067L10.0718 13.6711" stroke="#9B9B9B" stroke-width="1.02975" stroke-linecap="square"/>
</svg>
