<svg width="16" height="16" viewBox="0 0 16 16" fill="none" xmlns="http://www.w3.org/2000/svg">
<path opacity="0.3" d="M7.99994 14.9999C11.8659 14.9999 14.9999 11.8659 14.9999 7.99994C14.9999 4.13398 11.8659 1 7.99994 1C4.13398 1 1 4.13398 1 7.99994C1 11.8659 4.13398 14.9999 7.99994 14.9999Z" fill="#9B9B9B"/>
<path d="M7.25 10.5H8.75V12H7.25V10.5Z" fill="#9B9B9B"/>
<path d="M8.98818 7.69461L9.41213 8.31329L9.41223 8.31323L8.98818 7.69461ZM7.25 9V9.75H8.75V9H8H7.25ZM6.25002 6.25011H7.00002C7.00002 5.69783 7.44773 5.25012 8 5.25012V4.50012V3.75012C6.61931 3.75012 5.50002 4.8694 5.50002 6.25011H6.25002ZM8 4.50012V5.25012C8.55227 5.25012 8.99998 5.69783 8.99998 6.25011H9.74998H10.5C10.5 4.8694 9.38069 3.75012 8 3.75012V4.50012ZM9.74998 6.25011H8.99998C8.99998 6.59219 8.8289 6.89451 8.56413 7.076L8.98818 7.69461L9.41223 8.31323C10.0675 7.86403 10.5 7.10767 10.5 6.25011H9.74998ZM8.98818 7.69461L8.56423 7.07593C8.32156 7.24222 8.00581 7.46837 7.75154 7.75745C7.48853 8.05647 7.25 8.46988 7.25 9H8H8.75C8.75 8.95024 8.76637 8.87486 8.87786 8.74812C8.99809 8.61142 9.17643 8.47481 9.41213 8.31329L8.98818 7.69461Z" fill="#9B9B9B"/>
</svg>


