<svg width="16" height="16" viewBox="0 0 16 16" fill="none" xmlns="http://www.w3.org/2000/svg">
<g clip-path="url(#clip0_85271_181910)">
<path d="M16.0001 7.99998C16.0001 12.418 12.4177 15.5995 7.99972 15.5995C6.54232 15.5995 5.17672 15.6097 3.99982 14.9287C2.46012 14.0378 1.24482 12.6483 0.574924 10.981C0.204724 10.0597 0.799924 9.05338 0.799924 7.99968C0.799924 3.58168 3.58172 1.59998 7.99972 1.59998C12.4177 1.59998 16.0001 3.58198 16.0001 7.99998Z" fill="#161719"/>
<path d="M3.33169 7.6083C3.33169 7.2391 3.63499 6.9357 4.00369 6.9357H5.13709C5.50629 6.9357 5.82249 7.2391 5.82249 7.6217V11.8962C5.95423 11.8565 6.11249 11.8168 6.29729 11.7772C6.54759 11.7113 6.73249 11.4873 6.73249 11.2229V5.9194C6.73249 5.5502 7.03589 5.2334 7.41789 5.2334H8.55139C8.92059 5.2334 9.23679 5.5367 9.23679 5.9194V10.8409C9.23679 10.8409 9.51379 10.7218 9.79039 10.6034C10.0016 10.5113 10.1334 10.3135 10.1334 10.0755V4.2049C10.1334 3.8357 10.4367 3.5189 10.806 3.5189H11.9394C12.3087 3.5189 12.612 3.8222 12.612 4.2049V9.047C13.5874 8.3347 14.5896 7.4771 15.3806 6.448C15.618 6.1447 15.6839 5.7486 15.5521 5.3793C14.1019 1.2105 9.54139 -1.0064 5.37579 0.445003C1.21009 1.8965 -1.00421 6.461 0.445393 10.6303C0.603393 11.1052 0.814593 11.5538 1.06489 11.989C1.26259 12.332 1.63189 12.5298 2.02739 12.4901C2.23859 12.4767 2.50229 12.4504 2.83119 12.4108C3.12119 12.3845 3.33229 12.1336 3.33229 11.8431L3.33169 7.6083Z" fill="#9AA0AA"/>
<path d="M3.30518 14.4687C6.87748 17.0677 11.8739 16.276 14.4703 12.7011C15.459 11.329 15.9992 9.67976 15.9992 7.99146C15.9992 7.80646 15.9857 7.62216 15.9729 7.43726C13.0604 11.8039 7.66858 13.8486 3.30518 14.4687Z" fill="#616773"/>
</g>
<defs>
<clipPath id="clip0_85271_181910">
<rect width="16" height="16" fill="white"/>
</clipPath>
</defs>
</svg>
