<svg width="16" height="16" viewBox="0 0 16 16" fill="none" xmlns="http://www.w3.org/2000/svg">
<path d="M4.84993 3.01681C4.84993 3.81524 4.2027 4.46257 3.40426 4.46257C2.60582 4.46257 1.9585 3.81524 1.9585 3.01681C1.9585 2.21837 2.60582 1.57104 3.40426 1.57104C4.2027 1.57104 4.84993 2.21837 4.84993 3.01681Z" fill="#9B9B9B"/>
<path d="M7.54088 1.5118C7.64005 1.38322 7.78623 1.29928 7.94728 1.27844C8.10832 1.2576 8.27105 1.30157 8.39969 1.40068L8.49708 1.47593C9.60675 2.33133 9.4622 4.0563 8.20141 4.69567C7.55348 5.02423 6.82311 5.38578 6.20362 5.67917L7.51874 6.85412L8.66796 6.42685C9.02768 6.2932 9.41454 6.24918 9.79509 6.29861C10.1756 6.34804 10.5384 6.48942 10.8521 6.71053L13.5079 8.58189C13.6405 8.6754 13.7306 8.81777 13.7583 8.97768C13.786 9.13759 13.7491 9.30197 13.6556 9.43466C13.4609 9.71117 13.0786 9.7781 12.802 9.58342L10.1463 7.71197C9.99524 7.60544 9.82051 7.53732 9.63722 7.5135C9.45393 7.48969 9.2676 7.5109 9.09435 7.57529L8.38858 7.83762L9.06793 8.69555C9.30651 8.99695 9.46794 9.35202 9.53822 9.72994C9.6085 10.1079 9.5855 10.4972 9.47121 10.8642L8.93458 12.5869C8.88616 12.742 8.77813 12.8715 8.63423 12.947C8.49032 13.0225 8.32234 13.0377 8.1672 12.9894C8.01225 12.941 7.88283 12.8331 7.80738 12.6894C7.73192 12.5457 7.71661 12.3779 7.76479 12.2229L8.30143 10.5002C8.35656 10.3234 8.36771 10.1358 8.3339 9.95366C8.3001 9.77153 8.22236 9.60041 8.10744 9.45514L6.93756 7.9777L4.97827 6.22595L3.63339 6.79602C3.04452 7.04565 2.91344 7.82239 3.38813 8.25114L4.10414 8.89715C4.22471 9.00612 4.29712 9.15848 4.30545 9.32078C4.31378 9.48308 4.25737 9.64205 4.14859 9.76279C4.09467 9.82243 4.02953 9.87087 3.95689 9.90534C3.88425 9.93981 3.80554 9.95964 3.72523 9.96368C3.64493 9.96773 3.56462 9.95592 3.48888 9.92893C3.41315 9.90193 3.34347 9.86029 3.28383 9.80637L2.56773 9.16035C1.42804 8.13135 1.74182 6.26708 3.15573 5.66805L4.85865 4.94688L4.8604 4.946C5.49924 4.67773 6.64558 4.11178 7.64772 3.60358C8.09397 3.37722 8.15539 2.75999 7.74939 2.44665L7.652 2.3714C7.52339 2.27207 7.43945 2.12576 7.41861 1.96459C7.39778 1.80343 7.44175 1.64058 7.54088 1.5118Z" fill="#9B9B9B"/>
<path d="M14.2865 13.3259C14.2864 13.7343 14.2865 14.1428 14.2865 14.5512C10.0954 14.551 5.90441 14.5511 1.71338 14.5512C1.71345 14.1428 1.71345 13.7343 1.7134 13.3258C5.90442 13.3269 10.0954 13.3263 14.2865 13.3259Z" fill="#9B9B9B"/>
</svg>
