<svg width="32" height="32" viewBox="0 0 32 32" fill="none" xmlns="http://www.w3.org/2000/svg">
    <path d="M5.16217 19.1622L8.32708 16L5.16217 12.8378L2 16L5.16217 19.1622Z" fill="#F0B90B" />
    <path d="M21.4189 13.7433L16 8.32161L10.5811 13.7433L7.41891 10.5811L16 2L24.5811 10.5811L21.4189 13.7433Z"
        fill="#F0B90B" />
    <path d="M23.6784 16L26.8406 12.8378L30 16L26.8406 19.1622L23.6784 16Z" fill="#F0B90B" />
    <path d="M10.5811 18.2595L16 23.6784L21.4189 18.2595L24.5811 21.4189L16 30L7.41891 21.4189L10.5811 18.2595Z"
        fill="#F0B90B" />
    <path d="M19.1622 16L16 19.1622L12.8378 16L16 12.8378L19.1622 16Z" fill="#F0B90B" />
</svg>