<svg width="32" height="32" viewBox="0 0 32 32" fill="none" xmlns="http://www.w3.org/2000/svg">
    <path
        d="M21.3333 6.3999H10.6666C6.89537 6.3999 3.19995 6.3999 3.19995 6.3999C3.19995 6.3999 3.19995 10.8953 3.19995 14.6665V17.3332C3.19995 21.1044 3.19995 25.5999 3.19995 25.5999C3.19995 25.5999 6.89537 25.5999 10.6666 25.5999H21.3333C25.1045 25.5999 28.8 25.5999 28.8 25.5999C28.8 25.5999 28.8 21.1044 28.8 17.3332V14.6665C28.8 10.8953 28.8 6.3999 28.8 6.3999C28.8 6.3999 25.1045 6.3999 21.3333 6.3999Z"
        stroke="#6CE99E" stroke-width="2" stroke-linecap="round" />
    <path d="M3.5 6.5L16 16L29 6.5" stroke="#6CE99E" stroke-width="2" />
</svg>