<svg width="26" height="25" viewBox="0 0 26 25" fill="none" xmlns="http://www.w3.org/2000/svg">
    <path d="M24.6005 0.125977L14.542 7.56852L16.4125 3.18239L24.6005 0.125977Z" fill="#E17726" />
    <path fill-rule="evenodd" clip-rule="evenodd"
        d="M24.7113 0.0659367C24.7413 0.121143 24.726 0.189979 24.6755 0.227338L14.6171 7.66989C14.5713 7.70371 14.5086 7.70273 14.464 7.66748C14.4194 7.63224 14.4039 7.57146 14.4262 7.51915L16.2966 3.13302C16.3102 3.10127 16.3362 3.07646 16.3685 3.06439L24.5565 0.00797581C24.6153 -0.0139892 24.6814 0.0107305 24.7113 0.0659367ZM16.5073 3.28161L14.8399 7.19145L23.8061 0.55709L16.5073 3.28161Z"
        fill="#E17726" />
    <path d="M1.39948 0.125977L11.3684 7.63798L9.58753 3.18238L1.39948 0.125977Z" fill="#E27625" />
    <path fill-rule="evenodd" clip-rule="evenodd"
        d="M1.28897 0.0654529C1.31906 0.0105617 1.38489 -0.0139164 1.44353 0.00797532L9.63159 3.06438C9.66486 3.0768 9.69135 3.10269 9.70453 3.13567L11.4854 7.59127C11.5064 7.64378 11.4898 7.70383 11.4449 7.73816C11.4 7.7725 11.3377 7.77271 11.2925 7.73869L1.32363 0.226679C1.27363 0.189006 1.25887 0.120344 1.28897 0.0654529ZM2.16814 0.547475L11.0839 7.26591L9.4912 3.281L2.16814 0.547475Z"
        fill="#E27625" />
    <path d="M20.9789 17.3828L18.3027 21.4713L24.0333 23.0491L25.6749 17.4722L20.9789 17.3828Z" fill="#E27625" />
    <path fill-rule="evenodd" clip-rule="evenodd"
        d="M20.8736 17.3138C20.8974 17.2776 20.9381 17.256 20.9814 17.2569L25.6774 17.3462C25.7167 17.347 25.7534 17.366 25.7766 17.3977C25.7999 17.4294 25.807 17.4701 25.7959 17.5078L24.1543 23.0847C24.1349 23.1507 24.0662 23.1889 23.9999 23.1706L18.2693 21.5928C18.2305 21.5821 18.1991 21.5535 18.1849 21.5158C18.1707 21.4782 18.1753 21.436 18.1973 21.4023L20.8736 17.3138ZM21.0463 17.5102L18.5029 21.3957L23.9475 22.8948L25.5075 17.5951L21.0463 17.5102Z"
        fill="#E27625" />
    <path d="M0.334839 17.4722L1.96647 23.0491L7.68716 21.4713L5.02081 17.3828L0.334839 17.4722Z" fill="#E27625" />
    <path fill-rule="evenodd" clip-rule="evenodd"
        d="M5.01857 17.2569C5.062 17.256 5.1028 17.2776 5.12653 17.314L7.79288 21.4025C7.81485 21.4362 7.81942 21.4783 7.80518 21.5159C7.79095 21.5535 7.75961 21.5821 7.72083 21.5928L2.00014 23.1706C1.93378 23.1889 1.86501 23.1506 1.84568 23.0845L0.214055 17.5076C0.203031 17.4699 0.210199 17.4293 0.233442 17.3976C0.256684 17.366 0.293346 17.347 0.3326 17.3462L5.01857 17.2569ZM0.502246 17.5951L2.05274 22.8947L7.48756 21.3957L4.95356 17.5102L0.502246 17.5951Z"
        fill="#E27625" />
    <path d="M7.37892 10.4761L5.78711 12.8776L11.458 13.1356L11.269 7.03271L7.37892 10.4761Z" fill="#E27625" />
    <path fill-rule="evenodd" clip-rule="evenodd"
        d="M11.3185 6.91707C11.3634 6.93644 11.393 6.98001 11.3945 7.02886L11.5835 13.1317C11.5846 13.1668 11.571 13.2008 11.546 13.2254C11.521 13.25 11.4869 13.2631 11.4519 13.2615L5.78094 13.0035C5.73559 13.0015 5.69486 12.9752 5.67431 12.9347C5.65375 12.8942 5.65655 12.8458 5.68162 12.808L7.27344 10.4065C7.2795 10.3974 7.28673 10.3891 7.29495 10.3818L11.1851 6.9384C11.2216 6.90601 11.2737 6.89769 11.3185 6.91707ZM7.47438 10.5596L6.01459 12.7619L11.3274 13.0036L11.1509 7.30519L7.47438 10.5596Z"
        fill="#E27625" />
    <path d="M18.621 10.4762L14.6713 6.96338L14.5419 13.1357L20.2128 12.8777L18.621 10.4762Z" fill="#E27625" />
    <path fill-rule="evenodd" clip-rule="evenodd"
        d="M14.6209 6.84792C14.666 6.82826 14.7183 6.83659 14.7551 6.86926L18.7048 10.3821C18.7129 10.3894 18.72 10.3976 18.726 10.4067L20.3179 12.8082C20.343 12.846 20.3458 12.8944 20.3252 12.9348C20.3047 12.9753 20.2639 13.0016 20.2186 13.0037L14.5477 13.2617C14.5129 13.2633 14.4789 13.2503 14.454 13.226C14.429 13.2016 14.4153 13.168 14.416 13.1331L14.5453 6.96078C14.5464 6.91164 14.5759 6.86758 14.6209 6.84792ZM14.7916 7.23904L14.6708 13.0038L19.9849 12.762L18.525 10.5596L14.7916 7.23904Z"
        fill="#E27625" />
    <path d="M7.68701 21.4711L11.1194 19.814L8.16458 17.5117L7.68701 21.4711Z" fill="#E27625" />
    <path fill-rule="evenodd" clip-rule="evenodd"
        d="M8.1162 17.3954C8.15814 17.378 8.20624 17.3844 8.24208 17.4124L11.1969 19.7146C11.2312 19.7414 11.2493 19.784 11.2447 19.8273C11.2401 19.8707 11.2135 19.9085 11.1742 19.9275L7.74185 21.5847C7.70036 21.6047 7.65126 21.6005 7.61378 21.5737C7.5763 21.5469 7.55643 21.5018 7.56194 21.4561L8.03951 17.4967C8.04496 17.4516 8.07425 17.4129 8.1162 17.3954ZM8.26304 17.7482L7.83976 21.2575L10.8819 19.7887L8.26304 17.7482Z"
        fill="#E27625" />
    <path d="M14.8804 19.814L18.3028 21.4711L17.8352 17.5117L14.8804 19.814Z" fill="#E27625" />
    <path fill-rule="evenodd" clip-rule="evenodd"
        d="M17.8837 17.3955C17.9257 17.413 17.955 17.4518 17.9603 17.497L18.4279 21.4564C18.4333 21.5021 18.4134 21.5471 18.3759 21.5738C18.3384 21.6005 18.2893 21.6047 18.2478 21.5846L14.8254 19.9274C14.7862 19.9084 14.7596 19.8706 14.755 19.8273C14.7505 19.784 14.7685 19.7414 14.8029 19.7146L17.7577 17.4124C17.7936 17.3844 17.8417 17.3779 17.8837 17.3955ZM15.1176 19.7889L18.1506 21.2575L17.7362 17.7486L15.1176 19.7889Z"
        fill="#E27625" />
    <path d="M18.3028 21.4714L14.8804 19.8142L15.1589 22.037L15.129 22.9798L18.3028 21.4714Z" fill="#D5BFB2" />
    <path fill-rule="evenodd" clip-rule="evenodd"
        d="M14.8069 19.7119C14.8444 19.6849 14.8937 19.6807 14.9353 19.7008L18.3577 21.358C18.4013 21.3791 18.429 21.4234 18.4288 21.4719C18.4286 21.5204 18.4006 21.5644 18.3569 21.5852L15.1831 23.0936C15.1434 23.1125 15.0968 23.1093 15.06 23.0853C15.0233 23.0612 15.0017 23.0197 15.0031 22.9758L15.0326 22.0429L14.7553 19.8299C14.7496 19.7841 14.7694 19.7388 14.8069 19.7119ZM15.0342 20.0288L15.2839 22.0214C15.2847 22.0279 15.285 22.0345 15.2848 22.0411L15.2615 22.7773L18.0114 21.4704L15.0342 20.0288Z"
        fill="#D5BFB2" />
    <path d="M7.68701 21.4714L10.8707 22.9798L10.8508 22.037L11.1194 19.8142L7.68701 21.4714Z" fill="#D5BFB2" />
    <path fill-rule="evenodd" clip-rule="evenodd"
        d="M11.1927 19.7117C11.2302 19.7385 11.2501 19.7836 11.2445 19.8294L10.977 22.0433L10.9967 22.9771C10.9977 23.0208 10.9759 23.0618 10.9393 23.0856C10.9026 23.1093 10.8563 23.1124 10.8168 23.0937L7.6331 21.5853C7.58924 21.5645 7.56121 21.5204 7.56104 21.4719C7.56086 21.4234 7.58856 21.379 7.63226 21.3579L11.0646 19.7008C11.1061 19.6807 11.1552 19.6849 11.1927 19.7117ZM7.97911 21.4704L10.7405 22.7786L10.7249 22.0397C10.7247 22.0338 10.725 22.0278 10.7257 22.022L10.9667 20.0279L7.97911 21.4704Z"
        fill="#D5BFB2" />
    <path d="M10.9304 16.0433L8.08496 15.2098L10.0946 14.2869L10.9304 16.0433Z" fill="#233447" />
    <path fill-rule="evenodd" clip-rule="evenodd"
        d="M10.0421 14.1722C10.1047 14.1434 10.1789 14.1703 10.2085 14.2325L11.0442 15.989C11.0656 16.0338 11.0586 16.0871 11.0263 16.1249C10.9941 16.1627 10.9427 16.178 10.895 16.1641L8.04958 15.3305C7.99912 15.3157 7.96314 15.2712 7.95932 15.2188C7.9555 15.1663 7.98463 15.117 8.03241 15.0951L10.0421 14.1722ZM8.44395 15.1834L10.6957 15.843L10.0343 14.4531L8.44395 15.1834Z"
        fill="#233447" />
    <path d="M15.0694 16.0433L15.9051 14.2869L17.9248 15.2098L15.0694 16.0433Z" fill="#233447" />
    <path fill-rule="evenodd" clip-rule="evenodd"
        d="M15.7913 14.2325C15.8209 14.1704 15.8949 14.1435 15.9575 14.1721L17.9771 15.095C18.025 15.1169 18.0543 15.1662 18.0505 15.2187C18.0467 15.2712 18.0106 15.3158 17.9601 15.3306L15.1047 16.1641C15.057 16.178 15.0056 16.1626 14.9734 16.1248C14.9412 16.087 14.9342 16.0338 14.9556 15.989L15.7913 14.2325ZM15.9656 14.4529L15.304 15.8434L17.5645 15.1835L15.9656 14.4529Z"
        fill="#233447" />
    <path d="M7.6873 21.4713L8.18479 17.3828L5.021 17.4722L7.6873 21.4713Z" fill="#CC6228" />
    <path fill-rule="evenodd" clip-rule="evenodd"
        d="M8.27797 17.298C8.30269 17.3251 8.31435 17.3616 8.30992 17.3981L7.81244 21.4865C7.80607 21.5389 7.76779 21.5817 7.7165 21.5939C7.66521 21.6061 7.61174 21.5851 7.5825 21.5412L4.91619 17.5421C4.89076 17.504 4.88805 17.4551 4.9091 17.4143C4.93016 17.3736 4.97166 17.3476 5.01748 17.3463L8.18127 17.2569C8.21795 17.2559 8.25326 17.2709 8.27797 17.298ZM5.2522 17.5918L7.60337 21.1182L8.04205 17.513L5.2522 17.5918Z"
        fill="#CC6228" />
    <path d="M17.8154 17.3828L18.303 21.4713L20.9792 17.4722L17.8154 17.3828Z" fill="#CC6228" />
    <path fill-rule="evenodd" clip-rule="evenodd"
        d="M17.7224 17.2979C17.7471 17.2708 17.7824 17.2559 17.819 17.2569L20.9828 17.3463C21.0287 17.3476 21.0702 17.3737 21.0912 17.4144C21.1123 17.4552 21.1095 17.5042 21.084 17.5423L18.4077 21.5414C18.3784 21.5852 18.3249 21.6061 18.2736 21.5938C18.2223 21.5815 18.1841 21.5386 18.1779 21.4862L17.6903 17.3978C17.686 17.3614 17.6977 17.3249 17.7224 17.2979ZM17.9579 17.5129L18.3878 21.118L20.7476 17.5918L17.9579 17.5129Z"
        fill="#CC6228" />
    <path d="M20.2128 12.8774L14.5419 13.1354L15.0692 16.0431L15.905 14.2866L17.9246 15.2095L20.2128 12.8774Z"
        fill="#CC6228" />
    <path fill-rule="evenodd" clip-rule="evenodd"
        d="M20.3279 12.8261C20.349 12.8734 20.3391 12.9288 20.3028 12.9657L18.0146 15.2978C17.9774 15.3356 17.9205 15.3462 17.8723 15.3241L15.9655 14.4528L15.183 16.0973C15.1595 16.1467 15.1068 16.1752 15.0526 16.168C14.9984 16.1608 14.955 16.1194 14.9453 16.0656L14.418 13.158C14.4115 13.1222 14.4208 13.0854 14.4434 13.0569C14.4661 13.0285 14.4999 13.0113 14.5362 13.0096L20.2071 12.7516C20.2589 12.7492 20.3068 12.7788 20.3279 12.8261ZM14.6917 13.2548L15.1235 15.6359L15.7912 14.2325C15.8208 14.1703 15.8948 14.1434 15.9574 14.172L17.8966 15.0581L19.8985 13.0179L14.6917 13.2548Z"
        fill="#CC6228" />
    <path d="M8.08532 15.2097L10.095 14.2868L10.9308 16.0433L11.458 13.1357L5.78711 12.8777L8.08532 15.2097Z"
        fill="#CC6228" />
    <path fill-rule="evenodd" clip-rule="evenodd"
        d="M5.67155 12.8262C5.69265 12.7788 5.7406 12.7492 5.79239 12.7516L11.4633 13.0096C11.4996 13.0113 11.5335 13.0285 11.5561 13.0569C11.5788 13.0854 11.5881 13.1222 11.5816 13.158L11.0543 16.0656C11.0445 16.1194 11.0012 16.1608 10.9469 16.168C10.8927 16.1752 10.84 16.1467 10.8165 16.0973L10.0342 14.453L8.13747 15.324C8.08926 15.3462 8.03236 15.3357 7.99512 15.298L5.69691 12.9659C5.66052 12.929 5.65046 12.8736 5.67155 12.8262ZM6.10206 13.018L8.1126 15.0581L10.042 14.1721C10.1046 14.1433 10.1787 14.1702 10.2084 14.2325L10.8761 15.6359L11.3079 13.2548L6.10206 13.018Z"
        fill="#CC6228" />
    <path d="M5.78711 12.8774L8.16494 17.5117L8.08529 15.2095L5.78711 12.8774Z" fill="#E27525" />
    <path fill-rule="evenodd" clip-rule="evenodd"
        d="M5.71326 12.7754C5.76368 12.7389 5.83318 12.7447 5.87686 12.789L8.17504 15.1211C8.19722 15.1436 8.21013 15.1736 8.21122 15.2052L8.29087 17.5074C8.29291 17.5664 8.25375 17.6189 8.19663 17.6337C8.13952 17.6486 8.07975 17.6218 8.05281 17.5693L5.67498 12.935C5.64657 12.8796 5.66283 12.8118 5.71326 12.7754ZM6.27476 13.5519L8.01948 16.9522L7.96104 15.263L6.27476 13.5519Z"
        fill="#E27525" />
    <path d="M17.925 15.2097L17.8354 17.5119L20.2133 12.8777L17.925 15.2097Z" fill="#E27525" />
    <path fill-rule="evenodd" clip-rule="evenodd"
        d="M20.2866 12.7753C20.3371 12.8117 20.3534 12.8796 20.3249 12.935L17.9471 17.5693C17.9201 17.6219 17.8602 17.6486 17.803 17.6336C17.7459 17.6186 17.7068 17.5659 17.7091 17.5068L17.7986 15.2046C17.7998 15.1733 17.8126 15.1436 17.8346 15.1212L20.1229 12.7892C20.1665 12.7448 20.236 12.7388 20.2866 12.7753ZM18.0486 15.263L17.9831 16.9471L19.7224 13.5572L18.0486 15.263Z"
        fill="#E27525" />
    <path d="M11.458 13.1355L10.9307 16.0431L11.5972 19.4766L11.7465 14.9515L11.458 13.1355Z" fill="#E27525" />
    <path fill-rule="evenodd" clip-rule="evenodd"
        d="M11.4594 13.0095C11.5209 13.0102 11.5729 13.0551 11.5825 13.1158L11.871 14.9318C11.8723 14.9397 11.8728 14.9477 11.8725 14.9557L11.7232 19.4808C11.7211 19.5448 11.6712 19.5971 11.6073 19.6022C11.5433 19.6073 11.4858 19.5636 11.4736 19.5006L10.807 16.0672C10.804 16.0518 10.8039 16.0361 10.8067 16.0207L11.3341 13.1131C11.345 13.0526 11.398 13.0089 11.4594 13.0095ZM11.0589 16.0424L11.5082 18.3563L11.6202 14.9594L11.4498 13.887L11.0589 16.0424Z"
        fill="#E27525" />
    <path d="M14.5423 13.1355L14.2637 14.9416L14.403 19.4766L15.0696 16.0431L14.5423 13.1355Z" fill="#E27525" />
    <path fill-rule="evenodd" clip-rule="evenodd"
        d="M14.5407 13.0095C14.6022 13.0087 14.6553 13.0525 14.6663 13.1131L15.1936 16.0207C15.1964 16.0361 15.1963 16.0518 15.1933 16.0672L14.5267 19.5006C14.5145 19.5636 14.4569 19.6074 14.3929 19.6022C14.3289 19.597 14.279 19.5446 14.2771 19.4805L14.1378 14.9455C14.1375 14.9378 14.138 14.9301 14.1392 14.9225L14.4178 13.1163C14.4272 13.0555 14.4791 13.0103 14.5407 13.0095ZM14.5524 13.8971L14.39 14.9494L14.4943 18.345L14.9414 16.0424L14.5524 13.8971Z"
        fill="#E27525" />
    <path d="M15.0694 16.0433L14.4028 19.4768L14.8804 19.8142L17.8353 17.5119L17.9248 15.2097L15.0694 16.0433Z"
        fill="#F5841F" />
    <path fill-rule="evenodd" clip-rule="evenodd"
        d="M18.0023 15.1104C18.0343 15.1354 18.0523 15.1742 18.0507 15.2147L17.9612 17.5169C17.9597 17.554 17.942 17.5886 17.9127 17.6114L14.9578 19.9136C14.914 19.9478 14.853 19.9492 14.8077 19.9171L14.3301 19.5797C14.2896 19.5511 14.2697 19.5014 14.2791 19.4528L14.9457 16.0193C14.9547 15.973 14.9888 15.9356 15.0341 15.9224L17.8895 15.0888C17.9284 15.0774 17.9704 15.0855 18.0023 15.1104ZM15.1785 16.1428L14.542 19.4209L14.8767 19.6573L17.7116 17.4486L17.7921 15.3798L15.1785 16.1428Z"
        fill="#F5841F" />
    <path d="M8.08496 15.2097L8.16461 17.5119L11.1194 19.8142L11.597 19.4768L10.9304 16.0433L8.08496 15.2097Z"
        fill="#F5841F" />
    <path fill-rule="evenodd" clip-rule="evenodd"
        d="M8.00772 15.1102C8.03968 15.0854 8.0816 15.0774 8.12043 15.0888L10.9659 15.9224C11.0111 15.9357 11.0452 15.9731 11.0541 16.0193L11.7207 19.4528C11.7302 19.5014 11.7102 19.5511 11.6697 19.5797L11.1922 19.9171C11.1468 19.9492 11.0858 19.9478 11.042 19.9136L8.0872 17.6114C8.05775 17.5885 8.04 17.5536 8.03871 17.5163L7.95906 15.2141C7.95766 15.1737 7.97576 15.135 8.00772 15.1102ZM8.21698 15.3797L8.28855 17.4488L11.1231 19.6573L11.4578 19.4209L10.8214 16.1427L8.21698 15.3797Z"
        fill="#F5841F" />
    <path
        d="M15.1289 22.9796L15.1587 22.0368L14.9 21.8185H11.0995L10.8508 22.0368L10.8707 22.9796L7.68701 21.4712L8.80129 22.3841L11.0597 23.9421H14.9298L17.1982 22.3841L18.3025 21.4712L15.1289 22.9796Z"
        fill="#C0AC9D" />
    <path fill-rule="evenodd" clip-rule="evenodd"
        d="M7.58059 21.4038C7.61465 21.35 7.68348 21.3301 7.74101 21.3574L10.7405 22.7784L10.7249 22.0396C10.7241 22.0024 10.7398 21.9667 10.7677 21.9422L11.0165 21.7238C11.0394 21.7037 11.069 21.6925 11.0996 21.6925H14.9001C14.9298 21.6925 14.9586 21.7031 14.9814 21.7223L15.24 21.9406C15.2694 21.9654 15.2859 22.0024 15.2847 22.0409L15.2614 22.7771L18.2485 21.3574C18.3059 21.3301 18.3747 21.3499 18.4089 21.4035C18.443 21.4572 18.4319 21.5279 18.3829 21.5684L17.2699 22.4885L15.0012 24.0461C14.9802 24.0605 14.9554 24.0682 14.9299 24.0682H11.0598C11.0342 24.0682 11.0092 24.0604 10.9882 24.0459L8.7212 22.482L7.60719 21.5687C7.55795 21.5284 7.54653 21.4576 7.58059 21.4038ZM8.56211 22.0253L8.87718 22.2834L11.099 23.8162H14.8908L17.1223 22.2835L17.4403 22.0206L15.183 23.0934C15.1433 23.1123 15.0967 23.1091 15.0599 23.0851C15.0232 23.061 15.0016 23.0196 15.003 22.9756L15.0308 22.0938L14.854 21.9446H11.1471L10.9781 22.0929L10.9968 22.977C10.9977 23.0206 10.9759 23.0617 10.9393 23.0854C10.9026 23.1091 10.8563 23.1122 10.8168 23.0935L8.56211 22.0253Z"
        fill="#C0AC9D" />
    <path
        d="M14.8803 19.8139L14.4028 19.4766H11.5972L11.1197 19.8139L10.851 22.0368L11.0998 21.8185H14.9003L15.1589 22.0368L14.8803 19.8139Z"
        fill="#161616" />
    <path fill-rule="evenodd" clip-rule="evenodd"
        d="M11.5246 19.3737C11.5458 19.3587 11.5712 19.3506 11.5973 19.3506H14.4029C14.4289 19.3506 14.4543 19.3587 14.4756 19.3737L14.9532 19.711C14.9821 19.7315 15.0011 19.7631 15.0055 19.7983L15.2841 22.0212C15.2905 22.0727 15.2648 22.1228 15.2192 22.1476C15.1736 22.1724 15.1174 22.1666 15.0778 22.1331L14.8543 21.9445H11.1473L10.9343 22.1316C10.895 22.166 10.8385 22.1727 10.7923 22.1483C10.7461 22.1239 10.7197 22.0736 10.726 22.0217L10.9947 19.7988C10.9989 19.7635 11.018 19.7316 11.0471 19.711L11.5246 19.3737ZM11.6373 19.6026L11.2382 19.8846L11.0158 21.7246L11.0167 21.7238C11.0397 21.7036 11.0693 21.6925 11.0999 21.6925H14.9004C14.9301 21.6925 14.9589 21.703 14.9816 21.7222L14.9939 21.7326L14.7623 19.8848L14.3629 19.6026H11.6373Z"
        fill="#161616" />
    <path
        d="M25.0283 8.05475L25.874 3.94649L24.6005 0.125977L14.8804 7.32047L18.6211 10.4761L23.904 12.0142L25.0681 10.6547L24.5607 10.2875L25.3666 9.55325L24.7498 9.0769L25.5556 8.46163L25.0283 8.05475Z"
        fill="#763E1A" />
    <path fill-rule="evenodd" clip-rule="evenodd"
        d="M24.6384 0.00585258C24.6769 0.0180105 24.7073 0.0478731 24.72 0.0861687L25.9935 3.90668C26.0005 3.92771 26.0019 3.95022 25.9974 3.97194L25.1676 8.0031L25.6326 8.3619C25.6636 8.38583 25.6817 8.42282 25.6816 8.462C25.6815 8.50117 25.6632 8.53807 25.6321 8.56184L24.9566 9.07752L25.4436 9.45355C25.473 9.47631 25.4909 9.51095 25.4924 9.54816C25.494 9.58537 25.4789 9.62135 25.4514 9.64643L24.7601 10.2763L25.142 10.5527C25.1705 10.5733 25.1891 10.605 25.1932 10.6399C25.1974 10.6749 25.1867 10.71 25.1638 10.7367L23.9998 12.0962C23.9676 12.1338 23.9163 12.1491 23.8688 12.1353L18.5859 10.5971C18.569 10.5922 18.5533 10.5838 18.5399 10.5724L14.7991 7.41684C14.7696 7.39199 14.7532 7.35503 14.7544 7.31651C14.7556 7.27799 14.7744 7.24215 14.8054 7.21922L24.5255 0.0247285C24.5579 0.000712904 24.5999 -0.00630539 24.6384 0.00585258ZM15.0834 7.32697L18.682 10.3626L23.8612 11.8706L24.8834 10.6767L24.4868 10.3896C24.4561 10.3674 24.437 10.3325 24.4349 10.2946C24.4328 10.2568 24.4478 10.22 24.4758 10.1944L25.1707 9.56126L24.6727 9.17668C24.6417 9.15274 24.6236 9.11576 24.6237 9.07659C24.6238 9.03743 24.6421 9.00054 24.6733 8.97678L25.3486 8.46115L24.9513 8.15456C24.9132 8.12514 24.8951 8.07656 24.9048 8.02938L25.7437 3.95427L24.5358 0.330636L15.0834 7.32697Z"
        fill="#763E1A" />
    <path
        d="M0.126465 3.94722L0.982079 8.05548L0.434887 8.46237L1.2507 9.07763L0.633864 9.55398L1.43973 10.2883L0.932331 10.6555L2.09637 12.015L7.37932 10.4768L11.1201 7.32121L1.39994 0.126709L0.126465 3.94722Z"
        fill="#763E1A" />
    <path fill-rule="evenodd" clip-rule="evenodd"
        d="M1.36154 0.00585271C1.40003 -0.00630542 1.44202 0.000712789 1.47446 0.0247284L11.1946 7.21922C11.2256 7.24215 11.2444 7.27799 11.2456 7.31651C11.2468 7.35503 11.2303 7.39199 11.2009 7.41684L7.46013 10.5724C7.44667 10.5838 7.43099 10.5922 7.4141 10.5971L2.13115 12.1353C2.08362 12.1491 2.03239 12.1338 2.0002 12.0962L0.83616 10.7367C0.813261 10.71 0.802595 10.6749 0.806744 10.6399C0.810893 10.605 0.829479 10.5733 0.858001 10.5527L1.23986 10.2763L0.548543 9.64644C0.521013 9.62135 0.505989 9.58538 0.507504 9.54816C0.509019 9.51095 0.526917 9.47631 0.556394 9.45355L1.04254 9.07813L0.358561 8.56229C0.326866 8.53839 0.308288 8.50095 0.308423 8.46125C0.308557 8.42155 0.327389 8.38424 0.359245 8.36055L0.841851 8.00169L0.00264721 3.97222C-0.00189331 3.95042 -0.000575479 3.92781 0.00646655 3.90668L1.27994 0.0861694C1.2927 0.0478736 1.32304 0.0180108 1.36154 0.00585271ZM1.46412 0.330637L0.256321 3.95412L1.105 8.0291C1.11501 8.07714 1.09621 8.12663 1.05683 8.15592L0.644672 8.46239L1.32613 8.97633C1.3575 8.99999 1.37605 9.03693 1.37627 9.07622C1.37649 9.11552 1.35838 9.15267 1.32728 9.17668L0.829273 9.56126L1.52416 10.1944C1.55219 10.22 1.56723 10.2568 1.5651 10.2946C1.56297 10.3325 1.54389 10.3674 1.51317 10.3897L1.11655 10.6767L2.13876 11.8706L7.31802 10.3626L10.9165 7.32697L1.46412 0.330637Z"
        fill="#763E1A" />
    <path d="M23.9043 12.0142L18.6214 10.4761L20.2133 12.8776L17.8354 17.5117L20.9793 17.4721H25.6752L23.9043 12.0142Z"
        fill="#F5841F" />
    <path fill-rule="evenodd" clip-rule="evenodd"
        d="M18.5195 10.4014C18.5508 10.3588 18.6054 10.3403 18.6562 10.3551L23.9391 11.8932C23.9792 11.9049 24.0109 11.9356 24.0238 11.9753L25.7947 17.4332C25.8071 17.4716 25.8004 17.5136 25.7767 17.5462C25.753 17.5788 25.7151 17.5981 25.6748 17.5981H20.9797L17.8366 17.6378C17.7924 17.6384 17.7512 17.6157 17.7279 17.5782C17.7046 17.5406 17.7027 17.4936 17.7229 17.4543L20.067 12.8857L18.5159 10.5457C18.4867 10.5017 18.4881 10.444 18.5195 10.4014ZM18.9161 10.6933L20.3179 12.808C20.343 12.846 20.3457 12.8946 20.3249 12.9351L18.0427 17.3831L20.9789 17.3461L25.5014 17.3461L23.8046 12.1166L18.9161 10.6933Z"
        fill="#F5841F" />
    <path d="M7.37869 10.4761L2.09581 12.0142L0.334839 17.4721H5.02081L8.16466 17.5117L5.78688 12.8776L7.37869 10.4761Z"
        fill="#F5841F" />
    <path fill-rule="evenodd" clip-rule="evenodd"
        d="M7.48035 10.4014C7.5117 10.444 7.51311 10.5017 7.48389 10.5457L5.93285 12.8857L8.27694 17.4543C8.29712 17.4936 8.29522 17.5406 8.27195 17.5782C8.24867 17.6157 8.20742 17.6384 8.16323 17.6378L5.02019 17.5981H0.335003C0.29471 17.5981 0.256846 17.5789 0.233129 17.5463C0.209412 17.5137 0.202701 17.4718 0.215073 17.4334L1.97604 11.9755C1.98888 11.9357 2.02061 11.9049 2.06074 11.8932L7.34363 10.3551C7.3944 10.3403 7.44901 10.3588 7.48035 10.4014ZM2.19538 12.1165L0.508077 17.3461H5.02257L7.95718 17.3831L5.67493 12.9351C5.65412 12.8946 5.65683 12.846 5.68201 12.808L7.08371 10.6933L2.19538 12.1165Z"
        fill="#F5841F" />
    <path
        d="M14.5421 13.1356L14.8803 7.3204L16.4124 3.18237H9.58746L11.1196 7.3204L11.4578 13.1356L11.5872 14.9614L11.5971 19.4766H14.4028L14.4127 14.9614L14.5421 13.1356Z"
        fill="#F5841F" />
    <path fill-rule="evenodd" clip-rule="evenodd"
        d="M9.48402 3.11042C9.50758 3.07657 9.54621 3.0564 9.58744 3.0564H16.4124C16.4537 3.0564 16.4923 3.07657 16.5159 3.11042C16.5394 3.14427 16.5449 3.1875 16.5306 3.22617L15.005 7.34654L14.6678 13.1445L14.5387 14.9661L14.5288 19.4769C14.5286 19.5464 14.4722 19.6027 14.4027 19.6027H11.5971C11.5276 19.6027 11.4713 19.5464 11.4711 19.4769L11.4612 14.9661L11.3321 13.1445L11.332 13.1429L10.9948 7.34654L9.46927 3.22617C9.45495 3.1875 9.46046 3.14427 9.48402 3.11042ZM9.76848 3.30843L11.2377 7.27668C11.2421 7.28838 11.2446 7.30066 11.2454 7.31312L11.5835 13.1267L11.5836 13.1283L11.7135 14.9612L11.7229 19.3506H14.277L14.2867 14.9526L14.4162 13.1283L14.4163 13.1267L14.7545 7.31312C14.7552 7.30066 14.7578 7.28838 14.7621 7.27668L16.2314 3.30843H9.76848Z"
        fill="#F5841F" />
</svg>