<svg width="32" height="32" viewBox="0 0 32 32" fill="none" xmlns="http://www.w3.org/2000/svg">
    <path d="M27.6005 4.09595L17.542 11.5385L19.4125 7.15236L27.6005 4.09595Z" fill="#E17726" />
    <path fill-rule="evenodd" clip-rule="evenodd"
        d="M27.7113 4.03591C27.7412 4.09111 27.726 4.15995 27.6755 4.19731L17.617 11.6399C17.5713 11.6737 17.5086 11.6727 17.4639 11.6375C17.4193 11.6022 17.4038 11.5414 17.4261 11.4891L19.2966 7.10299C19.3101 7.07124 19.3361 7.04643 19.3684 7.03436L27.5564 3.97795C27.6153 3.95598 27.6813 3.9807 27.7113 4.03591ZM19.5072 7.25158L17.8399 11.1614L26.8061 4.52706L19.5072 7.25158Z"
        fill="#E17726" />
    <path d="M4.39941 4.09595L14.3683 11.608L12.5875 7.15235L4.39941 4.09595Z" fill="#E27625" />
    <path fill-rule="evenodd" clip-rule="evenodd"
        d="M4.28897 4.03542C4.31906 3.98053 4.38489 3.95605 4.44353 3.97795L12.6316 7.03435C12.6649 7.04677 12.6914 7.07266 12.7045 7.10564L14.4854 11.5612C14.5064 11.6137 14.4898 11.6738 14.4449 11.7081C14.4 11.7425 14.3377 11.7427 14.2925 11.7087L4.32363 4.19665C4.27363 4.15898 4.25887 4.09031 4.28897 4.03542ZM5.16814 4.51745L14.0839 11.2359L12.4912 7.25097L5.16814 4.51745Z"
        fill="#E27625" />
    <path d="M23.979 21.3528L21.3027 25.4412L27.0333 27.0191L28.675 21.4422L23.979 21.3528Z" fill="#E27625" />
    <path fill-rule="evenodd" clip-rule="evenodd"
        d="M23.8736 21.2838C23.8974 21.2475 23.9381 21.226 23.9814 21.2268L28.6774 21.3162C28.7167 21.317 28.7534 21.336 28.7766 21.3677C28.7999 21.3994 28.807 21.4401 28.7959 21.4778L27.1543 27.0547C27.1349 27.1206 27.0662 27.1589 26.9999 27.1406L21.2693 25.5628C21.2305 25.5521 21.1991 25.5235 21.1849 25.4858C21.1707 25.4481 21.1753 25.4059 21.1973 25.3723L23.8736 21.2838ZM24.0463 21.4801L21.5029 25.3657L26.9475 26.8647L28.5075 21.565L24.0463 21.4801Z"
        fill="#E27625" />
    <path d="M3.33496 21.4422L4.96659 27.0191L10.6873 25.4412L8.02093 21.3528L3.33496 21.4422Z" fill="#E27625" />
    <path fill-rule="evenodd" clip-rule="evenodd"
        d="M8.01857 21.2268C8.062 21.226 8.1028 21.2476 8.12653 21.284L10.7929 25.3724C10.8149 25.4061 10.8194 25.4483 10.8052 25.4859C10.7909 25.5235 10.7596 25.5521 10.7208 25.5628L5.00014 27.1406C4.93378 27.1589 4.86501 27.1206 4.84568 27.0545L3.21406 21.4776C3.20303 21.4399 3.2102 21.3992 3.23344 21.3676C3.25668 21.336 3.29335 21.317 3.3326 21.3162L8.01857 21.2268ZM3.50225 21.565L5.05274 26.8646L10.4876 25.3657L7.95356 21.4802L3.50225 21.565Z"
        fill="#E27625" />
    <path d="M10.3789 14.4461L8.78711 16.8476L14.458 17.1056L14.269 11.0027L10.3789 14.4461Z" fill="#E27625" />
    <path fill-rule="evenodd" clip-rule="evenodd"
        d="M14.3185 10.887C14.3634 10.9064 14.393 10.95 14.3945 10.9988L14.5835 17.1017C14.5846 17.1368 14.571 17.1707 14.546 17.1954C14.521 17.22 14.4869 17.2331 14.4519 17.2315L8.78094 16.9735C8.73559 16.9714 8.69486 16.9451 8.67431 16.9047C8.65375 16.8642 8.65655 16.8158 8.68162 16.778L10.2734 14.3765C10.2795 14.3674 10.2867 14.359 10.2949 14.3518L14.1851 10.9084C14.2216 10.876 14.2737 10.8677 14.3185 10.887ZM10.4744 14.5295L9.01459 16.7318L14.3274 16.9735L14.1509 11.2752L10.4744 14.5295Z"
        fill="#E27625" />
    <path d="M21.621 14.4462L17.6713 10.9333L17.542 17.1057L23.2129 16.8477L21.621 14.4462Z" fill="#E27625" />
    <path fill-rule="evenodd" clip-rule="evenodd"
        d="M17.621 10.8179C17.666 10.7982 17.7184 10.8066 17.7551 10.8392L21.7048 14.3521C21.7129 14.3593 21.7201 14.3676 21.7261 14.3766L23.318 16.7781C23.343 16.816 23.3458 16.8643 23.3253 16.9048C23.3047 16.9453 23.264 16.9716 23.2186 16.9736L17.5478 17.2316C17.5129 17.2332 17.479 17.2203 17.454 17.1959C17.4291 17.1716 17.4153 17.138 17.416 17.1031L17.5454 10.9308C17.5464 10.8816 17.5759 10.8376 17.621 10.8179ZM17.7917 11.209L17.6708 16.9737L22.985 16.732L21.5251 14.5295L17.7917 11.209Z"
        fill="#E27625" />
    <path d="M10.687 25.4411L14.1194 23.7839L11.1646 21.4817L10.687 25.4411Z" fill="#E27625" />
    <path fill-rule="evenodd" clip-rule="evenodd"
        d="M11.1162 21.3654C11.1581 21.3479 11.2062 21.3544 11.2421 21.3823L14.1969 23.6846C14.2312 23.7113 14.2493 23.754 14.2447 23.7973C14.2401 23.8406 14.2135 23.8785 14.1742 23.8974L10.7418 25.5546C10.7004 25.5747 10.6513 25.5704 10.6138 25.5437C10.5763 25.5169 10.5564 25.4718 10.5619 25.426L11.0395 21.4666C11.045 21.4215 11.0743 21.3828 11.1162 21.3654ZM11.263 21.7182L10.8398 25.2275L13.8819 23.7587L11.263 21.7182Z"
        fill="#E27625" />
    <path d="M17.8804 23.7839L21.3028 25.4411L20.8352 21.4817L17.8804 23.7839Z" fill="#E27625" />
    <path fill-rule="evenodd" clip-rule="evenodd"
        d="M20.8838 21.3655C20.9258 21.383 20.955 21.4218 20.9604 21.467L21.428 25.4264C21.4334 25.4721 21.4134 25.5171 21.3759 25.5438C21.3384 25.5705 21.2893 25.5746 21.2479 25.5546L17.8255 23.8974C17.7863 23.8784 17.7597 23.8405 17.7551 23.7972C17.7505 23.7539 17.7686 23.7113 17.803 23.6846L20.7578 21.3823C20.7936 21.3544 20.8418 21.3479 20.8838 21.3655ZM18.1177 23.7588L21.1507 25.2275L20.7363 21.7186L18.1177 23.7588Z"
        fill="#E27625" />
    <path d="M21.3028 25.4414L17.8804 23.7842L18.1589 26.007L18.129 26.9497L21.3028 25.4414Z" fill="#D5BFB2" />
    <path fill-rule="evenodd" clip-rule="evenodd"
        d="M17.807 23.6818C17.8445 23.6549 17.8938 23.6507 17.9353 23.6708L21.3577 25.328C21.4014 25.3491 21.429 25.3934 21.4288 25.4419C21.4287 25.4903 21.4007 25.5344 21.3569 25.5552L18.1832 27.0636C18.1435 27.0825 18.0968 27.0793 18.0601 27.0552C18.0233 27.0312 18.0017 26.9897 18.0031 26.9458L18.0327 26.0129L17.7554 23.7999C17.7496 23.7541 17.7694 23.7087 17.807 23.6818ZM18.0343 23.9987L18.284 25.9914C18.2848 25.9979 18.2851 26.0045 18.2849 26.011L18.2616 26.7473L21.0115 25.4403L18.0343 23.9987Z"
        fill="#D5BFB2" />
    <path d="M10.687 25.4414L13.8707 26.9497L13.8508 26.007L14.1194 23.7842L10.687 25.4414Z" fill="#D5BFB2" />
    <path fill-rule="evenodd" clip-rule="evenodd"
        d="M14.1927 23.6817C14.2302 23.7085 14.2501 23.7536 14.2445 23.7993L13.977 26.0133L13.9967 26.9471C13.9977 26.9908 13.9759 27.0318 13.9393 27.0555C13.9026 27.0793 13.8563 27.0824 13.8168 27.0637L10.6331 25.5553C10.5892 25.5345 10.5612 25.4904 10.561 25.4419C10.5609 25.3933 10.5886 25.349 10.6323 25.3279L14.0646 23.6707C14.1061 23.6507 14.1552 23.6549 14.1927 23.6817ZM10.9791 25.4403L13.7405 26.7486L13.7249 26.0097C13.7247 26.0038 13.725 25.9978 13.7257 25.9919L13.9667 23.9979L10.9791 25.4403Z"
        fill="#D5BFB2" />
    <path d="M13.9304 20.0133L11.085 19.1797L13.0946 18.2568L13.9304 20.0133Z" fill="#233447" />
    <path fill-rule="evenodd" clip-rule="evenodd"
        d="M13.0421 18.1421C13.1047 18.1134 13.1789 18.1403 13.2085 18.2025L14.0442 19.9589C14.0656 20.0038 14.0586 20.057 14.0263 20.0948C13.9941 20.1326 13.9427 20.148 13.895 20.134L11.0496 19.3005C10.9991 19.2857 10.9631 19.2412 10.9593 19.1887C10.9555 19.1363 10.9846 19.087 11.0324 19.065L13.0421 18.1421ZM11.4439 19.1534L13.6957 19.813L13.0343 18.4231L11.4439 19.1534Z"
        fill="#233447" />
    <path d="M18.0693 20.0133L18.9051 18.2568L20.9247 19.1797L18.0693 20.0133Z" fill="#233447" />
    <path fill-rule="evenodd" clip-rule="evenodd"
        d="M18.7913 18.2025C18.8209 18.1404 18.8949 18.1134 18.9575 18.142L20.9771 19.0649C21.025 19.0868 21.0543 19.1362 21.0505 19.1887C21.0467 19.2412 21.0106 19.2858 20.9601 19.3005L18.1047 20.1341C18.057 20.148 18.0056 20.1326 17.9734 20.0948C17.9412 20.057 17.9342 20.0038 17.9556 19.9589L18.7913 18.2025ZM18.9656 18.4229L18.304 19.8133L20.5645 19.1535L18.9656 18.4229Z"
        fill="#233447" />
    <path d="M10.6873 25.4412L11.1848 21.3528L8.021 21.4422L10.6873 25.4412Z" fill="#CC6228" />
    <path fill-rule="evenodd" clip-rule="evenodd"
        d="M11.278 21.2679C11.3027 21.2951 11.3144 21.3316 11.3099 21.368L10.8124 25.4565C10.8061 25.5088 10.7678 25.5517 10.7165 25.5639C10.6652 25.5761 10.6117 25.555 10.5825 25.5112L7.91619 21.5121C7.89076 21.474 7.88805 21.425 7.9091 21.3843C7.93016 21.3436 7.97166 21.3175 8.01748 21.3162L11.1813 21.2269C11.2179 21.2258 11.2533 21.2408 11.278 21.2679ZM8.2522 21.5617L10.6034 25.0882L11.042 21.4829L8.2522 21.5617Z"
        fill="#CC6228" />
    <path d="M20.8154 21.3528L21.303 25.4412L23.9792 21.4422L20.8154 21.3528Z" fill="#CC6228" />
    <path fill-rule="evenodd" clip-rule="evenodd"
        d="M20.7224 21.2678C20.7471 21.2408 20.7824 21.2258 20.819 21.2269L23.9828 21.3162C24.0287 21.3175 24.0702 21.3436 24.0912 21.3844C24.1123 21.4252 24.1095 21.4742 24.084 21.5123L21.4077 25.5114C21.3784 25.5552 21.3249 25.5761 21.2736 25.5638C21.2223 25.5515 21.1841 25.5086 21.1779 25.4562L20.6903 21.3677C20.686 21.3314 20.6977 21.2949 20.7224 21.2678ZM20.9579 21.4829L21.3878 25.088L23.7476 21.5617L20.9579 21.4829Z"
        fill="#CC6228" />
    <path d="M23.2129 16.8474L17.542 17.1054L18.0693 20.013L18.905 18.2565L20.9247 19.1794L23.2129 16.8474Z"
        fill="#CC6228" />
    <path fill-rule="evenodd" clip-rule="evenodd"
        d="M23.328 16.796C23.3491 16.8433 23.3391 16.8987 23.3029 16.9357L21.0146 19.2677C20.9775 19.3056 20.9206 19.3161 20.8723 19.2941L18.9655 18.4228L18.1831 20.0672C18.1596 20.1166 18.1069 20.1452 18.0527 20.138C17.9984 20.1308 17.9551 20.0894 17.9453 20.0356L17.418 17.1279C17.4116 17.0922 17.4208 17.0553 17.4435 17.0269C17.4662 16.9985 17.5 16.9812 17.5363 16.9796L23.2072 16.7216C23.2589 16.7192 23.3068 16.7488 23.328 16.796ZM17.6917 17.2248L18.1235 19.6058L18.7913 18.2024C18.8208 18.1403 18.8948 18.1133 18.9574 18.142L20.8967 19.0281L22.8986 16.9879L17.6917 17.2248Z"
        fill="#CC6228" />
    <path d="M11.0853 19.1797L13.095 18.2568L13.9308 20.0133L14.458 17.1057L8.78711 16.8477L11.0853 19.1797Z"
        fill="#CC6228" />
    <path fill-rule="evenodd" clip-rule="evenodd"
        d="M8.67155 16.7962C8.69265 16.7488 8.7406 16.7192 8.79239 16.7216L14.4633 16.9796C14.4996 16.9812 14.5335 16.9985 14.5561 17.0269C14.5788 17.0553 14.5881 17.0922 14.5816 17.1279L14.0543 20.0356C14.0445 20.0894 14.0012 20.1308 13.9469 20.138C13.8927 20.1452 13.84 20.1166 13.8165 20.0672L13.0342 18.423L11.1375 19.294C11.0893 19.3161 11.0324 19.3057 10.9951 19.2679L8.69691 16.9359C8.66052 16.899 8.65046 16.8435 8.67155 16.7962ZM9.10206 16.988L11.1126 19.0281L13.042 18.1421C13.1046 18.1133 13.1787 18.1402 13.2084 18.2024L13.8761 19.6058L14.3079 17.2248L9.10206 16.988Z"
        fill="#CC6228" />
    <path d="M8.78711 16.8474L11.1649 21.4817L11.0853 19.1794L8.78711 16.8474Z" fill="#E27525" />
    <path fill-rule="evenodd" clip-rule="evenodd"
        d="M8.71332 16.7453C8.76375 16.7089 8.83324 16.7147 8.87692 16.759L11.1751 19.091C11.1973 19.1135 11.2102 19.1435 11.2113 19.1751L11.2909 21.4774C11.293 21.5363 11.2538 21.5888 11.1967 21.6037C11.1396 21.6185 11.0798 21.5917 11.0529 21.5392L8.67504 16.905C8.64663 16.8496 8.66289 16.7818 8.71332 16.7453ZM9.27482 17.5218L11.0195 20.9222L10.9611 19.2329L9.27482 17.5218Z"
        fill="#E27525" />
    <path d="M20.925 19.1797L20.8354 21.4819L23.2133 16.8477L20.925 19.1797Z" fill="#E27525" />
    <path fill-rule="evenodd" clip-rule="evenodd"
        d="M23.2866 16.7453C23.3371 16.7817 23.3534 16.8496 23.3249 16.905L20.9471 21.5392C20.9201 21.5918 20.8602 21.6186 20.803 21.6036C20.7459 21.5886 20.7068 21.5359 20.7091 21.4768L20.7986 19.1746C20.7998 19.1433 20.8126 19.1136 20.8346 19.0912L23.1229 16.7592C23.1665 16.7147 23.236 16.7088 23.2866 16.7453ZM21.0486 19.233L20.9831 20.9171L22.7224 17.5271L21.0486 19.233Z"
        fill="#E27525" />
    <path d="M14.458 17.1055L13.9307 20.0131L14.5972 23.4465L14.7465 18.9215L14.458 17.1055Z" fill="#E27525" />
    <path fill-rule="evenodd" clip-rule="evenodd"
        d="M14.4594 16.9795C14.5209 16.9802 14.5729 17.0251 14.5825 17.0857L14.871 18.9017C14.8723 18.9097 14.8728 18.9177 14.8725 18.9257L14.7232 23.4507C14.7211 23.5148 14.6712 23.5671 14.6073 23.5722C14.5433 23.5773 14.4858 23.5335 14.4736 23.4706L13.807 20.0371C13.804 20.0218 13.8039 20.006 13.8067 19.9906L14.3341 17.083C14.345 17.0226 14.398 16.9788 14.4594 16.9795ZM14.0589 20.0123L14.5082 22.3262L14.6202 18.9294L14.4498 17.857L14.0589 20.0123Z"
        fill="#E27525" />
    <path d="M17.5423 17.1055L17.2637 18.9116L17.403 23.4465L18.0696 20.0131L17.5423 17.1055Z" fill="#E27525" />
    <path fill-rule="evenodd" clip-rule="evenodd"
        d="M17.5407 16.9795C17.6022 16.9787 17.6553 17.0225 17.6663 17.083L18.1936 19.9906C18.1964 20.006 18.1963 20.0218 18.1933 20.0371L17.5267 23.4706C17.5145 23.5336 17.4569 23.5773 17.3929 23.5722C17.3289 23.567 17.279 23.5146 17.2771 23.4504L17.1378 18.9155C17.1375 18.9078 17.138 18.9001 17.1392 18.8924L17.4178 17.0863C17.4272 17.0255 17.4791 16.9803 17.5407 16.9795ZM17.5524 17.8671L17.39 18.9194L17.4943 22.315L17.9414 20.0123L17.5524 17.8671Z"
        fill="#E27525" />
    <path d="M18.0694 20.0133L17.4028 23.4467L17.8804 23.7842L20.8353 21.4819L20.9248 19.1797L18.0694 20.0133Z"
        fill="#F5841F" />
    <path fill-rule="evenodd" clip-rule="evenodd"
        d="M21.0024 19.0804C21.0343 19.1053 21.0523 19.1441 21.0508 19.1846L20.9612 21.4869C20.9598 21.524 20.9421 21.5585 20.9128 21.5814L17.9579 23.8836C17.9141 23.9177 17.8531 23.9192 17.8077 23.8871L17.3302 23.5497C17.2897 23.5211 17.2697 23.4714 17.2792 23.4228L17.9457 19.9893C17.9547 19.943 17.9888 19.9056 18.0341 19.8924L20.8895 19.0588C20.9284 19.0474 20.9704 19.0555 21.0024 19.0804ZM18.1785 20.1128L17.5421 23.3908L17.8768 23.6273L20.7117 21.4185L20.7921 19.3498L18.1785 20.1128Z"
        fill="#F5841F" />
    <path d="M11.085 19.1797L11.1646 21.4819L14.1194 23.7842L14.597 23.4467L13.9304 20.0133L11.085 19.1797Z"
        fill="#F5841F" />
    <path fill-rule="evenodd" clip-rule="evenodd"
        d="M11.0077 19.0802C11.0397 19.0554 11.0816 19.0474 11.1204 19.0588L13.9659 19.8924C14.0111 19.9057 14.0452 19.943 14.0541 19.9893L14.7207 23.4228C14.7302 23.4714 14.7102 23.5211 14.6697 23.5497L14.1922 23.8871C14.1468 23.9192 14.0858 23.9177 14.042 23.8836L11.0872 21.5814C11.0578 21.5584 11.04 21.5236 11.0387 21.4863L10.9591 19.1841C10.9577 19.1437 10.9758 19.105 11.0077 19.0802ZM11.217 19.3497L11.2886 21.4188L14.1231 23.6273L14.4578 23.3908L13.8214 20.1127L11.217 19.3497Z"
        fill="#F5841F" />
    <path
        d="M18.1289 26.9495L18.1587 26.0068L17.9 25.7885H14.0995L13.8508 26.0068L13.8707 26.9495L10.687 25.4412L11.8013 26.3541L14.0597 27.9121H17.9298L20.1982 26.3541L21.3025 25.4412L18.1289 26.9495Z"
        fill="#C0AC9D" />
    <path fill-rule="evenodd" clip-rule="evenodd"
        d="M10.5806 25.3738C10.6146 25.32 10.6835 25.3001 10.741 25.3273L13.7405 26.7484L13.7249 26.0095C13.7241 25.9723 13.7398 25.9367 13.7677 25.9122L14.0165 25.6938C14.0394 25.6736 14.069 25.6625 14.0996 25.6625H17.9001C17.9298 25.6625 17.9586 25.673 17.9814 25.6922L18.24 25.9106C18.2694 25.9354 18.2859 25.9723 18.2847 26.0108L18.2614 26.7471L21.2485 25.3274C21.3059 25.3001 21.3747 25.3199 21.4089 25.3735C21.443 25.4271 21.4319 25.4978 21.3829 25.5383L20.2699 26.4585L18.0012 28.016C17.9802 28.0305 17.9554 28.0382 17.9299 28.0382H14.0598C14.0342 28.0382 14.0092 28.0304 13.9882 28.0159L11.7212 26.452L10.6072 25.5387C10.5579 25.4983 10.5465 25.4276 10.5806 25.3738ZM11.5621 25.9952L11.8772 26.2534L14.099 27.7861H17.8908L20.1223 26.2535L20.4403 25.9906L18.183 27.0634C18.1433 27.0823 18.0967 27.0791 18.0599 27.055C18.0232 27.031 18.0016 26.9895 18.003 26.9456L18.0308 26.0638L17.854 25.9145H14.1471L13.9781 26.0629L13.9968 26.9469C13.9977 26.9906 13.9759 27.0316 13.9393 27.0554C13.9026 27.0791 13.8563 27.0822 13.8168 27.0635L11.5621 25.9952Z"
        fill="#C0AC9D" />
    <path
        d="M17.8804 23.7839L17.4028 23.4465H14.5972L14.1197 23.7839L13.8511 26.0068L14.0998 25.7884H17.9003L18.159 26.0068L17.8804 23.7839Z"
        fill="#161616" />
    <path fill-rule="evenodd" clip-rule="evenodd"
        d="M14.5246 23.3437C14.5458 23.3286 14.5712 23.3206 14.5973 23.3206H17.4029C17.4289 23.3206 17.4543 23.3286 17.4756 23.3436L17.9532 23.681C17.9821 23.7014 18.0011 23.7331 18.0055 23.7683L18.2841 25.9911C18.2905 26.0426 18.2648 26.0928 18.2192 26.1176C18.1736 26.1423 18.1174 26.1366 18.0778 26.1031L17.8543 25.9145H14.1473L13.9343 26.1015C13.895 26.136 13.8385 26.1427 13.7923 26.1183C13.7461 26.0939 13.7197 26.0436 13.726 25.9917L13.9947 23.7688C13.9989 23.7334 14.018 23.7015 14.0471 23.681L14.5246 23.3437ZM14.6373 23.5726L14.2382 23.8546L14.0158 25.6946L14.0167 25.6938C14.0397 25.6736 14.0693 25.6625 14.0999 25.6625H17.9004C17.9301 25.6625 17.9589 25.673 17.9816 25.6922L17.9939 25.7025L17.7623 23.8548L17.3629 23.5726H14.6373Z"
        fill="#161616" />
    <path
        d="M28.0283 12.0247L28.874 7.91646L27.6005 4.09595L17.8804 11.2904L21.6211 14.446L26.904 15.9842L28.0681 14.6247L27.5607 14.2575L28.3666 13.5232L27.7498 13.0469L28.5556 12.4316L28.0283 12.0247Z"
        fill="#763E1A" />
    <path fill-rule="evenodd" clip-rule="evenodd"
        d="M27.6385 3.97582C27.677 3.98798 27.7073 4.01784 27.7201 4.05614L28.9936 7.87665C29.0006 7.89768 29.0019 7.92019 28.9975 7.94191L28.1676 11.9731L28.6327 12.3319C28.6637 12.3558 28.6818 12.3928 28.6817 12.432C28.6816 12.4711 28.6633 12.508 28.6321 12.5318L27.9567 13.0475L28.4436 13.4235C28.4731 13.4463 28.491 13.4809 28.4925 13.5181C28.494 13.5553 28.479 13.5913 28.4515 13.6164L27.7602 14.2463L28.142 14.5227C28.1706 14.5433 28.1891 14.5749 28.1933 14.6099C28.1974 14.6449 28.1868 14.68 28.1639 14.7067L26.9998 16.0662C26.9676 16.1038 26.9164 16.1191 26.8689 16.1052L21.5859 14.5671C21.5691 14.5622 21.5534 14.5538 21.5399 14.5424L17.7992 11.3868C17.7697 11.362 17.7532 11.325 17.7545 11.2865C17.7557 11.248 17.7745 11.2121 17.8054 11.1892L27.5256 3.9947C27.558 3.97068 27.6 3.96367 27.6385 3.97582ZM18.0835 11.2969L21.682 14.3326L26.8613 15.8405L27.8835 14.6467L27.4869 14.3596C27.4562 14.3374 27.4371 14.3025 27.435 14.2646C27.4328 14.2267 27.4479 14.1899 27.4759 14.1644L28.1707 13.5312L27.6728 13.1467C27.6418 13.1227 27.6237 13.0857 27.6238 13.0466C27.6239 13.0074 27.6422 12.9705 27.6733 12.9467L28.3487 12.4311L27.9513 12.1245C27.9132 12.0951 27.8952 12.0465 27.9049 11.9994L28.7438 7.92424L27.5359 4.30061L18.0835 11.2969Z"
        fill="#763E1A" />
    <path
        d="M3.12646 7.91719L3.98208 12.0255L3.43489 12.4323L4.2507 13.0476L3.63386 13.5239L4.43973 14.2582L3.93233 14.6254L5.09637 15.9849L10.3793 14.4468L14.1201 11.2912L4.39994 4.09668L3.12646 7.91719Z"
        fill="#763E1A" />
    <path fill-rule="evenodd" clip-rule="evenodd"
        d="M4.36154 3.97582C4.40003 3.96367 4.44202 3.97068 4.47446 3.9947L14.1946 11.1892C14.2256 11.2121 14.2444 11.248 14.2456 11.2865C14.2468 11.325 14.2303 11.362 14.2009 11.3868L10.4601 14.5424C10.4467 14.5538 10.431 14.5622 10.4141 14.5671L5.13115 16.1052C5.08362 16.1191 5.03239 16.1038 5.0002 16.0662L3.83616 14.7067C3.81326 14.68 3.80259 14.6449 3.80674 14.6099C3.81089 14.5749 3.82948 14.5433 3.858 14.5227L4.23986 14.2463L3.54854 13.6164C3.52101 13.5913 3.50599 13.5553 3.5075 13.5181C3.50902 13.4809 3.52692 13.4463 3.55639 13.4235L4.04254 13.0481L3.35856 12.5323C3.32687 12.5084 3.30829 12.4709 3.30842 12.4312C3.30856 12.3915 3.32739 12.3542 3.35924 12.3305L3.84185 11.9717L3.00265 7.94219C2.99811 7.92039 2.99942 7.89778 3.00647 7.87665L4.27994 4.05614C4.2927 4.01784 4.32304 3.98798 4.36154 3.97582ZM4.46412 4.30061L3.25632 7.92409L4.105 11.9991C4.11501 12.0471 4.09621 12.0966 4.05683 12.1259L3.64467 12.4324L4.32613 12.9463C4.3575 12.97 4.37605 13.0069 4.37627 13.0462C4.37649 13.0855 4.35838 13.1226 4.32728 13.1467L3.82927 13.5312L4.52416 14.1644C4.55219 14.1899 4.56723 14.2267 4.5651 14.2646C4.56297 14.3025 4.54389 14.3374 4.51317 14.3596L4.11655 14.6467L5.13876 15.8405L10.318 14.3326L13.9165 11.2969L4.46412 4.30061Z"
        fill="#763E1A" />
    <path d="M26.9043 15.9841L21.6214 14.446L23.2133 16.8475L20.8354 21.4817L23.9793 21.442H28.6752L26.9043 15.9841Z"
        fill="#F5841F" />
    <path fill-rule="evenodd" clip-rule="evenodd"
        d="M21.5195 14.3714C21.5508 14.3288 21.6054 14.3103 21.6562 14.3251L26.9391 15.8632C26.9792 15.8749 27.0109 15.9056 27.0238 15.9453L28.7947 21.4032C28.8071 21.4416 28.8004 21.4836 28.7767 21.5162C28.753 21.5488 28.7151 21.5681 28.6748 21.5681H23.9797L20.8366 21.6078C20.7924 21.6083 20.7512 21.5857 20.7279 21.5481C20.7046 21.5106 20.7027 21.4635 20.7229 21.4242L23.067 16.8557L21.5159 14.5157C21.4867 14.4716 21.4881 14.414 21.5195 14.3714ZM21.9161 14.6633L23.3179 16.778C23.343 16.8159 23.3457 16.8646 23.3249 16.9051L21.0427 21.3531L23.9789 21.3161L28.5014 21.3161L26.8046 16.0865L21.9161 14.6633Z"
        fill="#F5841F" />
    <path d="M10.3788 14.446L5.09593 15.9841L3.33496 21.442H8.02093L11.1648 21.4817L8.78701 16.8475L10.3788 14.446Z"
        fill="#F5841F" />
    <path fill-rule="evenodd" clip-rule="evenodd"
        d="M10.4804 14.3714C10.5117 14.414 10.5131 14.4716 10.4839 14.5157L8.93285 16.8557L11.2769 21.4242C11.2971 21.4635 11.2952 21.5106 11.2719 21.5481C11.2487 21.5857 11.2074 21.6083 11.1632 21.6078L8.02019 21.5681H3.335C3.29471 21.5681 3.25685 21.5488 3.23313 21.5163C3.20941 21.4837 3.2027 21.4417 3.21507 21.4034L4.97604 15.9455C4.98888 15.9057 5.02061 15.8749 5.06074 15.8632L10.3436 14.3251C10.3944 14.3103 10.449 14.3288 10.4804 14.3714ZM5.19538 16.0865L3.50808 21.3161H8.02257L10.9572 21.3531L8.67493 16.9051C8.65412 16.8646 8.65683 16.8159 8.68201 16.778L10.0837 14.6633L5.19538 16.0865Z"
        fill="#F5841F" />
    <path
        d="M17.542 17.1055L17.8803 11.2904L19.4124 7.15234H12.5874L14.1195 11.2904L14.4578 17.1055L14.5871 18.9314L14.5971 23.4466H17.4027L17.4127 18.9314L17.542 17.1055Z"
        fill="#F5841F" />
    <path fill-rule="evenodd" clip-rule="evenodd"
        d="M12.484 7.08039C12.5076 7.04654 12.5462 7.02637 12.5874 7.02637H19.4124C19.4537 7.02637 19.4923 7.04654 19.5159 7.08039C19.5394 7.11424 19.5449 7.15747 19.5306 7.19614L18.005 11.3165L17.6678 17.1145L17.5387 18.9361L17.5288 23.4469C17.5286 23.5164 17.4722 23.5726 17.4027 23.5726H14.5971C14.5276 23.5726 14.4713 23.5164 14.4711 23.4469L14.4612 18.9361L14.3321 17.1145L14.332 17.1129L13.9948 11.3165L12.4693 7.19614C12.4549 7.15747 12.4605 7.11424 12.484 7.08039ZM12.7685 7.2784L14.2377 11.2467C14.2421 11.2584 14.2446 11.2706 14.2454 11.2831L14.5835 17.0967L14.5836 17.0983L14.7135 18.9312L14.7229 23.3206H17.277L17.2867 18.9225L17.4162 17.0983L17.4163 17.0967L17.7545 11.2831C17.7552 11.2706 17.7578 11.2584 17.7621 11.2467L19.2314 7.2784H12.7685Z"
        fill="#F5841F" />
</svg>