<svg width="27" height="25" viewBox="0 0 27 25" fill="none" xmlns="http://www.w3.org/2000/svg">
    <path
        d="M11.2821 7.5883H10.5128V2.0835H0.352564C0.160256 2.0835 0 2.24375 0 2.43606V10.1925C0 10.3848 0.160256 10.545 0.352564 10.545H4.23077V24.6476C4.23077 24.8399 4.39102 25.0002 4.58333 25.0002H10.9295C11.1218 25.0002 11.2821 24.8399 11.2821 24.6476V7.5883Z"
        fill="#29AEFF" />
    <path
        d="M18.0048 0H15.5689H8.8702C8.6779 0 8.51764 0.160256 8.51764 0.352564V22.5641C8.51764 22.7564 8.6779 22.9167 8.8702 22.9167H15.2164C15.4087 22.9167 15.5689 22.7564 15.5689 22.5641V16.9231H18.0048C22.6763 16.9231 26.4664 13.133 26.4664 8.46154C26.4664 3.79006 22.6763 0 18.0048 0Z"
        fill="#2761E7" />
</svg>