<svg width="31" height="32" viewBox="0 0 31 32" fill="none" xmlns="http://www.w3.org/2000/svg">
    <path
        d="M11.5238 0.0459044C17.1127 -0.44916 20.6343 3.20569 21.4397 4.01111C21.9376 4.50901 22.4756 5.37037 22.8734 6.02627C23.0906 6.38431 23.2673 6.68483 23.4215 6.93368C23.4967 7.05502 23.5552 7.14513 23.5982 7.20664C23.6047 7.21586 23.6106 7.22346 23.6154 7.23001L25.4666 8.741L23.0099 8.88247H23.008C23.0071 8.88252 23.0058 8.8827 23.0043 8.88278C23.0013 8.88295 22.9971 8.88312 22.9918 8.8834C22.9813 8.88396 22.9661 8.88468 22.9473 8.88558C22.9097 8.88739 22.8563 8.88978 22.7912 8.89213C22.7746 8.89272 22.7572 8.89279 22.7391 8.89337C23.0329 9.51091 23.4314 10.2801 23.9292 11.088C25.1246 13.0285 26.7905 15.0257 28.8127 15.8466L30.2392 16.4256L29.0891 17.4489L28.4528 16.7334L29.0881 17.4495L29.0875 17.4501C29.0869 17.4506 29.0861 17.4513 29.0853 17.452C29.0838 17.4533 29.0821 17.4549 29.08 17.4567C29.0759 17.4603 29.0706 17.4648 29.0641 17.4704C29.0512 17.4815 29.0336 17.4968 29.0115 17.5152C28.9673 17.5521 28.905 17.6027 28.8258 17.6642C28.6673 17.787 28.4397 17.9537 28.1517 18.1397C27.5782 18.5103 26.7518 18.9661 25.7421 19.3001C25.0051 19.544 24.1688 19.7215 23.2657 19.7557L23.1009 20.0947L22.3749 19.7411C23.068 20.0786 23.099 20.0943 23.1003 20.0954C23.1002 20.0955 23.1001 20.096 23.1 20.0963C23.0997 20.0969 23.0991 20.0977 23.0987 20.0985C23.098 20.1 23.0973 20.102 23.0962 20.1041C23.0941 20.1083 23.0914 20.1136 23.0881 20.12C23.0816 20.1329 23.0728 20.1504 23.0616 20.1717C23.0394 20.2143 23.0076 20.2729 22.9666 20.3453C22.8847 20.49 22.7648 20.6904 22.6061 20.9258C22.29 21.3944 21.8122 22.0137 21.1652 22.6122C19.8939 23.7882 17.9233 24.9157 15.268 24.5809C15.235 24.5885 15.1965 24.5971 15.153 24.6074C14.9739 24.6501 14.7082 24.7172 14.3722 24.8131C13.6994 25.005 12.7477 25.3111 11.6456 25.7641C9.43417 26.6732 6.65615 28.1587 4.30537 30.47L2.7492 32L2.67753 29.8187C2.67752 29.8185 2.67754 29.8182 2.67753 29.8178C2.67747 29.8161 2.67738 29.813 2.67722 29.8088C2.67688 29.8002 2.6762 29.7861 2.67535 29.7673C2.67364 29.7298 2.67077 29.6725 2.66631 29.5969C2.65738 29.4454 2.64199 29.2209 2.61645 28.936C2.56534 28.3656 2.47372 27.5553 2.31232 26.6051C1.98785 24.6949 1.38874 22.2645 0.298718 20.0844L0.221439 19.9302L0.203054 19.7585L1.15501 19.6563C3.44791 24.2421 3.63344 29.7655 3.63416 29.7873C8.56363 24.9407 15.2083 23.6136 15.2266 23.61C19.9703 24.3204 22.2331 19.6903 22.2402 19.6756C20.0898 19.9015 18.4911 18.4908 18.4813 18.4822C18.5834 18.1248 18.5673 17.3588 18.5673 17.3588C23.7174 20.9453 28.4528 16.7334 28.4528 16.7334C23.8326 14.858 21.2586 7.88616 21.2478 7.85666C21.7335 7.9963 22.9421 7.92749 22.9548 7.92677C22.6771 7.69997 21.5635 5.48877 20.7626 4.68792C19.9615 3.88679 16.7229 0.546363 11.6082 0.999423L11.3704 1.02217C6.42736 1.52969 4.36994 3.95492 4.282 6.01225L4.27794 6.20545C4.28147 8.16803 5.62927 9.26914 5.63811 9.27634C5.56831 9.51748 5.55198 10.1563 5.5518 10.1635H5.54868C3.53335 11.0553 2.57556 12.4113 2.56535 12.4258L1.3909 11.9026C0.581895 14.301 1.15296 19.6371 1.15501 19.6563L0.203054 19.7585V19.7569C0.20296 19.7561 0.202592 19.7547 0.202431 19.7532C0.202106 19.7501 0.201767 19.7457 0.201185 19.7401C0.200015 19.7289 0.198312 19.7125 0.196199 19.6915C0.191973 19.6496 0.186026 19.5886 0.178749 19.5108C0.164182 19.355 0.144329 19.131 0.123283 18.8555C0.0812398 18.305 0.0336979 17.5443 0.0120388 16.7051C-0.0299402 15.0784 0.0177486 12.9792 0.484124 11.5966L0.820037 10.6L2.30547 11.2619C2.40533 11.1585 2.51968 11.0455 2.64886 10.9266C3.10345 10.5081 3.74516 10.009 4.58301 9.568C4.44057 9.40333 4.27759 9.19334 4.11716 8.93918C3.68958 8.26178 3.2708 7.25546 3.32567 5.97143C3.44474 3.18607 6.18206 0.519093 11.5238 0.0459044Z"
        fill="white" />
    <path
        d="M5.55149 10.1637C5.55149 10.1637 5.56744 9.5191 5.63764 9.27659C5.63764 9.27659 4.19218 8.10236 4.28152 6.01235C4.37086 3.92233 6.49279 1.45261 11.6077 0.999504C16.7227 0.546402 19.9614 3.88723 20.7623 4.68814C21.5632 5.48904 22.6768 7.70031 22.9544 7.92686C22.9544 7.92686 21.7355 7.99706 21.2473 7.85666C21.2473 7.85666 23.8223 14.8542 28.4523 16.7336C28.4523 16.7336 23.7171 20.9456 18.567 17.359C18.567 17.359 18.583 18.1249 18.4808 18.4822C18.4808 18.4822 20.0827 19.9022 22.2397 19.6756C22.2397 19.6756 19.9774 24.3215 15.2262 23.6099C15.2262 23.6099 8.57004 24.9341 3.63378 29.7874C3.63378 29.7874 3.4519 24.2513 1.15448 19.6565C1.15448 19.6565 0.580123 14.3054 1.3906 11.9027L2.56484 12.426C2.56484 12.426 3.5221 11.0603 5.54829 10.1637H5.55149Z"
        fill="black" />
    <path
        d="M6.76962 8.0385C6.76962 8.0385 5.41351 6.49731 6.62922 5.0008C7.84494 3.50429 9.97006 2.52788 13.5215 2.63318C17.0729 2.73848 19.6639 5.52091 20.3084 6.25481C20.3084 6.25481 17.7334 4.73915 14.1118 5.489C14.1118 5.489 17.4462 5.71555 18.9332 7.46414C20.4201 9.21273 21.4125 13.9639 25.4872 16.574C25.4872 16.574 22.6665 17.1229 19.9383 13.6225C19.9383 13.6225 19.8202 14.6404 19.9255 15.0584C19.9255 15.0584 18.7066 14.3979 17.0697 10.604C15.4328 6.81002 10.9433 7.61092 9.51695 8.41183C9.51695 8.41183 8.70009 8.32568 8.32357 8.29058C8.32357 8.29058 6.98979 7.33332 8.40334 5.1763C8.40334 5.1763 6.52393 5.61025 6.76643 8.0385H6.76962Z"
        fill="#6CE99E" />
    <path
        d="M7.16313 9.00525C7.16313 9.00525 7.09931 9.47431 7.16313 10.0359C7.16313 10.0359 7.96085 9.71043 9.47331 9.78701C9.47331 9.78701 9.38078 9.6179 9.32973 9.14884C9.32973 9.14884 8.14272 8.92548 7.16313 9.00525Z"
        fill="white" />
    <path
        d="M17.0573 18.9607C17.0573 18.9607 18.0305 20.4764 19.8078 20.6997C19.8078 20.6997 17.1115 23.7278 13.9238 21.223C13.9238 21.223 15.264 21.2932 17.0573 18.9607Z"
        fill="white" />
    <path
        d="M13.1778 15.7443C13.1778 15.7443 12.5333 15.0806 11.9429 15.8975C11.3526 16.7144 11.8217 18.5268 13.1778 17.6206C13.1778 17.6206 12.2493 17.8663 12.4343 16.6793C12.6194 15.4923 13.1778 15.7443 13.1778 15.7443Z"
        fill="white" />
    <path
        d="M4.59076 27.1358C4.59076 27.1358 7.25832 24.6693 11.9585 23.0164C11.9585 23.0164 11.2086 21.188 11.1767 20.0744C11.1448 18.9608 11.8212 18.5269 11.8212 18.5269C11.8212 18.5269 10.8448 18.1408 10.864 16.6793C10.8799 15.3711 11.7861 14.9754 11.7861 14.9754C11.7861 14.9754 11.0554 13.7055 8.89842 12.7291C8.89842 12.7291 11.2309 11.5453 14.0676 12.8152C14.0676 12.8152 9.55893 7.85343 3.81538 13.3545C3.81538 13.3545 5.76499 14.4681 7.80076 14.8701C7.80076 14.8701 5.5193 15.253 2.56137 14.0884C2.56137 14.0884 2.30929 15.4892 2.45607 17.7419C2.45607 17.7419 5.414 17.9078 8.6272 17.1644C8.6272 17.1644 8.62719 17.8695 8.67825 18.3514C8.67825 18.3514 7.12111 19.449 2.75282 20.0042C2.75282 20.0042 4.11851 23.3387 4.59395 27.1358H4.59076Z"
        fill="white" />
    <path
        d="M3.06872 17.7578C2.95704 15.4763 3.16444 14.3085 3.16444 14.3085H3.17083C2.9698 14.2415 2.76878 14.1681 2.56137 14.0883C2.56137 14.0883 2.30929 15.4891 2.45607 17.7419C2.45607 17.7419 2.68262 17.7546 3.06872 17.7578Z"
        fill="#6CE99E" />
    <path
        d="M3.8125 13.3576C3.8125 13.3576 5.2803 14.1968 6.99698 14.6786C5.81955 14.2287 5.1399 12.9874 5.1399 12.9874C6.30456 11.7494 8.36905 11.092 9.7124 10.7793C8.05315 10.674 6.02377 11.2388 3.8125 13.3576Z"
        fill="#6CE99E" />
    <path
        d="M5.5069 26.3986C5.31226 25.1765 4.91341 22.8089 4.68367 22.2154C4.37096 21.4081 4.08378 20.8561 4.42201 20.1796C4.51774 19.985 4.71557 19.8031 4.94212 19.6404C4.30714 19.7744 3.57962 19.8988 2.75 20.0041C2.75 20.0041 4.11569 23.3386 4.59113 27.1357C4.59113 27.1357 4.91021 26.8453 5.5069 26.3986Z"
        fill="#6CE99E" />
    <path
        d="M7.78854 8.99257C7.57794 8.98619 7.36734 8.99257 7.16313 9.00534C7.16313 9.00534 7.09931 9.47439 7.16313 10.036C7.16313 10.036 7.37373 9.94983 7.78216 9.87644C7.76301 9.56055 7.77259 9.24146 7.78854 8.98938V8.99257Z"
        fill="#6CE99E" />
</svg>