<svg width="20" height="20" viewBox="0 0 20 20" fill="none" xmlns="http://www.w3.org/2000/svg">
    <path
        d="M16 7.5C16 10.8137 13.3137 13.5 10 13.5C6.68629 13.5 4 10.8137 4 7.5C4 4.18629 6.68629 1.5 10 1.5C13.3137 1.5 16 4.18629 16 7.5Z"
        stroke="currentColor" stroke-width="2" />
    <path
        d="M12 7.5C12 8.60457 11.1046 9.5 10 9.5C8.89543 9.5 8 8.60457 8 7.5C8 6.39543 8.89543 5.5 10 5.5C11.1046 5.5 12 6.39543 12 7.5Z"
        stroke="currentColor" stroke-width="2" />
    <path d="M5.5 11.5V18L10 17L14.5 18V11.5" stroke="currentColor" stroke-width="2" />
</svg>