<svg width="20" height="20" viewBox="0 0 20 20" fill="none" xmlns="http://www.w3.org/2000/svg">
    <g clip-path="url(#clip0_16_146)">
        <path
            d="M10 18.3333C14.6024 18.3333 18.3333 14.6023 18.3333 9.99996C18.3333 5.39759 14.6024 1.66663 10 1.66663C5.39762 1.66663 1.66666 5.39759 1.66666 9.99996C1.66666 14.6023 5.39762 18.3333 10 18.3333Z"
            stroke="currentColor" stroke-width="2" stroke-linecap="round" stroke-linejoin="round" />
        <rect x="9" y="13" width="2" height="2" fill="#9B9B9B" />
        <path
            d="M11.1764 9.63637L11.7417 10.4613L11.7418 10.4612L11.1764 9.63637ZM9 11V12H11V11H10H9ZM7.91666 7.91671H8.91666C8.91666 7.3184 9.4017 6.83337 10 6.83337V5.83337V4.83337C8.29713 4.83337 6.91666 6.21383 6.91666 7.91671H7.91666ZM10 5.83337V6.83337C10.5983 6.83337 11.0833 7.3184 11.0833 7.91671H12.0833H13.0833C13.0833 6.21383 11.7029 4.83337 10 4.83337V5.83337ZM12.0833 7.91671H11.0833C11.0833 8.28713 10.8983 8.61461 10.611 8.81156L11.1764 9.63637L11.7418 10.4612C12.5498 9.9073 13.0833 8.97445 13.0833 7.91671H12.0833ZM11.1764 9.63637L10.6111 8.81147C10.425 8.939 9.98975 9.19995 9.69625 9.47096C9.333 9.80637 9 10.2985 9 11H10H11C11 10.9825 11.0018 10.9906 10.9956 11.003C10.9929 11.0082 11.0014 10.988 11.053 10.9404C11.1078 10.8898 11.1868 10.83 11.3107 10.7466C11.372 10.7054 11.435 10.6644 11.5092 10.6159C11.5806 10.5693 11.6605 10.5169 11.7417 10.4613L11.1764 9.63637Z"
            fill="#9B9B9B" />
    </g>
    <defs>
        <clipPath id="clip0_16_146">
            <rect width="20" height="20" fill="white" />
        </clipPath>
    </defs>
</svg>