<svg width="20" height="20" viewBox="0 0 20 20" fill="none" xmlns="http://www.w3.org/2000/svg">
    <path
        d="M13.3333 4H6.66666C4.30964 4 2 4 2 4C2 4 2 6.8096 2 9.16663V10.8333C2 13.1903 2 16 2 16C2 16 4.30964 16 6.66666 16H13.3333C15.6903 16 18 16 18 16C18 16 18 13.1903 18 10.8333V9.16663C18 6.8096 18 4 18 4C18 4 15.6903 4 13.3333 4Z"
        stroke="currentColor" stroke-width="2" stroke-linecap="round" />
    <path
        d="M12 10C12 11.1046 11.1046 12 10 12C8.8954 12 8 11.1046 8 10C8 8.8954 8.8954 8 10 8C11.1046 8 12 8.8954 12 10Z"
        stroke="currentColor" stroke-width="2" stroke-linecap="round" stroke-linejoin="round" />
    <rect x="14" y="9" width="2" height="2" fill="#9B9B9B" />
    <rect x="4" y="9" width="2" height="2" fill="#9B9B9B" />
</svg>