<svg width="20" height="20" viewBox="0 0 20 20" fill="none" xmlns="http://www.w3.org/2000/svg">
    <g clip-path="url(#clip0_24_82)">
        <path
            d="M12.9167 8.74998C12.9167 7.13915 11.6109 5.83331 10 5.83331C8.38921 5.83331 7.08337 7.13915 7.08337 8.74998C7.08337 10.3608 8.38921 11.6666 10 11.6666C11.6109 11.6666 12.9167 10.3608 12.9167 8.74998Z"
            stroke="currentColor" stroke-width="2" stroke-linecap="round" stroke-linejoin="round" />
        <path
            d="M18.3333 10C18.3333 5.39765 14.6023 1.66669 9.99996 1.66669C5.39758 1.66669 1.66663 5.39765 1.66663 10C1.66663 14.6024 5.39758 18.3334 9.99996 18.3334C14.6023 18.3334 18.3333 14.6024 18.3333 10Z"
            stroke="currentColor" stroke-width="2" stroke-linecap="round" stroke-linejoin="round" />
        <path d="M15 16.6667C15 13.9053 12.7614 11.6667 10 11.6667C7.23857 11.6667 5 13.9053 5 16.6667" stroke="currentColor"
            stroke-width="2" stroke-linecap="round" stroke-linejoin="round" />
    </g>
    <defs>
        <clipPath id="clip0_24_82">
            <rect width="20" height="20" fill="currentColor" />
        </clipPath>
    </defs>
</svg>