<svg width="20" height="20" viewBox="0 0 20 20" fill="none" xmlns="http://www.w3.org/2000/svg">
    <g clip-path="url(#clip0_118_6879)">
        <path
            d="M10.0001 18.3333C14.6025 18.3333 18.3334 14.6023 18.3334 9.99996C18.3334 5.39759 14.6025 1.66663 10.0001 1.66663C5.39771 1.66663 1.66675 5.39759 1.66675 9.99996C1.66675 14.6023 5.39771 18.3333 10.0001 18.3333Z"
            stroke="#9B9B9B" stroke-width="2" stroke-linecap="round" stroke-linejoin="round" />
        <rect x="9" y="13" width="2" height="2" fill="#9B9B9B" />
        <path
            d="M11.1765 9.63637L11.7418 10.4613L11.7419 10.4612L11.1765 9.63637ZM9.00008 11V12H11.0001V11H10.0001H9.00008ZM7.91675 7.91671H8.91675C8.91675 7.3184 9.40178 6.83337 10.0001 6.83337V5.83337V4.83337C8.29722 4.83337 6.91675 6.21383 6.91675 7.91671H7.91675ZM10.0001 5.83337V6.83337C10.5984 6.83337 11.0834 7.3184 11.0834 7.91671H12.0834H13.0834C13.0834 6.21383 11.7029 4.83337 10.0001 4.83337V5.83337ZM12.0834 7.91671H11.0834C11.0834 8.28713 10.8984 8.61461 10.6111 8.81156L11.1765 9.63637L11.7419 10.4612C12.5499 9.9073 13.0834 8.97445 13.0834 7.91671H12.0834ZM11.1765 9.63637L10.6112 8.81147C10.4251 8.939 9.98983 9.19995 9.69633 9.47096C9.33308 9.80637 9.00008 10.2985 9.00008 11H10.0001H11.0001C11.0001 10.9825 11.0019 10.9906 10.9956 11.003C10.993 11.0082 11.0015 10.988 11.0531 10.9404C11.1078 10.8898 11.1868 10.83 11.3108 10.7466C11.372 10.7054 11.4351 10.6644 11.5093 10.6159C11.5807 10.5693 11.6606 10.5169 11.7418 10.4613L11.1765 9.63637Z"
            fill="#9B9B9B" />
    </g>
    <defs>
        <clipPath id="clip0_118_6879">
            <rect width="20" height="20" fill="white" />
        </clipPath>
    </defs>
</svg>