<?xml version="1.0" standalone="no"?>
<!DOCTYPE svg PUBLIC "-//W3C//DTD SVG 1.1//EN" "http://www.w3.org/Graphics/SVG/1.1/DTD/svg11.dtd" >
<svg xmlns="http://www.w3.org/2000/svg">
<metadata>Generated by IcoMoon</metadata>
<defs>
<font id="iconfont" horiz-adv-x="1024">
<font-face units-per-em="1024" ascent="960" descent="-64" />
<missing-glyph horiz-adv-x="1024" />
<glyph unicode="&#x20;" horiz-adv-x="512" d="" />
<glyph unicode="&#xe618;" glyph-name="download" d="M768 256h-512c-38.4 0-64-25.6-64-64s25.6-64 64-64h512c38.4 0 64 25.6 64 64s-25.6 64-64 64zM780.8 499.2c25.6 25.6 25.6 64 0 89.6s-64 25.6-89.6 0l-115.2-115.2v236.8c0 32-25.6 57.6-64 57.6s-64-25.6-64-57.6v-236.8l-115.2 115.2c-25.6 25.6-64 25.6-89.6 0s-25.6-64 0-89.6l224-224c12.8-12.8 25.6-19.2 44.8-19.2s32 6.4 44.8 19.2l224 224z" />
<glyph unicode="&#xe698;" glyph-name="rebate-rate" d="M824.32 842.24c-81.92 40.96-194.56 66.56-312.32 66.56s-230.4-25.6-312.32-66.56c-81.92-40.96-148.48-102.4-148.48-189.44v-409.6c0-87.040 66.56-148.48 148.48-189.44s194.56-66.56 312.32-66.56 230.4 25.6 312.32 66.56c81.92 40.96 148.48 102.4 148.48 189.44v409.6c0 87.040-66.56 148.48-148.48 189.44zM870.4 243.2c0-25.6-20.48-66.56-92.16-97.28-66.56-35.84-158.72-56.32-266.24-56.32s-199.68 20.48-266.24 56.32c-71.68 30.72-92.16 71.68-92.16 97.28v40.96c15.36-10.24 30.72-20.48 46.080-25.6 81.92-40.96 194.56-66.56 312.32-66.56s230.4 25.6 312.32 66.56c15.36 10.24 30.72 15.36 46.080 25.6v-40.96zM870.4 448c0-25.6-20.48-66.56-92.16-97.28-66.56-35.84-158.72-56.32-266.24-56.32s-199.68 20.48-266.24 56.32c-71.68 30.72-92.16 71.68-92.16 97.28v40.96c15.36-10.24 30.72-20.48 46.080-25.6 81.92-40.96 194.56-66.56 312.32-66.56s230.4 25.6 312.32 66.56c15.36 10.24 30.72 15.36 46.080 25.6v-40.96zM778.24 555.52c-66.56-35.84-158.72-56.32-266.24-56.32s-199.68 20.48-266.24 56.32c-71.68 30.72-92.16 71.68-92.16 97.28s20.48 66.56 92.16 97.28c66.56 35.84 158.72 56.32 266.24 56.32s199.68-20.48 266.24-56.32c71.68-30.72 92.16-71.68 92.16-97.28s-20.48-66.56-92.16-97.28z" />
<glyph unicode="&#xe69c;" glyph-name="margin-mode-selected" d="M752.998 612.198c9.262-9.265 14.99-22.062 14.99-36.198s-5.728-26.933-14.99-36.198l-281.6-281.6c-9.265-9.262-22.062-14.99-36.198-14.99s-26.933 5.728-36.198 14.99l-128 128c-8.879 9.195-14.35 21.732-14.35 35.546 0 28.277 22.923 51.2 51.2 51.2 13.814 0 26.351-5.471 35.561-14.365l-0.015 0.014 91.802-91.801 245.402 245.401c9.265 9.262 22.062 14.99 36.198 14.99s26.933-5.728 36.198-14.99v0z" />
<glyph unicode="&#xe69f;" glyph-name="message-close" d="M813.248 749.248c11.578-11.581 18.738-27.578 18.738-45.248s-7.161-33.667-18.739-45.248l-512-512c-11.497-11.116-27.179-17.966-44.462-17.966-35.346 0-64 28.654-64 64 0 17.282 6.85 32.964 17.983 44.48l-0.017-0.018 512 512c11.581 11.578 27.578 18.738 45.248 18.738s33.667-7.161 45.248-18.739v0zM813.248 146.752c-11.581-11.578-27.578-18.738-45.248-18.738s-33.667 7.161-45.248 18.739l-512 512c-11.116 11.497-17.966 27.179-17.966 44.462 0 35.346 28.654 64 64 64 17.282 0 32.964-6.85 44.48-17.983l-0.018 0.017 512-512c11.578-11.581 18.738-27.578 18.738-45.248s-7.161-33.667-18.739-45.248v0z" />
<glyph unicode="&#xe6a0;" glyph-name="staking-steps" d="M128 704c0 106.039 85.961 192 192 192v0h384c106.039 0 192-85.961 192-192v0-384c0-176.731-143.269-320-320-320v0h-256c-106.039 0-192 85.961-192 192v0 512zM320 768c-35.346 0-64-28.654-64-64v0-512c0-35.346 28.654-64 64-64v0h256c106.039 0 192 85.961 192 192v0 384c0 35.346-28.654 64-64 64v0h-384zM384 576c0 35.346 28.654 64 64 64v0h128c35.346 0 64-28.654 64-64s-28.654-64-64-64v0h-128c-35.346 0-64 28.654-64 64v0zM448 384c-35.346 0-64-28.654-64-64s28.654-64 64-64v0h128c35.346 0 64 28.654 64 64s-28.654 64-64 64v0h-128z" />
<glyph unicode="&#xe6a1;" glyph-name="qestion" d="M461.903 387.111c0 13.312 1.811 24.576 5.356 33.871 4.128 10.188 10.205 18.818 17.826 25.788l0.054 0.048c12.367 11.973 23.631 22.37 33.871 31.193 10.556 8.822 19.693 17.014 27.176 24.576 6.335 6.484 12.025 13.652 16.933 21.365l0.317 0.533c4.066 6.158 6.522 13.692 6.617 21.794v0.025c0 14.651-4.726 25.915-13.942 33.87-8.388 7.83-19.686 12.637-32.106 12.637-0.621 0-1.238-0.012-1.853-0.036l0.089 0.003c-20.716 0-36.628-5.75-47.734-17.33-10.21-11.031-16.816-25.529-17.869-41.544l-0.011-0.203-102.164 6.695c4.883 46.868 22.055 82.472 51.75 106.733 29.618 24.812 67.664 37.179 114.059 37.179 20.401 0 39.384-2.836 57.029-8.665 18.117-5.277 34.107-13.39 47.813-24.497 13.705-11.028 24.497-24.734 32.453-41.118s11.972-35.13 11.972-56.398c0-12.84-1.339-24.576-3.938-35.132-2.678-10.24-7.326-20.4-13.942-30.562-6.223-10.161-14.651-20.48-25.206-31.114-10.24-10.24-23.237-21.504-39.149-33.87-8.509-6.104-15.425-13.877-20.379-22.883l-0.179-0.355c-3.294-6.574-5.262-14.31-5.357-22.496v-19.252h-99.485v29.145zM450.639 259.821c0 0.043 0 0.094 0 0.146 0 16.673 6.574 31.81 17.271 42.962l-0.021-0.022c10.952 11.047 26.133 17.886 42.911 17.886 0.311 0 0.622-0.002 0.932-0.007l-0.047 0.001c8.35 0 16.384-1.575 23.867-4.647 7.556-3.097 13.968-7.587 19.19-13.2l0.030-0.033c5.676-5.247 10.193-11.659 13.181-18.865l0.131-0.355c3.072-7.561 4.647-15.517 4.647-23.867 0-0.037 0-0.082 0-0.126 0-17.031-6.859-32.459-17.965-43.674l0.005 0.005c-11.13-10.676-26.267-17.25-42.94-17.25-0.051 0-0.102 0-0.154 0h0.008c-0.089 0-0.195-0.001-0.301-0.001-8.499 0-16.599 1.708-23.976 4.8l0.409-0.152c-7.69 3.16-14.292 7.412-19.975 12.645l0.046-0.042c-5.185 5.615-9.435 12.19-12.441 19.412l-0.162 0.438c-2.94 6.967-4.648 15.068-4.648 23.567 0 0.133 0 0.266 0.001 0.398v-0.020z" />
<glyph unicode="&#xe6a2;" glyph-name="view-big" d="M352 672c0 35.346 28.654 64 64 64v0h320c35.346 0 64-28.654 64-64v0-320c0-35.346-28.654-64-64-64s-64 28.654-64 64v0 165.504l-338.752-338.752c-11.497-11.116-27.179-17.966-44.462-17.966-35.346 0-64 28.654-64 64 0 17.282 6.85 32.964 17.983 44.48l-0.017-0.018 338.752 338.752h-165.504c-35.346 0-64 28.654-64 64v0z" />
<glyph unicode="&#xe6a3;" glyph-name="swap" d="M512 832c35.346 0 64-28.654 64-64v0-485.504l210.752 210.752c11.654 12.054 27.97 19.538 46.034 19.538 35.346 0 64-28.654 64-64 0-18.064-7.484-34.38-19.52-46.017l-0.018-0.017-320-320c-11.581-11.578-27.578-18.738-45.248-18.738s-33.667 7.161-45.248 18.739l-320 320c-11.116 11.497-17.966 27.179-17.966 44.462 0 35.346 28.654 64 64 64 17.282 0 32.964-6.85 44.48-17.983l-0.018 0.017 210.752-210.752v485.504c0 35.346 28.654 64 64 64v0z" />
<glyph unicode="&#xe6a4;" glyph-name="overview" d="M332.8 448c0-98.969 80.231-179.2 179.2-179.2s179.2 80.231 179.2 179.2v0c0 98.969-80.231 179.2-179.2 179.2s-179.2-80.231-179.2-179.2v0zM512 883.2c-240.64 0-435.2-194.56-435.2-435.2s194.56-435.2 435.2-435.2 435.2 194.56 435.2 435.2-194.56 435.2-435.2 435.2zM512 166.4c-153.6 0-281.6 128-281.6 281.6s128 281.6 281.6 281.6 281.6-128 281.6-281.6-128-281.6-281.6-281.6z" />
<glyph unicode="&#xe6a5;" glyph-name="about-mux" d="M614.4 857.6c0 28.277 22.923 51.2 51.2 51.2v0c169.662 0 307.2-137.538 307.2-307.2v0c0-28.277-22.923-51.2-51.2-51.2v0h-256c-28.277 0-51.2 22.923-51.2 51.2v0 256zM76.8 396.8c0 212.077 171.923 384 384 384v0c28.277 0 51.2-22.923 51.2-51.2v0-179.2c0-51.2 51.2-102.4 102.4-102.4h179.2c28.277 0 51.2-22.923 51.2-51.2v0c0-212.077-171.923-384-384-384s-384 171.923-384 384v0z" />
<glyph unicode="&#xe6a6;" glyph-name="staking" d="M307.2 448c0-70.692 57.308-128 128-128s128 57.308 128 128v0c0 70.692-57.308 128-128 128s-128-57.308-128-128v0zM727.040 857.6h-430.080c-107.52 0-194.56-87.040-194.56-194.56v-435.2c0-102.4 87.040-189.44 194.56-189.44h435.2c107.52 0 194.56 87.040 194.56 194.56v430.080c-5.12 107.52-92.16 194.56-199.68 194.56zM768 396.8h-107.52c-25.6-102.4-112.64-179.2-225.28-179.2-128 0-230.4 102.4-230.4 230.4s102.4 230.4 230.4 230.4c107.52 0 199.68-76.8 225.28-179.2h107.52c30.72 0 51.2-20.48 51.2-51.2s-20.48-51.2-51.2-51.2z" />
<glyph unicode="&#xe6a7;" glyph-name="vesting" d="M563.2 704c0 112.64 92.16 204.8 204.8 204.8h51.2c112.64 0 204.8-92.16 204.8-204.8v-51.2c0-30.72-20.48-51.2-51.2-51.2s-51.2 20.48-51.2 51.2v51.2c0 56.32-46.080 102.4-102.4 102.4h-51.2c-56.32 0-102.4-46.080-102.4-102.4v-102.4h-102.4v102.4zM384 320c0-42.415 34.385-76.8 76.8-76.8s76.8 34.385 76.8 76.8v0c0 42.415-34.385 76.8-76.8 76.8s-76.8-34.385-76.8-76.8v0zM716.8 601.6h-512c-87.040 0-153.6-66.56-153.6-153.6v-256c0-87.040 66.56-153.6 153.6-153.6h512c87.040 0 153.6 66.56 153.6 153.6v256c0 87.040-66.56 153.6-153.6 153.6zM460.8 140.8c-97.28 0-179.2 81.92-179.2 179.2s81.92 179.2 179.2 179.2 179.2-81.92 179.2-179.2-81.92-179.2-179.2-179.2z" />
<glyph unicode="&#xe6a8;" glyph-name="copy" d="M416 384c0 88.366 71.634 160 160 160v0h192c88.366 0 160-71.634 160-160v0-192c0-88.366-71.634-160-160-160v0h-192c-88.366 0-160 71.634-160 160v0 192zM576 480c-53.019 0-96-42.981-96-96v0-192c0-53.019 42.981-96 96-96v0h192c53.019 0 96 42.981 96 96v0 192c0 53.019-42.981 96-96 96v0h-192zM96 704c0 88.366 71.634 160 160 160v0h192c88.366 0 160-71.634 160-160v0-32c0-17.673-14.327-32-32-32s-32 14.327-32 32v0 32c0 53.019-42.981 96-96 96v0h-192c-53.019 0-96-42.981-96-96v0-192c0-53.019 42.981-96 96-96v0h32c17.673 0 32-14.327 32-32s-14.327-32-32-32v0h-32c-88.366 0-160 71.634-160 160v0 192z" />
<glyph unicode="&#xe6a9;" glyph-name="copied" d="M512 800c-194.359-0.060-351.895-157.632-351.895-352 0-194.404 157.596-352 352-352s352 157.596 352 352c0 28.838-3.468 56.866-10.009 83.69l0.497-2.41c-0.459 2.032-0.722 4.365-0.722 6.76 0 17.673 14.327 32 32 32 14.845 0 27.329-10.108 30.944-23.817l0.050-0.223c7.12-28.806 11.205-61.876 11.205-95.901 0-229.75-186.25-416-416-416s-416 186.25-416 416c0 229.75 186.25 416 416 416 57.717 0 112.689-11.754 162.653-33l-2.722 1.028c11.657-4.955 19.682-16.308 19.682-29.536 0-17.674-14.328-32.002-32.002-32.002-4.446 0-8.681 0.907-12.529 2.546l0.209-0.079c-39.826 17.038-86.168 26.944-134.823 26.944-0.189 0-0.378 0-0.566 0h0.030zM886.016 780.544c6.142-5.842 9.962-14.076 9.962-23.201 0-8.52-3.33-16.263-8.759-21.997l0.014 0.015-384-405.376c-5.846-6.175-14.102-10.018-23.255-10.018-8.839 0-16.842 3.584-22.633 9.378l-128 128c-5.798 5.798-9.384 13.808-9.384 22.656 0 17.695 14.345 32.040 32.040 32.040 8.848 0 16.858-3.586 22.656-9.384v0l104.704-104.768 361.408 381.44c5.847 6.181 14.106 10.027 23.264 10.027 8.521 0 16.264-3.331 21.999-8.761l-0.015 0.014z" />
<glyph unicode="&#xe6aa;" glyph-name="view" d="M320 672c-88.366 0-160-71.634-160-160v0-256c0-88.366 71.634-160 160-160v0h256c88.366 0 160 71.634 160 160v0 128c0 17.673 14.327 32 32 32s32-14.327 32-32v0-128c0-123.712-100.288-224-224-224v0h-256c-123.712 0-224 100.288-224 224v0 256c0 123.712 100.288 224 224 224v0h128c17.673 0 32-14.327 32-32s-14.327-32-32-32v0h-128zM886.656 822.656c5.808-5.794 9.401-13.805 9.401-22.656s-3.593-16.862-9.401-22.655l-416.001-416.001c-5.798-5.798-13.808-9.384-22.656-9.384-17.695 0-32.040 14.345-32.040 32.040 0 8.848 3.586 16.858 9.384 22.656v0l416 416c5.794 5.808 13.805 9.401 22.656 9.401s16.862-3.593 22.655-9.401l0.001-0.001zM576 832c0 17.673 14.327 32 32 32v0h288c17.673 0 32-14.327 32-32v0-288c0-17.673-14.327-32-32-32s-32 14.327-32 32v0 256h-256c-17.673 0-32 14.327-32 32v0z" />
<glyph unicode="&#xe6ab;" glyph-name="up" d="M512 672c-17.671-0.004-33.669-7.169-45.248-18.752l-256-256c-11.116-11.497-17.966-27.179-17.966-44.462 0-35.346 28.654-64 64-64 17.282 0 32.964 6.85 44.48 17.983l-0.018-0.017 210.752 210.752 210.752-210.752c11.497-11.116 27.179-17.966 44.462-17.966 35.346 0 64 28.654 64 64 0 17.282-6.85 32.964-17.983 44.48l0.017-0.018-256 256c-11.579 11.583-27.576 18.748-45.247 18.752h-0.001z" />
<glyph unicode="&#xe6ac;" glyph-name="down" d="M512 224c-17.671 0.004-33.669 7.169-45.248 18.752l-256 256c-11.116 11.497-17.966 27.179-17.966 44.462 0 35.346 28.654 64 64 64 17.282 0 32.964-6.85 44.48-17.983l-0.018 0.017 210.752-210.752 210.752 210.752c11.654 12.054 27.97 19.538 46.034 19.538 35.346 0 64-28.654 64-64 0-18.064-7.484-34.38-19.52-46.017l-0.018-0.017-256-256c-11.579-11.583-27.576-18.748-45.247-18.752h-0.001z" />
<glyph unicode="&#xe6ad;" glyph-name="left" d="M653.248 749.248c11.578-11.581 18.738-27.578 18.738-45.248s-7.161-33.667-18.739-45.248l-210.752-210.752 210.752-210.752c11.116-11.497 17.966-27.179 17.966-44.462 0-35.346-28.654-64-64-64-17.282 0-32.964 6.85-44.48 17.983l0.018-0.017-256 256c-11.578 11.581-18.738 27.578-18.738 45.248s7.161 33.667 18.739 45.248l256 256c11.581 11.578 27.578 18.738 45.248 18.738s33.667-7.161 45.248-18.739v0z" />
<glyph unicode="&#xe6ae;" glyph-name="right" d="M370.752 749.248c11.581 11.578 27.578 18.738 45.248 18.738s33.667-7.161 45.248-18.739l256-256c11.578-11.581 18.738-27.578 18.738-45.248s-7.161-33.667-18.739-45.248l-256-256c-11.497-11.116-27.179-17.966-44.462-17.966-35.346 0-64 28.654-64 64 0 17.282 6.85 32.964 17.983 44.48l-0.017-0.018 210.752 210.752-210.752 210.752c-11.578 11.581-18.738 27.578-18.738 45.248s7.161 33.667 18.739 45.248v0z" />
<glyph unicode="&#xe6af;" glyph-name="popup-back" d="M556.819 941.262c11.569-11.572 18.724-27.557 18.724-45.213s-7.155-33.641-18.724-45.213l-402.442-402.442 402.442-402.442c12.045-11.645 19.523-27.949 19.523-45.999 0-35.319-28.632-63.951-63.951-63.951-18.050 0-34.354 7.478-45.982 19.505l-0.017 0.018-447.655 447.655c-11.569 11.572-18.724 27.557-18.724 45.213s7.155 33.641 18.724 45.213l447.655 447.655c11.572 11.569 27.557 18.724 45.213 18.724s33.641-7.155 45.213-18.724v0zM0 448.394c0 35.319 28.632 63.951 63.951 63.951v0h895.311c35.319 0 63.951-28.632 63.951-63.951s-28.632-63.951-63.951-63.951h-895.311c-35.319 0-63.951 28.632-63.951 63.951v0z" />
<glyph unicode="&#xe6b0;" glyph-name="popup-close" d="M601.6 448l371.2 371.2c25.6 25.6 25.6 64 0 89.6s-64 25.6-89.6 0l-371.2-371.2-371.2 371.2c-25.6 25.6-64 25.6-89.6 0s-25.6-64 0-89.6l371.2-371.2-371.2-371.2c-25.6-25.6-25.6-64 0-89.6s64-25.6 89.6 0l371.2 371.2 371.2-371.2c25.6-25.6 64-25.6 89.6 0s25.6 64 0 89.6l-371.2 371.2z" />
<glyph unicode="&#xe6b1;" glyph-name="view-large" d="M352 672c0 35.346 28.654 64 64 64v0h320c35.346 0 64-28.654 64-64v0-320c0-35.346-28.654-64-64-64s-64 28.654-64 64v0 165.504l-338.752-338.752c-11.497-11.116-27.179-17.966-44.462-17.966-35.346 0-64 28.654-64 64 0 17.282 6.85 32.964 17.983 44.48l-0.017-0.018 338.752 338.752h-165.504c-35.346 0-64 28.654-64 64v0z" />
<glyph unicode="&#xe6b2;" glyph-name="add-token" d="M576 704c0 35.346-28.654 64-64 64s-64-28.654-64-64v0-192h-192c-35.346 0-64-28.654-64-64s28.654-64 64-64v0h192v-192c0-35.346 28.654-64 64-64s64 28.654 64 64v0 192h192c35.346 0 64 28.654 64 64s-28.654 64-64 64v0h-192v192z" />
<glyph unicode="&#xe6b3;" glyph-name="change-collateral" d="M96 640c0 123.712 100.288 224 224 224v0h384c123.712 0 224-100.288 224-224v0-384c0-123.712-100.288-224-224-224v0h-384c-123.712 0-224 100.288-224 224v0 384zM320 800c-88.366 0-160-71.634-160-160v0-384c0-88.366 71.634-160 160-160v0h384c88.366 0 160 71.634 160 160v0 384c0 88.366-71.634 160-160 160v0h-384zM320 448c0 17.673 14.327 32 32 32v0h320c17.673 0 32-14.327 32-32s-14.327-32-32-32v0h-320c-17.673 0-32 14.327-32 32v0zM512 640c17.673 0 32-14.327 32-32v0-320c0-17.673-14.327-32-32-32s-32 14.327-32 32v0 320c0 17.673 14.327 32 32 32v0z" />
<glyph unicode="&#xe6b4;" glyph-name="transformation" d="M96 736c0 17.673 14.327 32 32 32v0h512c159.058 0 288-128.942 288-288v0-64c0-17.673-14.327-32-32-32s-32 14.327-32 32v0 64c0 123.712-100.288 224-224 224v0h-512c-17.673 0-32 14.327-32 32v0zM384 192h448.064c17.673 0 32-14.327 32-32s-14.327-32-32-32v0h-448.064c-159.058 0-288 128.942-288 288v0 64c0 17.673 14.327 32 32 32s32-14.327 32-32v0-64c0-123.712 100.288-224 224-224v0zM98.112 761.6l170.688 128c5.281 3.996 11.96 6.4 19.2 6.4 17.673 0 32-14.327 32-32v0-256c0-17.673-14.327-32-32-32-7.24 0-13.919 2.404-19.28 6.458l0.080-0.058-170.688 128c-7.807 5.9-12.8 15.167-12.8 25.6s4.993 19.7 12.72 25.542l0.080 0.058zM925.888 134.4l-170.688-128c-5.281-3.996-11.96-6.4-19.2-6.4-17.673 0-32 14.327-32 32v256c0 17.673 14.327 32 32 32 7.24 0 13.919-2.404 19.28-6.458l-0.080 0.058 170.688-128c7.807-5.9 12.8-15.167 12.8-25.6s-4.993-19.7-12.72-25.542l-0.080-0.058z" />
<glyph unicode="&#xe6b5;" glyph-name="rewards" horiz-adv-x="1109" d="M832 704h-64c6.4 12.8 6.4 19.2 6.4 32 0 25.6-6.4 51.2-25.6 64-19.2 19.2-44.8 32-76.8 32-44.8 0-83.2-19.2-115.2-44.8-12.8-19.2-25.6-32-38.4-51.2-12.8 19.2-32 32-44.8 51.2-32 25.6-70.4 44.8-115.2 44.8-32 0-57.6-12.8-76.8-32-19.2-12.8-25.6-38.4-25.6-64 0-12.8 0-19.2 6.4-32h-70.4c-51.2 0-96-44.8-96-96v-64c0-44.8 25.6-76.8 64-89.6v-294.4c0-51.2 44.8-96 96-96h512c51.2 0 96 44.8 96 96v294.4c38.4 12.8 64 51.2 64 89.6v64c0 51.2-44.8 96-96 96zM326.4 755.2c6.4 6.4 19.2 12.8 32 12.8 25.6 0 44.8-12.8 70.4-32 12.8-12.8 25.6-19.2 32-32h-102.4c-12.8 0-25.6 6.4-32 12.8s-6.4 12.8-6.4 19.2 0 12.8 6.4 19.2zM480 128h-224c-19.2 0-32 12.8-32 32v288h256v-320zM480 512h-288c-19.2 0-32 12.8-32 32v64c0 19.2 12.8 32 32 32h288v-128zM601.6 736c25.6 19.2 51.2 32 70.4 32s25.6-6.4 32-12.8c6.4-6.4 6.4-12.8 6.4-19.2s0-12.8-6.4-19.2c-6.4-6.4-12.8-12.8-32-12.8h-102.4l32 32zM800 160c0-19.2-12.8-32-32-32h-224v320h256v-288zM864 544c0-19.2-12.8-32-32-32h-288v128h288c19.2 0 32-12.8 32-32v-64z" />
<glyph unicode="&#xe6b6;" glyph-name="input-close" d="M512 896c-249.6 0-448-198.4-448-448s198.4-448 448-448 448 198.4 448 448-198.4 448-448 448zM704 345.6c25.6-25.6 25.6-64 0-89.6s-64-25.6-89.6 0l-102.4 102.4-102.4-102.4c-25.6-25.6-64-25.6-89.6 0s-25.6 64 0 89.6l102.4 102.4-102.4 102.4c-25.6 25.6-25.6 64 0 89.6s64 25.6 89.6 0l102.4-102.4 102.4 102.4c25.6 25.6 64 25.6 89.6 0s25.6-64 0-89.6l-102.4-102.4 102.4-102.4z" />
<glyph unicode="&#xe6b7;" glyph-name="calendar" d="M358.4 908.8c28.277 0 51.2-22.923 51.2-51.2v0-51.2h204.8v51.2c0 28.277 22.923 51.2 51.2 51.2s51.2-22.923 51.2-51.2v-51.2h76.8c84.831 0 153.6-68.769 153.6-153.6v0-460.8c0-84.831-68.769-153.6-153.6-153.6v0h-563.2c-84.831 0-153.6 68.769-153.6 153.6v0 460.8c0 84.831 68.769 153.6 153.6 153.6v0h76.8v51.2c0 28.277 22.923 51.2 51.2 51.2v0zM665.6 704h-435.2c-28.277 0-51.2-22.923-51.2-51.2v0-102.4h665.6v102.4c0 28.277-22.923 51.2-51.2 51.2v0h-128zM179.2 448v-256c0-28.277 22.923-51.2 51.2-51.2h563.2c28.277 0 51.2 22.923 51.2 51.2v0 256h-665.6z" />
<glyph unicode="&#xe6b8;" glyph-name="checkbox-selected" d="M824.235 682.923c17.923-15.723 29.176-38.673 29.176-64.251 0-21.589-8.017-41.306-21.237-56.335l0.082 0.095-298.667-341.333c-15.722-17.894-38.653-29.128-64.209-29.128-23.583 0-44.932 9.567-60.377 25.031l-170.668 170.668c-14.821 15.33-23.954 36.239-23.954 59.282 0 47.128 38.205 85.333 85.333 85.333 23.043 0 43.952-9.133 59.306-23.977l-0.024 0.023 106.155-106.155 238.592 272.725c15.723 17.923 38.673 29.176 64.251 29.176 21.589 0 41.306-8.017 56.335-21.237l-0.095 0.082z" />
<glyph unicode="&#xe6b9;" glyph-name="wrong-network" d="M512 857.6c-225.28 0-409.6-184.32-409.6-409.6s184.32-409.6 409.6-409.6 409.6 184.32 409.6 409.6-184.32 409.6-409.6 409.6zM512 94.72c-194.56 0-353.28 158.72-353.28 353.28s158.72 353.28 353.28 353.28 353.28-158.72 353.28-353.28-158.72-353.28-353.28-353.28zM460.8 294.4c0-28.277 22.923-51.2 51.2-51.2s51.2 22.923 51.2 51.2v0c0 28.277-22.923 51.2-51.2 51.2s-51.2-22.923-51.2-51.2v0zM512 396.8c15.36 0 25.6 10.24 25.6 25.6l20.48 179.2c5.12 25.6-20.48 51.2-46.080 51.2s-51.2-25.6-46.080-51.2l20.48-179.2c0-15.36 10.24-25.6 25.6-25.6z" />
<glyph unicode="&#xe6ba;" glyph-name="redeem" d="M876.8 492.8l-320 320c-25.6 25.6-64 25.6-89.6 0s-25.6-64 0-89.6l211.2-211.2h-486.4c-38.4 0-64-25.6-64-64s25.6-64 64-64h486.4l-211.2-211.2c-25.6-25.6-25.6-64 0-89.6s64-25.6 89.6 0l320 320c25.6 25.6 25.6 64 0 89.6z" />
<glyph unicode="&#xe6bc;" glyph-name="add-wallet" d="M768 672h-64v32c0 89.6-70.4 160-160 160h-288c-89.6 0-160-70.4-160-160v-512c0-89.6 70.4-160 160-160h512c89.6 0 160 70.4 160 160v320c0 89.6-70.4 160-160 160zM160 704c0 51.2 44.8 96 96 96h288c51.2 0 96-44.8 96-96v-32h-384c-38.4 0-70.4-12.8-96-32v64zM864 384h-256c-19.2 0-32-12.8-32-32s12.8-32 32-32h256v-128c0-51.2-44.8-96-96-96h-512c-51.2 0-96 44.8-96 96v320c0 51.2 44.8 96 96 96h512c51.2 0 96-44.8 96-96v-128z" />
<glyph unicode="&#xe6c2;" glyph-name="medium" d="M288.8 159.040c159.5 0 288.8 129.3 288.8 288.8s-129.3 288.8-288.8 288.8v0c-159.5 0-288.8-129.3-288.8-288.8s129.3-288.8 288.8-288.8v0zM748.32 172.16c79.744 0 144.384 123.392 144.384 275.712 0 152.256-64.64 275.712-144.384 275.712s-144.384-123.456-144.384-275.712c0-152.32 64.64-275.776 144.384-275.776zM1024.032 447.872c0-134.528-23.296-243.648-52.032-243.648-28.8 0-52.096 109.12-52.096 243.648s23.296 243.584 52.096 243.584c28.736 0 52.032-109.056 52.032-243.584z" />
<glyph unicode="&#xe6c3;" glyph-name="forum" d="M934.4 448c-0.087 233.219-189.169 422.247-422.4 422.247-233.285 0-422.4-189.115-422.4-422.4 0-73.883 18.969-143.335 52.302-203.753l-1.102 2.178-29.248-144c-0.806-3.81-1.267-8.187-1.267-12.672 0-35.342 28.646-63.993 63.986-64h337.857c233.23 0.073 422.272 189.16 422.272 422.4v0z" />
<glyph unicode="&#xe6c4;" glyph-name="code" d="M1024 448c-0.004-17.671-7.169-33.669-18.752-45.248l-256-256c-11.497-11.116-27.179-17.966-44.462-17.966-35.346 0-64 28.654-64 64 0 17.282 6.85 32.964 17.983 44.48l-0.017-0.018 210.752 210.752-210.752 210.752c-12.054 11.654-19.538 27.97-19.538 46.034 0 35.346 28.654 64 64 64 18.064 0 34.38-7.484 46.017-19.52l0.017-0.018 256-256c11.583-11.579 18.748-27.576 18.752-45.247v-0.001zM365.248 749.248c11.578-11.581 18.738-27.578 18.738-45.248s-7.161-33.667-18.739-45.248l-210.752-210.752 210.752-210.752c12.054-11.654 19.538-27.97 19.538-46.034 0-35.346-28.654-64-64-64-18.064 0-34.38 7.484-46.017 19.52l-0.017 0.018-256 256c-11.578 11.581-18.738 27.578-18.738 45.248s7.161 33.667 18.739 45.248l256 256c11.581 11.578 27.578 18.738 45.248 18.738s33.667-7.161 45.248-18.739v0z" />
<glyph unicode="&#xe6c5;" glyph-name="twitter" d="M992 745.728c-33.012-14.814-71.303-25.531-111.434-30.224l-1.846-0.176c40.682 24.468 71.28 62.162 86.13 107.029l0.398 1.387c-35.916-21.746-77.745-38.258-122.325-47.141l-2.475-0.411c-35.904 38.328-86.829 62.209-143.331 62.209-0.168 0-0.335 0-0.503-0.001h0.026c-108.619 0-196.672-88.053-196.672-196.672 0-0.045 0-0.090 0-0.135v0.007c0-15.232 1.792-30.464 4.8-45.12-163.955 8.612-308.124 86.614-404.773 204.948l-0.795 1.004c-17.088-29.312-26.752-62.784-26.752-99.392 0-68.288 34.752-128.512 87.68-163.904-32.859 1.325-63.319 10.442-89.945 25.538l0.985-0.514v-2.432c0-0.082 0-0.18 0-0.277 0-94.813 67.071-173.962 156.354-192.588l1.278-0.223c-15.518-4.206-33.347-6.654-51.737-6.72h-0.039c-12.8 0-24.96 1.28-37.12 3.008 25.986-78.727 98.161-134.847 183.677-136.509l0.195-0.003c-66.324-52.426-151.156-84.097-243.385-84.097-0.295 0-0.59 0-0.884 0.001h0.046c-16.512 0-31.744 0.64-47.552 2.432 85.062-55.345 189.136-88.257 300.897-88.257 0.438 0 0.876 0.001 1.314 0.002h-0.068c361.792 0 559.808 299.712 559.808 559.872 0 8.576 0 17.088-0.64 25.6 38.544 28.466 71.225 62.124 97.77 100.363l0.918 1.397z" />
<glyph unicode="&#xe6c6;" glyph-name="doc" d="M896 851.2h-160c-89.6 0-172.8-44.8-224-108.8-51.2 64-134.4 108.8-224 108.8h-160c-38.4 0-64-25.6-64-64v-614.4c0-38.4 25.6-64 64-64h256c44.8 0 51.2-12.8 64-32s19.2-32 64-32 51.2 12.8 64 32 19.2 32 64 32h256c38.4 0 64 25.6 64 64v614.4c0 38.4-25.6 64-64 64zM832 236.8h-192c-25.6 0-44.8-6.4-64-12.8v339.2c0 89.6 70.4 160 160 160h96v-486.4z" />
<glyph unicode="&#xe6c7;" glyph-name="telegram" d="M824.64 713.728c-22.528 6.080-35.584-7.424-49.984-16.448-438.771-266.375-593.406-365.286-747.622-464.79l273.51 165.27c-9.003-6.764-20.367-10.832-32.682-10.832-6.954 0-13.605 1.297-19.724 3.663l0.374-0.127c-59.264 19.648-119.168 36.992-178.624 55.424-20.736 6.592-50.688 8.128-50.688 35.2 0 27.008 27.904 35.072 49.536 43.392 132.16 50.816 263.808 101.312 395.072 151.68 150.272 57.6 300.48 115.712 450.496 173.12 23.68 9.024 48.64 26.176 73.408 3.392 24.768-22.72 16.448-50.24 11.072-76.544-22.528-110.592-46.656-220.992-70.272-331.52 48.234 280.559 21.907 160.664-4.062 40.636l-71.842-396.092c-13.056-61.056-45.056-73.216-95.36-36.288-59.84 43.712-120.64 86.272-178.304 133.12-28.16 22.528-45.056 20.288-67.584-5.888-22.528-26.112-50.496-49.28-76.16-73.6-6.976-6.4-15.36-13.568-24.96-8.576-9.728 4.928-6.784 14.208-7.040 22.528-1.088 59.904-1.536 120.064-4.032 180.16 0.288 15.706 8.569 29.417 20.936 37.267l0.184 0.109 376.448 341.248c10.816 9.024 23.168 16 27.904 34.496z" />
<glyph unicode="&#xe6c8;" glyph-name="discord" d="M256.956 101.888c4.16 0 9.152-1.536 12.032 1.984 18.816 21.952 37.44 45.12 56.768 68.8-55.289 15.94-102.328 45.833-138.671 85.656l-0.209 0.232c-2.24 5.248 0 5.952 4.544 4.608 28.8-15.552 58.56-29.44 88.96-41.6 99.84-39.232 207.872-53.12 314.432-40.32 93.586 12.971 177.928 43.321 252.91 87.792l-3.118-1.712c4.8-1.28 0-3.52 0-5.248s-5.248-6.784-8.128-9.856c-33.298-34.050-74.871-59.868-121.474-74.21l-2.046-0.542c-13.824-4.352-14.272-8.512-4.864-18.56 13.824-15.36 26.944-31.36 39.424-47.808 3.646-5.582 9.865-9.22 16.933-9.22 1.139 0 2.257 0.095 3.344 0.276l-0.118-0.016c82.523 4.131 156.989 35.578 215.276 85.403l-0.492-0.411c31.36 27.2 49.728 57.216 38.080 99.904-0.057 0.566-0.089 1.223-0.089 1.888s0.032 1.322 0.095 1.97l-0.006-0.082c-10.329 140.887-43.189 271.46-95.045 391.931l3.013-7.867c-17.005 47.18-51.099 84.686-94.633 105.755l-1.111 0.485c-48.658 24.833-105.226 42.741-164.96 50.595l-2.656 0.285c-10.24 0-20.352-1.536-21.888-11.392s10.496-7.232 16.64-9.408c63.461-20.1 118.681-47.602 168.572-82.239l-2.044 1.343c0-2.368 3.52-3.456 3.904-6.080-2.56 1.536-5.696 0-8.32 1.728-6.784 2.624-13.568 5.056-20.352 8.128-86.795 38.821-188.101 61.431-294.689 61.431-47.508 0-93.967-4.492-138.976-13.074l4.609 0.731c-69.12-12.544-136.32-34.24-199.808-64.448-1.536 0-3.072-1.536-4.416 0-1.28 1.536 0 2.624 0 3.712 56.459 40.381 122.060 72.745 192.616 93.549l4.632 1.171c4.352 1.28 11.84 0 11.136 6.72-0.64 6.848-7.68 8.128-14.208 8.128h-7.488c-84.316-10.151-159.804-41.517-222.925-88.556l1.229 0.876c-5.322-3.996-9.558-9.155-12.376-15.115l-0.104-0.245c-71.033-138.925-115.025-302.24-120.782-475.239l-0.050-1.881c-0.64-13.312 3.84-26.368 12.736-36.352 59.874-68.353 146.744-111.785 243.792-113.532l0.304-0.004zM670.14 507.52c49.091-2.768 87.851-43.252 87.851-92.789 0-1.985-0.062-3.956-0.185-5.91l0.013 0.267c0.003-0.271 0.004-0.592 0.004-0.913 0-50.305-39.698-91.337-89.475-93.48l-0.194-0.007c-49.936 3.344-89.176 44.669-89.176 95.159 0 0.746 0.009 1.489 0.026 2.231l-0.002-0.11c-0.043 1.051-0.067 2.284-0.067 3.524 0 50.537 40.733 91.559 91.159 92.028h0.044zM347.132 507.52c50.479-0.595 91.17-41.655 91.17-92.218 0-0.88-0.012-1.757-0.037-2.631l0.003 0.129c0.055-1.201 0.086-2.61 0.086-4.025 0-50.349-39.498-91.473-89.198-94.077l-0.232-0.010c-49.513 2.104-88.856 42.754-88.856 92.593 0 1.423 0.032 2.839 0.096 4.246l-0.007-0.2c-0.109 1.668-0.171 3.616-0.171 5.578 0 48.901 38.623 88.782 87.029 90.8l0.183 0.006v-0.192z" />
<glyph unicode="&#xe6c9;" glyph-name="step-refresh" d="M512 704c-141.332-0.071-255.876-114.659-255.876-256 0-141.385 114.615-256 256-256 104.345 0 194.109 62.428 233.98 151.971l0.648 1.629c9.704 23.762 32.638 40.202 59.411 40.202 35.346 0 64-28.654 64-64 0-9.956-2.273-19.381-6.329-27.785l0.166 0.382c-60.783-136.795-195.458-230.464-352.012-230.464-212.113 0-384.064 171.951-384.064 384.064s171.951 384.064 384.064 384.064c156.553 0 291.229-93.669 351.040-228.021l0.972-2.443c2.903-7.045 4.589-15.225 4.589-23.798 0-35.346-28.654-64-64-64-25.39 0-47.327 14.785-57.671 36.215l-0.166 0.382c-40.538 91.174-130.314 153.6-234.67 153.6-0.029 0-0.058 0-0.087 0h0.005zM832 864c35.346 0 64-28.654 64-64v0-224c0-35.346-28.654-64-64-64v0h-224c-35.346 0-64 28.654-64 64s28.654 64 64 64v0h160v160c0 35.346 28.654 64 64 64v0z" />
<glyph unicode="&#xe6ca;" glyph-name="step-success" d="M877.248 685.248c11.578-11.581 18.738-27.578 18.738-45.248s-7.161-33.667-18.739-45.248l-416-416c-11.581-11.578-27.578-18.738-45.248-18.738s-33.667 7.161-45.248 18.739l-192 192c-11.116 11.497-17.966 27.179-17.966 44.462 0 35.346 28.654 64 64 64 17.282 0 32.964-6.85 44.48-17.983l-0.018 0.017 146.752-146.752 370.752 370.752c11.581 11.578 27.578 18.738 45.248 18.738s33.667-7.161 45.248-18.739v0z" />
<glyph unicode="&#xe6cb;" glyph-name="step-failed" d="M813.248 749.248c11.578-11.581 18.738-27.578 18.738-45.248s-7.161-33.667-18.739-45.248l-512-512c-11.497-11.116-27.179-17.966-44.462-17.966-35.346 0-64 28.654-64 64 0 17.282 6.85 32.964 17.983 44.48l-0.017-0.018 512 512c11.581 11.578 27.578 18.738 45.248 18.738s33.667-7.161 45.248-18.739v0zM813.248 146.752c-11.581-11.578-27.578-18.738-45.248-18.738s-33.667 7.161-45.248 18.739l-512 512c-11.116 11.497-17.966 27.179-17.966 44.462 0 35.346 28.654 64 64 64 17.282 0 32.964-6.85 44.48-17.983l-0.018 0.017 512-512c11.578-11.581 18.738-27.578 18.738-45.248s-7.161-33.667-18.739-45.248v0z" />
<glyph unicode="&#xe6cc;" glyph-name="loading-small" d="M512 738.1c-160.155-0.083-289.955-129.933-289.955-290.1 0-160.218 129.882-290.1 290.1-290.1 118.252 0 219.978 70.753 265.156 172.234l0.734 1.846c7.766 19.006 26.11 32.153 47.525 32.153 28.277 0 51.2-22.923 51.2-51.2 0-7.962-1.817-15.499-5.060-22.22l0.133 0.306c-62.126-139.855-199.805-235.622-359.852-235.622-216.828 0-392.602 175.774-392.602 392.602s175.774 392.602 392.602 392.602c160.047 0 297.726-95.767 358.859-233.124l0.993-2.498c3.109-6.414 4.926-13.952 4.926-21.913 0-28.277-22.923-51.2-51.2-51.2-21.415 0-39.76 13.148-47.402 31.812l-0.124 0.342c-45.942 103.331-147.687 174.080-265.957 174.080-0.028 0-0.055 0-0.083 0h0.004zM853.3 874.7c28.277 0 51.2-22.923 51.2-51.2v0-239c0-28.277-22.923-51.2-51.2-51.2v0h-238.9c-28.277 0-51.2 22.923-51.2 51.2s22.923 51.2 51.2 51.2v0h187.7v187.8c0 28.277 22.923 51.2 51.2 51.2v0z" />
<glyph unicode="&#xe6cd;" glyph-name="success-small" d="M889.549 689.050c9.293-9.27 15.042-22.089 15.042-36.25s-5.749-26.98-15.041-36.249l-443.803-443.7c-9.265-9.262-22.063-14.991-36.199-14.991s-26.934 5.729-36.199 14.991l-204.8 204.8c-8.896 9.199-14.378 21.747-14.378 35.575 0 28.277 22.923 51.2 51.2 51.2 13.829 0 26.377-5.482 35.589-14.392l168.639-168.536 407.552 407.552c9.265 9.262 22.063 14.991 36.198 14.991s26.934-5.729 36.199-14.991v0z" />
<glyph unicode="&#xe6ce;" glyph-name="failed-small" d="M219.75 740.25c9.27 9.293 22.089 15.042 36.25 15.042s26.98-5.749 36.249-15.041l219.751-219.854 219.75 219.853c9.277 9.277 22.093 15.015 36.25 15.015 28.313 0 51.265-22.952 51.265-51.265 0-14.157-5.738-26.973-15.015-36.25l-219.853-219.75 219.853-219.75c9.277-9.277 15.015-22.093 15.015-36.25 0-28.313-22.952-51.265-51.265-51.265-14.157 0-26.973 5.738-36.25 15.015l-219.75 219.853-219.75-219.853c-9.277-9.277-22.093-15.015-36.25-15.015-28.313 0-51.265 22.952-51.265 51.265 0 14.157 5.738 26.973 15.015 36.25l219.853 219.75-219.853 219.75c-9.293 9.27-15.042 22.089-15.042 36.25s5.749 26.98 15.041 36.249l0.001 0.001z" />
<glyph unicode="&#xe6cf;" glyph-name="left-back" d="M800 480h-531.2l233.6 233.6c12.8 12.8 12.8 32 0 44.8s-32 12.8-44.8 0l-284.8-288c-12.8-12.8-12.8-32 0-44.8h3.2l284.8-288c6.4-6.4 16-9.6 22.4-9.6 9.6 0 16 3.2 22.4 9.6 12.8 12.8 12.8 32 0 44.8l-233.6 233.6h528c19.2 0 32 12.8 32 32s-16 32-32 32z" />
<glyph unicode="&#xe900;" glyph-name="one-click" d="M121.022 410.865l124.343 435.2c6.28 21.981 26.371 37.135 49.23 37.135h535.357c40.051 0 64.595-43.921 43.603-78.034l-156.781-254.766h122.195c46.97 0 69.152-57.966 34.176-89.322l-524.011-469.807c-37.068-33.229-94.959 0.634-84.159 49.229l67.8 305.1h-162.523c-34.016 0-58.575 32.558-49.23 65.265z" />
<glyph unicode="&#xe901;" glyph-name="account" d="M307.175 755.201c-56.554 0-102.4-45.846-102.4-102.4v-204.8h-102.4v204.8c0 113.108 91.692 204.8 204.8 204.8h256c113.107 0 204.799-91.692 204.799-204.8v-76.8h-102.4v76.8c0 56.554-45.845 102.4-102.399 102.4h-256zM256.1 601.597h512.003c84.826 0 153.6-68.769 153.6-153.6v-255.997c0-84.832-68.774-153.6-153.6-153.6h-512.002c-84.831 0-153.601 68.768-153.601 153.6v255.997c0 84.831 68.769 153.6 153.6 153.6zM742.477 243.2c42.413 0 76.8 34.381 76.8 76.8 0 42.415-34.387 76.799-76.8 76.799-42.419 0-76.8-34.385-76.8-76.799 0-42.419 34.381-76.8 76.8-76.8z" />
<glyph unicode="&#xe902;" glyph-name="twitter-x" d="M776.749 864h141.139l-308.352-352.427 362.752-479.573h-284.032l-222.464 290.859-254.55-290.859h-141.226l329.813 376.96-347.989 455.040h291.242l201.088-265.856 232.579 265.856zM727.213 116.48h78.208l-504.835 667.477h-83.925l510.552-667.477z" />
<glyph unicode="&#xe903;" glyph-name="spread-tolerance" d="M70.806 597.551l221.579 284.888c20.498 26.355 60.331 26.355 80.829 0l221.581-284.888c39.235-50.447 3.287-123.951-60.626-123.951h-402.741c-63.909 0-99.859 73.504-60.622 123.951zM972.805 273.459l-164.547-209.418c-20.5-26.092-60.017-26.092-80.517 0l-164.541 209.418c-31.15 39.639-2.908 97.741 47.503 97.741h314.593c50.412 0 78.653-58.102 47.508-97.741zM230.4 473.6h204.8v-409.6c0-28.278-22.923-51.2-51.2-51.2h-102.4c-28.277 0-51.2 22.922-51.2 51.2v409.6zM691.2 678.4c0 28.277 22.922 51.2 51.2 51.2h51.2c28.278 0 51.2-22.923 51.2-51.2v-307.2h-153.6v307.2z" />
<glyph unicode="&#xe904;" glyph-name="fall" d="M177.8 796.818c15.811 7.898 35.030 1.484 42.927-14.326l195.283-390.922 99.368 198.731c5.421 10.841 16.5 17.689 28.621 17.689s23.201-6.847 28.621-17.688l224.006-447.99c7.904-15.808 1.498-35.027-14.31-42.931s-35.027-1.498-42.931 14.31l-195.386 390.748-99.382-198.76c-5.422-10.842-16.505-17.69-28.628-17.69-12.123 0.006-23.203 6.854-28.621 17.702l-223.896 448.201c-7.898 15.811-1.484 35.030 14.326 42.927zM842.125 350.357c16.768-5.589 25.83-23.712 20.237-40.476l-64.006-192c-5.587-16.768-23.712-25.83-40.474-20.237l-191.994 64c-16.766 5.587-25.827 23.706-20.238 40.474s23.711 25.83 40.477 20.237l161.636-53.875 53.888 161.64c5.587 16.766 23.712 25.827 40.474 20.237z" />
<glyph unicode="&#xe905;" glyph-name="warning" d="M554.667 256c0-23.564-19.103-42.667-42.667-42.667s-42.667 19.103-42.667 42.667c0 23.564 19.103 42.667 42.667 42.667s42.667-19.103 42.667-42.667zM512 682.667c23.564 0 42.667-19.103 42.667-42.667v-256c0-23.564-19.103-42.667-42.667-42.667s-42.667 19.103-42.667 42.667v256c0 23.564 19.103 42.667 42.667 42.667z" />
<glyph unicode="&#xe906;" glyph-name="agg-pos" d="M146.345 539.393c-66.288 39.773-66.288 135.842 0 175.615l207.601 124.56c97.285 58.371 218.823 58.371 316.108 0l207.601-124.56c66.289-39.773 66.289-135.842 0-175.615l-207.601-124.56c-97.285-58.373-218.823-58.373-316.107 0l-207.602 124.56zM199.149 388.291l-52.803-31.677c-66.288-39.772-66.288-135.844 0-175.616l207.601-124.559c97.285-58.373 218.823-58.373 316.108 0l207.601 124.559c66.289 39.772 66.289 135.844 0 175.616l-52.808 31.683-102.113-61.266c-129.715-77.829-291.764-77.829-421.477 0l-102.108 61.261zM298.663 448.002l55.283 33.17c97.285 58.371 218.823 58.371 316.108 0l55.276-33.167-55.281-33.172c-97.285-58.368-218.823-58.368-316.108 0l-55.278 33.169z" />
<glyph unicode="&#xe907;" glyph-name="count-down" d="M512 800c-194.404 0-352-157.596-352-352 0-194.406 157.596-352 352-352 97.703 0 186.061 39.763 249.869 104.070 30.445 30.682 55.27 66.925 72.813 107.040 7.078 16.194 25.946 23.58 42.138 16.499 16.192-7.078 23.584-25.946 16.499-42.138-20.749-47.456-50.086-90.266-86.022-126.483-75.328-75.917-179.846-122.989-295.296-122.989-229.75 0-416 186.246-416 416 0 229.75 186.25 416 416 416 115.45 0 219.968-47.071 295.296-122.99 35.936-36.215 65.274-79.025 86.022-126.479 7.085-16.193-0.307-35.059-16.499-42.14s-35.059 0.305-42.138 16.498c-17.542 40.116-42.368 76.358-72.813 107.042-63.808 64.306-152.166 104.070-249.869 104.070zM896.006 768c17.67 0 32-14.327 32-32v-160c0-9.587-4.301-18.669-11.712-24.747-7.418-6.078-17.165-8.512-26.566-6.632l-160 32c-17.325 3.466-28.563 20.324-25.101 37.654 3.469 17.33 20.326 28.569 37.658 25.103l121.722-24.345v120.966c0 17.673 14.33 32 32 32zM512 672c17.673 0 32-14.327 32-32v-178.745l118.63-118.628c12.493-12.497 12.493-32.758 0-45.258-12.499-12.493-32.761-12.493-45.258 0l-128 128.003c-6.001 6.001-9.373 14.14-9.373 22.627v192c0 17.673 14.327 32 32 32z" />
<glyph unicode="&#xe908;" glyph-name="add" d="M576 896c0 35.346-28.654 64-64 64s-64-28.654-64-64v-384h-384c-35.346 0-64-28.654-64-64s28.654-64 64-64h384v-384c0-35.347 28.654-64 64-64s64 28.653 64 64v384h384c35.347 0 64 28.653 64 64s-28.653 64-64 64h-384v384z" />
<glyph unicode="&#xe909;" glyph-name="subtract" d="M0 448c0 35.346 28.654 64 64 64h896c35.347 0 64-28.654 64-64s-28.653-64-64-64h-896c-35.346 0-64 28.654-64 64z" />
<glyph unicode="&#xe90a;" glyph-name="mark-unselected" d="M511.975 928c-44.794 0-85.752-25.655-105.507-65.861l-79.975-161.937-178.655-25.878c-44.508-6.566-81.229-37.373-95.122-80.515-13.889-43.128-2.103-89.361 29.961-120.695l129.349-125.868-30.282-177.717c-7.259-43.558 10.083-88.237 46.748-114.784 20.754-15.475 45.089-22.746 69.084-22.746 18.982 0 37.512 4.429 55.064 13.901l159.336 83.885 159.385-83.91c39.859-21.344 87.578-17.427 123.846 8.691 36.8 26.496 54.259 70.701 47.014 114.88l-30.298 177.8 129.35 125.868c32.064 31.334 43.846 77.567 29.958 120.695-13.888 43.142-50.611 73.948-95.117 80.515l-178.656 25.878-79.93 161.842c-19.839 41.007-60.433 65.956-105.554 65.956zM463.896 833.898c9.052 18.44 27.815 30.102 48.074 30.102 20.958 0 38.988-11.258 47.974-29.898l86.072-174.279c7.187-14.38 20.301-18.995 26.195-20.467l1.568-0.393 193.030-27.96c20.538-3.046 37.133-17.035 43.501-36.812 6.374-19.8 1.088-40.772-13.773-55.305l-138.931-135.192c-9.715-9.718-11.501-21.428-11.501-28.494v-2.707l32.966-193.492c3.386-20.858-4.755-40.614-21.267-52.499-17.024-12.256-38.579-13.69-56.294-4.179l-0.23 0.128-171.799 90.438c-11.142 5.568-23.883 5.574-35.025 0.006l-172.127-90.624c-7.996-4.333-16.072-6.272-24.759-6.272-11.108 0-21.871 3.347-30.929 10.138l-0.506 0.365c-16.483 11.866-24.636 32.173-21.267 52.506l32.405 190.177c1.583 7.959 0.279 15.199-1.74 20.584-1.752 4.673-4.991 10.454-10.562 15.252l-137.587 133.883c-14.856 14.532-20.129 35.49-13.754 55.286 6.369 19.777 23.007 33.772 43.545 36.819l194.557 28.346c5.891 1.473 19.004 6.088 26.194 20.467l0.070 0.141 85.901 173.935z" />
<glyph unicode="&#xe90b;" glyph-name="mark" d="M406.468 862.139c19.755 40.206 60.714 65.861 105.507 65.861 45.121 0 85.715-24.95 105.554-65.956l79.93-161.842 178.656-25.878c44.506-6.566 81.229-37.373 95.117-80.515 13.888-43.128 2.106-89.361-29.958-120.695l-129.35-125.868 30.298-177.8c7.245-44.179-10.214-88.384-47.014-114.88-36.269-26.118-83.987-30.035-123.846-8.691l-159.386 83.91-159.335-83.885c-17.552-9.472-36.082-13.901-55.065-13.901-23.995 0-48.33 7.27-69.084 22.746-36.664 26.547-54.006 71.226-46.748 114.784l0.019 0.115 30.262 177.602-129.35 125.868c-32.063 31.334-43.849 77.567-29.96 120.695 13.893 43.142 50.613 73.948 95.122 80.515l178.655 25.878 79.975 161.937z" />
<glyph unicode="&#xe90c;" glyph-name="mirror" d="M140.39 556.387c0 205.236 166.377 371.613 371.613 371.613 205.238 0 371.612-166.377 371.612-371.613v-557.418c0-17.107-13.862-30.97-30.97-30.97h-681.288c-17.103 0-30.968 13.862-30.968 30.97v557.418z" />
<glyph unicode="&#xe90d;" glyph-name="setting" d="M764 704.992c41.344-42.667 70.347-92.331 87.008-148.993h44.991c35.345 0 64-28.653 64-64v-64c0-35.346-28.655-64-64-64h-44.991c-16.661-56.661-45.664-106.325-87.008-148.992l22.923-39.591c17.718-30.601 7.262-69.774-23.349-87.472l-55.208-31.923c-30.587-17.69-69.721-7.245-87.424 23.339l-22.958 39.648c-57.344-14.679-114.677-14.679-172 0l-22.958-39.648c-17.703-30.583-56.837-41.028-87.424-23.339l-55.208 31.923c-30.611 17.698-41.066 56.871-23.349 87.472l22.923 39.591c-41.344 42.667-70.347 92.331-87.008 148.992h-44.992c-35.346 0-64 28.654-64 64.001v64c0 35.346 28.654 63.999 64 63.999h44.992c16.661 56.662 45.664 106.326 87.008 148.993l-22.923 39.591c-17.717 30.601-7.262 69.771 23.349 87.472l55.208 31.924c30.587 17.687 69.721 7.241 87.424-23.336l22.958-39.651c57.344 14.677 114.677 14.677 172 0l22.958 39.651c17.703 30.577 56.837 41.023 87.424 23.336l55.208-31.924c30.611-17.701 41.067-56.871 23.349-87.472l-22.923-39.591zM704.001 460c-1.344 54.678-20.011 100.011-56 136.001s-81.323 54.656-136 55.999c-54.677-1.343-100.011-20.010-136-55.999s-54.656-81.323-56-136.001c1.344-54.677 20.011-100.010 56-135.999s81.323-54.657 136-56.001c54.677 1.344 100.011 20.011 136 56.001s54.656 81.322 56 135.999z" />
<glyph unicode="&#xe90e;" glyph-name="flash-take" d="M182.947 263.479l118.081 344.796h-146.42l-69.274 181.058h900.565l-130.675-181.058h-330.628l-58.253-149.571h228.288l-456.579-522.705 86.593 327.479h-141.698z" />
<glyph unicode="&#xe90f;" glyph-name="edit" d="M320 800c-88.365 0-160-71.635-160-160v-384c0-88.365 71.635-160 160-160h384c88.365 0 160 71.635 160 160v192c0 17.673 14.33 32 32 32s32-14.327 32-32v-192c0-123.712-100.288-224-224-224h-384c-123.712 0-224 100.288-224 224v384c0 123.712 100.288 224 224 224h192c17.673 0 32-14.327 32-32s-14.327-32-32-32h-192zM886.63 822.627c12.493-12.497 12.493-32.758 0-45.254l-416.003-416c-12.497-12.497-32.758-12.497-45.254 0s-12.497 32.758 0 45.254l415.997 416c12.499 12.497 32.762 12.497 45.261 0z" />
<glyph unicode="&#xe910;" glyph-name="create" horiz-adv-x="1088" d="M352 224c-88.365 0-160 71.635-160 160v256c0 88.365 71.635 160 160 160h256c88.365 0 160-71.635 160-160v-128c0-17.673 14.33-32 32-32s32 14.327 32 32v128c0 123.712-100.288 224-224 224h-256c-123.712 0-224-100.288-224-224v-256c0-123.712 100.288-224 224-224h128c17.673 0 32 14.33 32 32s-14.327 32-32 32h-128zM800 352c17.67 0 32-14.327 32-32v-96h96c17.67 0 32-14.33 32-32s-14.33-32-32-32h-96v-96c0-17.67-14.33-32-32-32s-32 14.33-32 32v96h-96c-17.67 0-32 14.33-32 32s14.33 32 32 32h96v96c0 17.673 14.33 32 32 32z" />
<glyph unicode="&#xe911;" glyph-name="detail" d="M96 640c0 123.712 100.288 224 224 224h384c123.712 0 224-100.288 224-224v-256c0-194.406-157.594-352-352-352h-256c-123.712 0-224 100.288-224 224v384zM320 800c-88.365 0-160-71.635-160-160v-384c0-88.365 71.635-160 160-160h256c159.059 0 288 128.941 288 288v256c0 88.365-71.635 160-160 160h-384zM320 544c0 17.673 14.327 32 32 32h320c17.67 0 32-14.327 32-32s-14.33-32-32-32h-320c-17.673 0-32 14.327-32 32zM320 352c0 17.673 14.327 32 32 32h192c17.673 0 32-14.327 32-32s-14.327-32-32-32h-192c-17.673 0-32 14.327-32 32z" />
<glyph unicode="&#xe912;" glyph-name="download-big" d="M96 64c0 17.67 14.327 32 32 32h768c17.67 0 32-14.33 32-32s-14.33-32-32-32h-768c-17.673 0-32 14.33-32 32zM512 864c17.673 0 32-14.327 32-32v-498.745l265.37 265.372c12.499 12.497 32.762 12.497 45.261 0 12.493-12.497 12.493-32.758 0-45.254l-320.003-320.003c-6.001-5.997-14.14-9.37-22.627-9.37s-16.627 3.373-22.627 9.37l-320 320.003c-12.497 12.497-12.497 32.758 0 45.254s32.758 12.497 45.254 0l265.373-265.372v498.745c0 17.673 14.327 32 32 32z" />
<glyph unicode="&#xe913;" glyph-name="sort" d="M99.786 847.099c5.569 10.405 16.412 16.901 28.214 16.901h768c11.802 0 22.646-6.496 28.211-16.901 5.571-10.405 4.961-23.030-1.587-32.85l-250.624-375.937v-246.313c0-17.674-14.326-32-32-32s-32 14.326-32 32v256c0 6.318 1.869 12.494 5.376 17.751l222.833 334.249h-648.416l222.833-334.249c3.505-5.257 5.374-11.433 5.374-17.751v-384c0-17.674-14.327-32-32-32s-32 14.326-32 32v374.313l-250.626 375.937c-6.546 9.82-7.157 22.445-1.588 32.85z" />
<glyph unicode="&#xe914;" glyph-name="socket" d="M96 864v-832h832v832h-832zM302.75 305.658c-28.14 0-55.647 8.346-79.044 23.98s-41.633 37.853-52.401 63.85c-10.768 25.997-13.586 54.604-8.096 82.203s19.040 52.95 38.938 72.847c19.898 19.897 45.249 33.448 72.847 38.938s56.205 2.672 82.202-8.097c25.997-10.768 48.218-29.004 63.852-52.401s23.978-50.905 23.978-79.044c-0.044-37.72-15.048-73.883-41.72-100.555s-62.835-41.677-100.555-41.722zM760.576 305.658c-23.386-0.013-46.413 5.728-67.046 16.732-20.634 11.001-38.234 26.918-51.251 46.342s-21.047 41.758-23.377 65.025c-2.33 23.266 1.11 46.748 10.016 68.369s23.005 40.712 41.047 55.586c18.042 14.874 39.469 25.073 62.394 29.693 22.918 4.62 46.624 3.52 69.024-3.204 22.394-6.724 42.784-18.864 59.373-35.346l-38.746-38.756c-12.269 12.141-27.853 20.383-44.787 23.685-16.941 3.303-34.483 1.519-50.406-5.126-15.93-6.645-29.536-17.854-39.104-32.216-9.574-14.363-14.682-31.236-14.682-48.495s5.107-34.131 14.682-48.494c9.568-14.362 23.174-25.571 39.104-32.216 15.923-6.645 33.466-8.429 50.406-5.126 16.934 3.302 32.518 11.544 44.787 23.685l38.803-38.685c-26.598-26.554-62.656-41.464-100.237-41.452zM302.75 360.484c48.299 0 87.453 39.155 87.453 87.453s-39.154 87.453-87.453 87.453c-48.299 0-87.453-39.154-87.453-87.453s39.155-87.453 87.453-87.453z" />
<glyph unicode="&#xe915;" glyph-name="bungee" d="M928 864h-832v-832h832v832zM352.623 571.587v-135.065c0-43.221 27.013-81.039 64.831-81.039 51.865 0 75.636 43.221 75.636 81.039v135.065h43.22v-21.61c9.004 9.004 36.738 21.61 75.636 21.61 70.234 0 108.052-59.428 108.052-97.247v-162.078h-43.219v145.87c0 32.415-21.613 70.234-64.833 70.234-43.221 0-75.636-27.012-75.636-75.636v-140.467h-48.623v21.61c-10.805-9.004-34.577-21.61-64.831-21.61-37.818 0-60.509 6.483-86.442 32.415s-32.415 72.035-32.415 91.844v135.065h48.623zM278 448c0-43.078-34.922-78-78-78s-78 34.922-78 78c0 43.078 34.922 78 78 78s78-34.922 78-78zM901.997 447.998c0-43.078-34.918-78-77.997-78s-78.003 34.922-78.003 78c0 43.078 34.925 78 78.003 78s77.997-34.922 77.997-78z" />
<glyph unicode="&#xe916;" glyph-name="allow-leverage-boosting" d="M587.218 16.584c-11.991 0-23.982 4.588-33.055 13.763l-459.199 459.098c-8.758 8.758-13.764 20.749-13.764 33.158s5.005 24.294 13.764 33.158l59.017 58.808c24.816 24.816 57.869 38.475 93.008 38.475s68.192-13.659 93.113-38.58l1.981-1.981 200.51 200.51c92.488 92.278 242.842 92.278 335.017 0 44.836-44.732 69.443-104.269 69.443-167.561s-24.709-122.725-69.443-167.561l-200.407-200.407 1.981-1.981c24.817-24.817 38.579-57.974 38.579-93.215s-13.655-68.296-38.579-93.215l-58.808-58.808c-9.175-9.073-21.166-13.66-33.157-13.66zM573.010 581.876c-19.994 19.995-19.994 52.413 0 72.408l36.204 36.204c19.994 19.995 52.413 19.995 72.407 0s19.994-52.413 0-72.408l-36.204-36.204c-19.994-19.995-52.413-19.995-72.407 0zM91.796 211.072c-19.995 19.994-19.995 52.413 0 72.407l36.204 36.204c19.995 19.994 52.413 19.994 72.408 0s19.995-52.413 0-72.407l-36.204-36.204c-19.995-19.994-52.413-19.994-72.408 0zM274.111 28.754c-19.995 19.999-19.995 52.413 0 72.412l36.204 36.204c19.995 19.994 52.413 19.994 72.408 0 19.995-19.999 19.995-52.413 0-72.407l-36.204-36.209c-19.995-19.994-52.413-19.994-72.408 0z" />
<glyph unicode="&#xe917;" glyph-name="liquidity-sources" d="M870.405 345.6c25.6-204.8-153.6-358.4-358.405-358.4-204.807 0-384.001 153.6-358.394 358.4 20.256 162.004 232.727 436.142 320.639 543.637 19.735 24.13 55.772 24.131 75.509 0.001 87.916-107.494 300.396-381.633 320.65-543.638z" />
<glyph unicode="&#xe918;" glyph-name="setting-2" d="M128 704h96c19.2-70.4 83.2-128 160-128s140.8 57.6 160 128h352c19.2 0 32 12.8 32 32s-12.8 32-32 32h-352c-19.2 70.4-83.2 128-160 128s-140.8-57.6-160-128h-96c-19.2 0-32-12.8-32-32s12.8-32 32-32zM384 832c51.2 0 96-44.8 96-96s-44.8-96-96-96-96 44.8-96 96 44.8 96 96 96zM896 192h-96c-12.8 70.4-76.8 128-160 128s-140.8-57.6-160-128h-352c-19.2 0-32-12.8-32-32s12.8-32 32-32h352c12.8-70.4 76.8-128 160-128s140.8 57.6 160 128h96c19.2 0 32 12.8 32 32s-12.8 32-32 32zM640 64c-51.2 0-96 44.8-96 96s44.8 96 96 96 96-44.8 96-96c0-51.2-44.8-96-96-96z" />
<glyph unicode="&#xe919;" glyph-name="search" d="M480 800c-176.731 0-320-143.269-320-320s143.269-320 320-320c176.73 0 320 143.27 320 320s-143.27 320-320 320zM96 480c0 212.077 171.923 384 384 384s384-171.923 384-384c0-212.077-171.923-384-384-384s-384 171.923-384 384zM713.37 246.624c12.499 12.499 32.762 12.499 45.254 0.006l192.013-192c12.499-12.499 12.499-32.762 0.006-45.261-12.499-12.493-32.762-12.493-45.254 0l-192.013 192c-12.499 12.499-12.499 32.762-0.006 45.254z" />
<glyph unicode="&#xe91a;" glyph-name="index-chart" d="M96 640c0 123.712 100.288 224 224 224h384c123.712 0 224-100.288 224-224v-384c0-123.712-100.288-224-224-224h-384c-123.712 0-224 100.288-224 224v384zM320 800c-88.365 0-160-71.635-160-160v-384c0-88.365 71.635-160 160-160h384c88.365 0 160 71.635 160 160v384c0 88.365-71.635 160-160 160h-384zM788.826 632.296c13.421-11.501 14.97-31.703 3.469-45.122l-191.998-224c-5.801-6.767-14.161-10.809-23.068-11.151s-17.553 3.046-23.855 9.349l-103.565 103.565-169.511-197.763c-11.501-13.421-31.703-14.97-45.122-3.469s-14.972 31.699-3.471 45.12l192 224c5.801 6.767 14.161 10.809 23.068 11.151s17.553-3.046 23.855-9.349l103.565-103.565 169.513 197.763c11.501 13.418 31.699 14.972 45.12 3.471z" />
<glyph unicode="&#xe91b;" glyph-name="more-2" d="M256 448c0-35.346-28.654-64-64-64s-64 28.654-64 64c0 35.346 28.654 64 64 64s64-28.654 64-64zM576 448c0-35.346-28.654-64-64-64s-64 28.654-64 64c0 35.346 28.654 64 64 64s64-28.654 64-64zM896 448c0-35.346-28.654-64-64-64s-64 28.654-64 64c0 35.346 28.654 64 64 64s64-28.654 64-64z" />
<glyph unicode="&#xe91c;" glyph-name="more-1" d="M368 448c0-26.51-21.49-48-48-48s-48 21.49-48 48c0 26.51 21.49 48 48 48s48-21.49 48-48zM560 448c0-26.51-21.49-48-48-48s-48 21.49-48 48c0 26.51 21.49 48 48 48s48-21.49 48-48zM752 448c0-26.51-21.49-48-48-48s-48 21.49-48 48c0 26.51 21.49 48 48 48s48-21.49 48-48z" />
</font>
</defs>
</svg>
