<svg aria-hidden="true" style="position: absolute; width: 0; height: 0; overflow: hidden;" version="1.1" xmlns="http://www.w3.org/2000/svg" xmlns:xlink="http://www.w3.org/1999/xlink">
<defs>
<symbol id="icon-more-1" viewBox="0 0 32 32">
<path fill="#6678a9" style="fill: var(--color1, #6678a9)" d="M11.5 16c0 0.828-0.672 1.5-1.5 1.5s-1.5-0.672-1.5-1.5c0-0.828 0.672-1.5 1.5-1.5s1.5 0.672 1.5 1.5z"></path>
<path fill="#6678a9" style="fill: var(--color1, #6678a9)" d="M17.5 16c0 0.828-0.672 1.5-1.5 1.5s-1.5-0.672-1.5-1.5c0-0.828 0.672-1.5 1.5-1.5s1.5 0.672 1.5 1.5z"></path>
<path fill="#6678a9" style="fill: var(--color1, #6678a9)" d="M23.5 16c0 0.828-0.672 1.5-1.5 1.5s-1.5-0.672-1.5-1.5c0-0.828 0.672-1.5 1.5-1.5s1.5 0.672 1.5 1.5z"></path>
</symbol>
<symbol id="icon-more-2" viewBox="0 0 32 32">
<path fill="#6678a9" style="fill: var(--color1, #6678a9)" d="M8 16c0 1.105-0.895 2-2 2s-2-0.895-2-2c0-1.105 0.895-2 2-2s2 0.895 2 2z"></path>
<path fill="#6678a9" style="fill: var(--color1, #6678a9)" d="M18 16c0 1.105-0.895 2-2 2s-2-0.895-2-2c0-1.105 0.895-2 2-2s2 0.895 2 2z"></path>
<path fill="#6678a9" style="fill: var(--color1, #6678a9)" d="M28 16c0 1.105-0.895 2-2 2s-2-0.895-2-2c0-1.105 0.895-2 2-2s2 0.895 2 2z"></path>
</symbol>
<symbol id="icon-one-click" viewBox="0 0 32 32">
<path fill="#6678a9" style="fill: var(--color1, #6678a9)" d="M3.782 17.16l3.886-13.6c0.196-0.687 0.824-1.16 1.538-1.16h16.73c1.252 0 2.019 1.373 1.363 2.439l-4.899 7.961h3.819c1.468 0 2.161 1.811 1.068 2.791l-16.375 14.681c-1.158 1.038-2.967-0.020-2.63-1.538l2.119-9.534h-5.079c-1.063 0-1.83-1.017-1.538-2.040z"></path>
</symbol>
<symbol id="icon-account" viewBox="0 0 32 32">
<path fill="#6678a9" style="fill: var(--color1, #6678a9)" d="M9.599 6.4c-1.767 0-3.2 1.433-3.2 3.2v6.4h-3.2v-6.4c0-3.535 2.865-6.4 6.4-6.4h8c3.535 0 6.4 2.865 6.4 6.4v2.4h-3.2v-2.4c0-1.767-1.433-3.2-3.2-3.2h-8z"></path>
<path fill="#6678a9" style="fill: var(--color1, #6678a9)" d="M8.003 11.2h16c2.651 0 4.8 2.149 4.8 4.8v8c0 2.651-2.149 4.8-4.8 4.8h-16c-2.651 0-4.8-2.149-4.8-4.8v-8c0-2.651 2.149-4.8 4.8-4.8zM23.202 22.4c1.325 0 2.4-1.074 2.4-2.4s-1.075-2.4-2.4-2.4c-1.326 0-2.4 1.075-2.4 2.4s1.074 2.4 2.4 2.4z"></path>
</symbol>
<symbol id="icon-download" viewBox="0 0 32 32">
<path d="M24 22h-16c-1.2 0-2 0.8-2 2s0.8 2 2 2h16c1.2 0 2-0.8 2-2s-0.8-2-2-2zM24.4 14.4c0.8-0.8 0.8-2 0-2.8s-2-0.8-2.8 0l-3.6 3.6v-7.4c0-1-0.8-1.8-2-1.8s-2 0.8-2 1.8v7.4l-3.6-3.6c-0.8-0.8-2-0.8-2.8 0s-0.8 2 0 2.8l7 7c0.4 0.4 0.8 0.6 1.4 0.6s1-0.2 1.4-0.6l7-7z"></path>
</symbol>
<symbol id="icon-rebate-rate" viewBox="0 0 32 32">
<path d="M25.76 3.68c-2.56-1.28-6.080-2.080-9.76-2.080s-7.2 0.8-9.76 2.080c-2.56 1.28-4.64 3.2-4.64 5.92v12.8c0 2.72 2.080 4.64 4.64 5.92s6.080 2.080 9.76 2.080 7.2-0.8 9.76-2.080c2.56-1.28 4.64-3.2 4.64-5.92v-12.8c0-2.72-2.080-4.64-4.64-5.92zM27.2 22.4c0 0.8-0.64 2.080-2.88 3.040-2.080 1.12-4.96 1.76-8.32 1.76s-6.24-0.64-8.32-1.76c-2.24-0.96-2.88-2.24-2.88-3.040v-1.28c0.48 0.32 0.96 0.64 1.44 0.8 2.56 1.28 6.080 2.080 9.76 2.080s7.2-0.8 9.76-2.080c0.48-0.32 0.96-0.48 1.44-0.8v1.28zM27.2 16c0 0.8-0.64 2.080-2.88 3.040-2.080 1.12-4.96 1.76-8.32 1.76s-6.24-0.64-8.32-1.76c-2.24-0.96-2.88-2.24-2.88-3.040v-1.28c0.48 0.32 0.96 0.64 1.44 0.8 2.56 1.28 6.080 2.080 9.76 2.080s7.2-0.8 9.76-2.080c0.48-0.32 0.96-0.48 1.44-0.8v1.28zM24.32 12.64c-2.080 1.12-4.96 1.76-8.32 1.76s-6.24-0.64-8.32-1.76c-2.24-0.96-2.88-2.24-2.88-3.040s0.64-2.080 2.88-3.040c2.080-1.12 4.96-1.76 8.32-1.76s6.24 0.64 8.32 1.76c2.24 0.96 2.88 2.24 2.88 3.040s-0.64 2.080-2.88 3.040z"></path>
</symbol>
<symbol id="icon-margin-mode-selected" viewBox="0 0 32 32">
<path d="M23.531 10.869c0.289 0.29 0.468 0.689 0.468 1.131s-0.179 0.842-0.468 1.131l-8.8 8.8c-0.29 0.289-0.689 0.468-1.131 0.468s-0.842-0.179-1.131-0.468l-4-4c-0.277-0.287-0.448-0.679-0.448-1.111 0-0.884 0.716-1.6 1.6-1.6 0.432 0 0.823 0.171 1.111 0.449l-0-0 2.869 2.869 7.669-7.669c0.29-0.289 0.689-0.468 1.131-0.468s0.842 0.179 1.131 0.468v0z"></path>
</symbol>
<symbol id="icon-message-close" viewBox="0 0 32 32">
<path d="M25.414 6.586c0.362 0.362 0.586 0.862 0.586 1.414s-0.224 1.052-0.586 1.414l-16 16c-0.359 0.347-0.849 0.561-1.389 0.561-1.105 0-2-0.895-2-2 0-0.54 0.214-1.030 0.562-1.39l-0.001 0.001 16-16c0.362-0.362 0.862-0.586 1.414-0.586s1.052 0.224 1.414 0.586v0zM25.414 25.414c-0.362 0.362-0.862 0.586-1.414 0.586s-1.052-0.224-1.414-0.586l-16-16c-0.347-0.359-0.561-0.849-0.561-1.389 0-1.105 0.895-2 2-2 0.54 0 1.030 0.214 1.39 0.562l-0.001-0.001 16 16c0.362 0.362 0.586 0.862 0.586 1.414s-0.224 1.052-0.586 1.414v0z"></path>
</symbol>
<symbol id="icon-staking-steps" viewBox="0 0 32 32">
<path d="M4 8c0-3.314 2.686-6 6-6v0h12c3.314 0 6 2.686 6 6v0 12c0 5.523-4.477 10-10 10v0h-8c-3.314 0-6-2.686-6-6v0-16zM10 6c-1.105 0-2 0.895-2 2v0 16c0 1.105 0.895 2 2 2v0h8c3.314 0 6-2.686 6-6v0-12c0-1.105-0.895-2-2-2v0h-12zM12 12c0-1.105 0.895-2 2-2v0h4c1.105 0 2 0.895 2 2s-0.895 2-2 2v0h-4c-1.105 0-2-0.895-2-2v0zM14 18c-1.105 0-2 0.895-2 2s0.895 2 2 2v0h4c1.105 0 2-0.895 2-2s-0.895-2-2-2v0h-4z"></path>
</symbol>
<symbol id="icon-qestion" viewBox="0 0 32 32">
<path d="M14.434 17.903c0-0.416 0.057-0.768 0.167-1.058 0.129-0.318 0.319-0.588 0.557-0.806l0.002-0.002c0.386-0.374 0.738-0.699 1.058-0.975 0.33-0.276 0.615-0.532 0.849-0.768 0.198-0.203 0.376-0.427 0.529-0.668l0.010-0.017c0.127-0.192 0.204-0.428 0.207-0.681v-0.001c0-0.458-0.148-0.81-0.436-1.058-0.262-0.245-0.615-0.395-1.003-0.395-0.019 0-0.039 0-0.058 0.001l0.003-0c-0.647 0-1.145 0.18-1.492 0.542-0.319 0.345-0.525 0.798-0.558 1.298l-0 0.006-3.193-0.209c0.153-1.465 0.689-2.577 1.617-3.335 0.926-0.775 2.114-1.162 3.564-1.162 0.638 0 1.231 0.089 1.782 0.271 0.566 0.165 1.066 0.418 1.494 0.766 0.428 0.345 0.766 0.773 1.014 1.285s0.374 1.098 0.374 1.762c0 0.401-0.042 0.768-0.123 1.098-0.084 0.32-0.229 0.637-0.436 0.955-0.194 0.318-0.458 0.64-0.788 0.972-0.32 0.32-0.726 0.672-1.223 1.058-0.266 0.191-0.482 0.434-0.637 0.715l-0.006 0.011c-0.103 0.205-0.164 0.447-0.167 0.703v0.602h-3.109v-0.911zM14.082 21.881c0-0.001 0-0.003 0-0.005 0-0.521 0.205-0.994 0.54-1.343l-0.001 0.001c0.342-0.345 0.817-0.559 1.341-0.559 0.010 0 0.019 0 0.029 0l-0.001-0c0.261 0 0.512 0.049 0.746 0.145 0.236 0.097 0.436 0.237 0.6 0.413l0.001 0.001c0.177 0.164 0.319 0.364 0.412 0.59l0.004 0.011c0.096 0.236 0.145 0.485 0.145 0.746 0 0.001 0 0.003 0 0.004 0 0.532-0.214 1.014-0.561 1.365l0-0c-0.348 0.334-0.821 0.539-1.342 0.539-0.002 0-0.003 0-0.005 0h0c-0.003 0-0.006 0-0.009 0-0.266 0-0.519-0.053-0.749-0.15l0.013 0.005c-0.24-0.099-0.447-0.232-0.624-0.395l0.001 0.001c-0.162-0.175-0.295-0.381-0.389-0.607l-0.005-0.014c-0.092-0.218-0.145-0.471-0.145-0.736 0-0.004 0-0.008 0-0.012v0.001z"></path>
</symbol>
<symbol id="icon-view-big" viewBox="0 0 32 32">
<path d="M11 9c0-1.105 0.895-2 2-2v0h10c1.105 0 2 0.895 2 2v0 10c0 1.105-0.895 2-2 2s-2-0.895-2-2v0-5.172l-10.586 10.586c-0.359 0.347-0.849 0.561-1.389 0.561-1.105 0-2-0.895-2-2 0-0.54 0.214-1.030 0.562-1.39l-0.001 0.001 10.586-10.586h-5.172c-1.105 0-2-0.895-2-2v0z"></path>
</symbol>
<symbol id="icon-swap" viewBox="0 0 32 32">
<path d="M16 4c1.105 0 2 0.895 2 2v0 15.172l6.586-6.586c0.364-0.377 0.874-0.611 1.439-0.611 1.105 0 2 0.895 2 2 0 0.565-0.234 1.074-0.61 1.438l-0.001 0.001-10 10c-0.362 0.362-0.862 0.586-1.414 0.586s-1.052-0.224-1.414-0.586l-10-10c-0.347-0.359-0.561-0.849-0.561-1.389 0-1.105 0.895-2 2-2 0.54 0 1.030 0.214 1.39 0.562l-0.001-0.001 6.586 6.586v-15.172c0-1.105 0.895-2 2-2v0z"></path>
</symbol>
<symbol id="icon-overview" viewBox="0 0 32 32">
<path d="M10.4 16c0 3.093 2.507 5.6 5.6 5.6s5.6-2.507 5.6-5.6v0c0-3.093-2.507-5.6-5.6-5.6s-5.6 2.507-5.6 5.6v0zM16 2.4c-7.52 0-13.6 6.080-13.6 13.6s6.080 13.6 13.6 13.6 13.6-6.080 13.6-13.6-6.080-13.6-13.6-13.6zM16 24.8c-4.8 0-8.8-4-8.8-8.8s4-8.8 8.8-8.8 8.8 4 8.8 8.8-4 8.8-8.8 8.8z"></path>
</symbol>
<symbol id="icon-about-mux" viewBox="0 0 32 32">
<path d="M19.2 3.2c0-0.884 0.716-1.6 1.6-1.6v0c5.302 0 9.6 4.298 9.6 9.6v0c0 0.884-0.716 1.6-1.6 1.6v0h-8c-0.884 0-1.6-0.716-1.6-1.6v0-8zM2.4 17.6c0-6.627 5.373-12 12-12v0c0.884 0 1.6 0.716 1.6 1.6v0 5.6c0 1.6 1.6 3.2 3.2 3.2h5.6c0.884 0 1.6 0.716 1.6 1.6v0c0 6.627-5.373 12-12 12s-12-5.373-12-12v0z"></path>
</symbol>
<symbol id="icon-staking" viewBox="0 0 32 32">
<path d="M9.6 16c0 2.209 1.791 4 4 4s4-1.791 4-4v0c0-2.209-1.791-4-4-4s-4 1.791-4 4v0zM22.72 3.2h-13.44c-3.36 0-6.080 2.72-6.080 6.080v13.6c0 3.2 2.72 5.92 6.080 5.92h13.6c3.36 0 6.080-2.72 6.080-6.080v-13.44c-0.16-3.36-2.88-6.080-6.24-6.080zM24 17.6h-3.36c-0.8 3.2-3.52 5.6-7.040 5.6-4 0-7.2-3.2-7.2-7.2s3.2-7.2 7.2-7.2c3.36 0 6.24 2.4 7.040 5.6h3.36c0.96 0 1.6 0.64 1.6 1.6s-0.64 1.6-1.6 1.6z"></path>
</symbol>
<symbol id="icon-vesting" viewBox="0 0 32 32">
<path d="M17.6 8c0-3.52 2.88-6.4 6.4-6.4h1.6c3.52 0 6.4 2.88 6.4 6.4v1.6c0 0.96-0.64 1.6-1.6 1.6s-1.6-0.64-1.6-1.6v-1.6c0-1.76-1.44-3.2-3.2-3.2h-1.6c-1.76 0-3.2 1.44-3.2 3.2v3.2h-3.2v-3.2zM12 20c0 1.325 1.075 2.4 2.4 2.4s2.4-1.075 2.4-2.4v0c0-1.325-1.075-2.4-2.4-2.4s-2.4 1.075-2.4 2.4v0zM22.4 11.2h-16c-2.72 0-4.8 2.080-4.8 4.8v8c0 2.72 2.080 4.8 4.8 4.8h16c2.72 0 4.8-2.080 4.8-4.8v-8c0-2.72-2.080-4.8-4.8-4.8zM14.4 25.6c-3.040 0-5.6-2.56-5.6-5.6s2.56-5.6 5.6-5.6 5.6 2.56 5.6 5.6-2.56 5.6-5.6 5.6z"></path>
</symbol>
<symbol id="icon-copy" viewBox="0 0 32 32">
<path d="M13 18c0-2.761 2.239-5 5-5v0h6c2.761 0 5 2.239 5 5v0 6c0 2.761-2.239 5-5 5v0h-6c-2.761 0-5-2.239-5-5v0-6zM18 15c-1.657 0-3 1.343-3 3v0 6c0 1.657 1.343 3 3 3v0h6c1.657 0 3-1.343 3-3v0-6c0-1.657-1.343-3-3-3v0h-6zM3 8c0-2.761 2.239-5 5-5v0h6c2.761 0 5 2.239 5 5v0 1c0 0.552-0.448 1-1 1s-1-0.448-1-1v0-1c0-1.657-1.343-3-3-3v0h-6c-1.657 0-3 1.343-3 3v0 6c0 1.657 1.343 3 3 3v0h1c0.552 0 1 0.448 1 1s-0.448 1-1 1v0h-1c-2.761 0-5-2.239-5-5v0-6z"></path>
</symbol>
<symbol id="icon-copied" viewBox="0 0 32 32">
<path d="M16 5c-6.074 0.002-10.997 4.926-10.997 11 0 6.075 4.925 11 11 11s11-4.925 11-11c0-0.901-0.108-1.777-0.313-2.615l0.016 0.075c-0.014-0.063-0.023-0.136-0.023-0.211 0-0.552 0.448-1 1-1 0.464 0 0.854 0.316 0.967 0.744l0.002 0.007c0.223 0.9 0.35 1.934 0.35 2.997 0 7.18-5.82 13-13 13s-13-5.82-13-13c0-7.18 5.82-13 13-13 1.804 0 3.522 0.367 5.083 1.031l-0.085-0.032c0.364 0.155 0.615 0.51 0.615 0.923 0 0.552-0.448 1-1 1-0.139 0-0.271-0.028-0.392-0.080l0.007 0.002c-1.245-0.532-2.693-0.842-4.213-0.842-0.006 0-0.012 0-0.018 0h0.001zM27.688 5.608c0.192 0.183 0.311 0.44 0.311 0.725 0 0.266-0.104 0.508-0.274 0.687l0-0-12 12.668c-0.183 0.193-0.441 0.313-0.727 0.313-0.276 0-0.526-0.112-0.707-0.293l-4-4c-0.181-0.181-0.293-0.431-0.293-0.708 0-0.553 0.448-1.001 1.001-1.001 0.277 0 0.527 0.112 0.708 0.293v0l3.272 3.274 11.294-11.92c0.183-0.193 0.441-0.313 0.727-0.313 0.266 0 0.508 0.104 0.687 0.274l-0-0z"></path>
</symbol>
<symbol id="icon-view" viewBox="0 0 32 32">
<path d="M10 9c-2.761 0-5 2.239-5 5v0 8c0 2.761 2.239 5 5 5v0h8c2.761 0 5-2.239 5-5v0-4c0-0.552 0.448-1 1-1s1 0.448 1 1v0 4c0 3.866-3.134 7-7 7v0h-8c-3.866 0-7-3.134-7-7v0-8c0-3.866 3.134-7 7-7v0h4c0.552 0 1 0.448 1 1s-0.448 1-1 1v0h-4zM27.708 4.292c0.181 0.181 0.294 0.431 0.294 0.708s-0.112 0.527-0.294 0.708l-13 13c-0.181 0.181-0.431 0.293-0.708 0.293-0.553 0-1.001-0.448-1.001-1.001 0-0.276 0.112-0.527 0.293-0.708v0l13-13c0.181-0.181 0.431-0.294 0.708-0.294s0.527 0.112 0.708 0.294l0 0zM18 4c0-0.552 0.448-1 1-1v0h9c0.552 0 1 0.448 1 1v0 9c0 0.552-0.448 1-1 1s-1-0.448-1-1v0-8h-8c-0.552 0-1-0.448-1-1v0z"></path>
</symbol>
<symbol id="icon-up" viewBox="0 0 32 32">
<path d="M16 9c-0.552 0-1.052 0.224-1.414 0.586l-8 8c-0.347 0.359-0.561 0.849-0.561 1.389 0 1.105 0.895 2 2 2 0.54 0 1.030-0.214 1.39-0.562l-0.001 0.001 6.586-6.586 6.586 6.586c0.359 0.347 0.849 0.561 1.389 0.561 1.105 0 2-0.895 2-2 0-0.54-0.214-1.030-0.562-1.39l0.001 0.001-8-8c-0.362-0.362-0.862-0.586-1.414-0.586h-0z"></path>
</symbol>
<symbol id="icon-down" viewBox="0 0 32 32">
<path d="M16 23c-0.552-0-1.052-0.224-1.414-0.586l-8-8c-0.347-0.359-0.561-0.849-0.561-1.389 0-1.105 0.895-2 2-2 0.54 0 1.030 0.214 1.39 0.562l-0.001-0.001 6.586 6.586 6.586-6.586c0.364-0.377 0.874-0.611 1.439-0.611 1.105 0 2 0.895 2 2 0 0.565-0.234 1.074-0.61 1.438l-0.001 0.001-8 8c-0.362 0.362-0.862 0.586-1.414 0.586h-0z"></path>
</symbol>
<symbol id="icon-left" viewBox="0 0 32 32">
<path d="M20.414 6.586c0.362 0.362 0.586 0.862 0.586 1.414s-0.224 1.052-0.586 1.414l-6.586 6.586 6.586 6.586c0.347 0.359 0.561 0.849 0.561 1.389 0 1.105-0.895 2-2 2-0.54 0-1.030-0.214-1.39-0.562l0.001 0.001-8-8c-0.362-0.362-0.586-0.862-0.586-1.414s0.224-1.052 0.586-1.414l8-8c0.362-0.362 0.862-0.586 1.414-0.586s1.052 0.224 1.414 0.586v0z"></path>
</symbol>
<symbol id="icon-right" viewBox="0 0 32 32">
<path d="M11.586 6.586c0.362-0.362 0.862-0.586 1.414-0.586s1.052 0.224 1.414 0.586l8 8c0.362 0.362 0.586 0.862 0.586 1.414s-0.224 1.052-0.586 1.414l-8 8c-0.359 0.347-0.849 0.561-1.389 0.561-1.105 0-2-0.895-2-2 0-0.54 0.214-1.030 0.562-1.39l-0.001 0.001 6.586-6.586-6.586-6.586c-0.362-0.362-0.586-0.862-0.586-1.414s0.224-1.052 0.586-1.414v0z"></path>
</symbol>
<symbol id="icon-popup-back" viewBox="0 0 32 32">
<path d="M17.401 0.586c0.362 0.362 0.585 0.861 0.585 1.413s-0.224 1.051-0.585 1.413l-12.576 12.576 12.576 12.576c0.376 0.364 0.61 0.873 0.61 1.437 0 1.104-0.895 1.998-1.998 1.998-0.564 0-1.074-0.234-1.437-0.61l-0.001-0.001-13.989-13.989c-0.362-0.362-0.585-0.861-0.585-1.413s0.224-1.051 0.585-1.413l13.989-13.989c0.362-0.362 0.861-0.585 1.413-0.585s1.051 0.224 1.413 0.585v0zM0 15.988c0-1.104 0.895-1.998 1.998-1.998v0h27.978c1.104 0 1.998 0.895 1.998 1.998s-0.895 1.998-1.998 1.998h-27.978c-1.104 0-1.998-0.895-1.998-1.998v0z"></path>
</symbol>
<symbol id="icon-popup-close" viewBox="0 0 32 32">
<path d="M18.8 16l11.6-11.6c0.8-0.8 0.8-2 0-2.8s-2-0.8-2.8 0l-11.6 11.6-11.6-11.6c-0.8-0.8-2-0.8-2.8 0s-0.8 2 0 2.8l11.6 11.6-11.6 11.6c-0.8 0.8-0.8 2 0 2.8s2 0.8 2.8 0l11.6-11.6 11.6 11.6c0.8 0.8 2 0.8 2.8 0s0.8-2 0-2.8l-11.6-11.6z"></path>
</symbol>
<symbol id="icon-view-large" viewBox="0 0 32 32">
<path d="M11 9c0-1.105 0.895-2 2-2v0h10c1.105 0 2 0.895 2 2v0 10c0 1.105-0.895 2-2 2s-2-0.895-2-2v0-5.172l-10.586 10.586c-0.359 0.347-0.849 0.561-1.389 0.561-1.105 0-2-0.895-2-2 0-0.54 0.214-1.030 0.562-1.39l-0.001 0.001 10.586-10.586h-5.172c-1.105 0-2-0.895-2-2v0z"></path>
</symbol>
<symbol id="icon-add-token" viewBox="0 0 32 32">
<path d="M18 8c0-1.105-0.895-2-2-2s-2 0.895-2 2v0 6h-6c-1.105 0-2 0.895-2 2s0.895 2 2 2v0h6v6c0 1.105 0.895 2 2 2s2-0.895 2-2v0-6h6c1.105 0 2-0.895 2-2s-0.895-2-2-2v0h-6v-6z"></path>
</symbol>
<symbol id="icon-change-collateral" viewBox="0 0 32 32">
<path d="M3 10c0-3.866 3.134-7 7-7v0h12c3.866 0 7 3.134 7 7v0 12c0 3.866-3.134 7-7 7v0h-12c-3.866 0-7-3.134-7-7v0-12zM10 5c-2.761 0-5 2.239-5 5v0 12c0 2.761 2.239 5 5 5v0h12c2.761 0 5-2.239 5-5v0-12c0-2.761-2.239-5-5-5v0h-12zM10 16c0-0.552 0.448-1 1-1v0h10c0.552 0 1 0.448 1 1s-0.448 1-1 1v0h-10c-0.552 0-1-0.448-1-1v0zM16 10c0.552 0 1 0.448 1 1v0 10c0 0.552-0.448 1-1 1s-1-0.448-1-1v0-10c0-0.552 0.448-1 1-1v0z"></path>
</symbol>
<symbol id="icon-transformation" viewBox="0 0 32 32">
<path d="M3 7c0-0.552 0.448-1 1-1v0h16c4.971 0 9 4.029 9 9v0 2c0 0.552-0.448 1-1 1s-1-0.448-1-1v0-2c0-3.866-3.134-7-7-7v0h-16c-0.552 0-1-0.448-1-1v0zM12 24h14.002c0.552 0 1 0.448 1 1s-0.448 1-1 1v0h-14.002c-4.971 0-9-4.029-9-9v0-2c0-0.552 0.448-1 1-1s1 0.448 1 1v0 2c0 3.866 3.134 7 7 7v0zM3.066 6.2l5.334-4c0.165-0.125 0.374-0.2 0.6-0.2 0.552 0 1 0.448 1 1v0 8c0 0.552-0.448 1-1 1-0.226 0-0.435-0.075-0.603-0.202l0.002 0.002-5.334-4c-0.244-0.184-0.4-0.474-0.4-0.8s0.156-0.616 0.397-0.798l0.002-0.002zM28.934 25.8l-5.334 4c-0.165 0.125-0.374 0.2-0.6 0.2-0.552 0-1-0.448-1-1v-8c0-0.552 0.448-1 1-1 0.226 0 0.435 0.075 0.602 0.202l-0.003-0.002 5.334 4c0.244 0.184 0.4 0.474 0.4 0.8s-0.156 0.616-0.398 0.798l-0.003 0.002z"></path>
</symbol>
<symbol id="icon-rewards" viewBox="0 0 35 32">
<path d="M26 8h-2c0.2-0.4 0.2-0.6 0.2-1 0-0.8-0.2-1.6-0.8-2-0.6-0.6-1.4-1-2.4-1-1.4 0-2.6 0.6-3.6 1.4-0.4 0.6-0.8 1-1.2 1.6-0.4-0.6-1-1-1.4-1.6-1-0.8-2.2-1.4-3.6-1.4-1 0-1.8 0.4-2.4 1-0.6 0.4-0.8 1.2-0.8 2 0 0.4 0 0.6 0.2 1h-2.2c-1.6 0-3 1.4-3 3v2c0 1.4 0.8 2.4 2 2.8v9.2c0 1.6 1.4 3 3 3h16c1.6 0 3-1.4 3-3v-9.2c1.2-0.4 2-1.6 2-2.8v-2c0-1.6-1.4-3-3-3zM10.2 6.4c0.2-0.2 0.6-0.4 1-0.4 0.8 0 1.4 0.4 2.2 1 0.4 0.4 0.8 0.6 1 1h-3.2c-0.4 0-0.8-0.2-1-0.4s-0.2-0.4-0.2-0.6 0-0.4 0.2-0.6zM15 26h-7c-0.6 0-1-0.4-1-1v-9h8v10zM15 14h-9c-0.6 0-1-0.4-1-1v-2c0-0.6 0.4-1 1-1h9v4zM18.8 7c0.8-0.6 1.6-1 2.2-1s0.8 0.2 1 0.4c0.2 0.2 0.2 0.4 0.2 0.6s0 0.4-0.2 0.6c-0.2 0.2-0.4 0.4-1 0.4h-3.2l1-1zM25 25c0 0.6-0.4 1-1 1h-7v-10h8v9zM27 13c0 0.6-0.4 1-1 1h-9v-4h9c0.6 0 1 0.4 1 1v2z"></path>
</symbol>
<symbol id="icon-input-close" viewBox="0 0 32 32">
<path d="M16 2c-7.8 0-14 6.2-14 14s6.2 14 14 14 14-6.2 14-14-6.2-14-14-14zM22 19.2c0.8 0.8 0.8 2 0 2.8s-2 0.8-2.8 0l-3.2-3.2-3.2 3.2c-0.8 0.8-2 0.8-2.8 0s-0.8-2 0-2.8l3.2-3.2-3.2-3.2c-0.8-0.8-0.8-2 0-2.8s2-0.8 2.8 0l3.2 3.2 3.2-3.2c0.8-0.8 2-0.8 2.8 0s0.8 2 0 2.8l-3.2 3.2 3.2 3.2z"></path>
</symbol>
<symbol id="icon-calendar" viewBox="0 0 32 32">
<path d="M11.2 1.6c0.884 0 1.6 0.716 1.6 1.6v0 1.6h6.4v-1.6c0-0.884 0.716-1.6 1.6-1.6s1.6 0.716 1.6 1.6v1.6h2.4c2.651 0 4.8 2.149 4.8 4.8v0 14.4c0 2.651-2.149 4.8-4.8 4.8v0h-17.6c-2.651 0-4.8-2.149-4.8-4.8v0-14.4c0-2.651 2.149-4.8 4.8-4.8v0h2.4v-1.6c0-0.884 0.716-1.6 1.6-1.6v0zM20.8 8h-13.6c-0.884 0-1.6 0.716-1.6 1.6v0 3.2h20.8v-3.2c0-0.884-0.716-1.6-1.6-1.6v0h-4zM5.6 16v8c0 0.884 0.716 1.6 1.6 1.6h17.6c0.884 0 1.6-0.716 1.6-1.6v0-8h-20.8z"></path>
</symbol>
<symbol id="icon-checkbox-selected" viewBox="0 0 32 32">
<path d="M25.757 8.659c0.56 0.491 0.912 1.209 0.912 2.008 0 0.675-0.251 1.291-0.664 1.76l0.003-0.003-9.333 10.667c-0.491 0.559-1.208 0.91-2.007 0.91-0.737 0-1.404-0.299-1.887-0.782l-5.333-5.333c-0.463-0.479-0.749-1.132-0.749-1.853 0-1.473 1.194-2.667 2.667-2.667 0.72 0 1.373 0.285 1.853 0.749l-0.001-0.001 3.317 3.317 7.456-8.523c0.491-0.56 1.209-0.912 2.008-0.912 0.675 0 1.291 0.251 1.76 0.664l-0.003-0.003z"></path>
</symbol>
<symbol id="icon-wrong-network" viewBox="0 0 32 32">
<path d="M16 3.2c-7.040 0-12.8 5.76-12.8 12.8s5.76 12.8 12.8 12.8 12.8-5.76 12.8-12.8-5.76-12.8-12.8-12.8zM16 27.040c-6.080 0-11.040-4.96-11.040-11.040s4.96-11.040 11.040-11.040 11.040 4.96 11.040 11.040-4.96 11.040-11.040 11.040zM14.4 20.8c0 0.884 0.716 1.6 1.6 1.6s1.6-0.716 1.6-1.6v0c0-0.884-0.716-1.6-1.6-1.6s-1.6 0.716-1.6 1.6v0zM16 17.6c0.48 0 0.8-0.32 0.8-0.8l0.64-5.6c0.16-0.8-0.64-1.6-1.44-1.6s-1.6 0.8-1.44 1.6l0.64 5.6c0 0.48 0.32 0.8 0.8 0.8z"></path>
</symbol>
<symbol id="icon-redeem" viewBox="0 0 32 32">
<path d="M27.4 14.6l-10-10c-0.8-0.8-2-0.8-2.8 0s-0.8 2 0 2.8l6.6 6.6h-15.2c-1.2 0-2 0.8-2 2s0.8 2 2 2h15.2l-6.6 6.6c-0.8 0.8-0.8 2 0 2.8s2 0.8 2.8 0l10-10c0.8-0.8 0.8-2 0-2.8z"></path>
</symbol>
<symbol id="icon-add-wallet" viewBox="0 0 32 32">
<path d="M24 9h-2v-1c0-2.8-2.2-5-5-5h-9c-2.8 0-5 2.2-5 5v16c0 2.8 2.2 5 5 5h16c2.8 0 5-2.2 5-5v-10c0-2.8-2.2-5-5-5zM5 8c0-1.6 1.4-3 3-3h9c1.6 0 3 1.4 3 3v1h-12c-1.2 0-2.2 0.4-3 1v-2zM27 18h-8c-0.6 0-1 0.4-1 1s0.4 1 1 1h8v4c0 1.6-1.4 3-3 3h-16c-1.6 0-3-1.4-3-3v-10c0-1.6 1.4-3 3-3h16c1.6 0 3 1.4 3 3v4z"></path>
</symbol>
<symbol id="icon-medium" viewBox="0 0 32 32">
<path d="M9.025 25.030c4.984 0 9.025-4.041 9.025-9.025s-4.041-9.025-9.025-9.025v0c-4.984 0-9.025 4.041-9.025 9.025s4.041 9.025 9.025 9.025v0zM23.385 24.62c2.492 0 4.512-3.856 4.512-8.616 0-4.758-2.020-8.616-4.512-8.616s-4.512 3.858-4.512 8.616c0 4.76 2.020 8.618 4.512 8.618zM32.001 16.004c0 4.204-0.728 7.614-1.626 7.614-0.9 0-1.628-3.41-1.628-7.614s0.728-7.612 1.628-7.612c0.898 0 1.626 3.408 1.626 7.612z"></path>
</symbol>
<symbol id="icon-forum" viewBox="0 0 32 32">
<path d="M29.2 16c-0.003-7.288-5.912-13.195-13.2-13.195-7.29 0-13.2 5.91-13.2 13.2 0 2.309 0.593 4.479 1.634 6.367l-0.034-0.068-0.914 4.5c-0.025 0.119-0.040 0.256-0.040 0.396 0 1.104 0.895 2 2 2h10.558c7.288-0.002 13.196-5.911 13.196-13.2v0z"></path>
</symbol>
<symbol id="icon-code" viewBox="0 0 32 32">
<path d="M32 16c-0 0.552-0.224 1.052-0.586 1.414l-8 8c-0.359 0.347-0.849 0.561-1.389 0.561-1.105 0-2-0.895-2-2 0-0.54 0.214-1.030 0.562-1.39l-0.001 0.001 6.586-6.586-6.586-6.586c-0.377-0.364-0.611-0.874-0.611-1.439 0-1.105 0.895-2 2-2 0.564 0 1.074 0.234 1.438 0.61l0.001 0.001 8 8c0.362 0.362 0.586 0.862 0.586 1.414v0zM11.414 6.586c0.362 0.362 0.586 0.862 0.586 1.414s-0.224 1.052-0.586 1.414l-6.586 6.586 6.586 6.586c0.377 0.364 0.611 0.874 0.611 1.439 0 1.105-0.895 2-2 2-0.565 0-1.074-0.234-1.438-0.61l-0.001-0.001-8-8c-0.362-0.362-0.586-0.862-0.586-1.414s0.224-1.052 0.586-1.414l8-8c0.362-0.362 0.862-0.586 1.414-0.586s1.052 0.224 1.414 0.586v0z"></path>
</symbol>
<symbol id="icon-twitter" viewBox="0 0 32 32">
<path d="M31 6.696c-1.032 0.463-2.228 0.798-3.482 0.944l-0.058 0.005c1.271-0.765 2.227-1.943 2.692-3.345l0.012-0.043c-1.122 0.68-2.43 1.196-3.823 1.473l-0.077 0.013c-1.122-1.198-2.713-1.944-4.479-1.944-0.005 0-0.010 0-0.016 0h0.001c-3.394 0-6.146 2.752-6.146 6.146 0 0.001 0 0.003 0 0.004v-0c0 0.476 0.056 0.952 0.15 1.41-5.124-0.269-9.629-2.707-12.649-6.405l-0.025-0.031c-0.534 0.916-0.836 1.962-0.836 3.106 0 2.134 1.086 4.016 2.74 5.122-1.027-0.041-1.979-0.326-2.811-0.798l0.031 0.016v0.076c0 0.003 0 0.006 0 0.009 0 2.963 2.096 5.436 4.886 6.018l0.040 0.007c-0.485 0.131-1.042 0.208-1.617 0.21h-0.001c-0.4 0-0.78-0.040-1.16-0.094 0.812 2.46 3.068 4.214 5.74 4.266l0.006 0c-2.073 1.638-4.724 2.628-7.606 2.628-0.009 0-0.018 0-0.028-0h0.001c-0.516 0-0.992-0.020-1.486-0.076 2.658 1.73 5.91 2.758 9.403 2.758 0.014 0 0.027-0 0.041-0h-0.002c11.306 0 17.494-9.366 17.494-17.496 0-0.268 0-0.534-0.020-0.8 1.204-0.89 2.226-1.941 3.055-3.136l0.029-0.044z"></path>
</symbol>
<symbol id="icon-doc" viewBox="0 0 32 32">
<path d="M28 3.4h-5c-2.8 0-5.4 1.4-7 3.4-1.6-2-4.2-3.4-7-3.4h-5c-1.2 0-2 0.8-2 2v19.2c0 1.2 0.8 2 2 2h8c1.4 0 1.6 0.4 2 1s0.6 1 2 1 1.6-0.4 2-1 0.6-1 2-1h8c1.2 0 2-0.8 2-2v-19.2c0-1.2-0.8-2-2-2zM26 22.6h-6c-0.8 0-1.4 0.2-2 0.4v-10.6c0-2.8 2.2-5 5-5h3v15.2z"></path>
</symbol>
<symbol id="icon-telegram" viewBox="0 0 32 32">
<path d="M25.77 7.696c-0.704-0.19-1.112 0.232-1.562 0.514-13.712 8.324-18.544 11.415-23.363 14.525l8.547-5.165c-0.281 0.211-0.636 0.338-1.021 0.338-0.217 0-0.425-0.041-0.616-0.114l0.012 0.004c-1.852-0.614-3.724-1.156-5.582-1.732-0.648-0.206-1.584-0.254-1.584-1.1 0-0.844 0.872-1.096 1.548-1.356 4.13-1.588 8.244-3.166 12.346-4.74 4.696-1.8 9.39-3.616 14.078-5.41 0.74-0.282 1.52-0.818 2.294-0.106 0.774 0.71 0.514 1.57 0.346 2.392-0.704 3.456-1.458 6.906-2.196 10.36 1.507-8.767 0.685-5.021-0.127-1.27l-2.245 12.378c-0.408 1.908-1.408 2.288-2.98 1.134-1.87-1.366-3.77-2.696-5.572-4.16-0.88-0.704-1.408-0.634-2.112 0.184-0.704 0.816-1.578 1.54-2.38 2.3-0.218 0.2-0.48 0.424-0.78 0.268-0.304-0.154-0.212-0.444-0.22-0.704-0.034-1.872-0.048-3.752-0.126-5.63 0.009-0.491 0.268-0.919 0.654-1.165l0.006-0.003 11.764-10.664c0.338-0.282 0.724-0.5 0.872-1.078z"></path>
</symbol>
<symbol id="icon-discord" viewBox="0 0 32 32">
<path d="M8.030 26.816c0.13 0 0.286 0.048 0.376-0.062 0.588-0.686 1.17-1.41 1.774-2.15-1.728-0.498-3.198-1.432-4.333-2.677l-0.007-0.007c-0.070-0.164 0-0.186 0.142-0.144 0.9 0.486 1.83 0.92 2.78 1.3 3.12 1.226 6.496 1.66 9.826 1.26 2.925-0.405 5.56-1.354 7.903-2.744l-0.097 0.053c0.15 0.040 0 0.11 0 0.164s-0.164 0.212-0.254 0.308c-1.041 1.064-2.34 1.871-3.796 2.319l-0.064 0.017c-0.432 0.136-0.446 0.266-0.152 0.58 0.432 0.48 0.842 0.98 1.232 1.494 0.114 0.174 0.308 0.288 0.529 0.288 0.036 0 0.071-0.003 0.105-0.009l-0.004 0c2.579-0.129 4.906-1.112 6.727-2.669l-0.015 0.013c0.98-0.85 1.554-1.788 1.19-3.122-0.002-0.018-0.003-0.038-0.003-0.059s0.001-0.041 0.003-0.062l-0 0.003c-0.323-4.403-1.35-8.483-2.97-12.248l0.094 0.246c-0.531-1.474-1.597-2.646-2.957-3.305l-0.035-0.015c-1.521-0.776-3.288-1.336-5.155-1.581l-0.083-0.009c-0.32 0-0.636 0.048-0.684 0.356s0.328 0.226 0.52 0.294c1.983 0.628 3.709 1.488 5.268 2.57l-0.064-0.042c0 0.074 0.11 0.108 0.122 0.19-0.080-0.048-0.178 0-0.26-0.054-0.212-0.082-0.424-0.158-0.636-0.254-2.712-1.213-5.878-1.92-9.209-1.92-1.485 0-2.936 0.14-4.343 0.409l0.144-0.023c-2.16 0.392-4.26 1.070-6.244 2.014-0.048 0-0.096 0.048-0.138 0-0.040-0.048 0-0.082 0-0.116 1.764-1.262 3.814-2.273 6.019-2.923l0.145-0.037c0.136-0.040 0.37 0 0.348-0.21-0.020-0.214-0.24-0.254-0.444-0.254h-0.234c-2.635 0.317-4.994 1.297-6.966 2.767l0.038-0.027c-0.166 0.125-0.299 0.286-0.387 0.472l-0.003 0.008c-2.22 4.341-3.595 9.445-3.774 14.851l-0.002 0.059c-0.020 0.416 0.12 0.824 0.398 1.136 1.871 2.136 4.586 3.493 7.618 3.548l0.009 0zM20.942 14.14c1.534 0.086 2.745 1.352 2.745 2.9 0 0.062-0.002 0.124-0.006 0.185l0-0.008c0 0.008 0 0.018 0 0.029 0 1.572-1.241 2.854-2.796 2.921l-0.006 0c-1.561-0.105-2.787-1.396-2.787-2.974 0-0.023 0-0.047 0.001-0.070l-0 0.003c-0.001-0.033-0.002-0.071-0.002-0.11 0-1.579 1.273-2.861 2.849-2.876h0.001zM10.848 14.14c1.577 0.019 2.849 1.302 2.849 2.882 0 0.027-0 0.055-0.001 0.082l0-0.004c0.002 0.038 0.003 0.082 0.003 0.126 0 1.573-1.234 2.859-2.787 2.94l-0.007 0c-1.547-0.066-2.777-1.336-2.777-2.894 0-0.044 0.001-0.089 0.003-0.133l-0 0.006c-0.003-0.052-0.005-0.113-0.005-0.174 0-1.528 1.207-2.774 2.72-2.838l0.006-0v0.006z"></path>
</symbol>
<symbol id="icon-step-refresh" viewBox="0 0 32 32">
<path d="M16 8c-4.417 0.002-7.996 3.583-7.996 8 0 4.418 3.582 8 8 8 3.261 0 6.066-1.951 7.312-4.749l0.020-0.051c0.303-0.743 1.020-1.256 1.857-1.256 1.105 0 2 0.895 2 2 0 0.311-0.071 0.606-0.198 0.868l0.005-0.012c-1.899 4.275-6.108 7.202-11 7.202-6.629 0-12.002-5.373-12.002-12.002s5.373-12.002 12.002-12.002c4.892 0 9.101 2.927 10.97 7.126l0.030 0.076c0.091 0.22 0.143 0.476 0.143 0.744 0 1.105-0.895 2-2 2-0.793 0-1.479-0.462-1.802-1.132l-0.005-0.012c-1.267-2.849-4.072-4.8-7.333-4.8-0.001 0-0.002 0-0.003 0h0zM26 3c1.105 0 2 0.895 2 2v0 7c0 1.105-0.895 2-2 2v0h-7c-1.105 0-2-0.895-2-2s0.895-2 2-2v0h5v-5c0-1.105 0.895-2 2-2v0z"></path>
</symbol>
<symbol id="icon-step-success" viewBox="0 0 32 32">
<path d="M27.414 8.586c0.362 0.362 0.586 0.862 0.586 1.414s-0.224 1.052-0.586 1.414l-13 13c-0.362 0.362-0.862 0.586-1.414 0.586s-1.052-0.224-1.414-0.586l-6-6c-0.347-0.359-0.561-0.849-0.561-1.389 0-1.105 0.895-2 2-2 0.54 0 1.030 0.214 1.39 0.562l-0.001-0.001 4.586 4.586 11.586-11.586c0.362-0.362 0.862-0.586 1.414-0.586s1.052 0.224 1.414 0.586v0z"></path>
</symbol>
<symbol id="icon-step-failed" viewBox="0 0 32 32">
<path d="M25.414 6.586c0.362 0.362 0.586 0.862 0.586 1.414s-0.224 1.052-0.586 1.414l-16 16c-0.359 0.347-0.849 0.561-1.389 0.561-1.105 0-2-0.895-2-2 0-0.54 0.214-1.030 0.562-1.39l-0.001 0.001 16-16c0.362-0.362 0.862-0.586 1.414-0.586s1.052 0.224 1.414 0.586v0zM25.414 25.414c-0.362 0.362-0.862 0.586-1.414 0.586s-1.052-0.224-1.414-0.586l-16-16c-0.347-0.359-0.561-0.849-0.561-1.389 0-1.105 0.895-2 2-2 0.54 0 1.030 0.214 1.39 0.562l-0.001-0.001 16 16c0.362 0.362 0.586 0.862 0.586 1.414s-0.224 1.052-0.586 1.414v0z"></path>
</symbol>
<symbol id="icon-loading-small" viewBox="0 0 32 32">
<path d="M16 6.934c-5.005 0.003-9.061 4.060-9.061 9.066 0 5.007 4.059 9.066 9.066 9.066 3.695 0 6.874-2.211 8.286-5.382l0.023-0.058c0.243-0.594 0.816-1.005 1.485-1.005 0.884 0 1.6 0.716 1.6 1.6 0 0.249-0.057 0.484-0.158 0.694l0.004-0.010c-1.941 4.37-6.244 7.363-11.245 7.363-6.776 0-12.269-5.493-12.269-12.269s5.493-12.269 12.269-12.269c5.001 0 9.304 2.993 11.214 7.285l0.031 0.078c0.097 0.2 0.154 0.436 0.154 0.685 0 0.884-0.716 1.6-1.6 1.6-0.669 0-1.242-0.411-1.481-0.994l-0.004-0.011c-1.436-3.229-4.615-5.44-8.311-5.44-0.001 0-0.002 0-0.003 0h0zM26.666 2.666c0.884 0 1.6 0.716 1.6 1.6v0 7.469c0 0.884-0.716 1.6-1.6 1.6v0h-7.466c-0.884 0-1.6-0.716-1.6-1.6s0.716-1.6 1.6-1.6v0h5.866v-5.869c0-0.884 0.716-1.6 1.6-1.6v0z"></path>
</symbol>
<symbol id="icon-success-small" viewBox="0 0 32 32">
<path d="M27.798 8.467c0.29 0.29 0.47 0.69 0.47 1.133s-0.18 0.843-0.47 1.133l-13.869 13.866c-0.29 0.289-0.689 0.468-1.131 0.468s-0.842-0.179-1.131-0.468l-6.4-6.4c-0.278-0.287-0.449-0.68-0.449-1.112 0-0.884 0.716-1.6 1.6-1.6 0.432 0 0.824 0.171 1.112 0.45l5.27 5.267 12.736-12.736c0.29-0.289 0.689-0.468 1.131-0.468s0.842 0.179 1.131 0.468v0z"></path>
</symbol>
<symbol id="icon-failed-small" viewBox="0 0 32 32">
<path d="M6.867 6.867c0.29-0.29 0.69-0.47 1.133-0.47s0.843 0.18 1.133 0.47l6.867 6.87 6.867-6.87c0.29-0.29 0.69-0.469 1.133-0.469 0.885 0 1.602 0.717 1.602 1.602 0 0.442-0.179 0.843-0.469 1.133l-6.87 6.867 6.87 6.867c0.29 0.29 0.469 0.69 0.469 1.133 0 0.885-0.717 1.602-1.602 1.602-0.442 0-0.843-0.179-1.133-0.469l-6.867-6.87-6.867 6.87c-0.29 0.29-0.69 0.469-1.133 0.469-0.885 0-1.602-0.717-1.602-1.602 0-0.442 0.179-0.843 0.469-1.133l6.87-6.867-6.87-6.867c-0.29-0.29-0.47-0.69-0.47-1.133s0.18-0.843 0.47-1.133l0-0z"></path>
</symbol>
<symbol id="icon-left-back" viewBox="0 0 32 32">
<path d="M25 15h-16.6l7.3-7.3c0.4-0.4 0.4-1 0-1.4s-1-0.4-1.4 0l-8.9 9c-0.4 0.4-0.4 1 0 1.4h0.1l8.9 9c0.2 0.2 0.5 0.3 0.7 0.3 0.3 0 0.5-0.1 0.7-0.3 0.4-0.4 0.4-1 0-1.4l-7.3-7.3h16.5c0.6 0 1-0.4 1-1s-0.5-1-1-1z"></path>
</symbol>
<symbol id="icon-twitter-x" viewBox="0 0 32 32">
<path d="M24.273 3h4.411l-9.636 11.013 11.336 14.987h-8.876l-6.952-9.089-7.955 9.089h-4.413l10.307-11.78-10.875-14.22h9.101l6.284 8.308 7.268-8.308zM22.725 26.36h2.444l-15.776-20.859h-2.623l15.955 20.859z"></path>
</symbol>
<symbol id="icon-spread-tolerance" viewBox="0 0 32 32">
<path d="M2.213 11.327l6.924-8.903c0.641-0.824 1.885-0.824 2.526 0l6.924 8.903c1.226 1.576 0.103 3.873-1.895 3.873h-12.586c-1.997 0-3.121-2.297-1.894-3.873zM30.4 21.454l-5.142 6.544c-0.641 0.815-1.876 0.815-2.516 0l-5.142-6.544c-0.973-1.239-0.091-3.054 1.484-3.054h9.831c1.575 0 2.458 1.816 1.485 3.054zM7.2 15.2h6.4v12.8c0 0.884-0.716 1.6-1.6 1.6h-3.2c-0.884 0-1.6-0.716-1.6-1.6v-12.8zM21.6 8.8c0-0.884 0.716-1.6 1.6-1.6h1.6c0.884 0 1.6 0.716 1.6 1.6v9.6h-4.8v-9.6z"></path>
</symbol>
<symbol id="icon-fall" viewBox="0 0 32 32">
<path d="M5.556 5.099c0.494-0.247 1.095-0.046 1.341 0.448l6.103 12.216 3.105-6.21c0.169-0.339 0.516-0.553 0.894-0.553s0.725 0.214 0.894 0.553l7 14c0.247 0.494 0.047 1.095-0.447 1.342s-1.095 0.047-1.342-0.447l-6.106-12.211-3.106 6.211c-0.169 0.339-0.516 0.553-0.895 0.553s-0.725-0.214-0.894-0.553l-6.997-14.006c-0.247-0.494-0.046-1.095 0.448-1.341zM26.316 19.051c0.524 0.175 0.807 0.741 0.632 1.265l-2 6c-0.175 0.524-0.741 0.807-1.265 0.632l-6-2c-0.524-0.175-0.807-0.741-0.632-1.265s0.741-0.807 1.265-0.632l5.051 1.684 1.684-5.051c0.175-0.524 0.741-0.807 1.265-0.632z"></path>
</symbol>
<symbol id="icon-warning" viewBox="0 0 32 32">
<path d="M17.333 22c0 0.736-0.597 1.333-1.333 1.333s-1.333-0.597-1.333-1.333c0-0.736 0.597-1.333 1.333-1.333s1.333 0.597 1.333 1.333zM16 8.667c0.736 0 1.333 0.597 1.333 1.333v8c0 0.736-0.597 1.333-1.333 1.333s-1.333-0.597-1.333-1.333v-8c0-0.736 0.597-1.333 1.333-1.333z"></path>
</symbol>
<symbol id="icon-agg-pos" viewBox="0 0 32 32">
<path d="M4.573 13.144c-2.071-1.243-2.071-4.245 0-5.488l6.488-3.893c3.040-1.824 6.838-1.824 9.878 0l6.488 3.893c2.072 1.243 2.072 4.245 0 5.488l-6.488 3.893c-3.040 1.824-6.838 1.824-9.878 0l-6.488-3.893zM6.223 17.866l-1.65 0.99c-2.071 1.243-2.071 4.245 0 5.488l6.488 3.892c3.040 1.824 6.838 1.824 9.878 0l6.488-3.892c2.072-1.243 2.072-4.245 0-5.488l-1.65-0.99-3.191 1.915c-4.054 2.432-9.118 2.432-13.171 0l-3.191-1.914zM9.333 16l1.728-1.037c3.040-1.824 6.838-1.824 9.878 0l1.727 1.036-1.728 1.037c-3.040 1.824-6.838 1.824-9.878 0l-1.727-1.037z"></path>
</symbol>
<symbol id="icon-count-down" viewBox="0 0 32 32">
<path d="M16 5c-6.075 0-11 4.925-11 11s4.925 11 11 11c3.053 0 5.814-1.243 7.808-3.252 0.951-0.959 1.727-2.091 2.275-3.345 0.221-0.506 0.811-0.737 1.317-0.516s0.737 0.811 0.516 1.317c-0.648 1.483-1.565 2.821-2.688 3.953-2.354 2.372-5.62 3.843-9.228 3.843-7.18 0-13-5.82-13-13s5.82-13 13-13c3.608 0 6.874 1.471 9.228 3.843 1.123 1.132 2.040 2.47 2.688 3.952 0.221 0.506-0.010 1.096-0.516 1.317s-1.096-0.010-1.317-0.516c-0.548-1.254-1.324-2.386-2.275-3.345-1.994-2.010-4.755-3.252-7.808-3.252zM28 6c0.552 0 1 0.448 1 1v5c0 0.3-0.134 0.583-0.366 0.773s-0.536 0.266-0.83 0.207l-5-1c-0.541-0.108-0.893-0.635-0.784-1.177s0.635-0.893 1.177-0.784l3.804 0.761v-3.78c0-0.552 0.448-1 1-1zM16 9c0.552 0 1 0.448 1 1v5.586l3.707 3.707c0.39 0.391 0.39 1.024 0 1.414s-1.024 0.39-1.414 0l-4-4c-0.188-0.188-0.293-0.442-0.293-0.707v-6c0-0.552 0.448-1 1-1z"></path>
</symbol>
<symbol id="icon-add" viewBox="0 0 32 32">
<path d="M18 2c0-1.105-0.895-2-2-2s-2 0.895-2 2v12h-12c-1.105 0-2 0.895-2 2s0.895 2 2 2h12v12c0 1.105 0.895 2 2 2s2-0.895 2-2v-12h12c1.105 0 2-0.895 2-2s-0.895-2-2-2h-12v-12z"></path>
</symbol>
<symbol id="icon-subtract" viewBox="0 0 32 32">
<path d="M0 16c0-1.105 0.895-2 2-2h28c1.105 0 2 0.895 2 2s-0.895 2-2 2h-28c-1.105 0-2-0.895-2-2z"></path>
</symbol>
<symbol id="icon-mark-unselected" viewBox="0 0 32 32">
<path d="M15.999 1c-1.4 0-2.68 0.802-3.297 2.058l-2.499 5.061-5.583 0.809c-1.391 0.205-2.538 1.168-2.973 2.516s-0.066 2.793 0.936 3.772l4.042 3.933-0.946 5.554c-0.227 1.361 0.315 2.757 1.461 3.587 0.649 0.484 1.409 0.711 2.159 0.711 0.593 0 1.172-0.138 1.721-0.434l4.979-2.621 4.981 2.622c1.246 0.667 2.737 0.545 3.87-0.272 1.15-0.828 1.696-2.209 1.469-3.59l-0.947-5.556 4.042-3.933c1.002-0.979 1.37-2.424 0.936-3.772s-1.582-2.311-2.972-2.516l-5.583-0.809-2.498-5.058c-0.62-1.281-1.889-2.061-3.299-2.061zM14.497 3.941c0.283-0.576 0.869-0.941 1.502-0.941 0.655 0 1.218 0.352 1.499 0.934l2.69 5.446c0.225 0.449 0.634 0.594 0.819 0.64l0.049 0.012 6.032 0.874c0.642 0.095 1.16 0.532 1.359 1.15s0.034 1.274-0.43 1.728l-4.342 4.225c-0.304 0.304-0.359 0.67-0.359 0.89v0.085l1.030 6.047c0.106 0.652-0.149 1.269-0.665 1.641-0.532 0.383-1.206 0.428-1.759 0.131l-0.007-0.004-5.369-2.826c-0.348-0.174-0.746-0.174-1.095-0l-5.379 2.832c-0.25 0.135-0.502 0.196-0.774 0.196-0.347 0-0.683-0.105-0.967-0.317l-0.016-0.011c-0.515-0.371-0.77-1.005-0.665-1.641l1.013-5.943c0.049-0.249 0.009-0.475-0.054-0.643-0.055-0.146-0.156-0.327-0.33-0.477l-4.3-4.184c-0.464-0.454-0.629-1.109-0.43-1.728s0.719-1.055 1.361-1.151l6.080-0.886c0.184-0.046 0.594-0.19 0.819-0.64l0.002-0.004 2.684-5.435z"></path>
</symbol>
<symbol id="icon-mark" viewBox="0 0 32 32">
<path d="M12.702 3.058c0.617-1.256 1.897-2.058 3.297-2.058 1.41 0 2.679 0.78 3.299 2.061l2.498 5.058 5.583 0.809c1.391 0.205 2.538 1.168 2.972 2.516s0.066 2.793-0.936 3.772l-4.042 3.933 0.947 5.556c0.226 1.381-0.319 2.762-1.469 3.59-1.133 0.816-2.625 0.939-3.87 0.272l-4.981-2.622-4.979 2.621c-0.549 0.296-1.128 0.434-1.721 0.434-0.75 0-1.51-0.227-2.159-0.711-1.146-0.83-1.688-2.226-1.461-3.587l0.001-0.004 0.946-5.55-4.042-3.933c-1.002-0.979-1.37-2.424-0.936-3.772s1.582-2.311 2.973-2.516l5.583-0.809 2.499-5.061z"></path>
</symbol>
<symbol id="icon-mirror" viewBox="0 0 32 32">
<path d="M4.387 12.613c0-6.414 5.199-11.613 11.613-11.613s11.613 5.199 11.613 11.613v17.419c0 0.535-0.433 0.968-0.968 0.968h-21.29c-0.534 0-0.968-0.433-0.968-0.968v-17.419z"></path>
</symbol>
<symbol id="icon-setting" viewBox="0 0 32 32">
<path d="M23.875 7.969c1.292 1.333 2.198 2.885 2.719 4.656h1.406c1.105 0 2 0.895 2 2v2c0 1.105-0.895 2-2 2h-1.406c-0.521 1.771-1.427 3.323-2.719 4.656l0.716 1.237c0.554 0.956 0.227 2.18-0.73 2.733l-1.725 0.998c-0.956 0.553-2.179 0.226-2.732-0.729l-0.717-1.239c-1.792 0.459-3.584 0.459-5.375 0l-0.717 1.239c-0.553 0.956-1.776 1.282-2.732 0.729l-1.725-0.998c-0.957-0.553-1.283-1.777-0.73-2.733l0.716-1.237c-1.292-1.333-2.198-2.885-2.719-4.656h-1.406c-1.105 0-2-0.895-2-2v-2c0-1.105 0.895-2 2-2h1.406c0.521-1.771 1.427-3.323 2.719-4.656l-0.716-1.237c-0.554-0.956-0.227-2.18 0.73-2.733l1.725-0.998c0.956-0.553 2.179-0.226 2.732 0.729l0.717 1.239c1.792-0.459 3.584-0.459 5.375 0l0.717-1.239c0.553-0.956 1.776-1.282 2.732-0.729l1.725 0.998c0.957 0.553 1.283 1.777 0.73 2.734l-0.716 1.237zM22 15.625c-0.042-1.709-0.625-3.125-1.75-4.25s-2.541-1.708-4.25-1.75c-1.709 0.042-3.125 0.625-4.25 1.75s-1.708 2.541-1.75 4.25c0.042 1.709 0.625 3.125 1.75 4.25s2.541 1.708 4.25 1.75c1.709-0.042 3.125-0.625 4.25-1.75s1.708-2.541 1.75-4.25z"></path>
</symbol>
<symbol id="icon-flash-take" viewBox="0 0 32 32">
<path d="M5.717 21.766l3.69-10.775h-4.576l-2.165-5.658h28.143l-4.084 5.658h-10.332l-1.82 4.674h7.134l-14.268 16.335 2.706-10.234h-4.428z"></path>
</symbol>
<symbol id="icon-edit" viewBox="0 0 32 32">
<path d="M10 5c-2.761 0-5 2.239-5 5v12c0 2.761 2.239 5 5 5h12c2.761 0 5-2.239 5-5v-6c0-0.552 0.448-1 1-1s1 0.448 1 1v6c0 3.866-3.134 7-7 7h-12c-3.866 0-7-3.134-7-7v-12c0-3.866 3.134-7 7-7h6c0.552 0 1 0.448 1 1s-0.448 1-1 1h-6zM27.707 4.293c0.39 0.391 0.39 1.024 0 1.414l-13 13c-0.391 0.391-1.024 0.391-1.414 0s-0.391-1.024 0-1.414l13-13c0.391-0.391 1.024-0.391 1.414 0z"></path>
</symbol>
<symbol id="icon-create" viewBox="0 0 34 32">
<path d="M11 23c-2.761 0-5-2.239-5-5v-8c0-2.761 2.239-5 5-5h8c2.761 0 5 2.239 5 5v4c0 0.552 0.448 1 1 1s1-0.448 1-1v-4c0-3.866-3.134-7-7-7h-8c-3.866 0-7 3.134-7 7v8c0 3.866 3.134 7 7 7h4c0.552 0 1-0.448 1-1s-0.448-1-1-1h-4zM25 19c0.552 0 1 0.448 1 1v3h3c0.552 0 1 0.448 1 1s-0.448 1-1 1h-3v3c0 0.552-0.448 1-1 1s-1-0.448-1-1v-3h-3c-0.552 0-1-0.448-1-1s0.448-1 1-1h3v-3c0-0.552 0.448-1 1-1z"></path>
</symbol>
<symbol id="icon-detail" viewBox="0 0 32 32">
<path d="M3 10c0-3.866 3.134-7 7-7h12c3.866 0 7 3.134 7 7v8c0 6.075-4.925 11-11 11h-8c-3.866 0-7-3.134-7-7v-12zM10 5c-2.761 0-5 2.239-5 5v12c0 2.761 2.239 5 5 5h8c4.971 0 9-4.029 9-9v-8c0-2.761-2.239-5-5-5h-12zM10 13c0-0.552 0.448-1 1-1h10c0.552 0 1 0.448 1 1s-0.448 1-1 1h-10c-0.552 0-1-0.448-1-1zM10 19c0-0.552 0.448-1 1-1h6c0.552 0 1 0.448 1 1s-0.448 1-1 1h-6c-0.552 0-1-0.448-1-1z"></path>
</symbol>
<symbol id="icon-download-big" viewBox="0 0 32 32">
<path d="M3 28c0-0.552 0.448-1 1-1h24c0.552 0 1 0.448 1 1s-0.448 1-1 1h-24c-0.552 0-1-0.448-1-1zM16 3c0.552 0 1 0.448 1 1v15.586l8.293-8.293c0.391-0.391 1.024-0.391 1.414 0s0.39 1.024 0 1.414l-10 10c-0.188 0.187-0.442 0.293-0.707 0.293s-0.52-0.105-0.707-0.293l-10-10c-0.391-0.391-0.391-1.024 0-1.414s1.024-0.391 1.414 0l8.293 8.293v-15.586c0-0.552 0.448-1 1-1z"></path>
</symbol>
<symbol id="icon-sort" viewBox="0 0 32 32">
<path d="M3.118 3.528c0.174-0.325 0.513-0.528 0.882-0.528h24c0.369 0 0.708 0.203 0.882 0.528s0.155 0.72-0.050 1.027l-7.832 11.748v7.697c0 0.552-0.448 1-1 1s-1-0.448-1-1v-8c0-0.197 0.058-0.39 0.168-0.555l6.964-10.445h-20.263l6.964 10.445c0.11 0.164 0.168 0.357 0.168 0.555v12c0 0.552-0.448 1-1 1s-1-0.448-1-1v-11.697l-7.832-11.748c-0.205-0.307-0.224-0.701-0.050-1.027z"></path>
</symbol>
<symbol id="icon-socket" viewBox="0 0 32 32">
<path d="M3 3v26h26v-26h-26zM9.461 20.448c-0.879 0-1.739-0.261-2.47-0.749s-1.301-1.183-1.638-1.995c-0.337-0.812-0.425-1.706-0.253-2.569s0.595-1.655 1.217-2.276c0.622-0.622 1.414-1.045 2.276-1.217s1.756-0.084 2.569 0.253c0.812 0.337 1.507 0.906 1.995 1.638s0.749 1.591 0.749 2.47c-0.001 1.179-0.47 2.309-1.304 3.142s-1.964 1.302-3.142 1.304zM23.768 20.448c-0.731 0-1.45-0.179-2.095-0.523s-1.195-0.841-1.602-1.448-0.658-1.305-0.731-2.032c-0.073-0.727 0.035-1.461 0.313-2.137s0.719-1.272 1.283-1.737c0.564-0.465 1.233-0.784 1.95-0.928s1.457-0.11 2.157 0.1c0.7 0.21 1.337 0.589 1.855 1.105l-1.211 1.211c-0.383-0.379-0.87-0.637-1.4-0.74s-1.078-0.047-1.575 0.16c-0.498 0.208-0.923 0.558-1.222 1.007s-0.459 0.976-0.459 1.515 0.16 1.067 0.459 1.515c0.299 0.449 0.724 0.799 1.222 1.007s1.046 0.263 1.575 0.16c0.529-0.103 1.016-0.361 1.4-0.74l1.213 1.209c-0.831 0.83-1.958 1.296-3.132 1.295zM9.461 18.735c1.509 0 2.733-1.224 2.733-2.733s-1.224-2.733-2.733-2.733c-1.509 0-2.733 1.224-2.733 2.733s1.224 2.733 2.733 2.733z"></path>
</symbol>
<symbol id="icon-bungee" viewBox="0 0 32 32">
<path d="M29 3h-26v26h26v-26zM11.019 12.138v4.221c0 1.351 0.844 2.532 2.026 2.532 1.621 0 2.364-1.351 2.364-2.532v-4.221h1.351v0.675c0.281-0.281 1.148-0.675 2.364-0.675 2.195 0 3.377 1.857 3.377 3.039v5.065h-1.351v-4.558c0-1.013-0.675-2.195-2.026-2.195s-2.364 0.844-2.364 2.364v4.39h-1.519v-0.675c-0.338 0.281-1.081 0.675-2.026 0.675-1.182 0-1.891-0.203-2.701-1.013s-1.013-2.251-1.013-2.87v-4.221h1.519zM8.688 16c0 1.346-1.091 2.438-2.438 2.438s-2.438-1.091-2.438-2.438c0-1.346 1.091-2.438 2.438-2.438s2.438 1.091 2.438 2.438zM28.187 16c0 1.346-1.091 2.438-2.437 2.438s-2.438-1.091-2.438-2.438c0-1.346 1.091-2.438 2.438-2.438s2.437 1.091 2.437 2.438z"></path>
</symbol>
<symbol id="icon-allow-leverage-boosting" viewBox="0 0 32 32">
<path d="M18.351 29.482c-0.375 0-0.749-0.143-1.033-0.43l-14.35-14.347c-0.274-0.274-0.43-0.648-0.43-1.036s0.156-0.759 0.43-1.036l1.844-1.838c0.776-0.775 1.808-1.202 2.906-1.202s2.131 0.427 2.91 1.206l0.062 0.062 6.266-6.266c2.89-2.884 7.589-2.884 10.469 0 1.401 1.398 2.17 3.258 2.17 5.236s-0.772 3.835-2.17 5.236l-6.263 6.263 0.062 0.062c0.776 0.776 1.206 1.812 1.206 2.913s-0.427 2.134-1.206 2.913l-1.838 1.838c-0.287 0.284-0.661 0.427-1.036 0.427zM17.907 11.816c-0.625-0.625-0.625-1.638 0-2.263l1.131-1.131c0.625-0.625 1.638-0.625 2.263 0s0.625 1.638 0 2.263l-1.131 1.131c-0.625 0.625-1.638 0.625-2.263 0zM2.869 23.404c-0.625-0.625-0.625-1.638 0-2.263l1.131-1.131c0.625-0.625 1.638-0.625 2.263 0s0.625 1.638 0 2.263l-1.131 1.131c-0.625 0.625-1.638 0.625-2.263 0zM8.566 29.101c-0.625-0.625-0.625-1.638 0-2.263l1.131-1.131c0.625-0.625 1.638-0.625 2.263 0s0.625 1.638 0 2.263l-1.131 1.132c-0.625 0.625-1.638 0.625-2.263 0z"></path>
</symbol>
<symbol id="icon-liquidity-sources" viewBox="0 0 32 32">
<path d="M27.2 19.2c0.8 6.4-4.8 11.2-11.2 11.2s-12-4.8-11.2-11.2c0.633-5.063 7.273-13.629 10.020-16.989 0.617-0.754 1.743-0.754 2.36-0 2.747 3.359 9.387 11.926 10.020 16.989z"></path>
</symbol>
<symbol id="icon-setting-2" viewBox="0 0 32 32">
<path d="M4 8h3c0.6 2.2 2.6 4 5 4s4.4-1.8 5-4h11c0.6 0 1-0.4 1-1s-0.4-1-1-1h-11c-0.6-2.2-2.6-4-5-4s-4.4 1.8-5 4h-3c-0.6 0-1 0.4-1 1s0.4 1 1 1zM12 4c1.6 0 3 1.4 3 3s-1.4 3-3 3-3-1.4-3-3 1.4-3 3-3zM28 24h-3c-0.4-2.2-2.4-4-5-4s-4.4 1.8-5 4h-11c-0.6 0-1 0.4-1 1s0.4 1 1 1h11c0.4 2.2 2.4 4 5 4s4.4-1.8 5-4h3c0.6 0 1-0.4 1-1s-0.4-1-1-1zM20 28c-1.6 0-3-1.4-3-3s1.4-3 3-3 3 1.4 3 3c0 1.6-1.4 3-3 3z"></path>
</symbol>
<symbol id="icon-search" viewBox="0 0 32 32">
<path d="M15 5c-5.523 0-10 4.477-10 10s4.477 10 10 10c5.523 0 10-4.477 10-10s-4.477-10-10-10zM3 15c0-6.627 5.373-12 12-12s12 5.373 12 12c0 6.627-5.373 12-12 12s-12-5.373-12-12zM22.293 22.293c0.391-0.391 1.024-0.391 1.414-0l6 6c0.391 0.391 0.391 1.024 0 1.414s-1.024 0.39-1.414 0l-6-6c-0.391-0.391-0.391-1.024-0-1.414z"></path>
</symbol>
<symbol id="icon-index-chart" viewBox="0 0 32 32">
<path d="M3 10c0-3.866 3.134-7 7-7h12c3.866 0 7 3.134 7 7v12c0 3.866-3.134 7-7 7h-12c-3.866 0-7-3.134-7-7v-12zM10 5c-2.761 0-5 2.239-5 5v12c0 2.761 2.239 5 5 5h12c2.761 0 5-2.239 5-5v-12c0-2.761-2.239-5-5-5h-12zM24.651 10.241c0.419 0.359 0.468 0.991 0.108 1.41l-6 7c-0.181 0.211-0.443 0.338-0.721 0.348s-0.549-0.095-0.745-0.292l-3.236-3.236-5.297 6.18c-0.359 0.419-0.991 0.468-1.41 0.108s-0.468-0.991-0.108-1.41l6-7c0.181-0.211 0.443-0.338 0.721-0.348s0.549 0.095 0.745 0.292l3.236 3.236 5.297-6.18c0.359-0.419 0.991-0.468 1.41-0.108z"></path>
</symbol>
</defs>
</svg>
