<svg width="24" height="24" viewBox="0 0 24 24" fill="none" xmlns="http://www.w3.org/2000/svg">
    <path
        d="M21.4095 7.43014L14.2819 19.7757C14.0664 20.148 13.7568 20.4571 13.3841 20.672C13.0114 20.8869 12.5888 21 12.1586 21C11.7284 21 11.3058 20.8869 10.9331 20.672C10.5604 20.4571 10.2508 20.148 10.0353 19.7757L8.78575 17.6131C8.78175 17.6077 8.78002 17.601 8.78099 17.5944C8.78191 17.5877 8.78548 17.5817 8.79083 17.5777C8.79617 17.5737 8.80293 17.572 8.80957 17.5729C8.81622 17.5739 8.82221 17.5774 8.82627 17.5828C9.04912 17.8028 9.31941 17.9689 9.61634 18.0685C9.91332 18.168 10.2291 18.1983 10.5396 18.1571C10.8501 18.1158 11.147 18.0041 11.4077 17.8305C11.6683 17.6568 11.8858 17.4259 12.0435 17.1553L18.0101 6.81046C18.1675 6.53734 18.2598 6.23168 18.28 5.91715C18.3002 5.60261 18.2477 5.28765 18.1267 4.99664C18.0056 4.70563 17.8193 4.44638 17.5819 4.23898C17.3446 4.03157 17.0627 3.88157 16.7581 3.80059C16.7514 3.80059 16.745 3.79792 16.7403 3.79318C16.7355 3.78844 16.7329 3.782 16.7329 3.77529C16.7329 3.76859 16.7355 3.76215 16.7403 3.75741C16.745 3.75267 16.7514 3.75 16.7581 3.75H19.2875C19.7179 3.75046 20.1406 3.86417 20.5132 4.07969C20.8858 4.29521 21.1952 4.60497 21.4102 4.97786C21.6252 5.35075 21.7383 5.77364 21.7382 6.20409C21.7381 6.63453 21.6248 7.05737 21.4095 7.43014ZM12.9718 3.75H10.5006C10.4956 3.75166 10.4912 3.75488 10.488 3.7592C10.4849 3.76351 10.4832 3.7687 10.4832 3.77403C10.4832 3.77936 10.4849 3.78455 10.488 3.78886C10.4912 3.79318 10.4956 3.7964 10.5006 3.79806C10.6671 3.86235 10.8176 3.96181 10.9421 4.08965C11.0666 4.2175 11.162 4.37071 11.2218 4.53881C11.2816 4.70691 11.3044 4.88595 11.2886 5.06367C11.2728 5.24139 11.2189 5.41362 11.1305 5.56857L7.52871 11.7983C7.43565 11.9562 7.30877 12.0916 7.15718 12.1947C7.00559 12.2979 6.83305 12.3662 6.65194 12.3947C6.47083 12.4232 6.28565 12.4113 6.1097 12.3598C5.93374 12.3083 5.77138 12.2184 5.63426 12.0967C5.63024 12.0913 5.62424 12.0878 5.6176 12.0869C5.61096 12.0859 5.60422 12.0876 5.59885 12.0917C5.59348 12.0957 5.58993 12.1017 5.58899 12.1083C5.58804 12.1149 5.58977 12.1217 5.59379 12.127L6.85844 14.3225C7.00043 14.5688 7.20482 14.7735 7.45103 14.9157C7.69724 15.058 7.97661 15.1329 8.26094 15.1329C8.54528 15.1329 8.82465 15.058 9.07084 14.9157C9.31704 14.7735 9.52147 14.5688 9.66345 14.3225L14.3756 6.17813C14.5177 5.93192 14.5925 5.6526 14.5924 5.36828C14.5923 5.08397 14.5174 4.8047 14.3751 4.55856C14.2328 4.31243 14.0282 4.10811 13.7818 3.96617C13.5355 3.82423 13.2561 3.74967 12.9718 3.75ZM4.3949 3.75C3.97319 3.75 3.56095 3.87505 3.21031 4.10934C2.85967 4.34363 2.58638 4.67664 2.425 5.06625C2.26362 5.45585 2.22139 5.88457 2.30367 6.29818C2.38594 6.71179 2.58901 7.09171 2.8872 7.3899C3.1854 7.68809 3.56532 7.89117 3.97893 7.97344C4.39254 8.05571 4.82125 8.01349 5.21086 7.85211C5.60047 7.69072 5.93347 7.41743 6.16776 7.06679C6.40205 6.71615 6.5271 6.30392 6.5271 5.88221C6.52744 5.60211 6.47251 5.3247 6.36548 5.06585C6.25844 4.80701 6.1014 4.57183 5.90334 4.37377C5.70528 4.17571 5.47009 4.01866 5.21125 3.91163C4.95241 3.80459 4.675 3.74967 4.3949 3.75Z"
        fill="url(#paint0_linear_546_2014)" />
    <defs>
        <linearGradient id="paint0_linear_546_2014" x1="21.4891" y1="17.4007" x2="-0.779856" y2="2.27813"
            gradientUnits="userSpaceOnUse">
            <stop stop-color="#5433FF" />
            <stop offset="0.5" stop-color="#20BDFF" />
            <stop offset="1" stop-color="#5CFFA2" />
        </linearGradient>
    </defs>
</svg>