<svg width="24" height="24" viewBox="0 0 24 24" fill="none" xmlns="http://www.w3.org/2000/svg">
    <path fill-rule="evenodd" clip-rule="evenodd"
        d="M11.8998 22.4585C8.78777 22.4562 6.28086 21.717 4.52931 20.3892C2.75666 19.0456 1.81641 17.1387 1.81641 14.9809C1.81641 12.9019 2.75465 11.4028 3.81637 10.3894C4.64835 9.59534 5.56644 9.0868 6.20572 8.79418C6.06115 8.35497 5.8808 7.78005 5.71945 7.18614C5.50354 6.39152 5.29175 5.45908 5.29175 4.77589C5.29175 3.96724 5.46977 3.15499 5.95003 2.52393C6.45751 1.85721 7.22132 1.5 8.14025 1.5C8.85848 1.5 9.46821 1.76371 9.94562 2.21864C10.4019 2.65342 10.7056 3.23097 10.9153 3.833C11.2837 4.89081 11.4271 6.21983 11.4674 7.54621H12.3476C12.388 6.21983 12.5314 4.89081 12.8999 3.833C13.1096 3.23097 13.4133 2.65352 13.8696 2.21864C14.3469 1.76382 14.9566 1.5 15.6748 1.5C16.5938 1.5 17.3577 1.85721 17.865 2.52393C18.3453 3.15499 18.5234 3.96724 18.5234 4.77589C18.5234 5.45908 18.3116 6.39152 18.0956 7.18614C17.9343 7.78005 17.7539 8.35497 17.6094 8.79418C18.2486 9.0868 19.1668 9.59534 19.9988 10.3895C21.0604 11.4028 21.9988 12.9019 21.9988 14.9809C21.9988 17.1387 21.0584 19.0456 19.2859 20.3892C17.5343 21.717 15.0274 22.4562 11.9154 22.4585H11.8998Z"
        fill="#633001" />
    <path
        d="M8.14012 2.26929C6.79422 2.26929 6.17456 3.27349 6.17456 4.66213C6.17456 5.76594 6.89447 7.97654 7.18984 8.83712C7.25632 9.03076 7.15185 9.24276 6.96148 9.31779C5.88278 9.74318 2.69922 11.3006 2.69922 14.8673C2.69922 18.6244 5.93448 21.4573 11.9003 21.4617H11.9145C17.8804 21.4573 21.1155 18.6244 21.1155 14.8673C21.1155 11.3006 17.932 9.74318 16.8533 9.31779C16.663 9.24287 16.5585 9.03076 16.625 8.83712C16.9203 7.97664 17.6402 5.76594 17.6402 4.66213C17.6402 3.27338 17.0207 2.26929 15.6747 2.26929C13.7372 2.26929 13.2543 5.01374 13.2198 7.95934C13.2175 8.15593 13.0585 8.31549 12.8618 8.31549H10.9529C10.7563 8.31549 10.5972 8.15593 10.595 7.95934C10.5606 5.01374 10.0776 2.26929 8.14012 2.26929Z"
        fill="#D1884F" />
    <path
        d="M11.9144 20.2582C7.53101 20.2582 2.70682 17.9118 2.69922 14.8744V14.8885C2.69922 18.6487 5.93945 21.4831 11.9144 21.4831C17.8894 21.4831 21.1296 18.6487 21.1296 14.8885V14.8744C21.122 17.9118 16.2978 20.2582 11.9144 20.2582Z"
        fill="#FEDC90" />
    <path
        d="M9.47946 13.9414C9.47946 14.9669 8.99477 15.501 8.39696 15.501C7.79914 15.501 7.31445 14.9669 7.31445 13.9414C7.31445 12.9159 7.79914 12.3818 8.39696 12.3818C8.99477 12.3818 9.47946 12.9159 9.47946 13.9414ZM16.5154 13.9414C16.5154 14.9669 16.0308 15.501 15.433 15.501C14.8351 15.501 14.3505 14.9669 14.3505 13.9414C14.3505 12.9159 14.8351 12.3818 15.433 12.3818C16.0308 12.3818 16.5154 12.9159 16.5154 13.9414Z"
        fill="#633001" />
</svg>