<svg width="18" height="18" viewBox="0 0 18 18" fill="none" xmlns="http://www.w3.org/2000/svg">
    <path
        d="M7.64961 4.05005C4.17022 4.05005 1.34961 6.87066 1.34961 10.35C1.34961 13.8294 4.17022 16.65 7.64961 16.65C11.129 16.65 13.9496 13.8294 13.9496 10.35C13.9496 6.87066 11.129 4.05005 7.64961 4.05005Z"
        fill="#6CE99E" />
    <path
        d="M11.7002 0.900024L11.7002 0.400024H11.7002V0.900024ZM17.0996 6.30042L17.5996 6.30045V6.30042H17.0996ZM15.7354 9.88635L15.2361 9.91453L15.3044 11.1233L16.109 10.2186L15.7354 9.88635ZM8.11328 2.26331L7.78105 1.88965L6.87602 2.69433L8.08513 2.76251L8.11328 2.26331ZM11.7002 0.900024L11.7002 1.40002C14.4061 1.40019 16.5996 3.59425 16.5996 6.30042H17.0996H17.5996C17.5996 3.04214 14.9586 0.40023 11.7002 0.400024L11.7002 0.900024ZM17.0996 6.30042L16.5996 6.30038C16.5995 7.54968 16.1318 8.68814 15.3617 9.55408L15.7354 9.88635L16.109 10.2186C17.0352 9.17712 17.5995 7.80455 17.5996 6.30045L17.0996 6.30042ZM15.7354 9.88635L16.2346 9.85817C15.9885 5.49992 12.5 2.00986 8.14143 1.7641L8.11328 2.26331L8.08513 2.76251C11.9355 2.97962 15.0188 6.064 15.2361 9.91453L15.7354 9.88635ZM8.11328 2.26331L8.44551 2.63697C9.31129 1.86718 10.4507 1.40002 11.7002 1.40002V0.900024V0.400024C10.1964 0.400024 8.82279 0.963408 7.78105 1.88965L8.11328 2.26331Z"
        fill="white" />
</svg>