<svg width="24" height="24" viewBox="0 0 24 24" fill="none" xmlns="http://www.w3.org/2000/svg">
    <path
        d="M7.95764 20.5805L8.39554 18.5574C8.88395 16.3009 7.1649 14.1697 4.85647 14.1697H2.85059C3.48317 17.0049 5.39947 19.3557 7.95764 20.5805Z"
        fill="url(#paint0_linear_540_1949)" />
    <path
        d="M8.83691 20.9476C9.82511 21.3018 10.89 21.4947 12 21.4947C16.4732 21.4947 20.2147 18.3615 21.1499 14.1697H15.0306C12.2724 14.1697 9.88757 16.0937 9.30395 18.7898L8.83691 20.9476Z"
        fill="url(#paint1_linear_540_1949)" />
    <path
        d="M21.3102 13.2322C21.3534 12.8671 21.3756 12.4955 21.3756 12.1188C21.3756 7.2001 17.5885 3.16602 12.7713 2.77405L11.4574 8.84452C10.969 11.101 12.688 13.2322 14.9965 13.2322H21.3102Z"
        fill="url(#paint2_linear_540_1949)" />
    <path
        d="M11.8177 2.74451C6.72417 2.84161 2.625 7.00142 2.625 12.1188C2.625 12.4955 2.64722 12.8671 2.69041 13.2322H4.821C7.57928 13.2322 9.96408 11.3082 10.5476 8.61201L11.8177 2.74451Z"
        fill="url(#paint3_linear_540_1949)" />
    <defs>
        <linearGradient id="paint0_linear_540_1949" x1="13.684" y1="2.74443" x2="9.97962" y2="21.5193"
            gradientUnits="userSpaceOnUse">
            <stop stop-color="#EFBE84" />
            <stop offset="1" stop-color="#EAAE67" />
        </linearGradient>
        <linearGradient id="paint1_linear_540_1949" x1="13.6835" y1="2.74444" x2="9.97915" y2="21.5193"
            gradientUnits="userSpaceOnUse">
            <stop stop-color="#EFBE84" />
            <stop offset="1" stop-color="#EAAE67" />
        </linearGradient>
        <linearGradient id="paint2_linear_540_1949" x1="13.6843" y1="2.74456" x2="9.97989" y2="21.5194"
            gradientUnits="userSpaceOnUse">
            <stop stop-color="#EFBE84" />
            <stop offset="1" stop-color="#EAAE67" />
        </linearGradient>
        <linearGradient id="paint3_linear_540_1949" x1="13.6834" y1="2.74451" x2="9.97902" y2="21.5193"
            gradientUnits="userSpaceOnUse">
            <stop stop-color="#EFBE84" />
            <stop offset="1" stop-color="#EAAE67" />
        </linearGradient>
    </defs>
</svg>