<svg width="24" height="24" viewBox="0 0 24 24" fill="none" xmlns="http://www.w3.org/2000/svg">
    <path
        d="M3.19531 16.8151V15.4846C3.65463 13.5946 4.52575 10.4849 6.25744 9.35509C6.34989 9.29517 6.42586 9.21302 6.47842 9.11619C6.53099 9.01937 6.55847 8.91093 6.55837 8.80074C6.55133 6.58335 6.60061 4.92557 6.7062 3.82743C6.78539 3.00911 7.67763 2.12742 8.55403 2.03239C10.2294 1.85289 11.1797 2.63954 11.405 4.39234C11.4097 4.42371 11.4225 4.45341 11.442 4.4784C11.4616 4.50339 11.4871 4.52278 11.5161 4.53459C11.5451 4.54641 11.5765 4.55022 11.6071 4.54563C11.6376 4.54105 11.6663 4.52823 11.6901 4.50849C11.7921 4.42754 11.9065 4.14597 12.0332 3.66377C12.4503 2.07463 13.8124 1.12432 15.3382 1.64171C15.8697 1.82473 16.3853 2.34565 16.8851 3.20445C16.9234 3.26781 16.9739 3.32287 17.0337 3.3664C17.0936 3.40992 17.1615 3.44102 17.2336 3.45787C19.3419 3.91895 20.0687 5.12092 19.414 7.06378C19.4064 7.08812 19.4047 7.11393 19.4091 7.13901C19.4135 7.16414 19.4239 7.18785 19.4395 7.20801C19.455 7.22823 19.4753 7.24444 19.4984 7.25516C19.5216 7.26588 19.5469 7.27089 19.5724 7.26968C21.5047 7.14297 22.5131 9.36565 21.6367 10.8598C21.5631 10.986 21.4763 11.1029 21.378 11.2082C20.5597 12.074 18.865 13.2989 18.1417 14.6399C17.4131 15.9967 17.2072 17.6017 16.3255 19.0113C15.0584 21.0457 13.207 22.2019 10.7714 22.48C9.91969 22.5786 8.76875 22.3128 7.31862 21.6828C5.1153 20.7219 3.74086 19.0994 3.19531 16.8151ZM16.109 4.26563C16.9379 2.81904 14.1187 0.860338 12.9308 3.22029C12.8287 3.42443 12.1564 4.93789 10.914 7.76068C10.8979 7.79457 10.8707 7.82187 10.8369 7.83807C10.8031 7.85428 10.7648 7.85845 10.7283 7.84979C10.6919 7.84114 10.6595 7.82023 10.6365 7.79056C10.6136 7.76089 10.6016 7.72425 10.6025 7.68676L10.7767 4.4557C10.7992 4.02336 10.6543 3.59897 10.3722 3.27062C10.0901 2.94227 9.6923 2.73518 9.26149 2.69233L8.98168 2.66594C8.76653 2.64454 8.54928 2.66863 8.34397 2.73666C8.13865 2.80469 7.94981 2.91515 7.78963 3.0609C7.62944 3.20666 7.50148 3.38448 7.41398 3.58289C7.3265 3.78131 7.28142 3.9959 7.28167 4.21284V9.29702C7.28153 9.37658 7.25873 9.45482 7.21583 9.52288C7.17294 9.59098 7.11164 9.64621 7.03881 9.68242C5.3916 10.5113 4.99035 12.1216 4.34625 13.8374C3.21995 16.8608 4.17555 19.1944 7.21303 20.8381C10.1098 22.4078 12.6703 22.0541 14.8947 19.7769C16.6634 17.9713 16.7637 15.416 18.0255 13.5523C18.9125 12.2377 22.9935 10.1945 20.5333 8.18832C20.286 7.98648 19.9664 7.88152 19.625 7.89013C19.2836 7.89873 18.94 8.02038 18.6485 8.23583C18.6415 8.23937 18.3036 8.52795 17.6348 9.10168C17.6119 9.11984 17.5837 9.13024 17.5545 9.13124C17.5252 9.1323 17.4964 9.12395 17.4722 9.10743C17.448 9.09091 17.4298 9.06709 17.4201 9.03948C17.4104 9.01187 17.4098 8.98183 17.4184 8.95385C17.6876 8.18304 19.0867 6.93179 19.0181 5.84949C18.9653 5.03293 18.4848 4.48562 17.5767 4.20756C17.3987 4.15273 17.2075 4.1583 17.033 4.2234L16.3044 4.49793C16.2739 4.51041 16.2404 4.51284 16.2087 4.50489C16.1769 4.49693 16.1483 4.47898 16.1269 4.45352C16.1054 4.42804 16.0922 4.3963 16.089 4.36266C16.0859 4.32901 16.0928 4.29511 16.109 4.26563Z"
        fill="#FEFFFE" fill-opacity="0.996" />
    <path
        d="M16.3038 4.49777L17.0323 4.22324C17.2069 4.15814 17.3981 4.15257 17.5761 4.2074C18.4842 4.48545 18.9647 5.03276 19.0174 5.84933C19.0861 6.93165 17.6871 8.1829 17.4178 8.95371C17.4092 8.98169 17.4098 9.01168 17.4195 9.03929C17.4292 9.06696 17.4474 9.09077 17.4716 9.10724C17.4958 9.12377 17.5246 9.13211 17.5539 9.1311C17.5831 9.13005 17.6113 9.1197 17.6342 9.10154C18.303 8.52781 18.6409 8.23918 18.6479 8.2357C18.9394 8.02024 19.2831 7.89855 19.6244 7.88994C19.9659 7.88133 20.2855 7.98629 20.5327 8.18818C22.9929 10.1944 18.9119 12.2376 18.0249 13.5522C16.7631 15.4159 16.6628 17.9711 14.8941 19.7767C12.6697 22.054 10.1091 22.4077 7.21245 20.8379C4.17496 19.1942 3.21937 16.8607 4.34567 13.8373C4.98977 12.1214 5.39101 10.5112 7.03822 9.68229C7.11105 9.64607 7.17235 9.59079 7.21525 9.52274C7.25815 9.45463 7.28095 9.37644 7.28108 9.29688V4.21268C7.28083 3.99574 7.32591 3.78114 7.4134 3.58273C7.50089 3.38432 7.62886 3.2065 7.78904 3.06074C7.94922 2.91499 8.13807 2.80453 8.34339 2.7365C8.54872 2.66847 8.76592 2.64438 8.98106 2.66578L9.26088 2.69218C9.69169 2.73502 10.0894 2.94211 10.3716 3.27046C10.6537 3.59881 10.7986 4.0232 10.7761 4.45554L10.6019 7.68663C10.601 7.72406 10.6131 7.7607 10.636 7.79037C10.6589 7.82004 10.6913 7.84095 10.7277 7.8496C10.7642 7.85826 10.8026 7.85415 10.8363 7.83794C10.8701 7.82173 10.8973 7.79438 10.9134 7.76054C12.1559 4.93773 12.8281 3.42427 12.9302 3.22013C14.1181 0.860179 16.9373 2.81888 16.1084 4.26548C16.0923 4.29496 16.0853 4.32885 16.0885 4.3625C16.0916 4.39614 16.1049 4.42788 16.1263 4.45335C16.1477 4.47882 16.1763 4.49677 16.2081 4.50472C16.2398 4.51268 16.2733 4.51025 16.3038 4.49777ZM9.7202 9.16489L9.85747 4.4133C9.86322 4.19905 9.78477 3.9907 9.63826 3.83146C9.49181 3.67222 9.2886 3.5743 9.07082 3.55802H9.03914C8.93476 3.55078 8.83002 3.56429 8.73129 3.59772C8.63256 3.63114 8.54191 3.68379 8.46485 3.75245C8.38779 3.82111 8.32595 3.90434 8.2831 3.99708C8.24024 4.08982 8.21725 4.19012 8.21556 4.29187L8.10469 9.83539L7.97798 11.6093C7.97259 11.7008 7.9324 11.7868 7.86564 11.8496C7.79889 11.9124 7.71064 11.9474 7.61897 11.9472H7.47115C7.38713 11.9472 7.30656 11.9133 7.24716 11.8529C7.18775 11.7925 7.15437 11.7105 7.15437 11.6252V11.0338C7.15401 10.977 7.13524 10.9222 7.10083 10.8774C7.06643 10.8325 7.01819 10.8 6.96323 10.7847C6.90826 10.7693 6.84947 10.7719 6.79549 10.792C6.74152 10.8122 6.69521 10.8488 6.66338 10.8966C5.71834 12.3907 4.48293 15.078 4.94225 17.1264C5.13232 17.9641 5.59691 18.6575 6.33605 19.2066C9.21864 21.6087 12.6082 21.4662 14.9153 18.3988C15.9184 17.0683 16.1823 14.3811 17.4283 12.9292C18.0478 12.2112 18.9735 11.3137 20.2054 10.2366C20.3088 10.1472 20.3841 10.0278 20.4219 9.89347C20.5098 9.5767 20.406 9.27223 20.1104 8.98011C19.9934 8.86322 19.8383 8.79248 19.6734 8.78081C19.5085 8.76919 19.345 8.81745 19.2128 8.91676L14.7358 12.2534C15.6756 10.0536 16.7473 8.09135 17.951 6.36673C18.2256 5.97252 18.1428 5.57304 17.7028 5.16827C17.6379 5.10782 17.5604 5.06238 17.4758 5.03513C17.3914 5.00788 17.3019 4.9995 17.2138 5.01058C17.1257 5.02165 17.0411 5.05191 16.966 5.09923C16.8909 5.14654 16.827 5.20976 16.7789 5.28442L12.946 11.2556C12.4427 11.1535 12.2667 10.9353 12.418 10.6009C13.3824 8.50316 14.3345 6.39313 15.2743 4.27075C15.3647 4.06858 15.3752 3.83968 15.3037 3.63008C15.2322 3.42048 15.084 3.24572 14.8889 3.14094L14.8625 3.1251C14.7691 3.07337 14.6661 3.04159 14.5598 3.03177C14.4535 3.02195 14.3464 3.03431 14.2451 3.06806C14.1439 3.1018 14.0507 3.15621 13.9716 3.22783C13.8925 3.29944 13.8291 3.38671 13.7854 3.4841L10.6705 10.4584C10.6267 10.5559 10.5512 10.6358 10.4563 10.6851C10.3615 10.7344 10.2527 10.7503 10.1476 10.7302C10.0426 10.71 9.94743 10.655 9.87753 10.5741C9.80763 10.4931 9.76708 10.391 9.76243 10.2842L9.7202 9.16489Z"
        fill="black" />
    <path
        d="M4.94276 17.1266C5.13282 17.9643 5.59741 18.6577 6.33654 19.2067C8.23013 17.8974 10.078 16.5617 11.88 15.1996C13.207 14.1965 14.159 13.2145 14.7362 12.2536C15.676 10.0538 16.7477 8.09159 17.9515 6.36695C18.226 5.97275 18.1433 5.57326 17.7033 5.1685C17.6383 5.10805 17.5608 5.0626 17.4763 5.03536C17.3918 5.00811 17.3024 4.99973 17.2143 5.0108C17.1262 5.02188 17.0416 5.05214 16.9665 5.09945C16.8913 5.14677 16.8275 5.20998 16.7794 5.28465L12.9465 11.2558C12.4432 11.1537 12.2672 10.9355 12.4186 10.6011C13.3829 8.50334 14.3351 6.39331 15.2748 4.27094C15.3652 4.06877 15.3757 3.83987 15.3042 3.63027C15.2327 3.42067 15.0845 3.2459 14.8894 3.14112L14.863 3.12528C14.7697 3.07355 14.6666 3.04178 14.5603 3.03196C14.4541 3.02214 14.3469 3.0345 14.2456 3.06824C14.1444 3.10199 14.0513 3.15639 13.9721 3.22801C13.893 3.29963 13.8296 3.3869 13.786 3.48429L10.6711 10.4586C10.6272 10.5561 10.5517 10.636 10.4568 10.6853C10.3619 10.7346 10.2532 10.7505 10.1482 10.7304C10.0431 10.7102 9.94797 10.6552 9.87807 10.5742C9.80817 10.4933 9.76763 10.3911 9.76298 10.2843L9.72074 9.16508L9.85785 4.41356C9.86361 4.19932 9.7851 3.99097 9.63865 3.83173C9.49219 3.67248 9.28898 3.57456 9.0712 3.55828H9.03953C8.93515 3.55104 8.8304 3.56455 8.73168 3.59798C8.6329 3.6314 8.54225 3.68405 8.46521 3.75271C8.38815 3.82137 8.32631 3.9046 8.28345 3.99734C8.24059 4.09008 8.21761 4.19038 8.21591 4.29213L8.10504 9.83563L7.97849 11.6095C7.9731 11.701 7.9329 11.7869 7.86616 11.8498C7.7994 11.9126 7.71115 11.9475 7.61948 11.9474H7.47165C7.38764 11.9474 7.30707 11.9134 7.24766 11.853C7.18826 11.7926 7.15488 11.7108 7.15488 11.6253V11.034C7.15452 10.9773 7.13575 10.9224 7.10134 10.8775C7.06694 10.8327 7.0187 10.8002 6.96374 10.7848C6.90877 10.7695 6.84998 10.7721 6.79601 10.7922C6.74203 10.8123 6.69572 10.849 6.66389 10.8968C5.71885 12.3909 4.48344 15.0781 4.94276 17.1266Z"
        fill="url(#paint0_linear_548_2017)" />
    <path
        d="M11.8804 15.1995C10.0783 16.5617 8.2305 17.8974 6.33691 19.2067C9.21951 21.6089 12.6091 21.4663 14.9162 18.3989C15.3788 17.7853 15.6842 16.8832 16.0013 15.9467C16.3717 14.8526 16.7579 13.7116 17.4293 12.9293C18.0487 12.2113 18.9744 11.3138 20.2063 10.2368C20.3097 10.1473 20.385 10.028 20.4228 9.89362C20.5108 9.57685 20.4069 9.27237 20.1113 8.98026C19.9944 8.86337 19.8392 8.79262 19.6743 8.78101C19.5095 8.76934 19.3459 8.8176 19.2138 8.9169L14.7366 12.2536C14.1594 13.2144 13.2073 14.1964 11.8804 15.1995Z"
        fill="url(#paint1_linear_548_2017)" />
    <defs>
        <linearGradient id="paint0_linear_548_2017" x1="9.53063" y1="4.93169" x2="12.6482" y2="20.8695"
            gradientUnits="userSpaceOnUse">
            <stop stop-color="#73F857" />
            <stop offset="1" stop-color="#25D6D9" />
        </linearGradient>
        <linearGradient id="paint1_linear_548_2017" x1="9.531" y1="4.93165" x2="12.6486" y2="20.8694"
            gradientUnits="userSpaceOnUse">
            <stop stop-color="#73F857" />
            <stop offset="1" stop-color="#25D6D9" />
        </linearGradient>
    </defs>
</svg>