<svg width="376" height="216" viewBox="0 0 376 216" fill="none" xmlns="http://www.w3.org/2000/svg">
    <path
        d="M258 66.3334H259V65.3334H258V66.3334ZM258 150.778V151.778H259V150.778H258ZM188 158L187.034 158.259H188.966L188 158ZM118 66.3334V65.3334H117V66.3334H118ZM118 150.778H117V151.778H118V150.778ZM258 66.3334H257V150.778H258H259V66.3334H258ZM258 150.778V149.778H197.444V150.778V151.778H258V150.778ZM197.444 150.778V149.778C195.502 149.778 193.207 150.695 191.289 152.078C189.365 153.465 187.649 155.445 187.034 157.741L188 158L188.966 158.259C189.422 156.555 190.762 154.924 192.459 153.7C194.162 152.472 196.054 151.778 197.444 151.778V150.778ZM118 66.3334H117V150.778H118H119V66.3334H118ZM118 150.778V151.778H178.556V150.778V149.778H118V150.778ZM178.556 150.778V151.778C179.946 151.778 181.838 152.472 183.541 153.7C185.238 154.924 186.578 156.555 187.034 158.259L188 158L188.966 157.741C188.351 155.445 186.635 153.465 184.711 152.078C182.793 150.695 180.498 149.778 178.556 149.778V150.778ZM118 66.3334V67.3334H258V66.3334V65.3334H118V66.3334Z"
        fill="white" />
    <path
        d="M248 140.778V58H204.111C194 58 188 65 188 69.5C188 65 182 58 171.889 58H128V140.778H171.889C177.444 140.778 188 145.556 188 158C188 145.556 198.556 140.778 204.111 140.778H248Z"
        fill="#6CE99E" />
    <path
        d="M248 58H249V57H248V58ZM248 140.778V141.778H249V140.778H248ZM128 58V57H127V58H128ZM128 140.778H127V141.778H128V140.778ZM248 58H247V140.778H248H249V58H248ZM248 140.778V139.778H204.111V140.778V141.778H248V140.778ZM204.111 140.778V139.778C201.097 139.778 196.845 141.056 193.336 143.951C189.789 146.877 187 151.458 187 158H188H189C189 152.098 191.488 148.068 194.609 145.494C197.766 142.889 201.57 141.778 204.111 141.778V140.778ZM128 58H127V140.778H128H129V58H128ZM128 140.778V141.778H171.889V140.778V139.778H128V140.778ZM171.889 140.778V141.778C174.43 141.778 178.234 142.889 181.391 145.494C184.512 148.068 187 152.098 187 158H188H189C189 151.458 186.211 146.877 182.664 143.951C179.155 141.056 174.903 139.778 171.889 139.778V140.778ZM188 69.5H189C189 67.6446 190.281 65.0258 192.906 62.8295C195.492 60.6651 199.294 59 204.111 59V58V57C198.817 57 194.563 58.8349 191.622 61.2955C188.719 63.7242 187 66.8554 187 69.5H188ZM204.111 58V59H248V58V57H204.111V58ZM128 58V59H171.889V58V57H128V58ZM171.889 58V59C176.706 59 180.508 60.6651 183.094 62.8295C185.719 65.0258 187 67.6446 187 69.5H188H189C189 66.8554 187.281 63.7242 184.378 61.2955C181.437 58.8349 177.183 57 171.889 57V58Z"
        fill="white" />
    <path d="M204 92H232" stroke="white" stroke-width="8" />
    <path d="M204 114H232" stroke="white" stroke-width="8" />
    <path d="M144 92H172" stroke="white" stroke-width="8" />
    <path d="M144 114H172" stroke="white" stroke-width="8" />
    <path d="M188 66.5555V154.111" stroke="white" stroke-width="2" />
</svg>