<svg width="128" height="128" viewBox="0 0 128 128" fill="none" xmlns="http://www.w3.org/2000/svg">
<circle cx="64" cy="64" r="64" fill="#FF385C"/>
<path d="M98.0107 77.0063C97.6336 76.1013 97.2565 75.1209 96.8794 74.2914C96.2761 72.9339 95.6728 71.6518 95.1449 70.4452L95.0695 70.3698C89.8659 59.0576 84.2852 47.5946 78.4029 36.2824L78.1766 35.8299C77.5733 34.6987 76.97 33.4921 76.3667 32.2854C75.6125 30.928 74.8584 29.4951 73.6517 28.1376C71.2385 25.121 67.7694 23.4619 64.0741 23.4619C60.3034 23.4619 56.9097 25.121 54.421 27.9868C53.2898 29.3443 52.4602 30.7771 51.7061 32.1346C51.1028 33.3412 50.4995 34.5479 49.8961 35.6791L49.6699 36.1316C43.863 47.4438 38.2069 58.9068 33.0033 70.219L32.9278 70.3698C32.3999 71.5764 31.7966 72.8585 31.1933 74.216C30.8162 75.0455 30.4392 75.9505 30.0621 76.9309C29.0817 79.7212 28.78 82.3607 29.1571 85.0756C29.9867 90.7317 33.7574 95.4829 38.961 97.5945C40.9218 98.424 42.958 98.8011 45.0696 98.8011C45.6729 98.8011 46.4271 98.7257 47.0304 98.6503C49.5191 98.3486 52.0832 97.5191 54.5718 96.0862C57.6638 94.3516 60.605 91.863 63.9233 88.2431C67.2415 91.863 70.2581 94.3516 73.2747 96.0862C75.7633 97.5191 78.3274 98.3486 80.8161 98.6503C81.4194 98.7257 82.1736 98.8011 82.7769 98.8011C84.8885 98.8011 87.0001 98.424 88.8855 97.5945C94.1645 95.4829 97.8598 90.6563 98.6894 85.0756C99.2927 82.4361 98.991 79.7966 98.0107 77.0063ZM63.9987 80.9278C59.9263 75.7997 57.2868 70.9731 56.3818 66.9007C56.0047 65.1662 55.9293 63.6579 56.1555 62.3004C56.3064 61.0938 56.7589 60.038 57.3622 59.133C58.7951 57.0968 61.2083 55.8148 63.9987 55.8148C66.789 55.8148 69.2777 57.0214 70.6352 59.133C71.2385 60.038 71.691 61.0938 71.8418 62.3004C72.068 63.6579 71.9926 65.2416 71.6155 66.9007C70.7106 70.8977 68.0711 75.7242 63.9987 80.9278ZM94.0891 84.4723C93.5612 88.3939 90.9217 91.7876 87.2264 93.2958C85.4164 94.05 83.4556 94.2762 81.4949 94.05C79.6095 93.8237 77.7241 93.2204 75.7633 92.0892C73.0484 90.5809 70.3335 88.2431 67.1661 84.774C72.1434 78.6654 75.16 73.0847 76.2913 68.1074C76.8192 65.7695 76.8946 63.6579 76.6683 61.6971C76.3667 59.8118 75.6879 58.0772 74.6321 56.5689C72.2943 53.1753 68.3727 51.2145 63.9987 51.2145C59.6246 51.2145 55.7031 53.2507 53.3652 56.5689C52.3094 58.0772 51.6307 59.8118 51.329 61.6971C51.0274 63.6579 51.1028 65.8449 51.7061 68.1074C52.8373 73.0847 55.9293 78.7408 60.8313 84.8494C57.7393 88.3185 54.9489 90.6563 52.234 92.1646C50.2732 93.2958 48.3878 93.8992 46.5025 94.1254C44.4663 94.3516 42.5055 94.05 40.771 93.3713C37.0756 91.863 34.4361 88.4693 33.9082 84.5477C33.682 82.6624 33.8328 80.777 34.587 78.6654C34.8132 77.9113 35.1903 77.1571 35.5674 76.2521C36.0953 75.0455 36.6986 73.7635 37.3019 72.4814L37.3773 72.3306C42.5809 61.0938 48.1616 49.6308 53.9685 38.4694L54.1948 38.0169C54.7981 36.8857 55.4014 35.6791 56.0047 34.5479C56.608 33.3412 57.2868 32.21 58.1163 31.2296C59.7 29.4197 61.8116 28.4393 64.1495 28.4393C66.4874 28.4393 68.599 29.4197 70.1827 31.2296C71.0122 32.21 71.691 33.3412 72.2943 34.5479C72.8976 35.6791 73.5009 36.8857 74.1042 38.0169L74.3305 38.4694C80.062 49.7062 85.6427 61.1692 90.8463 72.406V72.4814C91.4496 73.688 91.9775 75.0455 92.5808 76.2521C92.9579 77.1571 93.3349 77.9113 93.5612 78.6654C94.1645 80.6262 94.3908 82.5116 94.0891 84.4723Z" fill="white"/>
</svg>
