<svg width="128" height="128" viewBox="0 0 128 128" fill="none" xmlns="http://www.w3.org/2000/svg">
<circle cx="64" cy="64" r="64" fill="white"/>
<path fill-rule="evenodd" clip-rule="evenodd" d="M63.6854 25.4425C65.1331 25.5187 66.3775 24.4013 66.4791 22.9537C66.5807 21.506 65.4378 20.2616 63.9902 20.16C62.5426 20.0838 61.2981 21.1759 61.1965 22.6235C61.1204 24.0965 62.2378 25.341 63.6854 25.4425ZM88.3454 25.7981C87.7105 26.7632 86.4406 27.0426 85.4755 26.4077C84.5359 25.7727 84.2565 24.4775 84.866 23.5124C85.5009 22.5727 86.7708 22.2934 87.7359 22.9283C88.7009 23.5632 88.9803 24.833 88.3454 25.7981ZM42.0216 26.6108C43.0375 26.1029 43.4438 24.833 42.9359 23.8172C42.428 22.8013 41.1581 22.395 40.1422 22.9029C39.1264 23.4108 38.72 24.6553 39.228 25.6711C39.7359 26.7124 40.9803 27.1442 42.0216 26.6108ZM48.4724 70.5982C44.9423 70.395 42.2248 67.3728 42.428 63.8426C42.6058 60.4395 45.4248 57.7728 48.828 57.7728C52.3836 57.7474 55.2534 60.6172 55.2534 64.1728C55.2788 67.7284 52.409 70.5982 48.8534 70.5982H48.4724ZM16.32 64.1473C16.3708 63.0045 17.3613 62.1156 18.5041 62.1918C19.647 62.268 20.5359 63.2331 20.4597 64.3759C20.3835 65.5188 19.4184 66.4077 18.2756 66.3315C17.1327 66.2807 16.2692 65.2902 16.32 64.1473ZM49.9457 33.6712C50.733 35.2458 50.0981 37.1759 48.5235 37.9632C46.9489 38.7505 45.0187 38.1156 44.2314 36.541C43.4441 34.9664 44.079 33.0362 45.6536 32.2489C47.2282 31.4616 49.1584 32.0966 49.9457 33.6712ZM26.6312 45.7601C27.8503 46.5474 29.4757 46.2172 30.2884 44.9982C31.0757 43.7791 30.7455 42.1537 29.5265 41.341C28.3074 40.5537 26.682 40.8839 25.8693 42.1029C25.0566 43.322 25.4122 44.9728 26.6312 45.7601ZM27.1393 64.0712C27.2409 62.2934 28.7393 60.9474 30.5171 61.049C32.2949 61.1506 33.6409 62.6744 33.5393 64.4268C33.4377 66.2045 31.9393 67.5506 30.1615 67.449C28.3838 67.3474 27.0377 65.849 27.1393 64.0712ZM26.9866 82.56C25.6914 83.2204 25.158 84.795 25.8184 86.1156C26.4787 87.4109 28.0533 87.9442 29.3739 87.2839C30.6691 86.6235 31.2025 85.0489 30.5422 83.7283C29.8818 82.4331 28.2818 81.8997 26.9866 82.56ZM44.6377 53.3284C43.5203 55.0808 41.1838 55.5633 39.4314 54.4204C37.679 53.2776 37.1965 50.9411 38.3393 49.2141C39.4568 47.4617 41.7933 46.9792 43.5457 48.122C45.298 49.2395 45.7806 51.576 44.6377 53.3284ZM78.9232 37.7093C80.3962 38.6743 82.4026 38.268 83.3677 36.795C84.3327 35.322 83.9264 33.3156 82.4534 32.3505C80.9804 31.3854 78.974 31.7918 78.0089 33.2648C77.0184 34.7632 77.4248 36.7442 78.9232 37.7093ZM79.4058 57.7219C75.8757 57.5187 72.8281 60.2362 72.6503 63.7663C72.4471 67.2965 75.1646 70.3441 78.6947 70.5219H79.0503C82.5805 70.5219 85.4503 67.6521 85.4503 64.0965C85.4757 60.7187 82.809 57.8997 79.4058 57.7219ZM56.3709 57.4934C53.9328 57.4934 51.7233 56.122 50.6312 53.9633C49.0312 50.8141 50.3011 46.9538 53.4757 45.3284C56.6249 43.7284 60.4852 44.9982 62.0852 48.1728C62.5423 49.0871 62.7709 50.0776 62.7709 51.068C62.7709 54.6236 59.9011 57.4934 56.3709 57.4934ZM100.891 45.76C102.187 45.0997 102.695 43.4997 102.034 42.2045C101.374 40.9093 99.7739 40.4013 98.4787 41.0616C97.1834 41.722 96.6755 43.2966 97.3104 44.5918C97.9961 45.887 99.5707 46.4204 100.891 45.76ZM82.9614 52.8457C82.0217 50.9917 82.7836 48.7314 84.6376 47.7917C86.4915 46.8774 88.7518 47.6139 89.6915 49.4679C90.6312 51.3219 89.8693 53.5822 88.0153 54.5219C86.1614 55.4616 83.901 54.6996 82.9614 52.8457ZM67.6216 38.4712C67.52 40.5537 65.7422 42.1537 63.6597 42.0267C61.5771 41.9252 60.0025 40.1474 60.1041 38.0648C60.2057 35.9823 61.9835 34.3823 64.066 34.5093C66.1486 34.6109 67.7486 36.3887 67.6216 38.4712ZM43.2408 80.5282C45.0948 79.5885 45.8567 77.3282 44.917 75.4743C43.9773 73.6203 41.717 72.8584 39.8631 73.7981C38.0091 74.7377 37.2472 76.9981 38.1869 78.852C39.1265 80.706 41.3869 81.4679 43.2408 80.5282ZM67.9519 56.4014C64.9805 54.4712 64.1678 50.5093 66.0979 47.5379C67.2916 45.7347 69.2979 44.6427 71.4567 44.6427C72.7011 44.6427 73.9202 44.9982 74.9614 45.6839C77.9329 47.6141 78.7456 51.576 76.8154 54.5474C74.8852 57.5189 70.9233 58.3316 67.9519 56.4014ZM77.2471 74.3569C75.6471 71.1823 71.7868 69.9125 68.6376 71.5125C65.463 73.1125 64.1932 76.9728 65.7932 80.122C67.3932 83.2966 71.2535 84.5665 74.4027 82.9665C77.5519 81.3919 78.8471 77.5823 77.2725 74.4077C77.2725 74.3823 77.2725 74.3823 77.2471 74.3569ZM83.2406 74.9918C84.3581 73.2394 86.6946 72.7569 88.4469 73.8997C90.1993 75.0426 90.6819 77.3791 89.539 79.1061C88.4215 80.8585 86.085 81.341 84.3327 80.1981C82.5803 79.0807 82.0977 76.7442 83.2406 74.9918ZM100.739 64.2744C100.84 62.4966 99.4944 60.9982 97.7167 60.8966C95.9389 60.7951 94.4405 62.1411 94.3389 63.9189C94.2373 65.6966 95.5833 67.1951 97.3611 67.2966C99.1135 67.3982 100.637 66.0268 100.739 64.2744ZM107.419 63.9442C107.47 62.8014 108.46 61.9125 109.603 61.9887C110.746 62.0649 111.609 63.0299 111.558 64.1728C111.482 65.3157 110.517 66.2045 109.374 66.1283C108.231 66.0776 107.368 65.0871 107.419 63.9442ZM101.247 82.56C100.028 81.7727 98.4027 82.1029 97.59 83.3219C96.8027 84.541 97.1329 86.1664 98.3519 86.9791C99.5709 87.7664 101.196 87.4362 102.009 86.2172C102.822 84.9981 102.466 83.3473 101.247 82.56ZM39.5073 102.497C40.1423 101.557 41.4121 101.277 42.3772 101.912C43.3423 102.547 43.6216 103.843 42.9613 104.782C42.3264 105.722 41.0566 106.001 40.0915 105.366C39.1518 104.731 38.8724 103.462 39.5073 102.497ZM85.8564 101.709C84.8405 102.217 84.4342 103.487 84.9421 104.503C85.45 105.519 86.7199 105.925 87.7357 105.417C88.7516 104.909 89.158 103.665 88.65 102.649C88.1421 101.608 86.8976 101.176 85.8564 101.709ZM59.9263 71.8934C62.8977 73.849 63.7104 77.8109 61.7803 80.7823C60.5866 82.6109 58.5803 83.703 56.3961 83.6776C55.1517 83.6776 53.9326 83.322 52.8914 82.6363C49.9199 80.6807 49.0819 76.7188 51.0374 73.7474C52.993 70.776 56.9549 69.9633 59.9263 71.8934ZM48.9548 90.6109C47.4818 89.6458 45.4755 90.0522 44.5104 91.5252C43.5453 92.9982 43.9516 95.0046 45.4247 95.9697C46.8977 96.9347 48.904 96.5284 49.8691 95.0554C50.8596 93.5823 50.4532 91.576 48.9548 90.6109ZM61.1203 105.366C61.2219 103.919 62.4664 102.801 63.914 102.878C65.3616 102.979 66.4791 104.224 66.4029 105.697C66.3013 107.144 65.0568 108.236 63.6092 108.16C62.1616 108.058 61.0187 106.814 61.1203 105.366ZM63.9392 86.2934C61.8566 86.1664 60.0789 87.7664 59.9773 89.8489C59.8503 91.9315 61.4503 93.7093 63.5328 93.8108C65.6154 93.9124 67.3932 92.3378 67.4947 90.2553C67.6217 88.1981 66.0217 86.395 63.9392 86.2934ZM77.9581 94.6744C77.1454 93.0998 77.7803 91.1696 79.3549 90.3569C80.9549 89.5443 82.8851 90.2046 83.6978 91.7792C84.4851 93.3538 83.8502 95.2839 82.2756 96.0712C80.701 96.8839 78.7708 96.249 77.9581 94.6744Z" fill="#0033AD"/>
</svg>
