<svg width="128" height="128" viewBox="0 0 128 128" fill="none" xmlns="http://www.w3.org/2000/svg">
<circle cx="64" cy="64" r="64" fill="#213147"/>
<path d="M16.9966 41.5013V86.4893C16.9966 89.3615 18.5313 92.0177 21.0174 93.4492L59.9783 115.948C62.4645 117.379 65.5255 117.379 68.0117 115.948L106.973 93.4492C109.459 92.0177 110.993 89.3615 110.993 86.4893V41.5013C110.993 38.6291 109.459 35.9729 106.973 34.5415L68.0117 12.0428C65.5255 10.6114 62.4645 10.6114 59.9783 12.0428L21.0081 34.5415C18.5219 35.9729 16.9966 38.6291 16.9966 41.5013Z" fill="#213147"/>
<path d="M72.4945 72.7209L66.9379 87.9582C66.7876 88.3818 66.7876 88.844 66.9379 89.2675L76.4966 115.486L87.5524 109.101L74.2827 72.7209C73.9812 71.8831 72.7949 71.8831 72.4934 72.7209H72.4945Z" fill="#12AAFF"/>
<path d="M83.6358 47.0954C83.3343 46.2576 82.148 46.2576 81.8465 47.0954L76.2899 62.3327C76.1397 62.7563 76.1397 63.2185 76.2899 63.6421L91.9508 106.567L103.007 100.182L83.6347 47.0954H83.6358Z" fill="#12AAFF"/>
<path d="M63.9907 13.7287C64.264 13.7287 64.5374 13.8038 64.7815 13.9363L106.944 38.2806C107.434 38.5634 107.735 39.0902 107.735 39.6463V88.3255C107.735 88.891 107.434 89.4084 106.944 89.6912L64.7815 114.035C64.5457 114.176 64.264 114.243 63.9907 114.243C63.7173 114.243 63.444 114.168 63.1999 114.035L21.0371 89.7099C20.5478 89.4272 20.2463 88.9003 20.2463 88.3443V39.6557C20.2463 39.0902 20.5478 38.5727 21.0371 38.29L63.1999 13.9457C63.445 13.8049 63.7173 13.7287 63.9907 13.7287ZM63.9907 6.61865C62.4936 6.61865 60.986 7.00467 59.6401 7.7861L17.4868 32.121C14.793 33.6745 13.1362 36.5477 13.1362 39.6546V88.3338C13.1362 91.4418 14.794 94.314 17.4868 95.8675L59.6495 120.212C60.9964 120.984 62.4936 121.379 64.0001 121.379C65.5066 121.379 67.0048 120.993 68.3506 120.212L110.513 95.8675C113.207 94.314 114.864 91.4408 114.864 88.3338V39.6546C114.864 36.5467 113.206 33.6745 110.513 32.121L68.3412 7.7861C66.9943 7.00467 65.4878 6.61865 63.9907 6.61865Z" fill="#9DCCED"/>
<path d="M36.1055 106.624L39.9855 96.001L47.7925 102.489L40.4936 109.157L36.1055 106.624Z" fill="#213147"/>
<path d="M60.4405 36.1711H49.7519C48.9517 36.1711 48.236 36.6698 47.9627 37.4241L25.0498 100.239L36.1056 106.624L61.3357 37.4523C61.5715 36.8305 61.1093 36.1711 60.4405 36.1711Z" fill="white"/>
<path d="M79.1439 36.1711H68.4554C67.6552 36.1711 66.9394 36.6698 66.6661 37.4241L40.5044 109.149L51.5602 115.534L80.0391 37.4523C80.2655 36.8305 79.8033 36.1711 79.1439 36.1711Z" fill="white"/>
</svg>
