<svg width="128" height="128" viewBox="0 0 128 128" fill="none" xmlns="http://www.w3.org/2000/svg">
<circle cx="64" cy="64" r="64" fill="#0065B3"/>
<path d="M81.9192 70.3906C84.6726 64.4786 85.2141 57.7751 83.4453 51.4977C81.6766 45.2204 77.715 39.7857 72.28 36.1808C76.6468 31.6933 81.3758 27.246 86.3664 23C80.5439 26.4615 75.018 30.399 69.8451 34.7722C64.2299 31.8442 57.7701 30.9635 51.5761 32.2816C45.382 33.5996 39.8404 37.0341 35.9039 41.9947C31.9673 46.9553 29.8816 53.1322 30.0052 59.4637C30.1288 65.7953 32.454 71.8861 36.5811 76.6892C31.3692 87.9785 30.5441 97.034 35.0517 100.093C39.982 103.373 50.6876 97.4163 57.1875 87.737C57.1875 87.737 47.2465 96.6919 41.7931 94.6393C38.4325 93.3715 38.4325 88.2199 41.1894 80.8548C46.4128 84.6868 52.8308 86.5324 59.2919 86.0603C65.753 85.5883 71.8346 82.8296 76.4456 78.279L77.4115 80.0901C89.2843 79.1242 124.722 78.1784 124.722 78.1784C124.641 76.5081 101.177 78.118 81.9192 70.3906ZM33.2608 58.9002C33.265 54.8892 34.275 50.9434 36.1983 47.4237C38.1216 43.9039 40.8968 40.9226 44.27 38.7526C47.6432 36.5825 51.5067 35.293 55.507 35.0019C59.5074 34.7108 63.5169 35.4275 67.1687 37.0864C55.4056 47.3754 45.584 59.6915 38.1709 73.4494C34.9761 69.2729 33.25 64.1584 33.2608 58.9002ZM57.2277 82.8671C51.847 82.8774 46.6206 81.0691 42.3968 77.7357C47.1459 67.03 56.8051 52.6619 69.986 38.6158C74.9371 41.7334 78.5768 46.5546 80.2189 52.1704C81.861 57.7862 81.3922 63.8087 78.9006 69.1027C74.7406 67.2357 70.8976 64.7303 67.5108 61.6772L74.7351 75.2404C72.4984 77.6474 69.7891 79.5671 66.7767 80.8794C63.7643 82.1917 60.5136 82.8684 57.2277 82.8671Z" fill="white"/>
</svg>
