<svg width="128" height="128" viewBox="0 0 128 128" fill="none" xmlns="http://www.w3.org/2000/svg">
<g clip-path="url(#clip0_82034_4913)">
<path d="M64 128C99.3462 128 128 99.3462 128 64C128 28.6538 99.3462 0 64 0C28.6538 0 0 28.6538 0 64C0 99.3462 28.6538 128 64 128Z" fill="#0052FF"/>
<path d="M43.1499 63.7502C43.1622 69.047 45.1616 74.1463 48.7526 78.0399C52.3436 81.9335 57.2649 84.338 62.5434 84.7779C67.8219 85.2177 73.0733 83.661 77.2592 80.4155C81.4452 77.1699 84.261 72.4719 85.1499 67.2502H106.5C105.597 78.1282 100.523 88.236 92.3407 95.4602C84.1581 102.684 73.4995 106.466 62.5934 106.014C51.6874 105.562 41.3782 100.912 33.8213 93.035C26.2645 85.1585 22.0449 74.6656 22.0449 63.7502C22.0449 52.8348 26.2645 42.3419 33.8213 34.4654C41.3782 26.5889 51.6874 21.9385 62.5934 21.4865C73.4995 21.0345 84.1581 24.816 92.3407 32.0402C100.523 39.2645 105.597 49.3722 106.5 60.2502H85.1999C84.311 55.0286 81.4952 50.3305 77.3092 47.085C73.1233 43.8395 67.8719 42.2827 62.5934 42.7226C57.3149 43.1625 52.3936 45.5669 48.8026 49.4605C45.2116 53.3542 43.2122 58.4535 43.1999 63.7502H43.1499Z" fill="white"/>
</g>
<defs>
<clipPath id="clip0_82034_4913">
<rect width="128" height="128" fill="white"/>
</clipPath>
</defs>
</svg>
