<svg width="128" height="128" viewBox="0 0 128 128" fill="none" xmlns="http://www.w3.org/2000/svg">
<g clip-path="url(#clip0_82084_4152)">
<path d="M119.6 32.2996L116.8 27.4496C116.583 27.0674 116.28 26.7406 115.916 26.4948C115.551 26.249 115.135 26.0909 114.699 26.0328C114.263 25.9747 113.82 26.0182 113.404 26.1599C112.988 26.3016 112.61 26.5376 112.3 26.8496L106 33.1496C105.534 33.6164 105.245 34.2305 105.181 34.8869C105.117 35.5434 105.283 36.2017 105.65 36.7496C111.188 45.1465 114.04 55.0301 113.825 65.0866C113.611 75.1431 110.341 84.8962 104.45 93.0496C97.4114 102.867 87.0475 109.794 75.2849 112.544C63.5224 115.294 51.1615 113.679 40.5001 108L51.2501 97.2496C57.9099 99.7653 65.1704 100.229 72.0964 98.5823C79.0223 96.9351 85.2965 93.2521 90.1107 88.0075C94.925 82.763 98.0587 76.1972 99.1084 69.1558C100.158 62.1145 99.0754 54.9202 96.0001 48.4996C95.7984 48.0975 95.5045 47.749 95.1423 47.4823C94.7801 47.2157 94.3599 47.0385 93.9162 46.9654C93.4724 46.8922 93.0176 46.9252 92.589 47.0615C92.1604 47.1977 91.7701 47.4335 91.4501 47.7496L85.0001 54.1996C84.6614 54.5419 84.4149 54.9645 84.2838 55.428C84.1526 55.8914 84.141 56.3805 84.2501 56.8496L84.7501 59.1496C85.7157 63.1968 85.4747 67.4383 84.057 71.3502C82.6392 75.2621 80.1068 78.673 76.7724 81.1619C73.4379 83.6508 69.4476 85.1085 65.294 85.3551C61.1404 85.6017 57.0056 84.6264 53.4001 82.5496L50.6001 80.9496C50.0561 80.6331 49.4226 80.5056 48.7985 80.587C48.1744 80.6684 47.5948 80.9541 47.1501 81.3996L20.9001 107.6C20.616 107.884 20.3953 108.226 20.2526 108.601C20.1098 108.977 20.0482 109.379 20.0718 109.781C20.0954 110.182 20.2037 110.574 20.3896 110.93C20.5754 111.287 20.8346 111.6 21.1501 111.85L25.0501 114.85C36.7925 123.754 51.2444 128.341 65.9726 127.837C80.7007 127.333 94.8055 121.77 105.912 112.084C117.019 102.398 124.449 89.1809 126.951 74.6581C129.453 60.1354 126.875 45.1939 119.65 32.3496L119.6 32.2996Z" fill="url(#paint0_linear_82084_4152)"/>
<path d="M103 13.1995C91.2576 4.29505 76.8057 -0.291443 62.0775 0.212286C47.3494 0.716014 33.2446 6.2792 22.138 15.9651C11.0315 25.6511 3.60159 38.8681 1.09935 53.3909C-1.40289 67.9137 1.17535 82.8552 8.39998 95.6995L11.2 100.55C11.4172 100.932 11.7199 101.258 12.0844 101.504C12.4489 101.75 12.8653 101.908 13.3011 101.966C13.7368 102.024 14.1801 101.981 14.5963 101.839C15.0125 101.697 15.3902 101.461 15.7 101.15L22.05 94.7995C22.5159 94.3326 22.8054 93.7186 22.8692 93.0621C22.9331 92.4057 22.7672 91.7474 22.4 91.1995C16.3344 81.9601 13.5182 70.9639 14.3959 59.9463C15.2735 48.9287 19.7951 38.517 27.2469 30.3544C34.6987 22.1918 44.6565 16.743 55.5488 14.868C66.4411 12.993 77.6477 14.7985 87.4 19.9995L76.65 30.7495C70.0038 28.2869 62.7745 27.8613 55.8853 29.5271C48.9961 31.1928 42.7598 34.8742 37.9729 40.1012C33.186 45.3282 30.0658 51.8634 29.0108 58.8721C27.9558 65.8809 29.0139 73.045 32.05 79.4495C32.2446 79.8643 32.5363 80.226 32.9005 80.5041C33.2646 80.7821 33.6904 80.9683 34.1418 81.0468C34.5931 81.1253 35.0568 81.0938 35.4934 80.955C35.93 80.8162 36.3268 80.5742 36.65 80.2495L43 73.7995C43.3387 73.4572 43.5852 73.0345 43.7163 72.5711C43.8475 72.1077 43.8591 71.6186 43.75 71.1495L43.25 68.8495C42.0344 63.5833 42.8372 58.0527 45.5 53.3495C46.8941 50.9155 48.7553 48.7808 50.9766 47.068C53.1979 45.3553 55.7357 44.0981 58.4442 43.3687C61.1527 42.6393 63.9786 42.4521 66.7596 42.8177C69.5407 43.1834 72.2221 44.0948 74.65 45.4995L77.5 47.0995C78.0387 47.4037 78.6619 47.5244 79.2753 47.4432C79.8886 47.362 80.4589 47.0834 80.9 46.6495L107.15 20.4495C107.443 20.1645 107.671 19.8199 107.818 19.4391C107.966 19.0583 108.03 18.6502 108.007 18.2424C107.983 17.8347 107.872 17.4367 107.681 17.0756C107.49 16.7145 107.224 16.3987 106.9 16.1495L103 13.1495V13.1995Z" fill="url(#paint1_linear_82084_4152)"/>
</g>
<defs>
<linearGradient id="paint0_linear_82084_4152" x1="41.3501" y1="132.05" x2="131.4" y2="41.8496" gradientUnits="userSpaceOnUse">
<stop stop-color="#B090F5"/>
<stop offset="1" stop-color="#5FBFFF"/>
</linearGradient>
<linearGradient id="paint1_linear_82084_4152" x1="-1.89296e-05" y1="50.9995" x2="108" y2="50.9995" gradientUnits="userSpaceOnUse">
<stop stop-color="#68D7FA"/>
<stop offset="1" stop-color="#7EF1B3"/>
</linearGradient>
<clipPath id="clip0_82084_4152">
<rect width="128" height="128" fill="white"/>
</clipPath>
</defs>
</svg>
