<svg width="128" height="128" viewBox="0 0 128 128" fill="none" xmlns="http://www.w3.org/2000/svg">
<circle cx="64" cy="64" r="64" fill="#187BE0"/>
<path d="M41.3917 30.0033C40.938 30.0085 40.4838 30.02 40.0284 30.0367C36.804 30.1601 32.4931 30.8194 29.0819 31.7593C26.6753 32.4134 25.0363 33.4649 23.89 35.4823C23.3175 36.494 22.795 37.5835 23.0804 38.6969C23.3291 39.6433 24.6757 39.9718 25.7609 40.1487C26.8004 40.3106 29.1704 40.4461 29.7997 39.6732C30.0714 39.3412 30.0398 39.0272 29.8147 38.6303C29.5827 38.2077 28.9802 37.901 28.4112 37.7924C27.7703 37.6754 26.53 37.6036 26.2365 37.4737C26.0728 37.4002 25.9011 37.3067 25.9011 37.3067C25.9011 37.3067 25.9746 37.2332 26.0412 37.1717C26.1698 37.0713 26.6219 36.8777 26.9158 36.8076C27.2845 36.7277 27.6819 36.5923 28.0822 36.4821C30.8559 35.713 36.3519 35.5844 38.8684 35.6746C48.6451 36.0382 57.7441 38.2244 66.9534 42.0149C75.9704 45.7281 86.2209 52.0599 92.204 59.767C94.4637 62.6829 97.3011 67.4676 97.6433 71.5064C97.9569 75.1978 96.7768 78.7311 94.524 81.3198C92.8184 83.2706 90.5634 84.7108 88.105 85.8691C82.506 88.521 75.6966 89.0666 69.5951 88.9051C68.794 88.885 65.7802 88.6129 65.0658 88.5078C63.8272 88.304 62.252 88.0019 62.252 88.0019L61.8512 69.0929C61.8512 69.0929 63.7521 69.1599 65.0906 69.2381C68.5137 69.4419 75.5885 70.6151 79.1316 72.0238C79.8874 72.3207 80.6769 72.783 80.7487 73.5341C80.7987 74.1083 80.3428 74.6005 79.834 75.0529C79.5969 75.2713 79.3418 75.4499 79.0363 75.6169C78.4237 75.9425 77.3906 76.4864 77.3171 76.5799C77.1218 76.8367 77.1069 77.2157 77.3773 77.4293C78.0584 77.9582 80.2711 78.2539 80.862 78.2154C82.8397 78.1035 84.7926 76.7636 85.8206 74.9543C86.7383 73.3521 86.8301 72.1289 86.226 70.355C85.5783 68.4187 83.5809 66.5879 81.4413 65.5049C78.8475 64.1847 74.3217 63.1952 72 62.8277C70.1859 62.5394 68.2599 62.2604 66.5142 62.2172C64.7151 62.1702 61.7927 62.2557 61.7927 62.2557C61.7927 62.2557 61.7363 59.6888 61.6227 57.9832C61.4325 55.1826 60.6614 49.6784 58.1128 48.0963C57.6489 47.8058 57.0763 47.7759 56.7559 48.21C56.2603 48.8538 55.7779 51.3156 55.6647 51.9599C55.4575 53.14 54.8085 58.7292 54.8269 59.582C54.8436 60.4446 54.7585 62.8145 54.7068 62.888C54.6782 62.923 54.65 62.9499 54.6081 62.9798C54.5082 63.0482 52.8808 63.337 51.8345 63.487C49.6098 63.8091 44.2658 65.5566 42.5436 66.3175C40.2001 67.3442 36.7792 69.1497 35.8226 71.5397C35.1334 73.2538 35.3936 74.6923 36.3032 76.3112C37.4718 78.3842 39.0069 80.0013 40.7158 81.6184C41.3268 82.1956 44.0855 84.5139 44.7264 84.9881C47.0429 86.7086 49.6948 88.371 52.4835 89.7493C53.3931 90.2035 54.4795 90.7175 54.4795 90.7175C54.4795 90.7175 54.6966 92.9088 54.9021 94.1705C55.1537 95.7376 55.678 97.1027 57.1332 97.72C58.021 98.0956 59.0391 98.0422 59.9987 97.8572C60.7917 97.7085 61.3373 97.353 61.6726 96.6639C61.7978 96.4067 62.0264 95.6107 62.0632 95.3138C62.1383 94.6511 62.1332 93.7129 62.1332 93.7129C62.1332 93.7129 64.4767 94.2504 66.0519 94.5409C70.635 95.3868 75.6034 95.4689 79.9241 94.9446C86.2978 94.1653 93.7246 91.8005 98.5192 87.6464C99.8129 86.53 101.982 83.9183 102.898 82.2691C103.434 81.3112 103.935 80.3401 104.446 79.1669C104.548 78.9281 105.182 76.9922 105.302 76.1527C105.364 75.7887 105.741 73.0265 105.581 71.5649C105.607 70.9471 105.265 69.3586 105.229 69.0715C105.202 69.0429 105.021 68.2653 104.9 67.7347C104.776 67.1989 104.028 65.3429 103.853 65.0357C103.351 64.133 103.044 63.3652 102.655 62.5791C101.021 59.3248 97.6634 55.2211 94.9645 52.5405C93.5742 51.1537 91.6452 49.4212 90.1712 48.2164C89.4671 47.6289 84.9208 44.2844 84.1449 43.7722C81.6814 42.155 77.2957 39.6817 74.5169 38.3415C70.6414 36.4688 65.341 34.4142 61.2954 33.191C54.6701 31.1736 48.1896 29.9269 41.3917 30.0033ZM54.4778 69.4001C54.4778 69.4001 54.4146 72.1955 54.4031 75.026C54.3744 80.3833 54.518 85.8225 54.518 85.8225C54.518 85.8225 52.6103 85.1381 51.4623 84.6591C48.1012 83.2522 43.5463 80.3516 41.2986 78.4756C40.7645 78.027 38.8518 76.186 38.5147 75.7887C37.9289 75.0995 37.4064 74.4403 37.5499 73.5892C37.6901 72.7749 39.3042 72.0973 40.1002 71.8183C42.744 70.8672 47.3317 70.0725 49.7734 69.8124C51.6892 69.597 54.4778 69.4001 54.4778 69.4001Z" fill="white"/>
</svg>
