<svg width="128" height="128" viewBox="0 0 128 128" fill="none" xmlns="http://www.w3.org/2000/svg">
<g clip-path="url(#clip0_71090_3970)">
<path d="M64 128C99.3462 128 128 99.3462 128 64C128 28.6538 99.3462 0 64 0C28.6538 0 0 28.6538 0 64C0 99.3462 28.6538 128 64 128Z" fill="#988430"/>
<path d="M63.9998 125.95C98.2138 125.95 125.95 98.214 125.95 64C125.95 29.786 98.2138 2.05005 63.9998 2.05005C29.7857 2.05005 2.0498 29.786 2.0498 64C2.0498 98.214 29.7857 125.95 63.9998 125.95Z" fill="#7A6A2A"/>
<path d="M64.0002 124.645C97.4933 124.645 124.645 97.4931 124.645 63.9999C124.645 30.5068 97.4933 3.35522 64.0002 3.35522C30.507 3.35522 3.35547 30.5068 3.35547 63.9999C3.35547 97.4931 30.507 124.645 64.0002 124.645Z" fill="#BA9F33"/>
<path fill-rule="evenodd" clip-rule="evenodd" d="M27.982 57.1653C27.6195 56.8342 27.2365 56.5024 26.8842 56.1713C26.532 55.8402 26.1702 55.5084 25.8077 55.1773L24.7304 54.1533C24.5543 53.9772 24.3679 53.8222 24.1918 53.6454C24.0157 53.4905 23.8088 53.3143 23.6327 53.1587C22.2032 51.8022 20.7655 50.4458 19.3558 49.0886C20.816 50.4246 22.2455 51.751 23.7057 53.1068L24.2129 53.6147C24.3891 53.7901 24.5754 53.9458 24.7516 54.1219L25.8281 55.1159C26.1906 55.447 26.5429 55.7788 26.9054 56.1399C27.2679 56.501 27.6201 56.8335 27.9826 57.1639L27.982 57.1653ZM9.00996 56.9605C9.00996 56.9605 14.2085 57.4984 16.7459 57.8609C19.0964 58.1927 26.4494 59.3211 26.4494 59.3211L9.00996 56.9605ZM9.00996 56.9605C10.4702 57.0847 11.9304 57.2397 13.3906 57.3953C14.1361 57.4677 14.8509 57.5503 15.5656 57.6226L16.6627 57.7476C17.0251 57.7988 17.3774 57.8506 17.7399 57.9025L22.0899 58.5961L24.2641 58.9586C24.9789 59.0829 25.6937 59.218 26.4391 59.3423C25.7244 59.2699 24.9789 59.1661 24.2641 59.0624L22.0899 58.7518L17.7399 58.1101C17.3774 58.0582 17.0251 57.9851 16.6627 57.9339L15.5649 57.8076C14.8502 57.7353 14.1047 57.6315 13.3899 57.5482C11.9297 57.3728 10.4695 57.1857 9.00928 56.9584L9.00996 56.9605ZM25.9319 60.6755C25.9319 60.6755 20.3811 62.0845 18.5065 62.6232C16.6633 63.1304 11.0812 64.8289 11.0812 64.8289L25.9312 60.6762L25.9319 60.6755Z" fill="#CFB66C"/>
<path fill-rule="evenodd" clip-rule="evenodd" d="M25.931 60.6753C24.6988 61.0378 23.4734 61.39 22.2234 61.7218L18.5158 62.7158C17.2836 63.0783 16.0582 63.4305 14.8294 63.793L12.9862 64.3003C12.3753 64.4764 11.754 64.6313 11.1226 64.8082C11.7329 64.6034 12.3548 64.3938 12.9658 64.2177L14.809 63.6278C16.0412 63.2442 17.2666 62.8817 18.4954 62.4987C19.7481 62.1881 20.9809 61.8563 22.2336 61.5559C23.4242 61.2556 24.6776 60.9559 25.931 60.676V60.6753ZM11.8578 68.2461C12.4681 68.0181 19.5105 64.7358 21.1468 63.9692C21.966 63.5855 24.3472 62.7404 24.3472 62.7404L11.8578 68.2461Z" fill="#CFB66C"/>
<path fill-rule="evenodd" clip-rule="evenodd" d="M11.8581 68.2461C12.396 68.0413 12.904 67.7907 13.4214 67.5525L14.954 66.8377L18.0301 65.357C19.0541 64.8703 20.0494 64.333 21.1055 63.8756C21.6441 63.6483 22.1828 63.4619 22.7207 63.2858L23.5399 63.0271C23.8191 62.9547 24.0785 62.8714 24.3591 62.7991C23.3351 63.2858 22.2572 63.7002 21.2318 64.176C20.2078 64.6839 19.1606 65.0983 18.1038 65.5536L14.9765 66.9306C13.9266 67.3559 12.9026 67.8112 11.8574 68.2461H11.8581ZM12.5408 71.1133C12.5408 71.1133 18.9196 67.375 21.1151 66.1735C22.2647 65.5318 25.9825 63.6879 25.9825 63.6879L12.5408 71.1133Z" fill="#CFB66C"/>
<path fill-rule="evenodd" clip-rule="evenodd" d="M12.5415 71.1148C13.6181 70.4519 14.7158 69.7788 15.8135 69.0955L17.4519 68.1008C18.011 67.7697 18.5497 67.4591 19.1197 67.128C19.6788 66.7962 20.2174 66.4651 20.7868 66.1545C21.0578 65.9872 21.3418 65.8418 21.636 65.7197L22.5057 65.2848C23.6553 64.7257 24.8049 64.1557 26.0167 63.6689C24.9189 64.3632 23.7898 64.9537 22.6614 65.564C22.1023 65.8746 21.5322 66.1545 20.9731 66.4651C20.414 66.7758 19.8754 67.1075 19.3054 67.4079C18.7463 67.739 18.2076 68.0496 17.6383 68.35L15.9501 69.2716L12.5429 71.1148H12.5415ZM25.9313 64.5073C25.9313 64.5073 21.965 67.552 20.6809 68.5254C19.3968 69.4989 15.6169 72.233 15.6169 72.233L25.9313 64.5073Z" fill="#CFB66C"/>
<path fill-rule="evenodd" clip-rule="evenodd" d="M48.6941 89.0614L46.6646 85.2193L47.8449 80.414L56.2642 77.1625L52.6809 69.8102L54.4517 62.3848L57.7763 55.7356L68.0498 54.1205L75.5987 46.9231L91.8994 48.1553L95.0991 65.5845L88.9373 87.5288L85.427 98.8897L71.1975 99.4284L64.5907 94.8511L56.8547 91.6193L48.6941 89.0614Z" fill="#E2CC85"/>
<path fill-rule="evenodd" clip-rule="evenodd" d="M73.652 88.9371C73.652 88.9371 71.6839 89.8382 68.3272 89.6307C67.3558 88.3261 60.5524 87.7151 60.5524 87.7151C60.5524 87.7151 59.7031 87.4564 58.2012 88.0776C56.6898 88.692 55.2603 88.6162 53.9243 88.9473C52.5884 89.2784 51.2619 87.539 50.2379 87.1765C49.2139 86.7935 47.8561 85.8719 47.8561 85.8719L44.9889 85.592L39.2313 83.1583L30.0843 74.0454L27.5987 77.9366L26.832 82.7521L29.5975 88.4586L37.0434 95.2415L51.5623 98.9279L60.168 96.3925L70.9487 91.8357L73.652 88.9364V88.9371Z" fill="#F1D789"/>
<path fill-rule="evenodd" clip-rule="evenodd" d="M22.0687 56.7303L23.9119 51.1488L26.1081 47.5444L33.1805 46.9539L31.0574 53.147L25.1448 63.669L27.599 73.0618L23.2497 75.2361L21.9131 73.186L20.8365 68.4845L20.7642 63.2027L22.0687 56.7303Z" fill="#F4ECB4"/>
<path fill-rule="evenodd" clip-rule="evenodd" d="M30.001 88.5541L28.6445 86.659C28.6445 86.659 28.282 85.7578 28.4896 84.9707C28.6944 84.1734 28.665 84.1215 28.5619 83.8211C28.4589 83.5207 27.5885 82.4851 27.6403 81.5943C27.6915 80.6931 27.568 80.3928 28.2302 79.6787C28.9238 78.9851 28.7169 77.7836 28.7169 77.7836L29.618 78.3427L29.8228 78.0321C29.8228 78.0321 30.1539 78.2908 30.1539 78.695C30.2263 78.1359 29.9259 75.5465 30.6093 74.9567C31.2926 74.3669 32.5043 77.7215 32.5043 77.7215L31.7589 72.8541L29.8426 67.8631L26.4354 63.3063L26.2306 58.2832V57.8484C26.2306 57.8484 24.6666 60.2514 24.2318 62.1492C23.9212 63.4538 24.6666 65.0382 24.5117 66.9128C24.3868 68.7772 24.2318 68.6318 24.6871 69.3704C25.1425 70.1091 26.2511 71.628 25.8163 72.7257C25.4333 73.6685 24.128 73.0056 24.128 73.0056C24.128 73.0056 23.8693 73.7716 23.517 74.0515C23.3928 73.5961 23.2583 73.306 23.0098 73.0275C22.9887 73.2036 22.9375 73.4419 22.9375 73.4419C22.9375 73.4419 22.7094 72.7271 22.4814 71.826C22.1715 70.6252 21.8397 69.0407 21.5394 68.1915C21.4151 68.6782 21.1045 70.1589 21.1045 70.1589L21.2806 72.4377L22.1299 75.565L22.9491 77.613L23.7464 80.119L24.4393 81.8025L24.9984 83.0866L25.4852 85.9763L27.8356 88.4612L29.089 89.021L29.9996 88.5547L30.001 88.5541Z" fill="#F3E19D"/>
<path fill-rule="evenodd" clip-rule="evenodd" d="M23.3009 52.1735C23.3009 52.1735 21.6126 55.0407 21.1266 57.9311C20.6405 60.8215 20.205 63.8758 20.5122 67.8107C20.8228 71.7777 21.4133 74.2107 21.8898 75.9508C22.709 78.8405 24.8307 82.8587 24.8307 82.8587L24.9031 82.7031C24.5465 82.027 24.2618 81.3154 24.0539 80.58C23.774 79.4822 23.6702 78.1777 23.4115 77.5872C23.1835 76.9973 22.8005 76.4894 22.6141 75.7644C22.438 75.0708 22.4093 73.9731 21.8686 73.1553C21.6406 72.8235 21.3607 71.9538 21.2781 71.0841C21.1744 69.7788 21.33 68.3186 21.2058 67.1178C20.9778 65.1189 20.8228 63.7625 21.0297 62.7159C21.2365 61.6694 22.3144 58.6984 22.9773 56.3371C23.4122 54.825 23.1527 53.5511 23.9501 52.2356C24.7475 50.9311 25.2349 49.7815 25.4103 48.9841C25.6151 48.2591 23.2982 52.1735 23.2982 52.1735H23.3009Z" fill="#F2E8B0"/>
<path fill-rule="evenodd" clip-rule="evenodd" d="M31.3066 51.0239C31.3066 51.0239 30.4369 51.2833 30.0225 51.7387C29.6082 52.1735 29.432 52.536 28.8729 53.2713C28.3138 54.0065 28.2824 54.6072 27.8264 55.5288C27.3711 56.43 26.3662 57.7864 26.2419 58.2732C26.1177 58.7599 25.9108 61.038 25.6521 62.1152C25.4241 63.1925 25.9108 64.5182 25.9108 64.5182L26.5007 64.3933C26.5007 64.3933 26.5007 65.1599 27.0912 65.6781C27.681 66.1853 27.7848 63.9584 27.7848 63.9584L29.9905 56.5126L33.3144 54.255L33.6769 52.4323L31.3053 51.0239H31.3066Z" fill="#F5EEC0"/>
<path fill-rule="evenodd" clip-rule="evenodd" d="M32.9215 54.4003C32.9215 54.4003 31.3575 54.5034 30.5915 55.0632C30.2809 55.2905 30.1567 55.4769 29.8256 55.7568C29.2146 56.264 28.5927 56.7302 28.293 57.3952C27.9612 58.0573 27.5987 59.0622 27.3502 60.9573C27.2465 61.7547 27.2465 62.4899 27.1741 63.1323C27.0703 64.002 26.9154 64.6956 26.998 65.1803C27.1017 66.1743 28.1271 66.6924 28.2268 67.8208L30.3499 66.7443L32.3487 58.8629L36.5949 56.2005L34.1919 53.5081L32.9187 54.3955L32.9215 54.4003Z" fill="#E6DB9D"/>
<path fill-rule="evenodd" clip-rule="evenodd" d="M21.7209 107.471C21.7298 107.394 21.7386 107.316 21.7475 107.236C22.0575 104.574 22.11 102.556 22.3373 101.292C22.6684 99.5007 22.8964 98.8344 22.8446 98.164C22.7722 97.0874 22.6896 96.3003 22.7934 95.4716C22.9483 94.3738 24.0256 93.0693 23.9949 92.1681C23.9737 91.4534 23.6112 90.9878 23.3006 90.553C22.99 90.1181 22.7415 89.7556 22.7415 89.7556C22.7415 89.7556 24.8646 88.2954 24.8441 82.4128C24.8875 82.4251 24.9292 82.4425 24.9683 82.4647L26.0142 85.4364L26.7289 86.3061L29.4733 91.422L33.0047 94.8503L38.2237 98.3606L41.4964 101.922L41.8275 111.419L37.5506 116.969L36.8502 118.238C31.2855 115.444 26.1828 111.813 21.7202 107.471L21.7209 107.471Z" fill="#E5CB7A"/>
<path fill-rule="evenodd" clip-rule="evenodd" d="M34.7861 116.556C34.7861 116.556 34.8585 115.376 35.832 114.609C35.9876 114.868 36.0907 115.117 36.06 115.303C36.2361 114.993 37.4683 113.004 40.2543 112.486C43.0403 111.979 43.7134 109.95 43.7134 109.95L49.6259 104.575L56.3884 98.351L64.6112 95.4613L68.4539 94.5186C68.4539 94.5186 68.5263 94.7984 68.3815 95.4197C69.0956 95.3685 70.6801 95.006 72.3267 94.4257C72.9895 94.167 73.6114 94.0632 73.9425 94.4052C74.4293 94.8606 74.5016 95.9378 74.5324 96.5795C75.3297 96.4034 76.2513 95.6374 76.99 95.7098C78.171 95.834 79.2168 97.2219 80.4183 97.2219C82.0028 97.2219 82.7168 96.2484 83.8255 95.4818C84.4884 95.0265 85.4407 94.4578 85.9793 94.0735C87.2634 93.1307 100.851 88.978 100.851 88.978L105.614 89.2886L106.381 94.4045L105.971 107.778C105.921 107.826 105.87 107.877 105.819 107.925L84.1593 119.238L54.1356 123.84C47.4102 122.742 40.9201 120.509 34.9418 117.238L34.7882 116.556L34.7861 116.556Z" fill="#D8C173"/>
<path fill-rule="evenodd" clip-rule="evenodd" d="M23.542 109.173C23.9687 108.28 24.3523 107.534 24.4199 107.267C24.4731 107.805 24.5708 108.986 24.7674 110.24C24.3546 109.889 23.9461 109.533 23.542 109.172V109.173Z" fill="#F1D789"/>
<path fill-rule="evenodd" clip-rule="evenodd" d="M45.474 121.758L49.357 120.678L49.6881 120.782C49.6881 120.782 49.8642 120.886 49.8642 121.238C50.351 120.958 50.7654 121.01 51.0657 120.824C51.2207 121.155 51.3757 122.253 52.0597 122.387C52.7738 122.543 53.5404 122.077 54.3173 121.487C55.0832 120.876 55.9557 120.109 56.6158 119.798C56.858 120.244 57.0726 120.704 57.2582 121.175C58.1279 120.482 59.64 117.665 61.7938 117.716C62.4164 116.245 63.4564 114.989 64.7853 114.102C66.7841 112.746 68.0368 112.642 69.6008 112.766C70.222 111.959 70.9875 111.275 71.8584 110.747C72.1171 110.851 72.8319 111.286 73.7228 110.871C74.6239 110.458 75.6383 108.852 76.9743 108.645C77.6942 108.546 78.4262 108.7 79.0455 109.08C79.0455 109.08 82.9367 105.217 85.6216 103.933C85.5179 103.622 85.311 102.452 88.4588 99.8625C88.6349 100.018 88.5107 100.453 88.6349 100.477C88.6861 100.477 89.4541 100.146 90.4263 99.3997C91.6277 98.4993 93.0668 97.5565 93.9365 97.2978C95.5749 96.811 97.313 97.805 97.313 97.805C97.4608 97.7013 97.6255 97.6242 97.7997 97.577C98.2134 97.5046 98.5138 97.4527 98.7418 97.3722C98.7213 97.9108 99.0217 98.8324 98.7418 99.6298C99.066 99.8121 99.4095 99.9579 99.7658 100.065C99.5904 100.448 99.2067 101.421 98.565 101.887C99.1029 102.146 99.1753 102.446 99.9419 102.707C99.6313 103.141 99.1227 103.888 98.8961 104.345C98.6681 104.832 97.8496 106.851 97.4871 107.617C97.1041 108.384 96.5866 109.792 96.3375 110.075C96.0883 110.357 95.1878 111.555 94.4943 112.145C95.1087 111.917 97.6222 111.151 98.6886 110.861C98.3711 111.327 96.7621 113.714 95.2152 116.01C87.8086 120.449 79.5409 123.259 70.963 124.252C62.3852 125.245 53.6942 124.398 45.4692 121.769L45.474 121.758Z" fill="#E0CD81"/>
<path fill-rule="evenodd" clip-rule="evenodd" d="M33.1774 54.1205C33.1774 54.1205 32.277 54.1205 32.1009 54.2448C31.9247 54.369 33.002 54.6284 33.3331 54.7527C33.6642 54.8769 34.3789 55.4463 34.5653 55.9023C34.7414 56.3372 41.0377 58.874 41.0377 58.874L45.4907 58.6459L47.026 56.5249L44.1056 53.9669L46.1536 47.9294L43.4406 48.3643L36.9164 52.2555L33.6437 53.5089L33.1774 54.1205Z" fill="#DFC57C"/>
<path fill-rule="evenodd" clip-rule="evenodd" d="M42.957 56.1194C43.0214 56.2236 43.112 56.3091 43.2199 56.3672C43.3277 56.4253 43.449 56.454 43.5714 56.4505C44.493 56.4505 45.3416 56.6785 45.6938 57.1441C46.2843 57.8902 47.9207 60.272 47.9207 60.272L51.8351 61.6804L52.0877 57.071L47.8108 54.0994L42.9434 55.8907V56.1187H42.9543L42.957 56.1194Z" fill="#E5CC7C"/>
<path fill-rule="evenodd" clip-rule="evenodd" d="M42.1886 57.828C42.1886 57.828 42.9027 57.8799 43.8038 57.5481C44.7049 57.2163 46.1856 56.5023 46.828 56.7822C47.7284 57.1651 47.5421 58.3666 48.5162 59.4446C49.1061 60.1074 50.1833 60.087 50.7943 60.8017C51.4053 61.5165 53.5072 61.1847 53.5072 61.1847L54.3046 65.4855L51.1049 69.5869L50.0584 74.6817H45.7316L41.779 73.1136L39.832 68.4032L40.8055 63.6395L42.1886 57.828Z" fill="#D2C281"/>
<path fill-rule="evenodd" clip-rule="evenodd" d="M50.5581 58.0349C50.6655 58.068 50.777 58.0855 50.8892 58.0868C50.765 58.1906 50.5056 58.4179 50.6093 59.0084C50.7131 59.5989 51.0442 60.3444 50.765 60.7997C50.9879 61.0434 51.1541 61.3334 51.2517 61.6489C51.4279 62.1569 51.4797 62.6224 52.6287 62.6955C52.4629 62.7975 52.31 62.9193 52.1733 63.058C52.1733 63.058 52.9707 63.7516 53.3748 64.3933C53.7885 64.3755 54.8863 64.0342 54.8863 64.0342L55.1143 64.1898L55.601 63.985C55.601 63.985 55.1457 63.8089 55.4768 62.7009C55.7874 61.7275 56.0673 61.7793 56.0912 61.707C56.1151 61.6346 56.3192 60.6092 56.3192 60.1949C56.4741 59.6569 56.5984 58.0206 56.5984 58.0206L56.2673 54.4065L54.4036 53.2774L52.8881 51.8145L51.4586 54.5069L50.5172 55.4456L50.4448 57.7755L50.5581 58.0349Z" fill="#E2C270"/>
<path fill-rule="evenodd" clip-rule="evenodd" d="M55.042 55.0114C55.042 55.0114 55.3731 55.9534 55.498 56.6784C55.542 56.5375 55.5664 56.3912 55.5704 56.2436C55.5704 56.2436 55.8291 57.6731 55.8803 58.2636C55.9841 58.2424 56.0851 58.2117 56.1083 58.3148C56.1315 58.4179 56.3677 59.5682 56.3131 60.2099C56.7444 59.4984 57.3411 58.9017 58.0526 58.4704C58.4669 58.211 58.9537 57.9318 59.4616 57.9106C60.2589 57.8902 60.8385 58.4186 61.7915 58.4186C64.0901 58.4186 66.1722 56.7303 67.7048 56.2129C68.8332 55.8292 69.8067 55.55 70.4901 54.9281C70.8218 54.6489 71.4123 54.0276 71.9503 53.1054C72.665 51.8766 73.4105 50.8068 74.1567 50.6723C73.8191 50.7344 73.4756 50.7586 73.1327 50.7447C73.1327 50.7447 73.3607 50.5167 73.7471 50.2061C74.1334 49.8955 74.5963 49.5125 75.2585 49.5125C76.4395 49.5125 77.0293 49.6879 77.6922 49.6879C78.3551 49.6674 78.738 49.5125 78.738 49.5125C78.738 49.5125 79.4323 49.9992 80.9956 49.9992C82.5596 50.0197 83.6055 50.1542 84.424 50.2272C85.2425 50.3003 87.9861 49.9992 88.7732 50.0224C89.2864 50.0422 89.7903 50.1655 90.2546 50.3849L87.7172 43.0121L78.6022 35.0454L73.1757 38.8875L64.828 47.2344L56.7507 50.2272L55.0625 52.1223V55.0114H55.042Z" fill="#CCB360"/>
<path fill-rule="evenodd" clip-rule="evenodd" d="M73.1654 50.7856C73.1654 50.7856 73.3934 50.5582 73.7757 50.2476C74.158 49.937 74.6256 49.5533 75.2878 49.5533C76.4681 49.5533 77.0586 49.7295 77.7215 49.7295C78.3844 49.709 78.7673 49.5533 78.7673 49.5533C78.7673 49.5533 79.4623 50.0394 81.0249 50.0394C82.5889 50.0599 83.6348 50.1944 84.4533 50.2667C85.2718 50.3391 88.0154 50.0394 88.8025 50.0619C89.3156 50.0813 89.8193 50.2046 90.2832 50.4244L89.1336 47.0998L87.7983 44.5631L83.987 40.3892C83.987 40.3892 79.4131 37.6968 79.3783 37.6763C79.3578 37.6558 77.7939 37.2415 77.7939 37.2415L73.6514 39.7475L69.8927 49.4721L69.8203 51.5201L72.2533 52.6697C72.8643 51.6457 73.5381 50.8265 74.1696 50.7228C73.5996 50.7849 73.1647 50.7849 73.1647 50.7849L73.1654 50.7856Z" fill="#D5B457"/>
<path fill-rule="evenodd" clip-rule="evenodd" d="M73.1135 51.4798C72.751 51.5003 72.4513 51.4279 72.368 51.1692C72.0574 50.2995 71.8089 50.1752 71.5488 50.1752C71.2887 50.1752 70.9378 50.7343 70.7296 50.7855C70.5214 50.8367 70.2743 50.1438 70.2743 50.1438L70.0463 50.04C70.0463 50.04 68.7103 50.9098 67.7682 51.9351C66.8261 52.9605 65.2826 54.7006 64.589 55.0105C63.8954 55.3205 61.5129 55.4249 60.6978 55.601C59.8827 55.7772 58.9789 56.3677 58.8546 56.5022C58.7304 56.6366 59.2178 56.7814 59.2902 56.9159C59.3625 57.0401 58.4921 56.9882 58.4198 57.1207C58.3686 57.2244 58.6246 57.8142 58.7515 58.1146C58.9737 58.0041 59.2175 57.944 59.4656 57.9385C60.263 57.918 60.8432 58.4464 61.7956 58.4464C64.0948 58.4464 66.1762 56.7582 67.7088 56.24C68.8379 55.857 69.8114 55.5771 70.4948 54.9559C70.8259 54.6767 71.4164 54.0548 71.955 53.1332C72.3482 52.5017 72.7319 51.9112 73.1155 51.4764L73.1135 51.4798Z" fill="#D2B257"/>
<path fill-rule="evenodd" clip-rule="evenodd" d="M40.1408 102.732C40.1408 102.732 39.936 101.965 38.0382 99.9873C37.4996 99.4282 37.1685 98.9633 36.806 98.6309C35.9049 97.781 35.3765 97.5536 34.7348 97.0669C33.3264 96.021 31.7939 96.021 30.6135 94.737C29.4332 93.4529 28.0576 90.9994 27.1019 88.4919C26.1598 85.9858 25.9004 85.1885 25.9004 85.1161C25.9004 85.0438 26.1598 84.557 26.4909 84.6294C26.822 84.7017 26.822 85.3435 26.9053 85.4991C27.0702 85.7531 27.2573 85.9921 27.4644 86.2132C27.9511 86.773 28.6447 87.442 28.997 88.44C28.9246 87.5908 28.6345 86.6487 28.6345 86.6487C28.6345 86.6487 30.4572 87.7983 32.0103 88.9991C33.5742 90.2006 34.216 90.615 34.6727 91.381C35.1294 92.1469 36.2052 94.1669 36.7207 94.7574C37.2361 95.3479 44.2983 97.5741 44.2983 97.5741L47.6577 100.079L49.3254 103.734L48.0202 105.782L45.5141 106.321L41.444 104.498L40.1408 102.731V102.732Z" fill="#D2B159"/>
<path fill-rule="evenodd" clip-rule="evenodd" d="M31.0991 90.1386C31.0991 90.1386 31.9484 91.495 34.0196 92.7791C35.8839 93.9082 38.8351 94.9336 41.4661 95.5446C42.9775 95.9071 44.4896 96.1863 45.8461 96.2075C49.5018 96.2587 52.0181 95.2135 55.1358 94.8715C56.8241 94.6954 58.8953 94.5609 61.0491 94.0523C63.8139 93.3894 65.4502 92.6433 67.6771 91.5947C69.2923 90.8492 70.7737 90.2901 71.9745 89.5754C73.6627 88.5814 74.8949 87.4734 76.3244 87.1423C76.1483 87.6291 75.9619 88.4988 74.5536 89.3999C75.2991 89.3787 76.3244 89.3276 76.3244 89.3276C76.3244 89.3276 75.3305 89.9174 73.5801 91.2431C72.5029 92.0623 71.074 93.4488 69.6138 94.3704C68.671 94.9609 67.6457 95.3944 66.9726 95.748C65.3342 96.6492 64.6734 97.1045 63.5968 98.2056C63.9798 98.1852 64.0112 98.2056 64.0112 98.2056C64.0112 98.2056 62.654 98.3818 61.6812 98.8992C61.4764 98.8992 61.1214 98.8269 60.5002 99.003C60.0135 99.1579 59.3711 99.5109 58.7089 99.6966C57.7661 99.9765 57.4562 99.8522 57.4562 99.8522L57.6112 100.163C57.6112 100.163 56.3824 100.142 55.9728 100.183C56.0451 100.204 56.0246 100.235 56.0246 100.235C55.9527 100.247 55.8834 100.272 55.8198 100.308C55.6227 100.435 55.4059 100.53 55.1781 100.587C55.0539 100.607 54.9501 100.607 54.7945 100.639C54.8464 100.763 55.2505 101.458 55.4369 101.867C55.2819 101.971 52.9513 103.732 52.9513 103.732C53.0236 103.846 53.0827 103.967 53.1274 104.094C53.1998 104.322 53.2312 104.653 53.3035 104.808C53.479 105.119 53.5828 105.171 53.5828 105.171C53.5828 105.171 53.3035 105.223 52.8161 105.347C52.4024 105.451 51.8945 105.626 51.1777 105.73C50.9578 105.759 50.7365 105.776 50.5148 105.782C50.6186 106.01 51.0739 106.88 50.235 107.884C49.396 108.888 49.1372 109.034 48.8785 109.676C48.7483 109.577 48.6096 109.491 48.4641 109.416C48.1849 109.292 47.8012 109.106 47.6668 108.857C47.5884 109.189 47.4845 109.515 47.3561 109.831C47.0974 110.524 46.7144 111.208 46.6421 111.726C46.3622 111.415 45.8447 110.804 45.13 110.928C44.4152 111.053 43.8459 112.026 43.7216 112.306C43.7216 112.13 43.5974 111.995 43.5667 112.202C43.5455 112.43 43.1523 114.811 40.9568 116.738C40.9363 116.251 40.9363 115.174 40.8845 114.822C40.6797 115.027 40.4291 115.33 38.9375 115.972C37.4773 116.614 37.7087 117.256 37.7087 117.256C37.7087 117.256 37.5845 116.232 38.3716 115.154C39.1689 114.077 39.6557 113.569 39.6557 113.486C39.6428 113.402 39.6069 113.323 39.5519 113.258C39.4481 113.155 39.2413 113.03 39.2413 112.948C39.3655 112.897 40.5977 112.306 40.5254 111.083C40.453 109.986 39.9874 109.416 39.6557 109.013C39.6045 108.961 40.1431 108.578 40.07 108.454C40.0182 108.381 39.356 107.894 39.2727 107.635C39.2923 107.48 39.327 107.327 39.3765 107.179C39.4488 106.951 39.5007 106.796 39.4802 106.641C39.4283 106.382 39.1484 105.667 39.0658 105.595C39.1382 105.615 39.6557 105.595 39.6557 105.595C39.6557 105.595 39.242 104.932 39.1689 104.621C39.0959 104.311 38.9409 103.492 38.8583 103.337C39.0344 103.358 39.4693 103.388 39.4693 103.337C39.4905 103.182 39.0863 102.923 39.2645 102.723C39.3887 102.743 39.627 102.847 39.8543 103.137C39.7301 102.805 39.5232 102.164 39.0877 101.905C39.2925 101.833 39.9888 101.646 40.5998 102.008C41.2108 102.371 41.419 102.878 41.419 102.878C41.419 102.878 41.7815 103.158 42.3413 103.572C42.983 104.079 43.8008 104.801 45.1061 105.312C45.386 105.467 46.1 105.467 46.6182 105.363C46.8438 105.31 47.0601 105.222 47.2599 105.105C47.332 105.062 47.4085 105.027 47.4879 105.001C47.3766 104.777 47.2486 104.563 47.1049 104.359C47.2811 104.359 47.4879 104.38 47.4879 104.38C47.4879 104.38 47.6121 104.1 47.053 103.56C47.1773 103.436 47.3329 103.356 47.3329 103.146C47.1568 103.126 46.8462 102.867 46.7738 102.763C46.8769 102.691 47.0326 102.452 47.2087 102.38C47.053 102.256 46.6701 101.738 46.4939 101.687C46.6622 101.624 46.825 101.548 46.9807 101.459C46.9807 101.459 46.111 101.231 45.8311 101.044C45.5512 100.839 45.1375 100.485 44.889 100.381C44.6296 100.278 44.1742 100.226 43.9879 100.019C44.1633 100.071 44.4432 100.019 44.6507 100.019C44.8057 100.019 44.8788 100.039 44.93 100.039C44.9095 99.9669 44.9095 99.8113 45.3136 99.7601C45.508 99.7308 45.6966 99.6713 45.8727 99.5839C45.8727 99.5839 45.4891 99.5635 45.0535 99.1491C44.618 98.7347 44.2562 98.4036 44.0077 98.3517C43.7489 98.2998 43.2622 98.5278 42.9618 98.5067C42.5474 98.4555 42.3713 98.248 42.3713 98.248C42.3713 98.248 40.9944 98.3722 37.9394 96.5085C35.2982 94.8926 34.1486 93.4638 34.1486 93.4638C33.9014 93.3741 33.6625 93.2631 33.4345 93.1321C32.4406 92.6146 31.0629 91.5373 31.1046 90.1283L31.0991 90.1386Z" fill="#C2A44D"/>
<path fill-rule="evenodd" clip-rule="evenodd" d="M69.1984 27.9819C69.438 28.0598 69.6509 28.2033 69.8128 28.3963C70.2996 28.9554 70.6102 30.0115 69.5022 31.1406C69.9371 31.2956 70.1166 31.3454 70.4962 31.2956C70.1132 31.7516 69.2435 32.7251 69.1916 33.5743C69.1397 34.2679 69.5746 34.4755 69.5746 34.4755C69.5746 34.4755 68.9117 35.2414 68.881 36.5235C69.194 36.1704 69.5366 35.8448 69.905 35.55C70.6716 34.939 71.7277 34.2454 72.4425 33.8105C72.4328 33.9928 72.4573 34.1753 72.5148 34.3485C72.5148 34.3485 73.8501 33.2507 74.9724 33.7382C75.4797 33.9662 75.2516 34.6803 75.2516 34.6803C75.2516 34.6803 75.9459 34.4215 76.4327 34.9083C76.9194 35.395 77.6075 36.6504 77.9605 37.1372C78.1154 37.3652 78.5196 37.8 78.9333 38.4731C79.4985 39.4155 79.9704 40.4108 80.3423 41.4448C80.3628 40.9062 80.4973 40.0679 82.0305 40.5956C83.5631 41.1342 85.3026 42.2633 86.7628 44.4868C88.223 46.7102 88.5848 49.2204 89.32 50.1761C90.0655 51.0977 90.8322 52.6303 90.884 53.2727C90.9359 53.9151 90.656 55.9856 92.1886 61.5882C92.6235 59.8488 93.2863 55.9856 93.2863 55.9856L93.6488 52.5784L94.0632 42.036L83.0545 32.8903L74.4488 26.6453L68.8462 27.1839L69.1978 27.9812L69.1984 27.9819Z" fill="#CAA13E"/>
<path fill-rule="evenodd" clip-rule="evenodd" d="M89.6519 43.6708C89.6519 43.6708 89.4963 42.6468 86.9076 40.906C84.3182 39.1871 82.2989 39.1871 80.4352 37.7268C79.0057 36.5772 77.5148 33.936 76.544 33.0663C75.6013 32.2068 75.4463 29.7212 75.4463 29.7212L78.6255 27.0588L83.3536 20.2246L87.3506 15.8235L89.2662 18.4859L91.9286 21.6132L93.4093 27.8889L93.9479 37.0749L89.6471 43.6715L89.6519 43.6708Z" fill="#B59544"/>
<path fill-rule="evenodd" clip-rule="evenodd" d="M92.8524 54.6817C92.9307 53.2886 92.7587 51.8928 92.3444 50.5604C91.6618 48.4373 90.1702 44.6676 89.4772 43.2559C89.1974 41.6919 89.4049 41.5677 89.7053 41.3915C90.0056 41.2154 91.1348 40.5723 91.7533 38.3161C92.3718 36.0599 94.2907 35.9862 94.2907 35.9862L95.4711 35.1165L97.2631 39.6002L98.8264 43.6498L99.3131 46.7464L99.6756 49.3869L98.8264 54.9691L94.6327 58.7592L92.8517 54.6817H92.8524Z" fill="#C89D3A"/>
<path fill-rule="evenodd" clip-rule="evenodd" d="M34.3306 116.899V116.784C34.4177 116.73 34.4946 116.661 34.5579 116.58C34.6303 116.476 34.6828 116.352 34.734 116.321C34.8378 116.269 35.3245 116.116 35.5833 116.165C35.842 116.214 36.526 116.496 36.8885 116.476C37.634 116.455 38.5037 115.885 39.8813 116.145C41.9525 116.528 42.4393 117.936 43.6408 118.733C44.46 119.293 45.3078 119.044 45.4321 119.044H45.7113C45.7632 119.044 46.1462 118.609 46.3537 118.63C46.7681 118.651 46.809 118.993 47.0678 119.013C47.6787 119.086 48.8598 118.703 49.4503 118.858C49.6254 118.913 49.7846 119.01 49.9144 119.139C50.0442 119.269 50.1407 119.428 50.1957 119.603C50.32 119.986 50.2162 120.473 49.9158 120.753C49.2741 121.343 48.6632 121.902 48.5389 122.391C48.6969 122.512 48.8487 122.64 48.9936 122.776C43.8696 121.471 38.9396 119.497 34.3306 116.905V116.899Z" fill="#CEB052"/>
<path fill-rule="evenodd" clip-rule="evenodd" d="M89.4756 96.2074C89.4756 96.2074 91.0908 94.0536 91.6506 92.9866C92.2097 91.8868 89.8797 77.9604 89.8797 77.9604L94.5608 62.6237L94.4358 57.632C94.4358 57.632 94.6638 53.0233 95.2025 51.0245C95.8449 52.1741 97.8437 53.5619 98.2786 54.2972C98.4834 52.8881 99.179 49.9165 99.0759 46.7476C99.4589 47.3374 100.381 53.2718 100.381 53.2718L101.302 57.2688L102.504 61.515L103.84 65.9994L104.637 69.096L105.092 69.8415L105.476 71.1461L105.838 72.5551L106.884 75.8585L107.499 78.5714L107.985 83.4907C108.091 83.8674 108.168 84.2518 108.213 84.6403C108.234 85.179 108.141 85.4896 108.141 85.5831C108.141 85.6766 108.317 86.7634 108.245 87.5819C108.141 88.4011 108.141 89.0422 107.499 89.6299C106.856 90.2177 106.453 93.7307 106.453 93.7307L105.303 92.9648C105.303 92.9648 105.531 91.9182 104.993 90.9659C104.454 90.0136 103.408 89.8163 102.818 89.972C102.228 90.0962 101.047 90.2819 100.664 90.6137C100.301 90.9448 99.4111 91.9701 98.5926 92.4364C97.5686 93.0508 95.9002 93.0993 95.01 93.3061C94.1088 93.5109 93.1149 94.1253 92.0684 94.8387C91.2478 95.3699 90.3815 95.8269 89.4797 96.204L89.4756 96.2074Z" fill="#CCA847"/>
<path fill-rule="evenodd" clip-rule="evenodd" d="M89.4756 118.835C89.4756 118.835 89.5438 118.879 89.6756 118.952C97.0331 115.505 103.625 110.619 109.063 104.582C109.004 102.486 108.927 100.338 108.842 99.5416C108.667 97.8534 108.791 96.1344 108.739 95.1404C108.687 94.1465 108.128 90.0969 107.869 89.051C107.589 88.0052 107.05 87.4871 106.968 87.4871C106.896 87.5082 106.46 89.4552 106.46 89.9447C106.46 90.4341 106.357 91.6124 106.357 91.9128C106.284 91.8916 106.253 91.708 106.253 91.6329C106.15 91.8916 106.025 92.3476 105.974 92.3995C105.922 92.4514 106.046 91.9647 105.974 91.8609C105.901 91.7571 105.769 91.809 105.797 91.5503C105.81 91.3969 105.834 91.2446 105.87 91.095C105.87 91.095 105.559 91.5503 105.332 92.7101C105.104 93.8598 105.104 93.8912 105.021 93.9942C104.949 94.1192 104.535 94.5329 104.513 94.6885C104.493 94.9677 104.897 95.2476 104.928 95.4026C104.948 95.662 104.565 96.8628 104.441 97.4506C104.317 98.0384 104.369 99.19 104.236 99.7805C104.132 100.319 104.031 100.63 103.677 100.857C103.936 100.909 104.184 100.981 104.184 100.981C104.184 100.981 104.547 102.514 103.625 103.819C103.294 104.275 103.212 104.482 102.859 104.896C102.165 105.662 101.626 106.535 101.574 107.102C101.539 106.935 101.514 106.765 101.502 106.594C101.502 106.594 100.426 107.848 99.9695 108.562C99.3797 109.484 98.5612 109.432 98.3311 109.66C98.1011 109.888 98.0512 110.302 98.1263 110.634C97.9215 110.685 97.5365 110.758 97.2771 111.555C97.1528 111.969 96.8422 112.374 96.3555 112.653C95.8688 112.931 95.2783 113.015 94.9779 113.088C95.2366 113.16 95.3404 113.16 95.4646 113.243C95.3097 113.501 94.5949 113.906 93.7975 114.424C93.0002 114.91 92.6165 115.625 92.4199 116.091C92.2151 116.526 91.9127 116.806 91.426 116.857C91.6308 116.982 91.9339 117.271 92.0888 117.365C91.8608 117.417 91.4744 117.417 90.7843 118.007C90.0593 118.608 89.8108 118.784 89.479 118.836L89.4756 118.835Z" fill="#C39D3C"/>
<path fill-rule="evenodd" clip-rule="evenodd" d="M75.0659 123.634C75.4625 123.356 75.8919 123.129 76.3445 122.957C77.9597 122.315 79.6684 122.191 80.3416 121.984C80.9839 121.779 81.4912 121.496 82.2885 121.341C82.2674 121.523 82.2496 121.694 82.2305 121.855C79.8797 122.594 77.4859 123.188 75.0625 123.634H75.0659Z" fill="#D2BA6B"/>
<path fill-rule="evenodd" clip-rule="evenodd" d="M104.858 81.1501C104.858 81.1501 104.527 82.9414 103.936 84.0705C103.346 85.1996 102.707 86.7629 102.707 86.7629C102.711 86.4107 102.753 86.0598 102.832 85.7164C102.086 86.1513 100.274 87.1978 99.7595 87.6634C99.2728 88.0982 98.4543 88.8649 98.2474 89.2274C98.7342 87.7985 99.2414 86.5144 99.3247 85.9239C98.5792 86.4626 95.099 89.3311 93.2872 91.2262L87.6429 95.7933C86.9915 96.1446 86.3208 96.4587 85.6338 96.734C84.661 97.1477 83.5114 97.4999 82.6621 97.8317C82.8901 97.2207 83.252 96.6814 83.7599 96.1639C84.2985 95.6567 85.9137 93.9064 86.1622 93.0919C86.3902 92.2427 86.4421 91.7355 86.1417 91.0207C85.8618 91.0931 85.2201 91.1245 84.7852 91.2487C84.3504 91.373 83.8841 91.8386 83.8841 91.8386C83.8841 91.8386 84.2152 89.9435 84.93 88.1522C84.3913 88.1726 83.4697 88.3276 83.4697 88.3276C83.4697 88.3276 84.7538 86.1738 86.9513 84.6726C86.2783 84.8158 85.6198 85.0201 84.9839 85.2829C83.6998 85.8215 82.2915 86.6189 81.2456 87.0538C81.8354 86.2346 85.9779 80.3227 88.443 74.8129C90.9006 69.314 91.8187 67.9056 92.3574 64.9545C92.6366 63.4942 92.5622 61.3363 92.6366 59.4037C92.7089 57.4875 92.9472 55.7685 92.7922 54.6189C93.4339 55.4163 95.8369 57.6636 95.9195 62.6867C95.9919 67.709 93.621 74.4927 91.104 78.1477C91.7184 78.3238 93.3104 78.5313 94.946 75.6901C96.5817 72.8488 96.5619 72.0556 97.1524 70.8746C97.2248 71.4651 97.2036 71.6719 97.2036 71.6719C97.2036 71.6719 99.5861 68.7829 100.715 65.1477C100.943 66.7117 101.616 68.0893 100.559 70.9578C99.6169 73.5465 98.3846 74.1787 98.3846 74.1787C98.3846 74.1787 98.9956 74.0749 99.8961 73.5363C100.052 73.9192 100.021 74.3555 100.28 74.5098C100.538 74.664 100.891 74.9241 100.943 75.1726C101.222 74.7582 101.657 74.2299 101.792 73.8366C101.688 74.6558 101.616 78.2378 101.997 80.0605C102.795 79.9882 103.612 79.9363 104.172 78.4965C103.789 79.9055 103.789 80.7541 104.047 81.9556C104.472 81.6662 104.855 81.148 104.855 81.148L104.858 81.1501Z" fill="#C0993A"/>
<path fill-rule="evenodd" clip-rule="evenodd" d="M77.9495 24.0674C77.9495 24.0674 77.1522 24.3985 75.7957 24.3985C74.6154 24.3985 74.9465 23.9431 73.1033 23.9431C70.2661 23.9431 60.3552 25.5815 58.615 25.5583C57.4859 25.5378 62.4257 26.045 62.4257 26.045L75.0502 26.2212L77.587 26.0164L78.5298 24.0981L77.9495 24.0674Z" fill="#A88F33"/>
<path fill-rule="evenodd" clip-rule="evenodd" d="M45.2142 48.7459C45.2142 48.7459 43.5984 49.9781 42.915 50.9209C42.2317 51.8637 41.8692 52.4842 41.0923 53.2508C41.2746 53.2578 41.4568 53.2333 41.6309 53.1785C41.6309 53.1785 41.6309 53.3833 41.5067 53.4372C41.614 53.4252 41.7227 53.4374 41.8248 53.4728C41.9268 53.5082 42.0197 53.566 42.0965 53.642C41.8685 53.7663 41.2473 54.3882 41.734 55.1234C42.0965 55.6825 42.8631 55.7337 42.8631 55.7337C42.8631 55.7337 42.687 56.2416 43.4222 56.1897C45.0067 56.1174 46.7775 55.4231 47.5954 55.5992C48.4146 55.804 48.8801 55.8791 49.4597 56.884C50.0741 57.878 50.6093 58.0336 50.6093 58.0336C50.6093 58.0336 50.9718 57.1113 50.8892 55.7344C51.1865 54.9922 51.3512 54.2036 51.376 53.4044L50.8374 49.4381L48.4869 46.4658L45.4422 48.1541L45.2142 48.7439V48.7459Z" fill="#E3C571"/>
<path fill-rule="evenodd" clip-rule="evenodd" d="M48.1035 48.1552C48.1035 48.1552 48.3315 48.6938 49.2845 48.745C49.1808 48.9731 49.1808 49.0045 49.2122 49.1799C49.2326 49.356 49.2634 49.6148 49.2634 49.6148C49.3683 49.564 49.4631 49.4946 49.5433 49.41C49.5951 49.638 49.4914 49.9998 49.5433 50.2592C49.5753 50.417 49.6273 50.57 49.6982 50.7145C49.7133 50.6791 49.7307 50.6447 49.7501 50.6115C49.7706 50.5596 49.9549 51.1706 50.4649 51.6355C50.4644 51.564 50.482 51.4935 50.5161 51.4307C50.5239 51.5605 50.5668 51.6858 50.6403 51.7932C50.6021 51.775 50.5673 51.7505 50.5372 51.7208C50.5372 51.7208 50.5884 53.3592 50.8683 54.2064C50.9151 54.1516 50.9567 54.0927 50.9926 54.0303C50.9926 53.9791 50.9721 54.4863 50.9202 54.8495C50.8478 55.212 50.8997 55.7192 50.8997 55.7192C51.0864 55.5722 51.2916 55.4503 51.51 55.3567C51.8206 55.2317 52.3292 54.8488 52.6392 53.9995C52.819 53.5186 52.9576 53.0232 53.0535 52.5188C53.1537 52.7116 53.2228 52.9189 53.2583 53.1332C53.2795 53.392 53.7662 53.2575 53.7662 53.2575L53.87 52.1283L54.4844 49.5704L55.0435 47.9859L57.7359 43.7923L62.6006 40.0458L66.8468 41.0193L70.4294 36.1519L64.2575 32.4443L58.4166 33.0553L53.1157 40.3974L48.8701 47.0568L48.1035 48.1545V48.1552Z" fill="#D8B65B"/>
<path fill-rule="evenodd" clip-rule="evenodd" d="M78.6951 37.5304C78.6951 37.5304 78.3326 37.6028 77.2868 38.1448C76.241 38.6868 75.516 38.8589 75.1118 39.6562C74.7077 40.4536 74.677 41.0857 74.677 41.0857C74.677 41.0857 75.3917 40.7751 75.8061 40.6713C76.2409 40.5683 76.7277 40.599 76.6758 40.7751C76.626 40.8959 76.5568 41.0077 76.471 41.1062C76.471 41.1062 77.2902 41.0857 77.2684 41.4899C77.2465 41.894 77.1134 42.3391 76.9584 42.5357C76.8028 42.7405 76.1611 43.0436 76.0887 43.2819C75.9126 43.7686 76.1611 43.7891 76.0676 44.1823C75.9952 44.566 75.6539 45.3114 74.535 46.616C73.3854 47.9213 72.8966 48.8429 72.8966 48.8429C72.8966 48.8429 72.3375 47.797 72.0473 46.8959C71.8425 46.999 70.7428 47.61 70.7428 47.61L68.195 38.7353L68.2462 38.1448C68.2462 38.1448 68.4743 37.8656 68.5261 37.3474C68.1432 37.2232 68.0913 37.1194 67.5834 36.6334C67.0755 36.1473 66.6618 35.5561 65.8132 35.152C65.689 34.924 65.5333 34.614 64.9121 34.4891C64.2909 34.3642 63.9181 34.2618 63.9181 34.2618C63.9181 34.2618 64.2492 34.1369 64.4049 33.8781C64.0212 33.93 63.7113 34.0543 62.8723 34.0338C62.0231 34.0126 61.9295 33.9819 61.4639 34.0543C60.9984 34.1266 60.4399 34.3341 60.2317 33.6194C60.0037 33.4433 59.517 33.5989 59.1026 34.2092C58.6882 34.8195 58.5435 35.3069 57.7461 35.5452C57.6901 35.8967 57.567 36.2341 57.3837 36.5392C57.1556 36.9228 56.7931 37.3058 56.3064 37.8751C55.5398 38.7763 55.664 40.257 54.442 41.3861C53.2098 42.5145 54.6468 38.2581 54.6468 38.2581L56.6143 33.5477L62.2169 28.0693L70.9162 27.4795L71.7654 31.9851L76.0116 33.4453L78.6938 37.5359L78.6951 37.5304Z" fill="#D3AE4D"/>
<path fill-rule="evenodd" clip-rule="evenodd" d="M80.0726 38.5243L76.4169 33.2535L73.859 31.2853C73.859 31.2853 72.0362 27.9307 71.912 27.8269C71.8082 27.7546 70.0893 27.5682 68.9915 27.4958L69.1963 28.0031C69.4359 28.0809 69.6488 28.2245 69.8107 28.4174C70.2975 28.9766 70.6081 30.0326 69.5001 31.1618C69.935 31.3167 70.1145 31.3666 70.4941 31.3167C70.1111 31.7728 69.2414 32.7462 69.1895 33.5955C69.1376 34.2891 69.5725 34.4959 69.5725 34.4959C69.5725 34.4959 68.9096 35.2625 68.8789 36.5439C69.1919 36.1909 69.5345 35.8652 69.9029 35.5704C70.6695 34.956 71.7256 34.2652 72.4404 33.8303C72.4306 34.0128 72.4552 34.1955 72.5127 34.3689C72.5127 34.3689 73.848 33.2712 74.9703 33.758C75.4776 33.986 75.2496 34.7007 75.2496 34.7007C75.2496 34.7007 75.9438 34.442 76.4306 34.9287C76.9173 35.4155 77.6109 36.6682 77.9632 37.1556C78.1181 37.3836 78.5223 37.8185 78.936 38.4909C79.5013 39.4334 79.9732 40.4289 80.345 41.4632C80.3655 41.0488 80.4487 40.4692 81.1642 40.4692L80.0767 38.5223L80.0726 38.5243Z" fill="#CAA13E"/>
<path fill-rule="evenodd" clip-rule="evenodd" d="M25.2688 53.4992C25.2688 53.4992 25.0101 52.8569 25.2688 51.6042C25.5275 50.3515 25.9317 49.761 26.0662 47.9178C26.2006 46.0746 27.4021 43.7753 27.4021 43.7753L30.726 42.2639L33.0771 42.9056L33.7707 46.0541L30.7984 47.6925C30.7984 47.6925 30.6434 48.3861 29.8044 48.9452C28.9654 49.5043 27.8056 49.9391 27.5264 50.5092C27.3595 50.8582 27.2377 51.2271 27.1639 51.6069C27.1639 51.6069 26.3146 51.4308 25.8074 51.9899C25.2688 52.5599 25.2893 53.0671 25.2688 53.502V53.4992Z" fill="#F4EFC8"/>
<path fill-rule="evenodd" clip-rule="evenodd" d="M31.9796 52.6603C31.9796 52.6603 31.6997 52.8364 31.4929 53.2747C31.2881 52.9436 30.7986 50.9755 30.7781 49.2046C30.7576 47.4338 30.6518 46.9948 31.0614 46.3845C31.471 45.7742 33.0773 45.1311 32.8493 44.0321C32.6213 42.9862 31.6683 42.5514 30.4982 42.8517C29.679 43.0565 29.0694 44.7987 28.2202 45.6684C27.5778 46.3313 26.8118 46.2275 26.605 46.59C26.3251 47.0767 26.5838 47.5635 26.5012 47.8741C26.4801 47.9779 26.2213 48.537 25.7551 49.2101C24.813 50.5665 23.2183 52.4828 23.0107 54.2017C23.0831 53.2283 23.0319 53.2078 23.2906 52.1305L23.135 51.8718L24.159 48.5165L24.8219 45.7517L26.3032 41.1218L28.9124 36.3896L31.4499 33.5518L34.0904 33.7279L34.401 37.6942L35.9131 45.1407L39.0923 49.0551L33.9969 52.4842L31.9776 52.6603H31.9796Z" fill="#EBCC73"/>
<path fill-rule="evenodd" clip-rule="evenodd" d="M33.5639 54.0673C33.5639 54.0673 33.129 54.171 32.9734 54.0884C32.8177 54.0058 32.6634 53.9123 32.7146 53.8085C32.7658 53.7048 33.0457 53.5293 33.0457 53.446C33.0515 53.3708 33.0277 53.2962 32.9794 53.2382C32.9311 53.1802 32.8621 53.1434 32.787 53.1354C32.5488 53.1047 32.4764 53.2597 32.4764 53.2597C32.4764 53.2597 32.2484 53.0842 32.0627 53.0549C32.1726 53.0414 32.2831 53.0343 32.3938 53.0337C32.1076 52.9041 31.804 52.8169 31.4927 52.775C31.7514 52.62 32.2593 52.164 32.5904 52.164C32.9215 52.164 33.129 52.1128 33.0771 51.9366C33.0253 51.7605 32.7665 51.5018 32.4873 51.398C32.5904 51.2738 32.6634 51.0874 32.415 50.5788C32.1555 50.0716 32.2593 49.7296 32.3426 49.606C32.415 49.4504 32.6737 49.1712 32.7979 48.995C32.9222 48.8189 33.0259 48.5807 33.2328 48.4564C33.3366 48.3841 33.6677 48.2516 33.9994 48.1253C34.3619 48.0011 34.6623 47.8454 34.8691 48.0011C35.0972 48.156 34.9934 48.3636 34.9934 48.3636C34.9934 48.3636 35.7081 48.1042 36.3498 48.4359C36.9922 48.7459 38.5562 48.9432 38.5562 48.9432L39.1167 50.0723L35.4091 53.2515L33.8765 54.0181L33.5659 54.0693L33.5639 54.0673Z" fill="#E5C66B"/>
<path fill-rule="evenodd" clip-rule="evenodd" d="M38.7106 48.8702C38.7106 48.8702 37.561 49.6368 37.3023 49.916C37.4573 49.9372 37.716 50.0409 37.6122 50.1959C37.488 50.3509 36.7425 50.8895 36.3281 51.3974C35.8933 51.9046 35.4789 52.547 35.3342 52.8576C35.1792 53.1368 33.9982 53.9553 33.5947 54.0584C34.444 54.0584 36.1527 53.0126 36.7944 53.0126C36.7739 53.3232 36.9705 53.6755 37.333 53.7062C37.6955 53.7369 38.7414 53.9342 40.1497 53.0645C41.558 52.2152 41.0925 51.5831 41.6823 51.1694C42.8114 50.4232 43.2667 49.7604 43.888 49.3467C44.5092 48.933 44.8307 48.8388 44.8307 48.8388C44.8307 48.8388 44.8512 48.5281 45.0355 48.5596C45.086 48.5653 45.1339 48.5848 45.1741 48.6158C45.2143 48.6469 45.2452 48.6883 45.2635 48.7357C45.2635 48.7357 46.3408 47.969 47.7211 47.7622C47.6889 47.7478 47.6632 47.722 47.6488 47.6898C47.6488 47.6898 47.7519 47.638 47.773 47.5861C47.773 47.5861 47.8454 47.4823 47.8973 47.5342C47.9492 47.5861 48.0215 47.969 48.1253 48.1247C48.3533 48.0209 48.7882 47.0474 48.7882 47.0474L49.8347 44.0546V41.3206L49.0155 41.4762L42.8715 44.0854L39.1428 47.9486L38.7079 48.8702H38.7106Z" fill="#E6BD62"/>
<path fill-rule="evenodd" clip-rule="evenodd" d="M56.3985 35.459C56.7308 35.3784 57.0494 35.2491 57.344 35.0754C57.2197 35.4071 57.2197 35.7696 56.6811 36.5567C56.1425 37.3439 56.122 37.4579 55.6871 38.2757C55.2523 39.1249 55.2004 40.3469 54.786 40.8849C54.9717 40.7946 55.171 40.7353 55.3758 40.7094C55.3758 40.7094 54.9621 41.0719 54.786 41.4549C54.6099 41.8379 54.2993 42.6352 53.5333 43.1226C52.7674 43.6101 51.7932 43.92 50.7474 45.0696C49.7008 46.198 48.6243 47.6276 48.085 48.1416C48.3649 47.6549 48.7478 46.6814 48.8516 46.0397C48.9554 45.398 48.8304 44.6306 49.0066 43.7821C49.1827 42.9335 49.1827 42.3219 50.0306 40.8405C50.8784 39.3591 52.3298 34.2125 52.3298 34.2125L55.4571 33.2185L56.3998 35.4556L56.3985 35.459Z" fill="#B6933F"/>
<path fill-rule="evenodd" clip-rule="evenodd" d="M54.1408 33.564C54.1408 33.564 53.1987 34.9205 52.94 36.122C52.6812 37.3235 52.9188 37.2197 52.7638 37.8102C52.6712 38.1702 52.6712 38.5479 52.7638 38.9079C53.0901 38.3823 53.5368 37.9419 54.0671 37.6231C54.9579 37.0852 55.6829 36.7015 56.1151 36.2462C56.5499 35.7595 56.9124 34.9621 57.8545 34.3511C57.4715 34.2992 56.9329 34.1231 56.8305 34.1463C57.2142 33.7115 58.3631 33.0486 59.5229 32.2512C60.6725 31.432 60.6002 31.1016 62.4645 30.2838C61.8536 30.3876 61.5634 30.2319 61.0555 30.2838C61.2603 29.8489 61.9771 29.6414 62.6939 28.9273C63.4107 28.2133 62.2386 27.1565 62.2386 27.1565L56.7773 30.4599L54.1367 33.5667L54.1408 33.564Z" fill="#C49937"/>
<path fill-rule="evenodd" clip-rule="evenodd" d="M39.3218 31.0989L39.446 30.105L41.01 27.5989L42.6464 23.1977V17.1807L42.5221 13.7012L42.7808 11.4224L42.9775 10.6981L43.185 10.4182L44.5203 11.1118L46.3642 13.6179L46.5403 18.4546L44.7483 26.0868L39.6324 31.6689L39.3218 31.0989Z" fill="#DFC068"/>
<path fill-rule="evenodd" clip-rule="evenodd" d="M43.3918 10.1382C43.3918 10.1382 42.5726 10.1594 42.3979 13.5666C42.2231 16.9738 42.1384 18.7651 42.0142 20.4533C41.89 22.1415 41.6005 23.1662 41.4551 24.1609C41.3097 25.1555 41.2271 26.5113 40.7615 27.3401C40.5567 27.723 40.1191 28.9245 39.0938 29.8256C37.9441 30.8196 36.2266 31.5139 35.9665 31.5658C35.5104 31.6688 33.201 31.8969 32.2589 32.415C31.9278 32.5911 31.3578 32.798 30.7263 33.3885C29.4729 34.5169 27.8059 36.5363 26.6044 38.97C24.7612 42.6052 22.918 52.8677 22.918 52.8677L23.3323 52.1741C23.3323 52.1741 23.3842 51.2525 24.3058 49.6366C25.207 48.0214 24.9482 46.209 26.2009 43.1124C26.6877 41.9321 27.2986 40.3995 28.0441 39.0942C29.2251 36.9711 30.6539 35.1484 32.0937 34.1544C34.4441 32.5392 37.0335 32.187 37.0335 32.187L39.8194 30.3438C39.8194 30.3438 40.3062 29.4017 40.9486 28.3245C41.849 26.813 42.9966 25.1248 43.2471 22.6706C43.6308 19.0354 42.7085 16.6536 42.7604 14.4998C42.8122 12.346 42.8327 10.7615 43.2683 10.3778C43.7038 9.99417 43.3925 10.1396 43.3925 10.1396L43.3918 10.1382Z" fill="#A88F33"/>
<path fill-rule="evenodd" clip-rule="evenodd" d="M43.3915 26.3974C43.3915 26.3974 44.6203 23.3732 45.1828 20.691C45.2866 20.1524 45.4934 19.6144 45.5453 19.1796C45.804 16.6421 45.8764 15.5963 45.5453 14.2084C45.2866 13.1844 44.2926 12.2614 43.7745 11.546C43.2672 10.7999 43.029 10.522 43.1328 10.365C43.2365 10.208 43.64 9.9513 44.0332 9.98202C44.4512 9.99418 44.8623 10.0912 45.2416 10.2673C45.6209 10.4433 45.9605 10.6947 46.2396 11.006C47.0369 11.9276 47.6684 15.0556 47.6684 15.0556L48.3326 19.183L50.0209 24.3815L43.3929 26.4015L43.3915 26.3974Z" fill="#C99E3D"/>
<path fill-rule="evenodd" clip-rule="evenodd" d="M54.9381 23.2497C54.9381 23.2497 54.7101 23.3527 54.2964 23.2497C54.314 23.4187 54.2847 23.5894 54.2116 23.7428C54.1385 23.8963 54.0244 24.0266 53.882 24.1194C53.4472 23.9432 49.3764 24.2955 49.3764 24.2955C49.3764 24.2955 47.4813 23.9637 46.8908 21.4577C46.4771 19.7899 47.2014 17.4914 46.9632 15.9793C46.6007 13.7524 46.0935 13.3169 46.0416 12.624C45.9897 11.931 45.9378 11.7542 45.9378 11.3194C45.7098 11.2675 45.5753 11.1951 45.348 11.1951C45.2961 10.9903 45.3992 10.8115 45.1719 10.449C45.2961 10.5009 46.1454 10.6046 47.1393 11.5467C47.9585 12.3133 47.9585 12.5925 48.0821 12.7482C48.237 12.9032 49.4904 13.977 50.029 15.0474C50.5677 16.1178 51.6135 19.5312 51.8518 20.0903C51.9241 20.3183 52.0798 20.5463 52.4662 21.0638C53.0669 21.8099 53.9469 23.0435 54.9408 23.2483L54.9381 23.2497Z" fill="#B58634"/>
<path fill-rule="evenodd" clip-rule="evenodd" d="M48.2285 12.8C48.8559 13.8135 49.4195 14.865 49.9161 15.9485C50.5271 17.3254 50.8896 18.4546 51.6562 19.3762C51.2418 18.1754 50.5066 15.814 50.0717 14.975C49.585 14.0876 48.591 13.1318 48.2285 12.8007V12.8Z" fill="#A88F33"/>
<path fill-rule="evenodd" clip-rule="evenodd" d="M41.1862 29.8256C41.1862 29.8256 40.1403 30.0844 38.1933 31.1097C37.551 31.4408 36.9407 31.72 36.3501 31.9794C34.8162 32.673 33.171 33.3141 31.8657 33.6677C31.9695 33.7919 32.0207 33.8431 32.0207 33.8431C32.0207 33.8431 32.0207 34.351 32.3006 34.6405C32.1456 34.7961 30.0737 36.2045 30.6854 40.9162C31.0991 40.7613 31.5858 40.5537 31.6582 40.5537C31.7831 40.5749 31.8138 40.9162 31.9688 40.9162C32.1238 40.9162 32.6317 40.7114 33.1703 40.0151C33.1498 40.295 32.8392 43.1117 34.5063 45.0068C34.8169 44.6443 35.604 43.4428 35.604 43.4428L35.6245 43.0598C35.6245 43.0598 35.6968 41.7238 36.1324 40.5019C36.5679 39.2799 37.4165 38.3788 37.4165 38.3788L41.8477 32.0511L41.1848 29.825L41.1862 29.8256Z" fill="#E6C367"/>
<path fill-rule="evenodd" clip-rule="evenodd" d="M37.0436 39.1167C36.8407 39.2601 36.6172 39.3717 36.3808 39.4478C36.3084 39.1891 36.2046 38.2982 36.8156 37.4285C37.5304 36.3819 39.0937 35.0255 39.5285 33.9469C39.8084 33.2526 39.6842 31.5132 42.1698 29.2863C44.6554 27.0595 45.6282 26.2935 45.6282 26.2935L49.6463 24.2742L54.5861 26.2211L52.1319 35.8399L50.2266 40.3455L42.649 38.9167L37.0429 39.1167H37.0436Z" fill="#DCBA5A"/>
<path fill-rule="evenodd" clip-rule="evenodd" d="M39.936 36.5049L40.8788 35.3245V34.4856C40.8788 34.4856 41.9246 34.2057 43.0531 33.056C44.1815 31.9064 45.7455 29.7007 47.1232 29.8352C48.5008 29.9909 48.6353 32.828 48.6871 33.6261C48.739 34.4241 48.9151 36.2352 49.1944 37.2094C49.505 38.1829 45.8391 41.8693 45.8391 41.8693L43.3494 43.7644L39.936 36.5049Z" fill="#E9CE77"/>
<path fill-rule="evenodd" clip-rule="evenodd" d="M42.853 46.3326C42.853 46.3326 43.6197 45.1311 43.0578 44.8724C43.3889 44.1269 43.9999 43.3398 43.9999 43.3398C43.9999 43.3398 44.4348 42.2632 45.8431 40.9375C47.2515 39.6117 48.1219 38.7311 48.3499 37.8409C48.4904 37.2607 48.5669 36.6669 48.5779 36.0701C48.7301 36.1945 48.893 36.3052 49.0646 36.4012C49.2926 36.5049 50.3692 37.3951 50.2142 39.1871C50.0593 40.9791 49.395 41.7246 49.395 41.7246C49.395 41.7246 48.7533 42.3663 48.298 42.6981C47.8106 43.0292 47.6351 43.4121 46.8166 43.4436C46.9007 43.3767 46.9953 43.3241 47.0965 43.2879C47.0965 43.2879 46.2472 43.1848 45.7912 43.5985C45.3352 44.0122 44.3658 45.2868 43.8791 45.6704C43.3923 45.981 42.8551 46.3333 42.8551 46.3333L42.853 46.3326Z" fill="#CDAE50"/>
<path fill-rule="evenodd" clip-rule="evenodd" d="M77.2869 26.1898C76.0634 25.7439 74.7776 25.4924 73.4762 25.4444C71.3013 25.372 68.1221 25.4962 65.005 25.5167C61.6497 25.5372 58.605 24.3671 54.38 24.1603C53.6864 23.7459 51.9224 21.9334 46.416 25.7755C46.7471 25.755 50.4137 24.9262 51.6869 26.5216C52.971 28.1061 52.6085 30.7985 52.433 31.4402C52.1013 32.8697 51.024 34.9512 50.5898 36.4114C50.1557 37.8716 50.2581 38.6389 49.9475 39.6629C49.6368 40.6869 48.9535 41.1955 49.3569 42.3759C49.8956 42.0448 50.1761 42.0448 51.0759 40.0254C51.9757 38.0061 51.7907 36.5664 53.2823 34.8576C54.7425 33.1387 57.1735 30.7876 58.0978 30.1971C59.0221 29.6066 66.3615 25.7959 74.0463 29.4311C75.8997 29.2345 77.2876 26.1891 77.2876 26.1891L77.2869 26.1898Z" fill="#D2A83E"/>
<path fill-rule="evenodd" clip-rule="evenodd" d="M49.5116 24.7809C49.504 24.7031 49.4868 24.6265 49.4604 24.5529C49.3885 24.4015 49.2941 24.2618 49.1805 24.1385C49.1805 24.1385 47.3578 23.8074 46.4362 23.9105C44.8203 24.0866 43.3601 26.0855 42.6767 27.1109C41.9934 28.1362 41.1441 29.72 40.2225 30.5385C40.2326 30.4588 40.2142 30.378 40.1706 30.3105C40.1706 30.3105 40.2225 30.3829 40.1194 30.4866C40.0164 30.5904 40.0157 30.6416 40.0676 30.6914L40.2232 30.8464C40.2744 30.8464 41.7039 30.204 43.6509 28.3888C45.7221 26.4937 47.3066 25.5216 48.1353 25.1885C48.5773 25.0006 49.0393 24.8639 49.5123 24.7809H49.5116Z" fill="#C29637"/>
<path fill-rule="evenodd" clip-rule="evenodd" d="M84.8679 16.9944C84.8679 16.9944 84.5361 17.4081 84.1218 17.8641C83.2002 18.8376 81.9987 19.9346 80.9733 21.0638C80.0005 22.141 78.9028 22.98 77.6699 24.3883C76.437 25.7967 75.0075 27.36 74.6457 27.816C74.3146 28.272 74.0558 29.0175 74.0558 29.4005C73.8797 29.2762 73.6729 29.1418 73.6729 29.1418C73.7599 29.3043 73.8641 29.4572 73.9835 29.5978C74.2422 29.9603 74.6457 30.417 74.8532 30.6955C75.1078 31.0501 75.2905 31.4511 75.3911 31.8758C75.5154 31.8963 76.3127 32.052 77.3074 30.4156C78.302 28.7793 79.6059 26.9879 79.6059 26.9879L81.6771 23.9118L82.9824 21.3027L84.6208 18.3822L84.87 16.9944H84.8679Z" fill="#AC8132"/>
<path fill-rule="evenodd" clip-rule="evenodd" d="M86.9908 14.9026C86.9908 14.9026 85.7374 15.9266 85.2507 16.541C84.764 17.1554 83.6123 18.7678 83.6123 18.7678L84.0267 18.716L86.1293 16.8523L86.9485 15.3921L86.9901 14.9053L86.9908 14.9026Z" fill="#A88F33"/>
<path fill-rule="evenodd" clip-rule="evenodd" d="M86.607 97.2015C86.607 97.2015 86.5865 96.3522 87.063 95.845C87.5498 95.3371 88.782 94.5917 89.9835 91.7955C91.185 88.9993 91.3188 88.3678 91.3188 88.3678C91.3188 88.3678 89.165 90.211 87.8372 90.6458C88.1478 90.0034 88.3239 89.5481 88.4796 89.2163C88.3035 89.0614 87.558 88.8852 87.4856 88.8026C87.8993 88.3883 88.1273 87.3731 88.9663 86.7C90.0436 85.8808 92.011 84.4732 93.5402 83.2184C95.0694 81.9637 98.0758 79.0453 98.4595 78.196C98.6875 78.5271 98.7387 78.734 98.7387 78.734C98.7387 78.734 97.2273 80.7021 96.4402 81.9548C95.7459 83.0321 95.7978 83.643 95.7978 83.643L97.2273 83.0286C97.2273 83.0286 97.641 84.5612 95.767 86.8919C96.5862 86.5812 96.9167 86.7676 97.3822 86.5082C96.6156 86.9956 95.5595 87.6585 94.5656 89.4805C93.5921 91.3032 92.2663 93.4263 90.0299 94.7514C87.8549 96.1495 86.6016 97.1953 86.6016 97.1953L86.607 97.2015Z" fill="#A67A2E"/>
<path fill-rule="evenodd" clip-rule="evenodd" d="M80.9941 27.2678C80.9941 27.2678 80.1449 29.0379 80.0207 30.4155C80.0002 30.7473 79.9169 31.006 79.9169 31.389C79.8964 32.6212 79.9892 33.9989 79.7121 34.6406C79.6083 34.3818 79.5564 34.2057 79.4527 34.1026C79.2977 34.5375 79.0178 35.8939 78.7898 36.4012C78.6867 36.0701 78.4587 34.9205 78.4799 33.564C78.501 32.2075 78.5311 31.9481 78.5311 31.6689C78.4799 32.0826 78.2 32.6424 78.0962 32.9735C77.9412 32.6943 77.7651 32.3318 77.5576 32.0314C77.4333 32.2362 77.2784 32.5386 77.1439 32.6943C77.1227 32.57 77.0715 32.2383 77.0401 31.7727C77.0196 31.2341 76.9882 30.5405 77.0196 30.3951C77.0708 30.1158 77.5064 29.0181 78.428 28.0132C79.5257 26.8117 80.6548 24.503 80.9859 23.7882C81.317 23.0735 82.7254 20.1018 82.7254 20.1018H83.8026L82.2386 23.664C82.2386 23.664 81.2966 25.6109 80.8098 26.3264C80.3231 27.0418 79.2977 29.0918 78.8417 29.8892C79.1728 29.4543 79.4527 29.2263 79.7844 28.812C80.1053 28.5218 80.9955 27.2691 80.9955 27.2691L80.9941 27.2678Z" fill="#8C6228"/>
<path fill-rule="evenodd" clip-rule="evenodd" d="M87.0115 14.7673C86.8356 15.3089 86.5575 15.8118 86.1923 16.2487C85.5499 17.0154 84.1723 18.04 83.4999 18.8579C82.8855 19.6552 81.6567 21.8302 82.2151 24.4086C82.4199 23.8495 82.8056 22.7416 83.831 21.4882C84.8563 20.2348 85.9541 18.7958 86.4934 17.6775C87.0313 16.5484 87.1037 15.6582 87.1037 15.6582L87.3085 15.3995L87.1842 14.809L87.0081 14.7673H87.0115Z" fill="#CBA94C"/>
<path fill-rule="evenodd" clip-rule="evenodd" d="M107.982 83.4588C107.982 83.4588 107.568 82.3304 107.443 81.305C107.319 80.2796 107.648 80.0762 107.267 78.9027C107.039 78.1879 106.626 78.2883 106.522 78.1879C106.418 78.0876 106.346 77.0076 106.366 76.4171C106.387 75.8266 106.346 75.0606 106.242 74.7289C106.087 74.6046 105.983 74.5008 105.755 73.7349C105.496 72.9683 105.372 72.5853 105.248 72.358C105.124 72.1306 104.76 71.9231 104.76 71.6951C104.76 71.2391 105.175 71.0015 105.175 70.8759C105.154 70.6172 104.844 70.8247 104.76 70.7516C104.657 70.6274 105.02 69.8819 104.885 69.7782C104.834 69.727 104.471 70.1618 104.378 70.0376C104.274 69.9126 104.149 68.6804 103.963 67.8626C103.788 67.0652 103.601 66.4857 103.58 66.2474C103.56 66.0194 102.151 62.0012 101.809 61.0277C101.534 60.2052 101.303 59.3686 101.116 58.5217C101.012 58.0349 100.94 57.0403 100.888 57.144C100.836 57.2478 100.867 57.755 100.784 57.7346C100.712 57.7134 100.453 55.9432 100.37 55.6633C100.298 55.3835 99.8624 54.4345 99.7559 53.7478C99.6521 53.0535 99.4248 51.241 99.2691 50.0088C99.1135 48.7766 99.0411 48.2694 99.0411 47.9608C99.0666 47.2061 99.025 46.4506 98.9169 45.7032C98.7121 44.398 98.3025 42.8135 97.9434 41.8926C97.2498 40.1525 95.4059 35.6994 95.0762 34.5915C95.0762 34.3116 95.4387 34.4672 95.4387 34.4672C95.4387 34.4672 96.3391 36.7248 97.002 38.4642C97.6444 40.2044 98.2553 41.7369 98.411 41.8926C98.5352 42.0476 99.5087 43.7563 99.9436 46.5525C100.378 49.3487 100.533 51.9271 100.793 53.6461C100.917 54.4653 101.021 55.3343 101.28 56.204C101.559 57.1468 101.994 58.1203 102.564 59.6112C103.05 60.8646 103.413 61.9104 103.61 62.8115C103.838 63.9612 103.838 64.8309 103.972 65.4009C104.097 65.8876 104.283 66.8604 104.718 68.2681C105.154 69.6758 105.795 71.4889 106.23 72.6174C107.08 74.875 107.458 76.7598 107.587 77.7647C107.7 78.8003 108.084 82.3836 107.98 83.4602L107.982 83.4588Z" fill="#A88F33"/>
<path fill-rule="evenodd" clip-rule="evenodd" d="M87.0632 14.6432L87.0113 14.7674C87.0113 14.7674 87.1662 14.8193 87.1355 15.0268C87.1377 15.3108 87.1204 15.5945 87.0836 15.8761C87.0324 16.2386 86.9287 16.5178 86.9082 16.7458C86.9082 17.2325 86.9806 17.7916 86.2938 19.1795C86.089 19.5625 85.9627 19.8936 85.8589 20.1216C85.6002 20.6807 85.5483 20.764 85.3203 21.0227C85.6828 20.8179 86.9881 19.9987 87.6502 20.1216C87.1949 20.3803 86.5006 20.8882 86.0658 21.5511C86.1695 21.5716 86.6044 21.6548 87.2946 21.5511C88.4442 21.3749 89.7283 20.9606 90.8567 21.0432C92.0896 21.1155 91.6029 19.5625 91.6029 19.5625L90.1802 16.4352L87.4878 14.5408L87.0632 14.6439V14.6432Z" fill="#BE9C44"/>
<path fill-rule="evenodd" clip-rule="evenodd" d="M94.0842 38.0689C94.0842 38.0689 92.8827 36.8674 92.396 32.7441C91.9093 28.6017 92.013 22.5041 92.013 22.5041L91.0395 20.1223C91.0395 20.1223 90.8347 18.5378 90.3248 17.948C89.8148 17.3582 88.8134 16.3636 88.3573 15.8768C87.9013 15.3901 87.3839 14.7272 87.0732 14.6234C87.2282 14.3647 87.9225 12.9045 90.5835 12.884C93.2446 12.8635 94.0651 14.3442 94.343 14.8828C94.6208 15.4215 95.8755 17.75 96.3411 22.1874C96.776 26.6193 96.7971 26.951 96.7248 28.4836C96.6729 29.3329 96.393 31.3003 95.9056 33.4022C95.4605 35.184 94.9737 37.1726 94.0829 38.073L94.0842 38.0689Z" fill="#A17C34"/>
<path fill-rule="evenodd" clip-rule="evenodd" d="M90.3169 41.6004C90.7173 41.6293 91.1173 41.539 91.4665 41.3409C91.8495 41.3205 93.2374 41.4966 94.3037 40.1401C94.376 40.4501 94.5631 41.2897 94.0757 42.0352C94.3351 41.7758 94.7181 41.6727 94.7699 41.6004C94.7904 41.9833 95.1529 43.1637 93.6203 46.0322C94.034 45.5769 94.5208 45.5974 94.9556 45.5455C94.9768 46.0841 95.2662 47.8959 94.5003 48.8701C93.9931 49.5329 93.1643 49.3254 93.1643 49.3254C93.1764 49.1807 93.1764 49.0353 93.1643 48.8906C93.1438 48.6107 93.0401 48.3315 93.1131 48.1451C92.7126 47.9622 92.3479 47.7095 92.0359 47.3989C91.1347 46.5497 89.9646 45.1004 89.882 44.0231C89.7783 42.8217 90.8555 42.5629 90.8555 42.5629C90.7653 42.4822 90.6883 42.3877 90.6275 42.283C90.5756 42.1076 90.5237 41.8277 90.3169 41.6004Z" fill="#8C6228"/>
<path fill-rule="evenodd" clip-rule="evenodd" d="M82.3296 28.5724C82.3296 28.5724 82.2777 28.5 81.9985 28.8311C82.0504 28.5 82.1023 28.1887 82.1228 27.8884C82.2549 27.6103 82.426 27.3524 82.6307 27.1224C82.475 27.4323 82.3713 27.7122 82.3713 27.7122C82.3713 27.7122 82.7549 26.9975 83.314 26.5626C83.697 26.252 84.1837 26.1073 84.3906 25.8172C84.6186 25.5065 84.5667 25.4547 84.6186 25.4028C84.6186 25.4028 85.1265 25.0717 85.9034 24.0975C86.0065 23.9733 86.1621 23.8388 86.2659 23.7145C86.4413 23.6422 86.8557 23.4558 87.3425 23.2066C87.8504 22.9274 88.4197 22.5444 88.772 22.3874C89.4655 22.0768 90.2015 22.1082 90.5428 21.6208C90.8015 21.5484 91.0807 20.7716 91.0295 20.1094C91.4125 20.2643 93.38 21.4863 94.0537 24.1583C94.5405 26.0534 93.6701 28.9738 93.3076 30.3828C92.9451 31.7918 92.8939 32.837 92.386 33.4787C91.7436 34.3286 89.6731 35.5267 89.1652 36.12C88.7303 36.6067 87.4257 37.8389 87.4769 38.7291C87.5288 39.392 88.3466 39.7531 88.5235 39.8787C88.7003 40.0043 88.6989 40.1586 89.0307 40.0835C89.3625 40.0084 89.486 39.8555 89.6212 39.8555C89.7762 39.876 89.7762 39.9074 89.8485 39.9074C89.901 39.9058 89.9532 39.8987 90.0042 39.8862C90.0042 39.8862 89.9523 40.829 87.7466 41.115C87.5909 41.1362 87.436 41.1874 87.2387 41.2188C87.4981 41.0945 87.6531 41.0945 87.933 40.7116C87.6223 40.6597 86.7315 40.6078 86.5035 40.5354C86.5758 40.4112 86.8141 40.0794 87.0107 39.9245C87.1868 39.7695 86.9902 39.7197 86.8352 39.8002C86.5684 39.9817 86.3124 40.1787 86.0686 40.39C85.8099 40.618 85.5818 40.9287 85.1675 41.2092C85.0432 40.7949 85.0637 40.0077 85.5511 39.4384C85.4262 39.4589 85.188 39.8214 84.9606 39.749C84.9195 39.3713 84.944 38.9893 85.033 38.6199C85.1572 38.1536 85.8303 37.3358 85.8303 37.3358L89.0819 31.5256L89.7755 27.1245L82.3296 28.571V28.5724Z" fill="#92723A"/>
<path fill-rule="evenodd" clip-rule="evenodd" d="M82.1544 28.8208C82.1544 28.8208 81.9782 28.945 82.3305 29.1832C82.2786 29.2556 82.1544 29.5143 81.9987 29.6905C81.8233 29.8953 81.6362 30.0222 81.5639 30.1984C81.4089 30.5609 81.2847 30.8094 81.2847 30.965C81.2847 31.1207 81.2328 32.1146 80.7979 32.7563C80.6423 32.9843 80.4661 33.3673 80.3419 33.626C80.0832 34.0814 79.8552 34.4452 79.8033 34.65C79.7002 35.0125 79.6278 36.0065 79.6278 36.0065C79.6278 36.0065 79.8558 35.7266 79.9384 35.6235C79.8135 35.8823 79.679 36.1615 79.4824 36.369C79.6067 36.2652 79.9692 36.0065 80.5801 35.4679C81.4294 34.7538 82.7551 33.5523 84.371 32.6007C83.8836 32.7768 83.4699 32.7768 83.1388 32.8287C83.3975 32.57 85.7275 29.8359 86.9494 29.5771C87.0236 29.4831 87.0606 29.365 87.0532 29.2454L86.0067 29.1423L83.8836 29.5976L83.5736 27.9592L82.1544 28.8187V28.8208Z" fill="#B18E3E"/>
<path fill-rule="evenodd" clip-rule="evenodd" d="M85.5305 38.1412C85.5305 38.1412 85.2506 38.4205 84.9919 39.1147C84.7927 38.9067 84.6219 38.6733 84.484 38.4205C84.101 37.7788 83.5112 36.9602 82.1336 37.4265C82.1131 36.9916 82.0817 36.7636 82.1336 36.453C82.3616 36.4018 83.0552 35.8427 83.7488 35.0242C84.2362 34.4651 84.6915 33.8227 85.0022 33.0049C85.207 32.8492 85.5613 32.5905 86.0262 32.2901C86.689 31.8348 87.4864 31.2129 87.6106 30.5193C87.3 30.6435 86.6371 30.9541 85.6425 30.9029C86.0262 30.7268 86.616 30.5404 86.5436 29.7738C86.6993 29.67 86.8235 29.5977 86.8235 29.5977C86.7068 29.5587 86.584 29.5412 86.461 29.5458C86.4398 29.4734 86.4091 29.3703 86.233 29.4215C86.0569 29.4727 86.0282 29.4734 86.005 29.5458C85.9326 29.567 85.6944 29.5458 85.5182 29.6707C85.3421 29.7956 84.8554 30.2087 84.669 30.281C84.7414 30.1568 84.8445 29.9711 84.8445 29.9711C84.8445 29.9711 84.3372 30.0223 83.9747 30.1759C83.3119 30.4039 82.5459 30.8183 81.769 31.2217C81.8414 31.0975 81.8728 31.0169 81.924 30.9937C81.9752 30.9705 82.1001 30.9425 82.1001 30.9214C82.1001 30.9002 82.0489 30.7166 82.0797 30.6422C82.3119 30.1501 82.586 29.6789 82.8989 29.2338C83.2613 28.7464 83.3337 28.0528 83.3337 28.0528L84.9182 27.2554L89.3712 26.2314L92.2609 26.4076L91.8985 28.4064L90.1918 31.8962L88.7316 35.0754L87.0638 37.023L85.5312 38.1412H85.5305Z" fill="#543E26"/>
<path fill-rule="evenodd" clip-rule="evenodd" d="M92.7487 29.4912C92.7487 29.4912 91.0086 31.645 90.5218 31.9768C90.8325 31.314 92.7487 27.3681 93.4423 26.2704C93.2873 26.1462 93.0798 26.1462 93.5665 24.2224C93.1528 25.1952 93.0074 25.7031 92.6661 25.9618C92.3248 26.2206 92.2824 26.138 92.0517 26.138C92.0953 26.0592 92.1132 25.9687 92.1029 25.8792C92.1029 25.8792 90.6427 25.7031 89.6453 25.7031C88.6479 25.7031 86.6737 26.2417 85.5752 26.6766C84.7055 27.0391 84.2188 27.0391 83.9082 27.2664C83.5976 27.5252 83.4214 27.805 83.2658 27.8774C83.1415 27.9498 82.5517 28.1361 82.4165 28.3327C82.2923 28.5375 82.0855 28.7676 82.0855 28.8195C82.0855 28.8714 82.0336 28.9444 82.1892 28.8919C82.2404 28.8714 82.6241 28.6638 83.0589 28.4051C83.6488 28.074 84.3635 27.691 84.8817 27.463C86.3624 26.8725 86.8286 26.9763 87.4908 26.852C88.1844 26.7278 89.179 26.4377 89.8412 26.4377C90.5041 26.4172 91.7575 26.4377 92.0476 26.4895C91.9234 26.5933 91.8196 26.7176 91.8715 27.1524C91.8715 27.2767 91.7677 27.4111 91.6667 27.7115C91.3567 28.5608 90.7662 29.9691 90.4379 30.6839C89.9825 31.6567 89.4651 32.4752 89.2091 32.9824C88.9531 33.4896 88.3899 34.8256 87.8321 35.5403C87.2744 36.2551 86.9829 36.69 86.8081 36.8456C86.6334 37.0012 85.3786 37.9222 85.4722 38.2539C85.7002 38.1816 87.1399 37.6395 88.1851 36.4626C89.2302 35.2857 89.4385 34.5675 90.2563 33.9252C91.0741 33.2828 91.7165 32.2062 92.0995 31.316C92.4203 30.4872 92.348 30.2285 92.7514 29.4933L92.7487 29.4912Z" fill="#806031"/>
<path fill-rule="evenodd" clip-rule="evenodd" d="M55.2495 45.5667C55.2495 45.5667 55.0215 46.5088 54.5033 46.975C53.9961 47.4311 53.095 47.8243 52.9919 48.5909C52.8676 49.3569 53.893 49.7405 53.893 49.7405C53.893 49.7405 53.3332 50.6621 53.3332 51.3557C53.3332 52.0705 53.3127 52.2049 53.3851 52.8883C53.303 52.9411 53.2331 53.011 53.1803 53.0931C53.1803 53.0931 53.2315 53.756 53.7394 54.1697C54.2473 54.5834 54.6815 54.8325 54.9402 54.7288C54.9797 54.8132 55.0144 54.8998 55.044 54.9882C55.044 54.9882 55.4276 54.0147 55.6864 53.1655C55.9451 52.2957 56.1731 52.4193 56.2762 51.2492C56.3793 50.0791 57.505 48.07 57.505 48.07L58.273 46.3531L57.0203 45.3796L55.2495 45.566V45.5667Z" fill="#B6903C"/>
<path fill-rule="evenodd" clip-rule="evenodd" d="M57.5797 47.2542C57.3213 47.5193 57.0829 47.8032 56.8663 48.1034C56.5352 48.5594 56.2765 48.9731 55.7897 49.1499C55.303 49.3267 54.9924 49.3254 55.0231 49.8128C55.0538 50.3002 55.5098 50.5064 55.7686 50.7549C56.0484 51.0136 56.2765 51.4485 56.1522 51.9359C56.3072 51.8635 56.5871 51.7802 56.8458 51.2211C57.1045 50.662 58.9143 47.2548 58.9143 47.2548H57.5797V47.2542Z" fill="#685026"/>
<path fill-rule="evenodd" clip-rule="evenodd" d="M64.7167 39.3941C64.7167 39.3941 64.8716 38.9804 64.7167 38.68C64.561 38.3694 63.6189 38.2656 63.1527 37.9134C62.6659 37.5509 62.0754 37.299 61.5887 37.458C61.6611 37.2819 61.9512 36.8982 61.7129 36.8156C61.4849 36.7433 60.6364 37.1262 60.4084 37.3024C60.1803 37.4785 59.6622 37.6853 59.5591 37.8103C59.456 37.9352 59.2792 38.1728 59.1755 38.069C59.0717 37.9966 59.0205 37.8103 58.8444 37.9134C58.6682 38.0164 57.8204 38.7107 57.664 39.1149C57.5077 39.519 57.1561 40.4201 56.1 41.4448C55.044 42.4695 54.5879 43.133 54.8986 43.516C55.2092 43.899 55.3546 43.6198 55.4065 43.9509C55.4464 44.2759 55.4288 44.6054 55.3546 44.9243C55.2303 45.463 55.0235 45.9702 55.3027 46.074C56.0174 46.302 56.7117 45.8692 56.8667 46.0016C57.1773 46.2808 56.6906 47.2857 57.4258 47.4823C58.1719 47.6871 58.9072 47.3062 58.9072 47.3062L61.6201 45.8459L64.2299 44.469L65.5652 41.8278L64.8491 39.6221L64.7126 39.3941H64.7167Z" fill="#D4B968"/>
<path fill-rule="evenodd" clip-rule="evenodd" d="M62.157 45.7012C62.157 45.7012 61.701 45.0076 62.2608 44.3959C62.8206 43.7842 63.6173 43.5262 63.9279 43.1432C63.8687 43.0703 63.7894 43.0164 63.6999 42.9882C63.906 42.6193 64.2206 42.3226 64.601 42.1383C64.446 41.9834 64.2385 41.8591 64.0112 41.8591C63.5033 41.8591 63.192 42.1697 62.7264 42.1697C62.271 42.1697 62.2192 41.9417 62.2192 41.9417C62.2192 41.9417 62.9858 41.8694 62.9128 41.5273C62.8404 41.1648 62.708 41.1648 62.708 41.1648C62.708 41.1648 64.1887 40.5504 64.4474 40.2228C64.7061 39.8951 64.6754 39.508 64.7273 39.353C64.9027 39.353 65.9281 38.8144 66.3425 39.0424C66.7568 39.2704 66.4667 39.8917 66.4667 39.8917C66.4667 39.8917 67.7208 38.9489 68.3597 38.0246C68.9189 38.0765 69.1789 37.6416 69.5885 37.6416C70.0965 37.6416 70.8938 38.3352 71.0488 39.8159C71.1525 40.6651 71.3075 41.1519 71.1525 42.6537C71.0802 43.503 71.1007 45.3161 71.3573 46.2159C71.5328 46.9306 71.9472 46.8583 71.9472 46.8583C71.8836 47.0761 71.7576 47.2705 71.5847 47.4174C71.3048 47.6761 71.2741 48.3602 71.3048 48.6189C71.346 48.808 71.398 48.9947 71.4604 49.178C71.4604 49.178 71.1293 49.561 71.046 49.8204C70.9737 50.0791 70.6323 50.2552 70.3832 50.2552C70.134 50.2552 70.2589 50.2341 69.9278 50.2552C69.5967 50.2764 69.493 50.3276 69.2854 50.2552C69.0779 50.1829 68.9229 50.0996 69.0062 49.436C69.0786 48.7732 66.4483 47.2303 66.4483 47.2303L62.1475 45.6978L62.157 45.7012Z" fill="#CCA849"/>
<path fill-rule="evenodd" clip-rule="evenodd" d="M57.2168 52.2459C57.2168 52.2459 58.1589 53.4993 62.0323 53.4993C63.8755 53.4993 64.5179 53.3232 64.8995 53.2194C65.3139 53.1156 66.867 52.5053 68.431 50.6614C69.8393 48.9944 69.5287 48.311 69.5287 48.311L68.7095 48.1868L66.0471 48.5493L58.1691 51.9046L57.2134 52.2459H57.2168Z" fill="#585136"/>
<path fill-rule="evenodd" clip-rule="evenodd" d="M60.1063 52.5565C60.1063 52.5565 56.751 53.3027 56.751 51.1796C56.751 49.1084 58.8222 46.9334 59.3403 46.5504C59.879 46.1667 61.1631 45.7312 61.1631 45.7312H64.2596L64.8495 47.2952L64.5907 50.671L60.1063 52.5558V52.5565Z" fill="#252211"/>
<path fill-rule="evenodd" clip-rule="evenodd" d="M63.2025 46.3639C63.2025 46.3639 62.5608 45.7734 61.1006 46.5687C59.6403 47.3641 58.4593 49.0264 58.387 50.5357C58.3146 51.871 59.4847 52.8657 61.3074 52.9175C62.6639 52.9687 63.4824 52.8138 63.8968 52.7127C63.793 52.5885 63.2544 51.9154 63.2544 51.9154L63.2032 46.3646L63.2025 46.3639Z" fill="#C3B378"/>
<path fill-rule="evenodd" clip-rule="evenodd" d="M62.5711 46.6944C62.5711 46.6944 62.4161 46.5701 61.9567 46.8186C61.5737 47.0234 61.0146 47.5648 60.5798 47.9478C60.2999 48.1758 60.1237 48.2789 59.9654 48.455C59.323 49.2216 58.7843 50.475 59.0956 51.0962C59.4069 51.7175 60.4316 52.4322 63.0415 51.9455L62.5636 46.6951L62.5711 46.6944Z" fill="#E6D89C"/>
<path fill-rule="evenodd" clip-rule="evenodd" d="M61.7218 47.9791C61.7218 47.9791 61.3074 48.6215 61.3074 49.6469C61.3074 50.6927 61.8979 52.3598 64.0729 52.484C65.74 52.5878 66.8582 50.0817 68.0699 49.1082C68.9915 48.3628 69.5506 48.3416 69.5506 48.3416C69.5506 48.3416 68.6086 47.3176 66.0923 45.9912C63.6067 44.6552 60.8207 44.4791 59.3086 46.5298C60.0233 46.4779 62.3328 45.8874 62.3328 45.8874L63.4619 46.2499L61.7218 47.9798V47.9791Z" fill="#252211"/>
<path fill-rule="evenodd" clip-rule="evenodd" d="M64.9736 49.3356C64.9012 49.1806 64.8493 48.9731 65.1497 48.9219C65.4501 48.8707 65.5845 48.9008 65.6883 49.1267C65.7921 49.3527 65.8931 49.5411 65.7395 49.6346C65.5845 49.7172 65.1804 49.6346 64.9729 49.3342L64.9736 49.3356ZM64.4868 47.8754C64.4868 47.8754 64.3831 47.9477 64.4349 47.803C64.4554 47.6276 64.5906 47.3163 64.9217 47.3893C65.2528 47.4624 65.1811 47.8242 65.1265 47.928C65.0719 48.0317 64.7954 48.2072 64.5879 48.1328C64.5615 48.126 64.5372 48.1132 64.5168 48.0953C64.4964 48.0774 64.4804 48.0549 64.4703 48.0297C64.4602 48.0045 64.4562 47.9773 64.4586 47.9502C64.461 47.9232 64.4697 47.8971 64.4841 47.874L64.4868 47.8754Z" fill="#6F674D"/>
<path fill-rule="evenodd" clip-rule="evenodd" d="M36.4546 48.5377C36.4546 48.5377 37.2738 49.1521 38.2254 49.1282C39.1675 49.107 40.3792 48.1342 40.9383 47.5123C41.2694 47.1498 41.5527 46.7669 41.8599 46.4665C42.1194 46.2078 42.2948 46.0835 42.419 45.9074C42.5952 45.7026 42.7815 45.3176 42.8751 45.1926C42.6471 45.3688 42.316 45.68 41.9739 45.8869C41.6429 46.0917 40.9281 46.4767 40.638 46.5805C40.3588 46.6843 37.4588 48.2189 37.4588 48.2189L36.4546 48.5377Z" fill="#AC924C"/>
<path fill-rule="evenodd" clip-rule="evenodd" d="M37.7065 40.8855C37.7065 40.8855 38.1619 40.5749 39.0425 40.3776C39.8918 40.1728 41.6005 40.0151 41.6005 40.0151L43.0088 40.6295L43.5679 42.7526L42.5439 44.959L41.2393 45.7782L39.758 43.3964L37.71 40.8896L37.7065 40.8855Z" fill="#9F8E57"/>
<path fill-rule="evenodd" clip-rule="evenodd" d="M35.8634 42.7808L35.376 43.1446C35.376 43.1446 35.5009 42.9166 35.604 42.223C35.7071 41.5294 36.2464 39.8412 37.0335 38.8677C37.8206 37.8942 37.8001 37.9461 37.8001 37.9461C37.7277 37.9329 37.6533 37.9352 37.5818 37.953C37.5104 37.9708 37.4435 38.0036 37.3857 38.0492C37.4895 37.8198 38.1524 37.0006 38.8153 36.591C39.4781 36.1814 39.7368 36.0524 40.4304 36.3862C41.124 36.7201 41.3002 36.8935 41.8081 36.873C42.316 36.8525 42.7501 36.3139 42.7501 36.3139C42.7501 36.3139 42.8539 36.645 42.4709 37.4116C42.088 38.1782 40.5758 39.7415 40.5758 39.7415L37.4274 41.8954L35.8634 42.7828V42.7808Z" fill="#EAC970"/>
<path fill-rule="evenodd" clip-rule="evenodd" d="M38.1927 40.6269C38.1927 40.6269 40.4714 40.9375 41.165 40.2958C41.1855 40.3682 41.2688 40.3682 41.2688 40.4201C41.2632 40.4592 41.245 40.4954 41.2169 40.5232C41.2923 40.5111 41.3685 40.5043 41.4449 40.5027C41.5361 40.5298 41.6299 40.5472 41.7248 40.5546C41.8012 40.5529 41.8774 40.5458 41.9528 40.5334C41.9456 40.5849 41.9281 40.6344 41.9014 40.6789C41.8746 40.7235 41.8392 40.7622 41.7972 40.7928C41.9009 40.7928 42.002 40.8133 42.002 40.8959C42.002 40.9785 42.0224 41.2277 41.8982 41.2796C41.7953 41.308 41.6857 41.3006 41.5876 41.2584C41.5958 41.4545 41.649 41.646 41.7432 41.8182C41.948 42.2012 42.3849 42.6374 42.972 42.5118C42.972 42.5118 43.282 43.2572 41.9774 44.9141C41.8019 45.1421 41.6149 45.4527 41.3876 45.7114C41.2977 45.9072 41.2291 46.112 41.1828 46.3224C41.1828 46.3224 43.3891 45.4732 44.0206 43.5364C44.663 41.5895 44.7872 39.6739 44.663 37.8826C44.6418 37.3747 44.5592 37.0129 44.435 36.7535C44.1244 36.1111 43.254 36.2148 42.9024 36.5773C42.3945 37.0852 41.5453 38.3482 40.3649 39.2179C39.1634 40.0876 39.1122 40.2419 38.1899 40.6269H38.1927Z" fill="#D7BC6B"/>
<path fill-rule="evenodd" clip-rule="evenodd" d="M35.4591 43.423C35.4591 43.423 35.0242 43.6817 34.7962 44.6518C34.5682 45.6458 35.001 46.8575 35.2515 47.2405C35.5021 47.6235 36.0707 48.67 37.2504 48.7219C37.5424 48.7203 37.8311 48.6604 38.0996 48.5457C38.5114 48.3569 38.8977 48.1168 39.2492 47.831C39.7571 47.448 40.1708 47.1169 40.1189 47.0855C39.9947 47.0336 36.9917 44.548 36.9917 44.548L35.8625 43.2878L35.4584 43.4244L35.4591 43.423Z" fill="#585136"/>
<path fill-rule="evenodd" clip-rule="evenodd" d="M38.2976 47.5444C38.2976 47.5444 38.9085 47.4932 39.271 47.2652C39.6335 47.0372 37.1479 44.5728 37.1479 44.5728L37.3241 47.2352L38.2976 47.5444Z" fill="#453A25"/>
<path fill-rule="evenodd" clip-rule="evenodd" d="M35.6558 43.236C35.6558 43.236 35.3452 43.8265 35.3452 43.9821C35.2933 44.4893 35.449 46.084 35.5732 46.5913C35.6975 47.1299 36.3706 47.9477 37.241 47.9477C37.7789 47.9477 38.5251 47.6166 38.5251 47.534C38.5251 47.4303 37.7584 47.3292 37.5516 46.9435C37.4273 46.7387 37.3755 46.2295 37.3468 45.7147C37.3263 45.3836 37.3263 45.0211 37.4506 44.8955C37.7305 44.5849 37.7817 43.694 37.7817 43.694L38.7756 41.8474H37.4683L35.9043 42.8209L35.6558 43.236Z" fill="#84754B"/>
<path fill-rule="evenodd" clip-rule="evenodd" d="M35.2725 43.8061C35.2725 43.8061 36.2965 42.4497 37.2194 42.1384C38.1424 41.8271 38.5554 42.0141 38.5554 42.0141L38.0168 43.3917L37.2501 44.241L37.302 44.6758C37.302 44.6758 37.1771 45.8254 37.9437 46.6228C38.7104 47.4202 39.2797 47.3894 39.6115 47.3894C39.9433 47.3894 40.8956 47.1095 41.3823 45.9599C41.8172 44.8834 42.1797 43.5023 41.31 42.1179C40.46 40.7403 38.9589 40.687 38.6687 40.687C38.3786 40.687 36.1005 40.801 35.2725 43.8041V43.8061Z" fill="#252211"/>
<path fill-rule="evenodd" clip-rule="evenodd" d="M61.5663 48.4141C61.1833 48.238 61.5458 47.1614 61.9288 46.8296C62.3118 46.4979 62.7985 46.1156 63.6484 46.063C63.9584 46.0425 64.2587 46.2391 64.2075 46.4467C64.1352 46.8296 63.5966 47.3683 63.1098 47.7512C62.4367 48.2796 62.0012 48.6107 61.5663 48.4141Z" fill="#F7F7E7"/>
<path fill-rule="evenodd" clip-rule="evenodd" d="M40.8543 42.5423C41.1342 42.5218 41.4967 42.7471 41.569 43.0502C41.6414 43.3813 41.3929 44.0442 40.8543 44.0442C40.4194 44.0442 40.1914 43.5056 40.1914 43.3506C40.1963 43.2232 40.2319 43.0988 40.2952 42.9881C40.3157 42.9567 40.3675 42.5942 40.8543 42.5423Z" fill="#F8F6DE"/>
<path fill-rule="evenodd" clip-rule="evenodd" d="M36.8157 42.7808C36.8157 42.7808 36.101 43.1119 35.7699 43.8048C35.5333 44.3164 35.4617 44.889 35.5651 45.4432C35.617 45.7019 35.8757 46.3436 36.0518 46.5716C36.228 46.7996 36.4662 46.9553 36.6423 46.9341C36.8185 46.9129 37.1803 46.4474 37.1803 46.1682C37.1803 45.8889 37.2015 44.7079 37.5428 44.0655C37.8432 43.4238 36.8178 42.7814 36.8178 42.7814L36.8157 42.7808Z" fill="#D4C38B"/>
<path fill-rule="evenodd" clip-rule="evenodd" d="M36.9192 42.7288C36.795 42.8012 36.5881 42.905 36.6393 43.0395C36.6912 43.1637 37.1261 43.2443 37.2817 43.5474C37.4579 43.858 37.4579 44.1891 37.406 44.3447C37.5412 44.2805 37.664 44.1926 37.7685 44.0853C37.9965 43.8266 38.2757 43.475 38.5139 43.475C38.6696 43.475 38.8245 43.5474 38.97 43.5474C39.198 43.5474 39.4253 43.475 39.4567 43.2368C39.5079 42.9261 39.0218 42.6462 38.7419 42.6981C38.7938 42.4933 38.8662 42.1909 38.6382 41.9834C38.4102 41.7758 37.6961 42.139 37.5405 42.2428C37.3848 42.3466 36.9192 42.7295 36.9192 42.7295V42.7288Z" fill="#E2D59D"/>
<path fill-rule="evenodd" clip-rule="evenodd" d="M53.3748 64.4868L54.9074 64.0342L55.3422 64.3448C55.3422 64.3448 55.6522 65.0077 56.1396 65.0903C55.9839 65.4214 55.5798 65.7047 55.601 65.9395C55.6221 66.1743 55.829 66.3539 55.829 66.3539C55.829 66.3539 54.4514 68.6319 57.165 70.9277C56.5226 71.1865 55.7047 71.5421 55.2699 71.7469C55.5798 71.8193 56.2427 71.9518 56.5226 72.203C56.8025 72.4542 56.8025 72.5341 57.0612 72.6897C57.3199 72.8454 57.4749 73.0522 57.4237 73.145C57.2476 73.0413 56.657 72.7314 56.554 73.0208C56.4509 73.3103 53.996 73.1969 53.996 73.1969L49.8536 73.9943C49.8536 73.9943 50.0086 73.5799 49.5737 73.1969C49.0665 72.7416 48.4452 73.2174 47.7824 72.7102C46.9127 72.0473 46.8813 71.2807 46.6021 70.9912C46.8813 70.8151 47.4513 70.5564 48.8077 70.3768C48.7559 70.2731 48.5797 69.9625 48.6835 69.6832C48.8077 69.3208 49.3252 69.0927 49.1702 68.6592C49.3983 68.6074 49.5013 68.6074 50.0714 67.8926C50.61 67.1779 50.9411 67.0229 51.3555 66.971C51.7698 66.9191 52.0183 66.971 52.785 66.2563C53.3229 65.749 53.1475 65.3142 53.1475 65.3142C53.1475 65.3142 53.499 65.2002 53.3755 64.4854L53.3748 64.4868Z" fill="#CBAC5A"/>
<path fill-rule="evenodd" clip-rule="evenodd" d="M48.8496 64.7167C48.87 64.613 48.9533 64.5611 49.5124 64.613C50.0715 64.6648 53.6132 64.2819 54.5765 64.23C55.5499 64.1576 58.9776 64.2088 60.6454 64.5611C62.3131 64.9133 64.0007 65.3277 64.8185 65.5346C65.6377 65.7626 65.8958 65.8445 65.8643 65.9483C65.8439 66.052 65.6596 66.1531 65.5537 66.1244C65.4507 66.1039 62.7371 65.2752 61.8987 65.1004C61.0604 64.9256 58.1598 64.458 56.5739 64.486C55.0932 64.5072 54.5027 64.4655 53.25 64.6102C51.9967 64.7659 49.9254 64.9727 49.3042 64.8901C48.6898 64.8178 48.8168 64.8178 48.8482 64.714L48.8496 64.7167Z" fill="#D6BC6F"/>
<path fill-rule="evenodd" clip-rule="evenodd" d="M57.1856 72.8337C57.1856 72.8337 59.3087 73.9833 60.0753 75.3916C60.6344 76.4374 59.7442 76.9556 59.7442 76.9556C59.7442 76.9556 60.9457 76.9556 60.79 77.6185C60.7177 78.0322 58.7188 79.1504 57.3829 79.7409C56.0264 80.3314 56.0783 80.3007 55.4154 80.4037C54.773 80.5075 53.0124 80.1989 52.6499 80.7144C52.2874 81.2298 52.4451 81.7609 52.5462 81.8435C52.6499 81.9158 53.4889 82.0196 53.4889 82.0196C53.4889 82.0196 53.3128 82.5064 51.5734 82.5582C49.8339 82.6101 49.3984 82.7337 49.2946 82.9207C49.1909 83.0962 49.6257 82.9931 50.4238 83.1255C51.2211 83.2498 52.3393 83.3303 52.3393 83.3303C52.3393 83.3303 51.9768 83.6409 51.0347 83.8894C49.9575 84.1686 48.2693 84.4281 47.762 84.7387C48.0208 84.9148 48.4044 85.1735 48.5812 85.194C48.1464 85.2978 47.5347 85.5258 47.4316 85.6084C47.5866 85.7122 47.7941 85.8364 47.7941 85.8364C47.7941 85.8364 46.9237 86.8822 46.4165 87.1417C45.9093 87.4011 42.9888 88.7569 41.9839 88.4981C39.4779 87.8353 39.1673 85.0909 38.5563 84.8841C37.6347 84.5735 37.1998 85.194 36.3813 84.7592C36.7438 84.5004 36.9411 84.3455 37.3241 84.1693C36.9097 83.9645 34.7661 82.6053 34.7661 82.6053C34.5419 82.1168 34.2931 81.6399 34.0206 81.1765C33.6063 80.4618 32.9966 79.5088 32.5392 78.6698C31.5453 76.8266 31.4934 75.9773 30.5923 74.9315C30.7479 74.7267 31.2859 74.7554 31.2859 74.7554L38.8362 77.2409L52.2239 77.6287L55.7055 72.6582L57.1862 72.8343L57.1856 72.8337Z" fill="#DFC677"/>
<path fill-rule="evenodd" clip-rule="evenodd" d="M37.354 80.4141C37.4348 80.504 37.529 80.5809 37.6332 80.6421C37.8926 80.8183 38.2756 81.0258 38.5343 81.3357C38.6381 81.1808 38.8968 80.9009 39.3535 81.3357C39.8102 81.7706 40.3775 81.4607 40.7305 81.5637C41.093 81.6887 41.1134 81.7399 41.1134 81.7399C41.1134 81.7399 41.3183 81.5637 41.7763 81.3774C42.0562 81.2736 42.3873 81.2012 42.7498 81.0982C43.0809 81.0258 43.4434 80.922 43.6926 80.922C43.9206 81.077 44.7384 81.946 48.0214 80.6633C51.1179 79.4618 51.832 79.3273 52.3501 79.513C52.402 79.3888 52.4539 79.1505 53.2513 79.1819C53.2513 78.8508 52.5884 77.7217 52.5884 77.7217L48.9327 76.469H46.9332L40.9373 77.5667L37.6148 79.4625L37.3561 80.4182L37.354 80.4141Z" fill="#C4A859"/>
<path fill-rule="evenodd" clip-rule="evenodd" d="M35.3555 78.3121C35.3555 78.3121 35.4278 78.8712 36.2566 79.4617C37.0758 80.0516 37.3332 80.4038 37.3332 80.4038C37.3332 80.4038 37.4888 80.199 37.613 79.9901C37.7373 79.7621 37.8411 79.5034 38.0479 79.431C38.4623 79.2549 39.4044 79.586 39.6119 79.5341C39.788 79.4829 39.7361 79.1204 39.9225 79.1204C40.3574 79.0992 40.6366 79.3996 40.7922 79.3996C40.9479 79.3996 41.3302 79.3791 41.382 79.2965C41.4339 79.2139 41.4544 78.3538 42.0449 77.9394C42.6873 77.484 43.4744 77.6807 43.6833 77.7844C43.6833 77.9394 43.7038 78.323 44.1182 78.3435C44.5326 78.364 44.5735 78.2916 44.9374 78.4159C45.3012 78.5401 45.7347 78.3954 45.9313 79.0057C46.1075 78.9545 46.5218 78.9026 46.4181 78.3121C46.6229 78.1572 46.8017 78.0534 47.2373 77.4424C47.341 77.2874 47.5165 77.1113 47.6517 76.8833C48.0142 76.8833 48.449 76.8109 49.0286 77.3182C48.8525 77.4424 48.7487 77.523 48.6975 77.6492C48.8491 77.7993 48.9875 77.9622 49.1112 78.136C49.2669 78.3408 49.3706 78.592 49.5672 78.6439C50.0021 78.7681 50.7168 78.592 51.5142 78.6439C52.2808 78.6958 52.9225 78.975 53.2024 79.1511C53.3062 79.0999 53.3062 79.0788 53.5649 79.1306C53.8236 79.1825 54.0203 79.203 53.741 78.8719C53.896 78.9443 54.0721 79.0999 54.2278 78.9443C54.3834 78.7886 54.507 78.5613 54.9419 78.5094C55.3767 78.4575 55.5324 78.5299 55.7085 78.0746C55.9365 77.5154 55.1494 77.5154 55.1494 77.5154C55.1494 77.5154 55.5119 77.1837 55.916 76.7488C56.4028 76.2935 56.9619 75.703 57.0964 74.978C57.3244 73.642 56.0198 73.4666 56.0198 73.4666L49.6921 75.4135L41.9562 75.0299L35.3596 78.3128L35.3555 78.3121Z" fill="#927D49"/>
<path fill-rule="evenodd" clip-rule="evenodd" d="M29.6702 60.0337C29.6702 60.0337 29.4654 60.2924 29.3391 60.9034C29.2128 61.5144 29.2668 61.442 29.163 61.8769C29.0592 62.3117 27.7847 66.6405 28.2626 68.1007C28.7404 69.561 29.5678 70.0996 30.0853 71.2799C30.1891 71.5386 30.2901 71.6943 30.344 71.9223C30.5201 72.6883 30.3652 73.2788 30.572 74.0454C30.6444 74.3041 30.8314 74.6045 31.1106 74.9151C31.725 75.5568 32.7265 76.1678 33.1586 76.6027C33.769 77.245 34.6394 78.5503 35.7473 78.6739C36.3378 78.7462 37.1768 78.4977 37.8704 78.0841C38.4848 77.7004 38.8644 77.1625 39.5088 76.8553C39.9642 76.6272 40.4509 76.5446 40.8858 76.4409C41.7869 76.2647 42.6054 76.2361 43.0921 76.3371C43.8376 76.4927 45.5982 77.0314 46.5737 77.0314C47.336 77.0191 48.094 76.9148 48.8313 76.7208C50.312 76.2859 52.1033 75.5397 53.2843 75.2087C53.9779 75.0039 54.537 74.9499 55.1071 74.8257C56.0805 74.5977 56.8984 74.2871 57.3646 73.6966C57.054 73.3341 56.6711 72.7749 54.5992 72.7954C52.2487 72.8473 49.5351 74.1519 48.1992 74.3594C46.8632 74.5669 46.2836 74.7424 44.792 74.2038C43.3297 73.6597 43.2812 73.2999 43.2812 73.2999C43.2812 73.2999 41.7459 72.2261 41.1035 69.4886C40.4611 66.7511 41.1035 64.7563 42.7713 62.8606C43.2061 62.3738 43.1024 61.939 43.1024 61.939C43.1024 61.939 44.2001 60.4583 43.8997 59.0718C43.5686 57.6942 41.4455 57.974 41.4455 57.974L29.6709 60.0337H29.6702Z" fill="#6E6342"/>
<path fill-rule="evenodd" clip-rule="evenodd" d="M31.4411 64.6423C31.3498 64.814 31.3068 65.0073 31.3169 65.2014C31.3373 65.4806 31.4206 65.8431 32.2589 66.6617C32.9737 67.3757 32.818 68.1731 32.818 68.1731C32.818 68.1731 33.1778 68.2455 34.154 67.7887C34.9206 67.4263 35.178 68.0686 35.178 68.0686C35.4012 67.9516 35.6431 67.8745 35.8928 67.8406C36.119 67.8198 36.338 67.7499 36.5345 67.6358C36.5345 67.6358 37.4356 68.5574 38.2227 68.9923C38.9375 69.3759 39.3518 69.6347 39.7041 69.3759C40.0352 69.1479 40.0352 68.6817 40.014 68.4748C39.9319 68.2839 39.8279 68.1032 39.7041 67.9362C39.4761 67.6051 39.1136 67.2214 39.0897 66.9122C39.0378 66.1981 39.6283 65.3482 39.5034 65.1414C39.3785 64.9345 38.9136 64.8826 37.764 65.297C36.5734 65.6902 31.4363 64.6444 31.4363 64.6444L31.4411 64.6423Z" fill="#39331F"/>
<path fill-rule="evenodd" clip-rule="evenodd" d="M34.154 69.2716C34.154 69.2716 33.5642 68.7125 33.771 65.9989C34.0214 65.9952 34.2715 66.0195 34.5165 66.0713C34.5165 66.0713 34.838 68.1739 34.154 69.2716Z" fill="#292311"/>
<path fill-rule="evenodd" clip-rule="evenodd" d="M29.9498 57.9625C30.0321 57.9016 30.1084 57.8331 30.1778 57.7577C29.973 58.1407 29.0275 59.6733 29.7941 62.0865C30.5608 64.4888 32.4866 66.2802 34.8582 66.3634C37.2298 66.4467 38.4763 65.2862 39.9017 63.5468C40.4608 62.8532 41.1032 61.9828 41.6725 61.3929C42.5218 60.4707 43.1847 60.2119 43.1847 59.3217C43.1847 57.499 41.3203 56.6805 38.576 55.8627C35.8317 55.0448 33.3563 55.1459 32.0722 55.7056C30.8195 56.316 30.2809 56.9583 29.9491 57.9632L29.9498 57.9625Z" fill="#252211"/>
<path fill-rule="evenodd" clip-rule="evenodd" d="M38.7623 70.0893L38.9671 69.9855C38.9671 69.9855 39.0183 69.1663 39.3501 69.1882C39.6812 69.2401 39.8368 69.6756 39.8054 69.8306C39.7849 69.9855 39.7023 70.2449 39.3706 70.2135C38.9357 70.2238 38.7603 70.0893 38.7603 70.0893H38.7623Z" fill="#3F3824"/>
<path fill-rule="evenodd" clip-rule="evenodd" d="M37.8408 66.6099C37.8408 66.6099 38.0456 66.5375 38.2962 66.786C38.501 66.786 39.3939 66.6823 39.6738 66.8584C39.9537 67.0345 40.0363 67.1895 40.0363 67.1895C40.0363 67.1895 38.9904 67.4175 38.4204 67.1895C37.8408 66.9929 37.8408 66.6099 37.8408 66.6099Z" fill="#2D2815"/>
<path fill-rule="evenodd" clip-rule="evenodd" d="M42.4495 66.7648C42.4495 66.713 41.8904 66.33 41.2999 66.2051C41.1961 66.1846 41.1749 66.2569 41.0951 66.2569C41.0432 66.2365 41.0227 66.0808 41.0227 66.0808L40.6868 66.2576C40.6868 66.2576 40.6349 66.33 40.8111 66.4624C40.966 66.5867 41.2254 66.6904 41.2978 66.8973C41.3702 67.1041 41.3702 67.1765 41.4016 67.2079C41.422 67.2284 41.7845 67.2079 41.9607 67.1041C42.1368 67.0004 42.4686 66.8311 42.4474 66.7628L42.4495 66.7648Z" fill="#82764F"/>
<path fill-rule="evenodd" clip-rule="evenodd" d="M37.2197 68.8674C37.2197 68.8674 37.3228 68.1533 38.0171 68.1219C38.7312 68.07 38.8663 68.7636 38.8663 68.7636L38.4519 69.178C38.4519 69.1678 38.1413 68.7329 37.2231 68.8674H37.2197Z" fill="#2D2816"/>
<path fill-rule="evenodd" clip-rule="evenodd" d="M41.7247 65.7914C41.7247 65.7914 41.341 66.2058 40.4925 66.3301C40.4201 66.2263 40.2644 66.0194 40.4925 65.6884C40.7205 65.3573 40.9792 65.2535 41.2379 65.3566C41.3521 65.3751 41.4586 65.4259 41.5448 65.5029C41.6311 65.58 41.6935 65.6801 41.7247 65.7914Z" fill="#574F35"/>
<path fill-rule="evenodd" clip-rule="evenodd" d="M43.2877 66.2992C43.3089 66.1955 43.2365 66.175 43.2877 66.1231C43.3389 66.0712 43.6195 65.9682 43.6714 66.0194C43.6919 66.0405 43.6714 66.1231 43.6714 66.2242C43.6714 66.3252 43.6714 66.429 43.6195 66.5034C43.5472 66.6071 43.3403 66.659 43.2365 66.6283C43.1328 66.5976 43.1123 66.4522 43.1123 66.4235C43.1635 66.403 43.2877 66.3511 43.2877 66.2992ZM45.0559 65.181C45.0559 65.1292 45.232 65.0254 45.3357 65.0254C45.4907 65.0254 45.4907 65.1496 45.5119 65.181C45.5631 65.2015 45.5631 65.1599 45.615 65.2534C45.6668 65.3469 45.7399 65.5121 45.6873 65.6159C45.6348 65.7197 45.4286 65.7913 45.3774 65.7709C45.305 65.719 45.077 65.2534 45.0559 65.181Z" fill="#82764F"/>
<path fill-rule="evenodd" clip-rule="evenodd" d="M41.4966 66.5375C41.4966 66.5375 41.7246 66.5887 42.0352 66.8482C41.9314 66.9205 41.7758 67.0031 41.7758 67.0031C41.7758 67.0031 41.7553 66.7649 41.4966 66.5369V66.5375Z" fill="#6E6342"/>
<path fill-rule="evenodd" clip-rule="evenodd" d="M40.9891 64.2587C40.9373 64.2075 41.1441 64.0833 41.2684 64.1038C41.3926 64.1242 41.4445 64.2075 41.579 64.228C41.7135 64.2485 41.7346 64.1761 41.7838 64.1242C41.8329 64.0724 42.0118 64.1038 42.0425 64.1242C42.0616 64.147 42.079 64.1712 42.0944 64.1966C42.0965 64.1572 42.1068 64.1187 42.1246 64.0835C42.1423 64.0482 42.1671 64.017 42.1975 63.9918C42.2372 63.9626 42.283 63.9428 42.3315 63.9338C42.3799 63.9248 42.4298 63.9269 42.4774 63.9399C42.4978 64.0123 42.6016 64.271 42.5811 64.3229C42.5606 64.3748 42.25 64.4478 42.1975 64.3953C42.2493 64.5202 42.4774 64.7789 42.5081 64.8301C42.5388 64.8813 42.2801 65.0063 42.177 64.9858C42.0323 64.9755 41.1414 64.4574 40.9864 64.2608L40.9891 64.2587ZM42.3456 62.5398C42.3264 62.4876 42.2898 62.4437 42.2418 62.4155C42.1695 62.395 41.9312 62.4155 41.9312 62.5398C41.9312 62.664 42.136 63.359 42.3661 63.7208C42.6255 64.0833 42.8009 64.383 42.9771 64.4663C43.0324 64.4914 43.0952 64.4947 43.1528 64.4755C43.2104 64.4562 43.2586 64.4159 43.2877 64.3625C43.3082 64.3106 43.36 63.9276 43.3396 63.0265C43.3191 62.1254 43.2877 61.2557 43.2358 61.2038C43.1839 61.1519 42.9771 61.1526 42.9047 61.2557C42.8323 61.3588 42.3661 62.3848 42.3449 62.5398H42.3456Z" fill="#585136"/>
<path fill-rule="evenodd" clip-rule="evenodd" d="M41.424 67.8421C41.424 67.8421 41.0616 67.6141 40.7093 67.7697C40.3782 67.9254 40.3987 68.5363 40.3987 68.5363C40.4732 68.5655 40.5537 68.576 40.6331 68.567C40.7126 68.5579 40.7887 68.5296 40.8547 68.4845C41.0827 68.3295 41.3722 68.0708 41.424 67.8427V67.8421Z" fill="#574F35"/>
<path fill-rule="evenodd" clip-rule="evenodd" d="M42.1076 68.6604C42.0872 68.4556 41.9028 68.4556 41.9028 68.3498C41.9155 68.2993 41.9448 68.2544 41.986 68.2225C42.0273 68.1905 42.078 68.1734 42.1302 68.1737C42.2339 68.1737 42.335 68.298 42.4619 68.3785C42.5862 68.4509 42.7725 68.5833 42.793 68.741C42.8135 68.8987 42.5882 69.3308 42.3377 69.3308C42.0872 69.3308 42.1616 68.8646 42.1097 68.6577L42.1076 68.6604ZM44.1065 68.3806C44.1065 68.3806 43.6921 68.5048 43.7228 68.3806C43.7535 68.2563 43.8478 68.2256 43.9822 68.2256C44.0506 68.1541 44.1425 68.1097 44.241 68.1007C44.2973 68.0979 44.3526 68.1164 44.3959 68.1525C44.3959 68.1525 44.6758 68.0283 44.7584 68.1007C44.841 68.173 44.7796 68.173 44.8308 68.2563C44.896 68.3487 44.9388 68.4551 44.9557 68.5669C44.9557 68.6495 44.6451 68.8257 44.3959 68.7949C44.1065 68.7328 44.1577 68.4324 44.1065 68.3806ZM46.519 67.9143C46.519 67.9143 46.6433 67.9867 46.5402 68.0699C46.4678 68.1423 46.1053 68.2747 45.794 68.298C45.4834 68.298 45.2042 68.3492 45.2042 68.2461C45.2042 68.143 45.4629 67.9355 45.6179 67.8836C45.649 67.8446 45.6885 67.8133 45.7334 67.7917C45.7783 67.7702 45.8275 67.7591 45.8773 67.7593C46.0016 67.7593 46.4876 67.7074 46.6228 67.687C46.747 67.6658 46.8508 67.7382 46.7778 67.8419C46.747 67.9143 46.519 67.9143 46.519 67.9143ZM47.2338 64.7167C47.2338 64.7167 47.0781 65.0478 46.9027 65.0478C46.7266 65.0273 46.7266 64.9754 46.7266 64.9235C46.7266 64.8512 46.9027 64.6648 46.8815 64.6129C46.8303 64.6129 46.7054 64.6129 46.7266 64.4887C46.7266 64.3849 46.9027 64.2607 47.0576 64.2839C47.1747 64.1876 47.3205 64.1331 47.472 64.1289C47.6482 64.1289 47.8031 64.1801 47.8031 64.2839C47.8031 64.3876 47.5983 64.615 47.5232 64.6675C47.4406 64.7501 47.3369 64.8041 47.2338 64.7187V64.7167ZM44.8724 70.8368C44.8724 70.8368 44.6676 70.8579 44.6676 70.961C44.6676 71.0129 44.7188 71.0129 44.7919 70.9822C44.834 70.9798 44.8756 70.9727 44.9161 70.961C44.9366 70.9822 44.9366 71.0853 45.0923 71.0853C45.2201 71.068 45.3432 71.0258 45.4547 70.961C45.579 70.9098 45.6828 70.8573 45.6828 70.7562C45.6309 70.5801 45.5271 70.4968 45.3721 70.4968C45.2927 70.4918 45.2136 70.5098 45.1441 70.5487C45.1441 70.5487 45.0923 70.4449 44.9161 70.5487C44.74 70.6525 44.7605 70.6525 44.8124 70.7043C44.9052 70.787 44.8745 70.8409 44.8745 70.8409L44.8724 70.8368ZM43.7023 71.914C43.7023 71.8622 43.9611 71.7584 44.0334 71.7898C44.1058 71.8103 44.3126 72.2035 44.3126 72.2451C44.3126 72.297 44.0539 72.4213 43.9501 72.4213C43.8464 72.4213 43.6709 72.2451 43.6709 72.2165C43.6709 72.196 43.7952 72.1653 43.7952 72.1441C43.8259 72.0929 43.7023 71.968 43.7023 71.9161V71.914ZM42.8831 70.4019C42.935 70.3815 42.935 70.3296 43.0074 70.2777C43.03 70.2626 43.0559 70.2529 43.0828 70.2494C43.1098 70.2458 43.1373 70.2485 43.163 70.2572C43.1813 70.2246 43.2066 70.1965 43.237 70.1749C43.2675 70.1533 43.3024 70.1387 43.3392 70.1323C43.4634 70.1118 43.5672 70.1323 43.544 70.1842C43.544 70.3398 43.6477 70.4429 43.6477 70.5671C43.6477 70.6914 43.5754 70.847 43.3166 70.9508C43.0579 71.0232 42.7056 71.0232 42.6538 71.0027C42.6019 70.9822 42.55 70.7747 42.6019 70.6709C42.6538 70.5671 42.7985 70.4538 42.8818 70.4019H42.8831Z" fill="#82764F"/>
<path fill-rule="evenodd" clip-rule="evenodd" d="M43.2126 70.4724C43.2126 70.4724 43.0365 70.5762 43.0365 70.6281C43.0208 70.6782 43.0139 70.7306 43.016 70.783C43.016 70.8137 43.244 70.7625 43.2747 70.7311C43.2849 70.7107 43.2126 70.5263 43.2126 70.4724Z" fill="#6E6342"/>
<path fill-rule="evenodd" clip-rule="evenodd" d="M41.6729 69.9855C41.776 70.0067 41.9521 69.9855 42.0866 70.0374C42.1904 70.0893 42.2628 70.1931 42.159 70.3173C42.0552 70.4416 41.9542 70.6279 41.7241 70.5965C41.4654 70.576 41.2169 70.4416 41.2169 70.3378C41.2126 70.2722 41.2213 70.2063 41.2426 70.1441C41.264 70.0818 41.2975 70.0245 41.3412 69.9753C41.4449 69.8927 41.4961 69.9446 41.6722 69.9855H41.6729Z" fill="#585136"/>
<path fill-rule="evenodd" clip-rule="evenodd" d="M41.5486 70.0894C41.5486 70.0894 41.2175 70.3481 41.1342 70.473C41.0304 70.5973 40.5232 71.239 40.3683 71.3735C40.4197 71.2827 40.4784 71.1961 40.5437 71.1147C40.3389 71.2457 40.1854 71.4431 40.1088 71.6738C39.9846 72.0575 40.8031 72.2643 41.3411 72.42C41.879 72.5756 42.0872 72.6248 42.0872 72.6248C41.8892 72.3271 41.7191 72.0118 41.5793 71.6827C41.3745 71.196 41.2687 71.1441 41.4032 70.9161C41.5069 70.6881 41.6626 70.5331 41.6626 70.357C41.6005 70.1931 41.5486 70.0894 41.5486 70.0894Z" fill="#574F35"/>
<path fill-rule="evenodd" clip-rule="evenodd" d="M29.7426 70.9079C29.8179 70.9217 29.8952 70.9217 29.9706 70.9079C30.1256 70.8867 31.7414 70.2935 33.4297 70.4C34.6935 70.4764 35.9461 70.6822 37.1679 71.0144C39.291 71.5735 41.9316 72.6815 43.6403 73.3136C44.0956 73.4891 44.5414 73.8004 44.8691 73.9239C46.1744 74.4318 46.2256 74.4318 46.9922 74.5663C47.8933 74.6906 48.8149 74.3902 49.7782 74.1833C50.9585 73.9239 52.9778 73.7997 54.7487 73.5409C55.3213 73.4616 55.8861 73.3335 56.4369 73.158C56.4369 73.158 55.0285 74.5663 51.6521 75.0735C50.2873 75.2808 48.9004 75.2982 47.5308 75.1254C46.4536 75.0216 45.7395 74.866 45.2009 74.711C44.5899 74.5349 43.3365 74.0686 41.7937 73.687C40.7164 73.4071 39.5149 73.2003 38.138 72.9416C34.7411 72.3196 31.0547 71.6056 29.7412 70.912L29.7426 70.9079Z" fill="#252211"/>
<path fill-rule="evenodd" clip-rule="evenodd" d="M25.931 64.5078C25.1118 65.2014 24.2427 65.8643 23.3942 66.506L20.8362 68.4714C19.9665 69.1131 19.1173 69.776 18.2469 70.4183C17.3765 71.0607 16.5074 71.671 15.5845 72.2615C16.4037 71.568 17.2727 70.9256 18.1424 70.2941C19.0121 69.6626 19.9139 69.0434 20.7529 68.4031L23.3109 66.435C24.1909 65.7933 25.0401 65.1304 25.931 64.5092V64.5078ZM21.4056 71.7571C21.4056 71.7571 22.3272 70.9904 23.4768 69.9139C24.9056 68.5786 26.656 66.8692 27.2151 66.5592L21.4049 71.7577L21.4056 71.7571Z" fill="#CFB66C"/>
<path fill-rule="evenodd" clip-rule="evenodd" d="M21.4058 71.7565C21.8618 71.3012 22.3485 70.8561 22.8353 70.4206L23.5807 69.7789C23.8087 69.5741 24.0682 69.344 24.2955 69.116C24.7508 68.6606 25.1966 68.1732 25.6519 67.7076C25.8776 67.4735 26.1163 67.2522 26.3667 67.0448C26.4919 66.934 26.631 66.8399 26.7804 66.7649C26.9053 66.6925 27.0398 66.5601 27.2153 66.5369C27.1122 66.6925 26.9879 66.7649 26.8842 66.8994C26.7599 67.0031 26.6562 67.1274 26.5531 67.2305C26.3251 67.4585 26.0663 67.6653 25.8383 67.8728C25.3516 68.2872 24.8444 68.692 24.3576 69.1255C23.8709 69.559 23.4155 70.0267 22.9281 70.4615C22.4004 70.9073 21.9137 71.3422 21.4058 71.7586V71.7565ZM27.5989 67.6141C27.5989 67.6141 24.2231 70.9182 23.5289 71.4562L27.5989 67.6141Z" fill="#CFB66C"/>
<path fill-rule="evenodd" clip-rule="evenodd" d="M27.5989 67.614C27.2952 67.9655 26.9696 68.2975 26.624 68.608L25.6 69.5815C25.2689 69.9126 24.9576 70.2443 24.6061 70.5754C24.2436 70.886 23.9125 71.1898 23.5288 71.4765L24.5228 70.5031C24.8545 70.172 25.217 69.8928 25.5693 69.561L26.5633 68.5875C26.9046 68.2462 27.2364 67.9144 27.5989 67.614ZM27.7538 69.4053C27.4427 70.2738 27.076 71.1214 26.6561 71.9428C25.7864 73.6829 24.4818 75.8572 23.9118 76.9659L27.7538 69.4053Z" fill="#CFB66C"/>
<path fill-rule="evenodd" clip-rule="evenodd" d="M27.7537 69.406C27.7537 69.789 27.6499 70.1208 27.5257 70.4519C27.4046 70.7832 27.2665 71.1082 27.112 71.4253C26.9563 71.7359 26.7802 72.0677 26.6041 72.3681C26.4279 72.6685 26.2211 72.9784 26.0654 73.2897L25.0196 75.1329C24.6571 75.7473 24.3049 76.3651 23.9219 76.9556C24.1806 76.2927 24.5329 75.6715 24.8646 75.0605C25.2271 74.4461 25.5582 73.8317 25.8886 73.1962C26.05 72.8795 26.1951 72.5548 26.3235 72.2234C26.4785 71.8916 26.6334 71.581 26.7584 71.2806C26.9133 70.9495 27.0376 70.6382 27.1932 70.3385C27.3687 70.017 27.5141 69.7064 27.7523 69.406H27.7537Z" fill="#CFB66C"/>
<path fill-rule="evenodd" clip-rule="evenodd" d="M31.441 77.8977C31.441 77.8977 30.417 79.2542 30.5194 80.9731C30.7986 80.0727 31.1509 78.6951 31.441 77.8977ZM32.4145 79.2576C32.4145 79.2576 32.052 82.944 31.7516 84.7565C32.1762 82.6614 32.2588 82.8375 32.4145 79.2576ZM39.1975 84.9742C39.1975 84.9742 37.6649 89.4798 37.6335 90.7318C37.9653 89.4443 38.607 86.814 39.1975 84.9708V84.9742Z" fill="#DEC270"/>
<path fill-rule="evenodd" clip-rule="evenodd" d="M42.7808 77.6191C42.7808 77.6191 45.2664 81.7199 47.1307 85.2199C46.6262 83.4587 45.4657 80.2283 42.7808 77.6191Z" fill="#CBAF59"/>
<path fill-rule="evenodd" clip-rule="evenodd" d="M49.4604 83.656C50.8252 86.0683 52.0558 88.554 53.1468 91.1018C52.94 89.3413 52.3802 86.328 49.4604 83.656Z" fill="#E3C677"/>
<path fill-rule="evenodd" clip-rule="evenodd" d="M69.0956 89.7023C69.5093 89.4436 70.3278 88.0346 71.0426 87.683C71.7566 87.3205 72.2953 87.2481 72.9377 86.5334C73.5794 85.7872 73.7569 85.3319 75.1638 84.7421C77.132 83.8921 75.7782 82.7944 75.7782 82.7944C75.995 82.5815 76.2268 82.3844 76.4718 82.2046C76.9797 81.8216 77.5696 81.3554 77.5184 80.5368C77.446 79.1599 77.1873 77.1611 76.0581 76.0012C77.1559 75.7732 79.2578 75.6182 80.5637 75.2871C82.0752 74.9035 82.7694 74.3648 82.7694 74.3648C82.7694 74.3648 81.8997 72.8841 83.308 71.3932C84.7164 69.9023 85.866 69.0114 86.7152 67.3436C85.7418 67.2194 84.2576 66.7019 80.4702 68.141C80.6747 68.2372 80.872 68.3478 81.0607 68.4721C81.0607 68.4721 78.7308 69.1145 77.8815 69.8292C76.4001 71.0819 76.2138 72.1073 74.6088 72.8739C73.0039 73.6405 71.388 73.433 70.0527 74.0542C68.7174 74.6755 68.5201 75.2038 68.0327 75.4319C68.1365 75.5561 68.0122 75.7629 68.2088 75.9391C68.0846 76.1152 67.3596 77.2955 66.6244 77.2955C66.6967 77.5754 67.3179 77.7823 67.3179 77.7823C67.3179 77.7823 66.8626 78.114 65.7028 78.1967C66.2926 78.8111 66.8524 79.4808 68.3952 80.4542C68.2709 80.713 67.7528 81.0966 67.9603 81.5834C68.1883 82.0701 68.7795 82.733 71.1395 83.2716C69.938 83.3228 68.5304 83.6027 66.6339 83.344C64.7388 83.116 64.4282 82.9815 63.2581 83.2716C63.3824 83.3958 63.7135 83.3958 64.0036 83.7269C63.693 83.7474 61.746 83.4989 61.0832 84.3693C60.3896 85.2698 60.0892 86.7511 60.1411 87.7451C59.7786 87.9212 59.4263 88.2319 59.6024 88.8742C59.7786 89.5166 60.7002 89.7235 61.2907 90.1269C61.8805 90.5618 61.9324 90.7168 62.4922 90.6137C63.082 90.4894 63.9517 89.8996 64.4596 89.8996C64.9675 89.8996 65.3293 90.2826 65.3293 90.2826C65.3293 90.2826 66.707 89.6197 66.8414 89.744C66.9657 89.8682 66.8619 90.6656 66.9964 90.7898C67.1329 90.8833 68.6846 89.9617 69.099 89.7023H69.0956Z" fill="#ECD592"/>
<path fill-rule="evenodd" clip-rule="evenodd" d="M99.2003 48.259C92.7279 31.5446 76.7276 28.448 76.7276 28.448H31.0783L31.2544 45.473H40.3455V83.49H31.0776V100.484H75.4639C86.1613 100.484 94.7363 89.7344 94.7363 89.7344C108.468 70.2449 99.1996 48.259 99.1996 48.259H99.2003ZM75.7022 78.2806C75.7022 78.2806 72.2206 83.3037 68.4325 83.3037H60.8549L60.6753 45.5147H70.3999C70.3999 45.5147 74.9055 46.4567 78.0533 55.3731C78.0533 55.3731 82.2264 68.1389 75.7022 78.2806Z" fill="white" fill-opacity="0.8"/>
</g>
<defs>
<clipPath id="clip0_71090_3970">
<rect width="128" height="128" fill="white"/>
</clipPath>
</defs>
</svg>
