<svg width="128" height="128" viewBox="0 0 128 128" fill="none" xmlns="http://www.w3.org/2000/svg">
<circle cx="64" cy="64" r="64" fill="#E6007A"/>
<path fill-rule="evenodd" clip-rule="evenodd" d="M80.1343 28.3437C80.1343 33.5703 72.8492 37.8073 63.8625 37.8073C54.8759 37.8073 47.5908 33.5703 47.5908 28.3437C47.5908 23.1171 54.8759 18.8801 63.8625 18.8801C72.8492 18.8801 80.1343 23.1171 80.1343 28.3437ZM80.1343 99.6501C80.1343 104.877 72.8492 109.114 63.8625 109.114C54.8759 109.114 47.5908 104.877 47.5908 99.6501C47.5908 94.4235 54.8759 90.1865 63.8625 90.1865C72.8492 90.1865 80.1343 94.4235 80.1343 99.6501ZM41.1871 50.9071C45.6804 43.1247 45.6512 34.6959 41.122 32.0808C36.5927 29.4658 29.2784 33.6547 24.7851 41.4372C20.2918 49.2196 20.3209 57.6484 24.8502 60.2635C29.3795 62.8785 36.6938 58.6896 41.1871 50.9071ZM102.874 67.7329C107.4 70.3462 107.427 78.7736 102.934 86.556C98.4404 94.3385 91.1286 98.5289 86.6023 95.9156C82.0761 93.3023 82.0494 84.8749 86.5427 77.0924C91.0361 69.31 98.3479 65.1196 102.874 67.7329ZM41.1239 95.9135C45.6532 93.2984 45.6823 84.8696 41.189 77.0872C36.6957 69.3048 29.3814 65.1158 24.8521 67.7309C20.3228 70.3459 20.2937 78.7748 24.787 86.5572C29.2803 94.3396 36.5946 98.5286 41.1239 95.9135ZM102.938 41.4422C107.431 49.2247 107.404 57.6521 102.878 60.2654C98.3517 62.8787 91.0399 58.6883 86.5466 50.9058C82.0533 43.1234 82.0799 34.696 86.6062 32.0827C91.1324 29.4694 98.4442 33.6598 102.938 41.4422Z" fill="white"/>
</svg>
