<svg width="128" height="128" viewBox="0 0 128 128" fill="none" xmlns="http://www.w3.org/2000/svg">
<g clip-path="url(#clip0_50106_121535)">
<path d="M0 0H128V128H0V0Z" fill="#1565C0"/>
<path d="M63.6444 14.2222L66.2755 22.3288H74.8088L67.9111 27.3066L70.5422 35.4133L63.6444 30.4355L56.8177 35.4133L59.3777 27.3777L52.5511 22.3999H61.0844L63.5733 14.2222H63.6444ZM28.7288 28.7288L36.3377 32.5688L42.3111 26.5955L41.0311 34.9866L48.5688 38.8266L40.1777 40.1777L38.8266 48.5688L34.9866 41.0311L26.5955 42.3111L32.5688 36.3377L28.7288 28.7288ZM14.2222 63.6444L22.3288 61.0133V52.4799L27.3066 59.3777L35.4844 56.8888L30.5066 63.7155L35.4844 70.6133L27.4488 67.9822L22.4711 74.8799V66.3466L14.2222 63.6444ZM28.7288 98.5599L32.5688 91.0222L26.5955 84.9777L34.9866 86.3288L38.8266 78.7199L40.1777 87.1822L48.5688 88.4622L41.0311 92.3733L42.3111 100.764L36.3377 94.7199L28.7288 98.5599ZM63.6444 113.067L61.0133 104.96H52.4799L59.3777 99.9822L56.8888 91.8755L63.7155 96.8533L70.6133 91.8755L67.9822 99.9822L74.8799 104.96H66.3466L63.7155 113.067H63.6444ZM98.5599 98.5599L91.0222 94.7199L84.9777 100.764L86.3288 92.3733L78.7199 88.4622L87.1822 87.1822L88.4622 78.7199L92.3733 86.3288L100.764 84.9777L94.7199 91.0222L98.5599 98.5599ZM113.067 63.6444L104.96 66.2755V74.8088L99.9822 67.9111L91.8755 70.5422L96.8533 63.6444L91.8755 56.8177L99.9822 59.3777L104.96 52.5511V61.0844L113.067 63.6444ZM98.5599 28.7288L94.7199 36.3377L100.764 42.3111L92.3733 41.0311L88.4622 48.5688L87.1822 40.1777L78.7199 38.8266L86.3288 34.9866L84.9777 26.5955L91.0222 32.5688L98.5599 28.7288Z" fill="#FDD835"/>
</g>
<defs>
<clipPath id="clip0_50106_121535">
<rect width="128" height="128" rx="64" fill="white"/>
</clipPath>
</defs>
</svg>
