<svg width="128" height="128" viewBox="0 0 128 128" fill="none" xmlns="http://www.w3.org/2000/svg">
<g clip-path="url(#clip0_50106_121541)">
<path d="M0 0H128V128H0V0Z" fill="white"/>
<path d="M49.7778 0H7.11111L49.7778 39.1111V0ZM78.2222 0V42.6667L124.444 0H78.2222ZM128 32L106.667 49.7778H128V32ZM128 78.2222H99.5556L128 103.111V78.2222ZM120.889 128L78.2222 88.8889V128H120.889ZM49.7778 128V85.3333L3.55556 128H49.7778ZM0 96L21.3333 78.2222H0V96ZM0 49.7778H28.4444L0 24.8889V49.7778Z" fill="#0D47A1"/>
<path d="M49.7778 49.7777L-46.2222 -35.5557V-19.2001L35.5556 49.7777H49.7778ZM56.8889 56.8888V-0.000108242H71.1111V56.8888H128V71.111H71.1111V128H56.8889V71.111H4.76837e-07V56.8888H56.8889ZM-64 163.555L35.5556 78.2221H49.7778L-46.2222 163.555H-64ZM78.2222 49.7777L163.556 -28.4446H179.2L92.4444 49.7777H78.2222ZM92.4444 78.2221H78.2222L160 149.333V135.111L92.4444 78.2221Z" fill="#EF5350"/>
</g>
<defs>
<clipPath id="clip0_50106_121541">
<rect width="128" height="128" rx="64" fill="white"/>
</clipPath>
</defs>
</svg>
