<svg width="128" height="128" viewBox="0 0 128 128" fill="none" xmlns="http://www.w3.org/2000/svg">
<circle cx="64" cy="64" r="64" fill="white"/>
<path d="M63.0075 56.4495H46.9718V51.4731C46.9718 48.3361 46.8194 46.3726 46.5147 45.5826C46.21 44.7928 45.4863 44.3978 44.3436 44.3978C43.3532 44.3978 42.6803 44.7364 42.3248 45.4134C41.9693 46.0905 41.7916 47.8283 41.7916 50.6267V76.9305C41.7916 79.3905 41.9693 81.0098 42.3248 81.7884C42.6803 82.567 43.3913 82.9563 44.4579 82.9563C45.6259 82.9563 46.4195 82.5163 46.8385 81.6361C47.2574 80.7559 47.4669 79.0407 47.4669 76.4904V69.9906H44.2293V61.6628H63.0075V91.0811H52.9138L51.4283 87.1541C50.3363 88.8468 48.9588 90.1162 47.2955 90.9626C45.6323 91.8089 43.6707 92.2321 41.4107 92.2321C38.719 92.2321 36.1987 91.6509 33.8499 90.4886C31.501 89.3264 29.7172 87.8876 28.4983 86.1724C27.2794 84.4572 26.5176 82.6573 26.2129 80.7728C25.9082 78.8884 25.7559 76.0616 25.7559 72.2927V56.0094C25.7559 50.7735 26.0733 46.9707 26.7081 44.6009C27.3429 42.2312 29.1649 40.059 32.174 38.0842C35.183 36.1095 39.0745 35.1221 43.8484 35.1221C48.5461 35.1221 52.444 35.9797 55.5419 37.6949C58.6399 39.4102 60.6586 41.447 61.5982 43.8054C62.5377 46.1638 63.0075 49.5886 63.0075 54.0797V56.4495Z" fill="#171B1E"/>
<path d="M100.911 53.5276H86.0175V49.4652C86.0175 47.5695 85.827 46.3621 85.4462 45.8429C85.0652 45.3239 84.4304 45.0644 83.5417 45.0643C82.5767 45.0644 81.8466 45.4142 81.3515 46.1138C80.8563 46.8134 80.6087 47.8742 80.6088 49.2959C80.6087 51.124 80.8881 52.5007 81.4467 53.426C81.98 54.3514 83.4909 55.4685 85.9794 56.7775C93.1148 60.5465 97.6094 63.6384 99.4631 66.0532C101.317 68.468 102.244 72.3611 102.244 77.7325C102.244 81.6369 101.729 84.5144 100.701 86.365C99.6726 88.2156 97.6856 89.7672 94.74 91.0198C91.7944 92.2723 88.3663 92.8986 84.4558 92.8986C80.1644 92.8986 76.5014 92.1764 73.467 90.732C70.4325 89.2876 68.4455 87.4483 67.5059 85.214C66.5664 82.9797 66.0966 79.8088 66.0966 75.7013V72.1129H80.9896V78.7819C80.9896 80.8357 81.1991 82.156 81.6181 82.7427C82.0371 83.3295 82.7798 83.6229 83.8464 83.6229C84.9129 83.6229 85.7064 83.2505 86.227 82.5057C86.7475 81.761 87.0078 80.6551 87.0078 79.1882C87.0078 75.9608 86.5126 73.8507 85.5223 72.8576C84.5066 71.8646 82.0054 70.2058 78.0187 67.8812C74.0319 65.5341 70.8912 63.8302 69.5961 62.7695C68.3011 61.7087 67.2282 60.2418 66.3775 58.3685C65.5269 56.4954 65.1016 54.1031 65.1016 51.1917C65.1016 46.994 65.7046 43.2581 66.9108 41.3172C68.117 39.3763 70.0659 37.8586 72.7576 36.7639C75.4492 35.6694 79.1994 35.1221 83.0084 35.1221C87.1729 35.1221 90.7215 35.7202 93.6545 36.9163C96.5873 38.1125 98.5299 39.6189 99.4822 41.4357C100.434 43.2525 100.91 47.0053 100.911 51.361V53.5276Z" fill="#FD0000"/>
</svg>
