<svg width="128" height="128" viewBox="0 0 128 128" fill="none" xmlns="http://www.w3.org/2000/svg">
<circle cx="64" cy="64" r="64" fill="white"/>
<path d="M100.572 64.8485C100.572 62.2023 100.334 59.658 99.8932 57.2153H64.7466V71.6675H84.8303C83.9483 76.3153 81.3021 80.2506 77.3329 82.8967V92.294H89.4442C96.5006 85.7804 100.572 76.2135 100.572 64.8485Z" fill="#4285F4"/>
<path d="M64.7472 101.318C74.823 101.318 83.2704 97.9938 89.4448 92.2944L77.3335 82.8971C74.0088 85.1361 69.7682 86.4931 64.7472 86.4931C55.0446 86.4931 46.8008 79.9456 43.8493 71.125H31.4326V80.7598C37.5731 92.9389 50.1594 101.318 64.7472 101.318Z" fill="#34A853"/>
<path d="M43.8485 71.0899C43.1022 68.8509 42.6612 66.4761 42.6612 63.9996C42.6612 61.523 43.1022 59.1483 43.8485 56.9092V47.2744H31.4319C28.8875 52.2954 27.4287 57.9609 27.4287 63.9996C27.4287 70.0383 28.8875 75.7038 31.4319 80.7247L41.1006 73.1933L43.8485 71.0899Z" fill="#FBBC05"/>
<path d="M64.7472 41.5414C70.2431 41.5414 75.1283 43.4412 79.0298 47.1051L89.7162 36.4187C83.2365 30.38 74.823 26.6821 64.7472 26.6821C50.1594 26.6821 37.5731 35.0617 31.4326 47.2748L43.8493 56.9095C46.8008 48.089 55.0446 41.5414 64.7472 41.5414Z" fill="#EA4335"/>
</svg>
