<svg xmlns="http://www.w3.org/2000/svg" width="256" height="256" fill="none"><circle cx="128" cy="128" r="128" fill="#C6F700"/><path fill="#1B170D" d="M163.7 55a65 65 0 0 0-21.2 3.8 8 8 0 0 0-3 2A390 390 0 0 0 115.6 85l-.6.7c-.2.2-.2.4 0 .7 0 .2.3.3.5.2l.9-.2c12.1-2.6 24.4-4.6 36.5-5.9a2.8 2.8 0 0 1 3.1 2.9c-.2 12 .3 24 1.3 35.7l.1.8c0 .3.2.4.4.5h.2c.1 0 .3 0 .4-.2l.5-.6c6.8-9.7 14.2-19.2 22-28 .8-1 1-1.7 1.2-2.6 2.5-15.7-1.3-27.3-4.7-30.2-3-2.6-7.2-3.7-13.8-3.9ZM145 86.8h-.7a366.2 366.2 0 0 0-35 6.7c-1.2.3-2 1-2.1 1.2-8.7 10.4-16.9 21.3-24.4 32.6-.4.5-.5 1.9-.5 1.9s2 14.6 4.7 25.4a554.2 554.2 0 0 0-12.9 46.2l.5.2h3.9c.2 0 .4-.1.5-.4l.3-.7c4-10.9 8.5-21.6 13.5-32l3.7-7.4 2.7-5.3v-.1c12.7-23.8 28.1-46.3 45.8-66.8l.5-.6c.2-.2.2-.4.1-.6a.6.6 0 0 0-.6-.3Zm5.4 4.5c-.2-.1-.5 0-.6.1l-.5.6c-20.7 23.9-38 50.4-51.7 78.9l-.3.6c-.1.2 0 .5.1.7a.6.6 0 0 0 .6.1l.7-.3c11.6-4.8 23.5-9 35.3-12.4.7-.2 1.3-.7 1.6-1.3 5.2-10 17.2-29.6 17.2-29.6.3-.4.2-1 .2-1s-2.1-23.4-2.2-35.2v-.7c0-.3-.2-.5-.4-.5Zm-30.7 78.2-1 .4a241 241 0 0 0-23.7 9c-.5.3-.7.8-.7.8l-.6 1.3-2.8 6.7-.4 1v.5h.5l1-.4c2.3-1.1 5.2-2.8 8.2-4.2h.1l16-7.7s.7-.3 1-1l3-5.8-.1-.4a.4.4 0 0 0-.5-.2Z"/></svg>