<svg width="128" height="128" viewBox="0 0 128 128" fill="none" xmlns="http://www.w3.org/2000/svg">
<circle cx="64" cy="64" r="64" fill="#0071C5"/>
<path d="M45.1056 74.1426V59.4498H49.0135C50.4029 59.4498 50.9789 60.127 50.9789 61.2275V74.1426H55.6996V61.2033C55.6996 58.5762 54.2869 55.684 50.1399 55.684L40.3763 55.6744V74.1426H45.1056Z" fill="white"/>
<path fill-rule="evenodd" clip-rule="evenodd" d="M77.6098 70.5063C74.925 70.5063 73.4213 68.7455 73.4213 66.3532H85.4177V64.6684C85.4177 59.3907 82.507 55.3615 77.4687 55.3615C72.4981 55.3615 68.7154 58.803 68.7154 64.8823C68.7154 71.9974 73.0479 74.4387 77.5751 74.4387C81.0328 74.4387 82.9953 73.3298 84.8656 71.5037L81.9446 68.7455C80.7368 69.9338 79.6987 70.5063 77.6098 70.5063ZM73.8738 61.1666C74.3963 60.051 75.6473 59.2291 77.2638 59.2291C79.685 59.2291 80.6037 61.1666 80.697 63.17H73.4213C73.4577 62.3499 73.5641 61.8365 73.8738 61.1666Z" fill="white"/>
<path d="M59.2358 68.8474C59.2358 71.4671 60.8705 74.1195 64.7232 74.1195H67.5173V70.2231H65.5963C64.4699 70.2231 63.9577 69.6276 63.9577 68.5547V59.4498H67.5173V55.6744H63.9577V50.6427H59.2358V68.8474Z" fill="white"/>
<path d="M31.4068 53.1222H36.1685V48.6489H31.4068V53.1222Z" fill="white"/>
<path d="M31.4017 69.3906C31.4017 71.8589 32.6146 73.9979 36.1804 74.3368L36.1805 55.6744H31.4068L31.4017 69.3906Z" fill="white"/>
<path d="M88.1674 69.0022C88.1674 71.4671 89.3746 73.6028 92.9331 73.9422V48.0122H88.1674V69.0022Z" fill="white"/>
<path d="M38.0547 44.7649C64.4005 28.9029 105.274 30.2212 109.593 51.0457C111.906 62.2018 103.94 71.3157 96.1716 74.1263V69.1536C102.625 65.3529 106.239 58.7405 105.101 52.3984C101.701 33.2181 64.3738 33.1393 38.0547 46.5161V44.7649Z" fill="white"/>
<path d="M21.921 72.4809C24.5722 86.5326 43.5199 89.1427 61.7026 87.4805C72.8777 86.4571 86.2954 82.5084 94.4038 77.7333V84.6243C85.4678 89.4749 72.6142 92.5978 62.7937 93.5457C37.9728 95.9313 21.711 88.7476 18.6722 76.0711C16.2913 66.1855 20.4269 57.8191 28.047 51.2106V53.6497C23.8141 58.2109 20.6233 65.5539 21.921 72.4809Z" fill="white"/>
<path fill-rule="evenodd" clip-rule="evenodd" d="M98.5534 51.0097H98.9063C98.9626 51.0097 98.9826 50.9731 98.9826 50.9405C98.9826 50.9282 98.9781 50.9147 98.9739 50.9021C98.9714 50.8945 98.969 50.8872 98.9678 50.8808L98.4686 50.046C98.7316 49.9588 98.9012 49.7809 98.9012 49.4437V49.406C98.9012 48.8612 98.5466 48.69 97.9604 48.69C97.7953 48.69 97.4891 48.7002 97.3764 48.7148C97.2762 48.73 97.2301 48.779 97.2301 48.896V50.9208C97.2301 50.9636 97.2699 51.0097 97.3098 51.0097H97.6291C97.686 51.0097 97.7156 50.9636 97.7156 50.9208V50.1204H97.9319C97.9484 50.1204 97.9899 50.1401 97.9985 50.1564L98.48 50.9636C98.4937 50.99 98.5216 51.0097 98.5534 51.0097ZM97.9985 49.1049H97.7008ZM97.7008 49.1049V49.7517ZM97.7008 49.7517C97.7231 49.7517 97.7915 49.7537 97.8576 49.7558ZM97.8576 49.7558C97.9198 49.7577 97.98 49.7595 97.9985 49.7595ZM97.9985 49.7595C98.307 49.7595 98.4419 49.6576 98.4419 49.4437ZM98.4419 49.4437V49.406Z" fill="white"/>
<path fill-rule="evenodd" clip-rule="evenodd" d="M96.1714 49.8879C96.1714 50.9208 97.0132 51.7629 98.0685 51.7629C99.1123 51.7629 99.9701 50.9208 99.9701 49.8879C99.9701 48.8566 99.1123 48.0123 98.0685 48.0123C97.0132 48.0123 96.1714 48.8566 96.1714 49.8879ZM96.4976 49.8879C96.4976 49.0339 97.1999 48.3247 98.0685 48.3247C98.9325 48.3247 99.6417 49.0339 99.6417 49.8879C99.6417 50.7429 98.9325 51.4409 98.0685 51.4409C97.1999 51.4409 96.4976 50.7429 96.4976 49.8879Z" fill="white"/>
</svg>
