<svg width="128" height="128" viewBox="0 0 128 128" fill="none" xmlns="http://www.w3.org/2000/svg">
<circle cx="64" cy="64" r="64" fill="#E61D2A"/>
<path d="M32.0645 77.3663C41.1859 74.8356 46.8418 75.3067 51.0093 77.9914C53.1195 79.3543 55.649 81.3318 56.5412 82.6735C53.8632 80.7067 50.1858 79.7335 47.6367 79.9687C44.5361 80.0201 43.2954 82.4285 43.2954 82.4285C39.902 76.2498 30.2018 78.9195 26.8051 79.8544C26.4671 79.9474 26.1916 80.0233 25.9908 80.0715C25.6456 80.1543 25.2742 80.2456 24.8829 80.3418C22.7597 80.8638 20.0498 81.53 17.7467 81.7719C13.8576 82.0997 10.5978 80.5324 9.02773 77.5817C6.99801 73.3292 8.35209 68.1044 9.84939 64.457C12.4464 58.4118 17.036 52.8891 22.7735 48.9034C25.397 47.2948 28.2397 45.8398 31.2919 46.0142C32.1833 46.1782 32.9012 46.6596 33.3168 47.3563C34.3081 49.3135 33.0478 51.4135 32.1951 52.5101C31.4039 53.4832 29.5697 53.8521 29.6427 52.0797C29.6934 50.9219 30.6369 50.0612 30.9806 49.7947C31.4041 49.5183 31.952 49.4669 32.2782 49.4669C32.5874 49.1798 32.8262 47.172 30.2715 47.8277C26.9381 48.8728 24.4137 51.4754 21.6923 54.508C16.8168 60.3379 14.0719 65.5937 13.0562 71.0551C12.6183 74.4053 13.2048 76.7311 14.8405 78.1756C18.4894 80.6956 21.3923 79.9803 28.268 78.2859C29.4155 78.0032 30.6737 77.6931 32.0645 77.3663Z" fill="white"/>
<path fill-rule="evenodd" clip-rule="evenodd" d="M23.411 61.0344C26.8299 56.4649 31.0985 53.801 33.2223 55.1944C35.1853 56.6248 33.6767 60.2198 33.1919 61.375C33.142 61.494 33.103 61.5871 33.0797 61.6492C33.8417 61.8443 36.2782 60.1027 37.699 58.5348C38.8275 57.2846 40.7609 55.6761 41.9823 55.2153C42.8946 54.7744 44.3044 54.6312 45.2286 55.1842C45.8486 55.5431 46.2642 56.2807 46.3078 57.0595C46.4301 59.2316 43.9029 62.7972 42.6358 60.994C42.375 60.2152 42.66 59.3852 43.4804 58.5244C43.8969 58.0941 44.4092 57.8998 45.0485 57.9202C45.3005 57.5205 45.2363 56.937 44.838 56.7009C44.4199 56.4447 43.5776 56.6195 42.8025 57.2236C40.0571 59.4062 37.6445 63.0233 36.2444 67.009C35.9964 67.7567 35.8612 68.8954 36.3008 69.6742C37.5034 71.5278 40.3178 68.9479 40.3178 68.9479C42.2176 67.2574 44.0498 64.9153 45.4888 62.8352C49.2267 57.4256 54.1915 52.7608 56.3839 55.7935C56.4018 55.8168 56.4231 55.8516 56.4434 55.8846C56.4679 55.9245 56.4908 55.9618 56.5038 55.9729C56.5353 55.9319 56.9218 55.3065 56.9218 55.3065H60.4605C60.4605 55.3065 52.9658 68.3053 52.956 68.326C52.8002 68.6429 52.7007 69.0904 52.9529 69.3057C53.1422 69.439 53.4604 69.2922 53.5076 69.2704C53.5113 69.2687 53.5133 69.2678 53.5135 69.2678C55.2695 68.4159 57.8823 64.7923 58.381 64.1008C58.4342 64.027 58.4634 63.9865 58.4648 63.9865H59.6836C57.7727 66.7865 55.407 70.0257 52.4705 72.0954C51.6553 72.6384 50.5827 73.2168 49.5229 72.8374C48.5175 72.2042 48.5815 71.4315 48.6576 70.512C48.6665 70.4047 48.6756 70.2954 48.6831 70.1841C48.6829 70.1841 48.6808 70.1863 48.6769 70.1907L48.6592 70.211C48.3833 70.528 45.7714 73.53 43.5661 72.8889C42.7959 72.6429 41.5648 71.9765 42.4781 68.8002C42.4781 68.8002 42.548 68.5139 42.6016 68.2992C42.3898 68.5038 42.0153 68.862 42.0153 68.862C39.8176 71.0137 37.3264 73.4321 34.2067 72.9092C32.1024 72.2554 31.9403 70.2518 31.8696 69.3768C31.8616 69.2784 31.8548 69.1944 31.8465 69.128C31.6012 67.1214 33.8281 63.2156 34.1365 62.6747C34.1587 62.6358 34.171 62.6142 34.1717 62.6122C33.4952 62.8069 32.8949 62.9504 32.3965 63.0422C32.358 63.1038 31.5516 64.4358 31.5516 64.4358L31.5029 64.5166C30.6406 65.9468 29.746 67.4306 28.5943 68.6676L28.3717 68.9035C26.6464 70.9216 22.5892 74.6919 20.4036 72.0998C18.9345 69.8969 20.2845 65.1331 23.411 61.0344ZM53.4633 57.4896C52.9748 57.9198 50.9712 60.4711 50.2829 61.4238C47.5149 65.1536 46.6179 67.8477 46.544 68.7286C46.5178 68.9952 46.6095 69.2514 46.8419 69.4051C47.035 69.549 47.3251 69.5284 47.5011 69.4769C48.7352 68.7905 49.4917 67.8069 50.2431 66.6596C50.2431 66.6596 50.779 65.8401 50.7755 65.8502C52.4768 63.0222 54.2863 59.8766 55.8195 57.1307C55.7626 56.6802 55.106 56.0443 53.4633 57.4896ZM30.9861 63.1961C31.0014 63.1659 31.0322 63.0733 31.0322 63.0733C31.0729 62.9815 31.09 62.9402 31.0898 62.9097C31.0898 62.8891 31.0831 62.8789 31.0768 62.8789C30.03 62.571 28.6303 61.9053 27.8838 60.4711C27.8825 60.4578 27.88 60.4531 27.8777 60.4487L27.8767 60.4469L27.8758 60.445C27.8752 60.4437 27.8747 60.4422 27.8742 60.4403C27.8621 60.4403 27.8288 60.4506 27.814 60.4606C26.6244 62.1717 25.4022 64.0164 24.6319 66.1063L24.5368 66.4137C24.2682 67.2743 23.9375 68.3398 24.5791 69.1084C24.8818 69.4873 25.4757 69.3949 25.9053 69.2514C27.3434 68.5097 28.4961 66.9706 29.4212 65.7356L29.4433 65.706C29.4433 65.706 30.9822 63.1961 30.9861 63.1961ZM31.8047 61.6903C31.8047 61.6903 32.4834 60.133 32.4901 60.1126C32.7232 59.4157 32.9287 58.6678 32.9286 58.002C32.9286 57.5099 32.8162 57.0592 32.5195 56.7107C32.0385 56.3315 31.2101 56.5261 30.6773 56.8953C30.1219 57.3151 28.8615 58.4729 29.1683 59.9484C29.3908 60.7065 30.1124 61.3418 31.069 61.6387L31.3736 61.6903L31.3973 61.6957C31.5652 61.7347 31.7109 61.7685 31.8047 61.6903Z" fill="white"/>
<path fill-rule="evenodd" clip-rule="evenodd" d="M77.2259 64.8662C76.8847 64.1287 76.0747 63.6573 75.2115 63.7084C72.4082 63.9648 69.6663 66.27 68.2267 69.5792C67.4713 71.2802 67.059 72.6837 66.7886 74.9173C67.6603 73.9135 69.4383 72.264 71.456 71.3623C71.456 71.3623 71.7305 69.221 73.1305 67.3151C73.6603 66.526 74.7205 65.2556 75.9109 65.5935C76.951 65.9421 76.5854 68.8213 75.2031 71.6075C74.1802 73.657 72.615 75.7067 71.0313 77.1203C69.6312 78.3089 67.5596 79.7432 65.7472 78.6368C64.6056 77.9609 64.0234 76.5466 64.1464 74.7228C64.6919 69.5488 67.0471 65.143 70.4176 60.1226C73.8929 55.4608 77.7239 50.676 82.8847 48.1243C83.9374 47.5916 84.9122 47.4687 85.7549 47.7966C85.7549 47.7966 80.9103 50.4605 78.601 55.3889L78.5753 55.4436C77.9902 56.6881 77.2085 58.3509 78.0193 59.8253C78.4492 60.6038 79.2127 60.6654 79.8273 60.6244C82.6579 59.9685 84.4867 57.3251 85.981 54.9073C86.8473 53.0733 87.6173 51.2496 87.6173 49.2208C87.6173 48.975 87.6045 48.6472 87.5837 48.4011C88.9361 47.6842 91.7092 48.9544 91.7092 48.9544C92.983 49.3761 95.1022 50.7713 96.949 51.9871C98.2442 52.8397 99.4054 53.6042 100.047 53.8828C100.806 53.0018 102.054 51.67 102.756 51.0039L101.74 50.3788C100.178 49.4257 98.5313 48.5196 96.9048 47.6246L96.6963 47.5099C92.8492 45.4097 89.7179 46.1473 88.1241 46.7211C87.4977 46.9464 86.9253 47.1411 86.9253 47.1411C85.7425 45.8502 83.8028 45.9728 82.3736 46.3214C77.2336 47.7967 72.4614 51.3929 67.3451 57.6329C63.5836 62.5203 61.2504 66.7417 60.0068 70.9116C59.0482 73.7187 58.7568 77.8479 61.0965 80.2968C63.0858 82.3761 65.7235 81.9257 67.5862 81.1779C71.622 79.1902 75.2493 74.9072 77.0567 69.9789C77.4928 68.514 77.9769 66.4443 77.2259 64.8662ZM86.506 49.4259C85.9717 55.553 81.2091 59.1496 80.0307 59.4361C79.3165 59.5793 78.098 59.2619 79.1858 56.6905C80.7878 53.2271 83.5228 50.2868 86.4574 48.7805C86.5288 49.0367 86.527 49.2002 86.506 49.4259Z" fill="white"/>
<path d="M106.325 52.2743C109.54 52.602 112.196 51.6597 114.758 50.2045C117.885 48.4322 120 46.0144 120 46.0144C120 46.0144 118.553 49.0982 115.731 51.5471C113.063 53.9751 108.279 56.5263 103.767 55.3788C104.567 54.3134 105.434 53.2786 106.325 52.2743Z" fill="white"/>
<path d="M64.4459 58.3867L66.3422 55.3067H62.9816L61.086 58.3867H64.4459Z" fill="white"/>
<path fill-rule="evenodd" clip-rule="evenodd" d="M105.633 77.7701C105.443 78.3335 105.951 78.5225 106.312 78.2766C108.313 77.1009 109.918 74.671 111.193 72.7417C111.241 72.6693 111.288 72.5976 111.335 72.5267H112.532C111.619 74.0667 108.105 79.3933 105.17 80.9918C105.054 81.0543 104.94 81.1182 104.827 81.1815C104.146 81.5644 103.51 81.9218 102.699 81.7719C101.32 81.5979 101.251 79.8558 101.503 78.8827C100.719 79.7123 99.0301 81.3316 97.5143 81.7412C96.1948 81.9971 94.4637 81.4744 94.9408 78.1343C92.718 80.9217 89.9857 83.0322 88.3352 80.9931C87.1802 79.5487 87.7457 77.1099 88.9684 73.5241C88.9684 73.5241 89.3802 72.2942 89.4258 72.1411C89.4082 72.1304 89.4037 72.1304 89.393 72.1304C88.7227 72.303 87.8707 72.352 87.5716 72.3692C87.5152 72.3725 87.4784 72.3746 87.4662 72.3762C85.5369 75.7576 83.0894 79.4561 79.5865 81.3004C79.0711 81.5665 77.7593 82.1199 76.717 81.5875C75.7036 81.0135 75.3065 79.8659 75.5015 78.0834C75.7785 75.8084 76.7785 73.8217 77.7814 71.9667C79.6462 69.047 82.2305 65.5016 85.6882 64.0672C86.46 63.719 87.6048 63.5037 88.5311 63.9649C89.3211 64.5384 89.5328 65.3681 89.5328 66.2499C89.5328 66.6597 89.4843 67.0796 89.4322 67.4895C89.1312 68.9239 88.5298 70.246 88.0521 71.2293C88.2824 71.3832 89.6369 71.0652 89.9875 70.7992C94.8246 60.6967 100.357 53.2991 106.91 48.1658L106.961 48.1353C108.236 47.2641 109.82 46.1886 111.273 46.4653C111.719 46.5473 112.06 46.9058 112.14 47.3772C112.377 48.842 111.732 50.0719 111.15 51.1677C110.648 51.3321 109.884 51.4756 109.884 51.4756L110.423 50.3689C110.808 49.6108 111.144 48.9447 111.101 48.0432C110.989 47.8072 110.859 47.7969 110.758 47.8072C109.8 48.0019 108.572 49.1904 107.386 50.3482L106.619 51.0861C101.747 55.9528 96.0215 66.1267 95.1353 68.2582C97.1358 67.2851 103.734 60.7479 106.959 56.25C107.619 56.2297 108.178 56.1169 108.178 56.1169C107.661 57.1312 104.128 61.6701 99.9366 65.6766C98.0053 67.5311 95.8801 69.2216 94.0179 70.5125C93.1023 72.49 92.1936 74.6722 91.8023 76.9676C91.7585 77.2853 91.654 78.6486 92.6661 78.5666C93.9625 78.2794 96.2978 74.4182 96.2978 74.4182L96.3828 74.2851C98.5881 70.8317 101.378 66.4619 105.185 64.2362C106.072 63.7343 107.357 63.4725 108.233 64.0262C108.437 64.1589 108.934 64.7735 109.099 65.0499C109.099 65.0499 109.464 64.4068 109.634 64.1268H113.221L107.985 73.4125C107.985 73.4125 106.106 76.3357 105.633 77.7701ZM79.7073 77.0137C79.7134 77.3407 79.7752 77.6433 79.9614 77.9199C81.5147 79.7231 85.2377 74.5442 86.3233 72.126C85.4492 71.7468 84.0014 70.8468 83.362 69.4468H83.3588C81.833 71.4068 79.6716 75.0047 79.7073 77.0137ZM84.6539 68.8115C85.0067 70.502 86.8324 71.117 86.9359 71.0449C87.5089 70.0509 87.9744 68.934 88.2786 67.7971L88.2875 67.7251L88.2914 67.6933C88.33 67.3844 88.372 67.0483 88.372 66.7208C88.372 66.1683 88.2564 65.6556 87.8295 65.3684C87.3696 65.2051 86.7427 65.3175 86.3265 65.6456C85.3568 66.2189 84.3546 67.3561 84.6539 68.8115ZM101.233 77.5818C101.233 77.5818 101.578 77.2745 101.579 77.2745C103.351 75.0713 104.768 72.5614 106.134 70.133C106.215 69.9904 106.297 69.8472 106.378 69.7035C107.001 68.6075 107.64 67.4816 108.307 66.4032C108.339 66.3523 108.393 66.1885 108.393 66.1267C108.393 65.9323 108.254 65.7374 108.134 65.625C107.612 65.4097 107.118 65.6857 106.662 66.0143C104.007 68.1386 102.184 71.1833 100.619 73.7965L100.537 73.934L100.396 74.2313L100.389 74.2439C99.841 75.3771 99.2777 76.5408 99.3055 77.7964C99.334 77.9712 99.4529 78.1963 99.6219 78.2577C100.22 78.4882 100.718 78.0428 101.2 77.6113L101.233 77.5818Z" fill="white"/>
</svg>
