<svg width="128" height="128" viewBox="0 0 128 128" fill="none" xmlns="http://www.w3.org/2000/svg">
<g clip-path="url(#clip0_83419_67055)">
<path d="M64 128C99.3462 128 128 99.3462 128 64C128 28.6538 99.3462 0 64 0C28.6538 0 0 28.6538 0 64C0 99.3462 28.6538 128 64 128Z" fill="#003478"/>
<path d="M116.5 57.2H77.4998C82.5498 37.9 87.2498 21.5 87.2498 21.5C87.2498 21.5 69.5998 40.35 54.0498 57.25L6.7998 57.85L49.9998 61.45C43.6375 68.2356 37.2374 74.9857 30.7998 81.7L53.4498 61.6L71.7998 62.1L68.9998 76.6L24.3498 102.95C24.3498 102.95 51.0498 89.55 68.2998 80.8L62.1998 112.6L62.2998 112.25C62.8998 110.25 66.4998 97.75 71.3998 79.25C93.8998 67.85 116.45 57.25 116.45 57.25L116.5 57.2ZM75.8998 41L72.7998 57.2H58.1498L75.8998 41ZM75.9998 62L93.8498 62.5L72.6498 74.5L75.9998 62Z" fill="white"/>
</g>
<defs>
<clipPath id="clip0_83419_67055">
<rect width="128" height="128" fill="white"/>
</clipPath>
</defs>
</svg>
