<svg width="128" height="128" viewBox="0 0 128 128" fill="none" xmlns="http://www.w3.org/2000/svg">
<circle cx="64" cy="64" r="64" fill="white"/>
<path d="M76.4114 42.0864H51.5146V86.8158H76.4114V42.0864Z" fill="#FF5A00"/>
<path d="M53.1721 64.4508C53.1721 55.3631 57.4444 47.2974 64 42.0861C59.1753 38.2926 53.0893 36 46.4508 36C30.7246 36 18 48.7246 18 64.4508C18 80.1769 30.7246 92.9015 46.4508 92.9015C53.0893 92.9015 59.1753 90.6089 64 86.8155C57.4351 81.6777 53.1721 73.5384 53.1721 64.4508Z" fill="#EB001B"/>
<path d="M110 64.4508C110 80.1769 97.2754 92.9015 81.5492 92.9015C74.9107 92.9015 68.8247 90.6089 64 86.8155C70.6385 81.5949 74.8279 73.5384 74.8279 64.4508C74.8279 55.3631 70.5556 47.2974 64 42.0861C68.8155 38.2926 74.9015 36 81.54 36C97.2754 36 110 48.8074 110 64.4508Z" fill="#F79E1B"/>
</svg>
