<svg width="128" height="128" viewBox="0 0 128 128" fill="none" xmlns="http://www.w3.org/2000/svg">
<g clip-path="url(#clip0_84110_5156)">
<path d="M64 128C99.3462 128 128 99.3462 128 64C128 28.6538 99.3462 0 64 0C28.6538 0 0 28.6538 0 64C0 99.3462 28.6538 128 64 128Z" fill="#EEECE8"/>
<path d="M34.5 89.75H93.45V99.45H34.5V89.75Z" fill="#F2A900"/>
<path d="M34.5 30.4498C34.5 30.2498 34.7 30.0498 34.9 30.0498H48.7C48.9 30.0498 49 30.1498 49.05 30.2998L63.25 63.4998H64.75L79 30.2998C79 30.1498 79.15 30.0498 79.35 30.0498H93.15C93.35 30.0498 93.55 30.2498 93.55 30.4498V77.1498C93.55 77.3498 93.35 77.4998 93.15 77.4998H84.35C84.2608 77.4892 84.1779 77.4489 84.1144 77.3854C84.0509 77.322 84.0106 77.239 84 77.1498V44.4998H82.45L68.45 77.2498C68.45 77.3498 68.3 77.4498 68.15 77.4498H59.95C59.8792 77.4504 59.8095 77.4323 59.748 77.3971C59.6865 77.362 59.6354 77.3111 59.6 77.2498L45.6 44.4998H44.1V77.0998C44.1 77.2998 43.9 77.4498 43.7 77.4498H34.9C34.802 77.4506 34.7072 77.4154 34.6335 77.3508C34.5597 77.2863 34.5122 77.197 34.5 77.0998V30.4498Z" fill="#272525"/>
</g>
<defs>
<clipPath id="clip0_84110_5156">
<rect width="128" height="128" fill="white"/>
</clipPath>
</defs>
</svg>
