<svg width="128" height="128" viewBox="0 0 128 128" fill="none" xmlns="http://www.w3.org/2000/svg">
<circle cx="64" cy="64" r="64" fill="white"/>
<path d="M31.857 72.9185C31.857 76.0495 32.5442 78.4534 33.4425 79.9077C34.6202 81.8126 36.3767 82.6196 38.1675 82.6196C40.4773 82.6196 42.5903 82.0464 46.6624 76.4145C49.9246 71.9005 53.7685 65.5643 56.3549 61.592L60.7349 54.8623C63.7775 50.1886 67.2993 44.993 71.3371 41.4713C74.6335 38.5969 78.1894 37 81.7682 37C87.7765 37 93.4996 40.4818 97.8796 47.0119C102.673 54.1636 105 63.1718 105 72.468C105 77.9943 103.911 82.0549 102.057 85.263C100.266 88.3655 96.776 91.4652 90.9046 91.4652V82.6196C95.932 82.6196 97.1867 78 97.1867 72.7132C97.1867 65.1793 95.4301 56.8185 91.5605 50.8444C88.8144 46.607 85.2557 44.0177 81.3404 44.0177C77.1059 44.0177 73.6982 47.2115 69.8686 52.9061C67.8325 55.9316 65.7423 59.6187 63.3955 63.7792L60.8119 68.356C55.6221 77.558 54.3075 79.6539 51.7126 83.1129C47.1643 89.1696 43.2804 91.4652 38.1675 91.4652C32.1022 91.4652 28.2668 88.8389 25.8915 84.8809C23.9524 81.6557 23 77.424 23 72.602L31.857 72.9185Z" fill="#0081FB"/>
<path d="M29.9839 47.6364C34.0445 41.3771 39.9045 37 46.6257 37C50.5181 37 54.3877 38.152 58.4284 41.4513C62.8483 45.0586 67.5591 50.9984 73.4363 60.7879L75.5435 64.301C80.6308 72.7759 83.5251 77.136 85.219 79.192C87.3976 81.8325 88.9232 82.6196 90.905 82.6196C95.9324 82.6196 97.187 78 97.187 72.7132L105 72.468C105 77.9943 103.911 82.0549 102.058 85.263C100.267 88.3655 96.7764 91.4652 90.905 91.4652C87.255 91.4652 84.0213 90.6724 80.4454 87.299C77.6965 84.7098 74.4828 80.1102 72.0105 75.9754L64.6562 63.6908C60.9663 57.5257 57.5815 52.9289 55.6224 50.8473C53.5151 48.6088 50.8061 45.9055 46.4831 45.9055C42.9842 45.9055 40.0129 48.3607 37.5263 52.1162L29.9839 47.6364Z" fill="url(#paint0_linear_50104_121522)"/>
<path d="M46.4827 45.9055C42.9839 45.9055 40.0125 48.3607 37.5259 52.1162C34.0099 57.423 31.857 65.3276 31.857 72.9185C31.857 76.0495 32.5442 78.4534 33.4425 79.9077L25.8915 84.8809C23.9524 81.6557 23 77.424 23 72.602C23 63.8334 25.4067 54.694 29.9835 47.6364C34.0442 41.3771 39.9042 37 46.6253 37L46.4827 45.9055Z" fill="url(#paint1_linear_50104_121522)"/>
<defs>
<linearGradient id="paint0_linear_50104_121522" x1="40.395" y1="70.3635" x2="96.8563" y2="73.2151" gradientUnits="userSpaceOnUse">
<stop stop-color="#0064E1"/>
<stop offset="0.4" stop-color="#0064E1"/>
<stop offset="0.83" stop-color="#0073EE"/>
<stop offset="1" stop-color="#0082FB"/>
</linearGradient>
<linearGradient id="paint1_linear_50104_121522" x1="35.8321" y1="76.637" x2="35.8321" y2="55.8204" gradientUnits="userSpaceOnUse">
<stop stop-color="#0082FB"/>
<stop offset="1" stop-color="#0064E0"/>
</linearGradient>
</defs>
</svg>
