<svg width="128" height="128" viewBox="0 0 128 128" fill="none" xmlns="http://www.w3.org/2000/svg">
<circle cx="64" cy="64" r="64" fill="white"/>
<path d="M29.3794 86.1142C26.3828 85.9951 23.9311 85.1751 22.0141 83.6522C21.6483 83.3613 20.7765 82.489 20.484 82.1211C19.7066 81.1436 19.1781 80.1923 18.8256 79.1368C17.7409 75.8877 18.2991 71.6242 20.4224 66.9451C22.2404 62.9391 25.0456 58.9661 29.9398 53.4634C30.6607 52.6537 32.8076 50.2856 32.8214 50.2856C32.8266 50.2856 32.7096 50.4883 32.5623 50.7351C31.2898 52.8666 30.2009 55.3773 29.6078 57.5509C28.6549 61.0386 28.7698 64.0316 29.9444 66.3524C30.7546 67.9513 32.1436 69.3362 33.7055 70.1018C36.4399 71.4415 40.4433 71.5524 45.3323 70.4261C45.6689 70.3481 62.3483 65.9204 82.3979 60.5865C102.448 55.2521 118.855 50.8911 118.857 50.8947C118.863 50.8993 72.2762 70.834 48.0924 81.1759C44.2624 82.8133 43.2383 83.2268 41.4377 83.859C36.835 85.4753 32.7121 86.2465 29.3794 86.1142V86.1142Z" fill="black"/>
</svg>
