<svg width="128" height="128" viewBox="0 0 128 128" fill="none" xmlns="http://www.w3.org/2000/svg">
<circle cx="64" cy="64" r="64" fill="#77B900"/>
<path d="M27.6269 60.3302C27.6269 60.3302 35.8933 48.1337 52.3987 46.8719V42.447C34.1169 43.9153 18.2856 59.399 18.2856 59.399C18.2856 59.399 27.2522 85.3198 52.3987 87.6931V82.9898C33.945 80.6683 27.6269 60.3302 27.6269 60.3302ZM52.3987 73.6361V77.9434C38.4518 75.457 34.5805 60.9591 34.5805 60.9591C34.5805 60.9591 41.277 53.5408 52.3987 52.3378V57.0643C52.3902 57.0643 52.3843 57.0617 52.3774 57.0617C46.5401 56.3612 41.98 61.8142 41.98 61.8142C41.98 61.8142 44.5359 70.9942 52.3987 73.6361ZM52.3987 34.2856V42.447C52.9353 42.4059 53.472 42.371 54.0116 42.3526C74.796 41.6521 88.3384 59.399 88.3384 59.399C88.3384 59.399 72.7845 78.3122 56.58 78.3122C55.0949 78.3122 53.7045 78.1745 52.3987 77.9431V82.9898C53.5154 83.1316 54.6732 83.215 55.8813 83.215C70.9607 83.215 81.8657 75.5139 92.425 66.3993C94.1757 67.8014 101.343 71.2124 102.816 72.7056C92.7765 81.1113 69.3779 87.8871 56.1124 87.8871C54.8337 87.8871 53.6057 87.8096 52.3987 87.6931V94.7849H109.714V34.2856H52.3987ZM52.3987 52.3378V46.8723C52.9298 46.8352 53.465 46.8065 54.0116 46.7893C68.9576 46.3198 78.7632 59.633 78.7632 59.633C78.7632 59.633 68.1723 74.3421 56.8166 74.3421C55.1823 74.3421 53.717 74.0795 52.3983 73.6361V57.0643C58.2168 57.7673 59.3879 60.3376 62.886 66.169L70.6661 59.6088C70.6661 59.6088 64.9868 52.1604 55.413 52.1604C54.3723 52.16 53.3765 52.2331 52.3987 52.3378Z" fill="white"/>
</svg>
