<svg width="128" height="128" viewBox="0 0 128 128" fill="none" xmlns="http://www.w3.org/2000/svg">
<g clip-path="url(#clip0_50106_121552)">
<path d="M0 128H128V0H0V128Z" fill="#0D47A1"/>
<path d="M78.2224 57.8134L80.0002 61.5112L83.9824 60.5868L82.2047 64.2134L85.4047 66.7734L81.4224 67.6268V71.7512L78.2224 69.1912L75.0936 71.7512V67.5557L71.1113 66.8445L74.3113 64.2846L72.5335 60.6579L76.5158 61.5823L78.2224 57.8846V57.8134ZM92.4447 86.2579L94.2224 89.9557L98.2047 89.0312L96.4269 92.6579L99.6269 95.2179L95.6447 96.0712V100.196L92.4447 97.6357L89.3158 100.196V96.0712L85.3336 95.289L88.5335 92.729L86.7558 89.1023L90.738 90.0268L92.4447 86.329V86.2579ZM94.578 35.5557L96.3558 39.2534L100.338 38.329L98.5602 41.9557L101.689 44.5157L97.778 45.369V49.4934L94.578 46.9334L91.378 49.4934V45.369L87.4669 44.5157L90.6669 41.9557L88.8891 38.329L92.8002 39.2534L94.578 35.5557ZM108.8 59.3779L110.578 63.0045L114.56 62.1512L112.782 65.7779L115.982 68.3379L112 69.1912V73.2446L108.871 70.7557L105.671 73.2446V69.1912L101.689 68.3379L104.889 65.7779L103.111 62.1512L107.094 63.0045L108.871 59.3779H108.8Z" fill="#EF5350"/>
<path d="M64 28.4444V0H0V64H28.4444V42.6667L49.7778 64H64V49.7778L42.6667 28.4444H64Z" fill="#F8F9FD"/>
<path d="M21.3333 7.11111V0H7.11111V7.11111H0V21.3333H7.11111V64H21.3333V21.3333H64V7.11111H21.3333Z" fill="#EF5350"/>
<path d="M63.9999 56.8888L35.5554 28.4443H28.4443L63.9999 63.9999V56.8888Z" fill="#EF5350"/>
</g>
<defs>
<clipPath id="clip0_50106_121552">
<rect width="128" height="128" rx="64" fill="white"/>
</clipPath>
</defs>
</svg>
