<svg width="128" height="128" viewBox="0 0 128 128" fill="none" xmlns="http://www.w3.org/2000/svg">
<g clip-path="url(#clip0_49913_119432)">
<path d="M64 128C99.3462 128 128 99.3462 128 64C128 28.6538 99.3462 0 64 0C28.6538 0 0 28.6538 0 64C0 99.3462 28.6538 128 64 128Z" fill="#FF0420"/>
<path d="M45.3376 80.9984C41.5232 80.9984 38.4 80.1024 35.968 78.3104C33.5616 76.4928 32.3584 73.8816 32.3584 70.528C32.3584 69.8112 32.4352 68.9664 32.5888 67.9424C32.9984 65.6384 33.5872 62.8736 34.3552 59.6224C36.5312 50.816 42.1632 46.4128 51.2256 46.4128C53.6832 46.4128 55.9104 46.8224 57.856 47.6672C59.8016 48.4608 61.3376 49.6896 62.464 51.328C63.5904 52.9408 64.1536 54.8608 64.1536 57.088C64.1536 57.7536 64.0768 58.5984 63.9232 59.6224C63.4368 62.464 62.8736 65.2544 62.1824 67.9424C61.056 72.32 59.136 75.6224 56.3712 77.7984C53.632 79.9488 49.9456 80.9984 45.3376 80.9984ZM46.0288 74.0864C47.8208 74.0864 49.3312 73.5488 50.5856 72.4992C51.8656 71.4496 52.7872 69.8368 53.3248 67.6352C54.0672 64.6144 54.6304 62.0032 55.0144 59.7504C55.1424 59.0848 55.2192 58.3936 55.2192 57.6768C55.2192 54.7584 53.7088 53.2992 50.6624 53.2992C48.8704 53.2992 47.3344 53.8368 46.0544 54.8864C44.8 55.936 43.904 57.5488 43.3664 59.7504C42.7776 61.9008 42.2144 64.512 41.6256 67.6352C41.4976 68.2752 41.4208 68.9408 41.4208 69.6576C41.3952 72.6272 42.9568 74.0864 46.0288 74.0864Z" fill="white"/>
<path d="M66.3807 80.5376C66.0223 80.5376 65.7663 80.4352 65.5615 80.2048C65.4079 79.9488 65.3567 79.6672 65.4079 79.3344L72.0383 48.1024C72.0895 47.744 72.2687 47.4624 72.5759 47.232C72.8575 47.0016 73.1647 46.8992 73.4975 46.8992H86.2719C89.8303 46.8992 92.6719 47.6416 94.8223 49.1008C96.9983 50.5856 98.0991 52.7104 98.0991 55.5008C98.0991 56.2944 97.9967 57.1392 97.8175 58.0096C97.0239 61.696 95.4111 64.4096 92.9535 66.176C90.5471 67.9424 87.2447 68.8128 83.0463 68.8128H76.5695L74.3679 79.3344C74.2911 79.6928 74.1375 79.9744 73.8303 80.2048C73.5487 80.4352 73.2415 80.5376 72.9087 80.5376H66.3807ZM83.3791 62.1824C84.7359 62.1824 85.8879 61.824 86.8863 61.0816C87.9103 60.3392 88.5759 59.2896 88.9087 57.9072C89.0111 57.3696 89.0623 56.8832 89.0623 56.4736C89.0623 55.552 88.7807 54.8352 88.2431 54.3488C87.7055 53.8368 86.7583 53.5808 85.4527 53.5808H79.6927L77.8751 62.1824H83.3791Z" fill="white"/>
</g>
<defs>
<clipPath id="clip0_49913_119432">
<rect width="128" height="128" fill="white"/>
</clipPath>
</defs>
</svg>
