<svg width="128" height="128" viewBox="0 0 128 128" fill="none" xmlns="http://www.w3.org/2000/svg">
<g clip-path="url(#clip0_84110_5150)">
<path d="M64 128C99.3462 128 128 99.3462 128 64C128 28.6538 99.3462 0 64 0C28.6538 0 0 28.6538 0 64C0 99.3462 28.6538 128 64 128Z" fill="white"/>
<path d="M64 94.7002L91.7 82.7002L96.5 91.3002L64 105L31.5 91.3002L36.3 82.7002L64 94.7002Z" fill="black"/>
<path d="M85 54C85 42.402 75.598 33 64 33C52.402 33 43 42.402 43 54C43 65.598 52.402 75 64 75C75.598 75 85 65.598 85 54ZM95 54C95 71.1208 81.1208 85 64 85C46.8792 85 33 71.1208 33 54C33 36.8792 46.8792 23 64 23C81.1208 23 95 36.8792 95 54Z" fill="black"/>
</g>
<defs>
<clipPath id="clip0_84110_5150">
<rect width="128" height="128" fill="white"/>
</clipPath>
</defs>
</svg>
