<svg width="128" height="128" viewBox="0 0 128 128" fill="none" xmlns="http://www.w3.org/2000/svg">
<circle cx="64" cy="64" r="64" fill="white"/>
<path d="M90.816 45.4688C90.7418 45.9433 90.657 46.4284 90.5615 46.9268C87.2822 63.7635 76.0631 69.5798 61.7343 69.5798H54.4386C52.6863 69.5798 51.2097 70.8523 50.9366 72.5808L47.2013 96.2704L46.1436 102.985C45.966 104.12 46.8408 105.143 47.986 105.143H60.9257C62.458 105.143 63.7597 104.03 64.0009 102.519L64.1281 101.861L66.5644 86.4006L66.7208 85.5523C66.9594 84.0359 68.2637 82.9224 69.796 82.9224H71.7313C84.268 82.9224 94.0821 77.8325 96.9505 63.1034C98.1488 56.9503 97.5284 51.8127 94.3578 48.1993C93.3981 47.1097 92.2078 46.2057 90.816 45.4688Z" fill="#179BD7"/>
<path d="M87.384 44.0999C86.883 43.9541 86.366 43.8215 85.8358 43.7023C85.303 43.5856 84.7569 43.4822 84.1948 43.3921C82.2278 43.074 80.0725 42.9229 77.7634 42.9229H58.2731C57.7933 42.9229 57.3373 43.0315 56.929 43.2277C56.0303 43.6598 55.3623 44.5108 55.2006 45.5527L51.0544 71.8137L50.9351 72.5799C51.2081 70.8514 52.6847 69.5789 54.4371 69.5789H61.7327C76.0615 69.5789 87.2806 63.7599 90.56 46.9259C90.658 46.4275 90.7402 45.9424 90.8145 45.4678C89.9847 45.0278 89.086 44.6513 88.1184 44.3305C87.8798 44.251 87.6332 44.1741 87.384 44.0999Z" fill="#222D65"/>
<path d="M55.2013 45.5533C55.363 44.5115 56.0311 43.6605 56.9298 43.231C57.3407 43.0348 57.794 42.9262 58.2738 42.9262H77.7642C80.0732 42.9262 82.2285 43.0773 84.1956 43.3954C84.7576 43.4855 85.3037 43.5889 85.8366 43.7056C86.3668 43.8248 86.8837 43.9574 87.3847 44.1032C87.6339 44.1774 87.8805 44.2543 88.1217 44.3312C89.0894 44.652 89.9881 45.0311 90.8178 45.4685C91.7934 39.2465 90.8099 35.0102 87.4457 31.1742C83.7369 26.9511 77.0431 25.1431 68.4776 25.1431H43.611C41.8613 25.1431 40.3688 26.4156 40.0984 28.1467L29.7408 93.7993C29.5367 95.0983 30.5388 96.2701 31.8484 96.2701H47.2005L51.0551 71.8144L55.2013 45.5533Z" fill="#253B80"/>
</svg>
