<svg width="128" height="128" viewBox="0 0 128 128" fill="none" xmlns="http://www.w3.org/2000/svg">
<g clip-path="url(#clip0_83420_67063)">
<circle cx="64" cy="64" r="64" fill="#F8E8DB"/>
<rect x="19" y="19" width="90" height="90" rx="24" fill="#E68F3F"/>
<path d="M63.5 31L92 47.4523V80.3568L63.5 96.8091L35 80.3568V47.4523L63.5 31Z" fill="white"/>
<path d="M60.6758 61.1837V63.36H66.7644C68.3967 63.36 69.3553 62.3237 69.8735 61.391C70.3917 60.4582 70.7285 58.826 69.8735 57.66C69.0962 56.5978 68.0599 55.976 66.7644 55.976H60.6758V58.1005H62.9039V58.826H52.5403V54.9396H47.7212V49.3691H69.0703C70.0289 49.3691 71.8685 49.4469 74.5112 51.1051C77.8276 53.1778 79.3303 56.8569 78.3199 61.9869C78.0224 63.4684 77.2968 64.83 76.233 65.9031C75.1691 66.9762 73.8137 67.7135 72.3349 68.0237L79.3303 78.1282H70.0289L64.0699 69.371H60.7017V78.1282H52.5403V66.21H47.6953V60.4582H62.9039V61.1837H60.6758Z" fill="#E68F3F"/>
</g>
<defs>
<clipPath id="clip0_83420_67063">
<rect width="128" height="128" fill="white"/>
</clipPath>
</defs>
</svg>
