<svg width="128" height="128" viewBox="0 0 128 128" fill="none" xmlns="http://www.w3.org/2000/svg">
<g clip-path="url(#clip0_84110_5145)">
<path d="M64 128C99.3462 128 128 99.3462 128 64C128 28.6538 99.3462 0 64 0C28.6538 0 0 28.6538 0 64C0 99.3462 28.6538 128 64 128Z" fill="#DE2523"/>
<path d="M67.35 16.7502L104.3 37.3502C106.45 38.5502 107.85 40.9502 107.95 43.3502L108 84.4003C107.96 85.6257 107.619 86.8225 107.009 87.8859C106.399 88.9494 105.538 89.847 104.5 90.5003L67.7 111C65.55 112.25 62.7 112.25 60.5 111.15C60.5 111.15 25 91.2503 23.7 90.6503C20.25 88.5003 20.1 85.6503 20 84.4003V43.6002C20 41.2002 21.25 38.9502 23.35 37.6002C23.35 37.6002 49.25 23.2502 60.3 16.9502C63.25 15.2502 66.2 16.2502 67.3 16.7502H67.35ZM62.7 21.8002L26.8 41.4002C26.45 41.6002 25.55 42.4002 25.55 43.3502L25.5 84.4003C25.5 85.2003 26 86.0003 26.65 86.5003L62.7 106.2C63.75 106.8 64.9 106.35 65.3 106.2L101.2 86.5503C101.9 86.1503 102.4 85.1503 102.5 84.4003V43.6002C102.5 43.2002 102.5 42.2502 101.35 41.5002L65.3 21.8002C64.8965 21.5979 64.4514 21.4925 64 21.4925C63.5486 21.4925 63.1035 21.5979 62.7 21.8002ZM64 50.0002L91.25 65.2502C93 66.2502 94.15 68.3502 94.25 70.2502V76.2502C94.25 78.2502 93.25 80.0003 91.6 81.1003L67.2 94.7503C66.35 95.2503 64 96.2503 61.35 94.8503L36.85 81.3003C35.1 80.3003 33.85 78.2003 33.75 76.3003V67.7502L39.25 71.0002V76.2502C39.25 76.6002 39.5 76.9502 39.75 77.1502L63.6 89.9003C63.7495 89.9882 63.9164 90.0427 64.089 90.06C64.2617 90.0772 64.436 90.0569 64.6 90.0003L88.15 77.2002C88.3 77.1502 88.7 76.7002 88.7 76.4502L88.75 70.2502C88.75 69.7502 88.4 69.4502 88.25 69.3502L64 55.7502V50.0002ZM67.35 30.5502L90.5 44.0002C92.7 45.2502 94.1 47.8502 94.25 50.2502V57.7502L88.75 55.0002V50.2502C88.75 50.0502 88.75 49.0502 87.75 48.2502L65.1 35.5002C64.7 35.3002 63.95 34.9502 62.75 35.3502L40.5 48.0502C40 48.2502 39.25 49.0002 39.3 49.9502L39.25 54.6002C39.25 55.4002 39.75 56.2502 40.4 56.7002L64 70.3003V75.7502L37.5 60.8502C36.423 60.2718 35.511 59.4286 34.85 58.4002C34.2 57.4002 33.85 55.8002 33.7 54.6002V50.2002C33.7799 48.9404 34.1568 47.7174 34.7998 46.6312C35.4429 45.5449 36.3339 44.6262 37.4 43.9502L60.05 30.7002C61.1713 30.1093 62.415 29.7881 63.6823 29.762C64.9495 29.736 66.2053 30.0059 67.35 30.5502Z" fill="white"/>
</g>
<defs>
<clipPath id="clip0_84110_5145">
<rect width="128" height="128" fill="white"/>
</clipPath>
</defs>
</svg>
