<svg width="128" height="128" viewBox="0 0 128 128" fill="none" xmlns="http://www.w3.org/2000/svg">
<path d="M128 64C128 99.3464 99.3461 128 64.0002 128C28.654 128 0 99.3468 0 64C0 28.654 28.654 0 64.0002 0C99.3465 0 128 28.654 128 64Z" fill="white"/>
<path d="M60.6599 56.8009C61.3175 56.9565 61.7383 57.1493 62.1174 57.3229C62.5305 57.5122 62.894 57.6787 63.4605 57.7496C64.1689 57.7371 64.3799 57.6439 64.9024 57.4132C65.2315 57.268 65.6842 57.0681 66.4624 56.7995C66.5945 56.7529 66.7764 56.4612 66.5509 56.2375C65.6395 55.3328 64.9333 55.5586 64.3138 55.7567C64.0834 55.8303 63.8649 55.9002 63.6523 55.9066C63.3315 55.9101 63.0168 55.8267 62.7051 55.7441C62.0067 55.5589 61.3236 55.3779 60.6211 56.1883C60.448 56.4263 60.3578 56.66 60.6599 56.8009Z" fill="#006B4D"/>
<path d="M58.6917 60.074L58.8312 60.9509C59.4671 61.3745 59.9553 61.897 60.4224 62.3968C61.3475 63.3868 62.1899 64.2883 63.9335 64.1591C66.2605 64.2973 68.0063 62.1172 69.1656 60.3723C67.6673 60.1654 66.0145 60.2093 64.317 60.2544C62.447 60.3041 60.5229 60.3552 58.6917 60.074Z" fill="#006B4D"/>
<path d="M70.1885 27.3345C68.3451 25.5398 65.9234 23.8464 63.6405 22.5305L58.1092 26.7524C57.4723 27.1826 58.0011 27.6876 58.3984 28.067C58.4513 28.1175 58.5018 28.1658 58.5469 28.2113C59.6591 28.1942 60.811 28.1323 61.9835 28.0694C64.4464 27.9372 66.9998 27.8002 69.4643 28.0622L70.1885 27.3345Z" fill="#006B4D"/>
<path fill-rule="evenodd" clip-rule="evenodd" d="M127.957 61.6405C123.669 64.7754 120.138 62.7888 116.511 60.7482C113.477 59.0414 110.376 57.2968 106.709 58.4795C106.803 58.7517 106.888 59.0259 106.973 59.2993C107.282 60.2951 107.587 61.2801 108.313 62.1172C111.364 62.0957 114.01 63.44 116.622 64.7665C120.157 66.5617 123.627 68.3243 127.947 66.6254C127.867 68.5989 127.698 70.5493 127.444 72.4728C123.997 73.4186 121.162 71.9681 118.325 70.5168C115.73 69.1889 113.133 67.8603 110.065 68.3653L110.794 72.0126C113.66 72.1068 116.009 73.476 118.359 74.8462C120.871 76.3102 123.385 77.7754 126.533 77.6873C126.18 79.3083 125.765 80.9063 125.292 82.4788C124.851 82.7209 124.185 82.6846 123.16 82.1979C121.461 81.7896 119.96 80.9217 118.461 80.055C116.409 78.8682 114.36 77.6834 111.81 77.6834C111.454 78.3375 111.487 79.1599 111.519 79.979C111.536 80.3839 111.552 80.7881 111.521 81.1707C113.848 81.5357 115.848 82.701 117.847 83.8662C119.776 84.9901 121.705 86.1138 123.926 86.519C123.376 87.9812 122.774 89.4179 122.123 90.8269C122.081 90.8612 122.039 90.8945 121.995 90.927C120.413 90.5419 118.975 89.7237 117.543 88.9089C115.55 87.7743 113.567 86.6462 111.222 86.7028L110.504 90.0519C112.732 90.1092 114.501 91.2796 116.269 92.449C117.54 93.2896 118.81 94.1297 120.249 94.5555C119.54 95.8566 118.788 97.1303 117.994 98.3748C116.978 98.0202 116.035 97.4903 115.094 96.9611C113.369 95.9906 111.648 95.0225 109.478 95.1428C109.457 94.58 109.588 93.9845 109.722 93.3772C109.901 92.5651 110.084 91.7317 109.916 90.927C106.867 91.8338 104.598 89.8327 102.374 87.8699C101.738 87.3084 101.105 86.75 100.458 86.2638C100.415 82.5618 98.3769 79.5189 96.3655 76.5156C94.4905 73.7159 92.6385 70.9506 92.4467 67.7178C92.3704 66.3819 92.574 64.9557 93.1827 63.4231C95.6575 57.7008 94.8801 50.2715 92.1664 44.9364C91.3418 43.5325 89.8808 42.4241 88.5191 41.5987L88.6351 41.8445C90.6038 46.0137 92.9155 50.9095 91.7273 55.9986C91.6581 57.9728 91.0492 59.9085 90.4458 61.8264C89.8245 63.8016 89.209 65.7578 89.1953 67.7178C89.1862 69.0952 89.48 70.4726 90.2723 71.8635C91.0067 73.1861 91.8777 74.4923 92.755 75.808C95.6465 80.1443 98.6065 84.5832 96.9691 90.0506C96.6922 91.0832 96.157 92.0053 95.6231 92.9254C95.0252 93.9555 94.4289 94.9829 94.1986 96.1596C94.6103 96.5006 95.0196 96.8464 95.4285 97.192C98.6856 99.9445 101.926 102.683 106.277 102.855C106.913 102.448 107.189 101.533 107.456 100.644C107.921 99.0958 108.362 97.6299 110.642 99.0778L115.766 101.641C114.88 102.857 113.953 104.041 112.985 105.19C112.831 105.114 112.677 105.037 112.523 104.959C110.784 104.09 109.026 103.21 106.855 103.293C106.124 104.068 105.494 104.939 105.55 106.052C107.295 106.34 108.896 107.076 110.353 108.096C110.343 108.118 110.333 108.14 110.323 108.161C109.223 109.314 108.081 110.427 106.898 111.495L103.079 110.13C102.902 110.384 102.675 110.641 102.445 110.901C101.794 111.638 101.12 112.401 101.485 113.188C102.179 113.485 102.931 113.862 103.548 114.322C101.639 115.824 99.6424 117.22 97.5672 118.501C96.7863 116.407 95.539 114.512 94.2932 112.62C92.1188 109.317 89.9494 106.021 90.2736 101.688L89.985 101.4C88.7588 102.779 88.9063 104.851 89.0408 106.741C89.0665 107.102 89.0917 107.456 89.1068 107.797C89.8193 109.617 90.9342 111.268 92.0478 112.917C93.499 115.066 94.948 117.212 95.5012 119.723C94.3461 120.378 93.1687 120.997 91.9703 121.581C91.6584 118.565 89.8798 115.786 88.1349 113.059C85.074 108.277 82.1168 103.657 87.3619 98.2023C87.9601 97.2889 88.6428 96.3842 89.3331 95.4695C91.9457 92.0073 94.6662 88.4022 93.3218 83.642C92.5895 81.2035 91.0774 79.1543 89.5731 77.1156C87.4931 74.2966 85.4279 71.4978 85.4596 67.7178L85.4691 67.2099C85.8348 65.4431 86.3942 63.647 86.9604 61.8291C88.571 56.6576 90.2365 51.3098 87.6518 45.9633C86.6782 43.0568 84.5029 39.754 81.5441 38.5392C85.9553 43.5883 87.7042 51.8264 85.1805 58.6204C85.0167 58.9685 84.8449 59.3252 84.6695 59.6893L84.6691 59.6902C83.4833 62.1523 82.135 64.9519 81.9819 67.7191H81.9714C81.8777 69.3782 82.2165 71.0281 83.2869 72.5925C83.8722 73.5421 84.5328 74.5081 85.2067 75.4934C88.3895 80.147 91.8688 85.2343 89.1073 91.0787C88.3832 92.1645 87.556 93.2539 86.7175 94.3581C83.1757 99.0226 79.4331 103.952 82.4118 109.993C82.9407 110.878 83.527 111.762 84.1185 112.654C86.2989 115.944 88.5492 119.338 88.2525 123.245C86.8476 123.821 85.4177 124.348 83.9648 124.825C84.7363 120.541 82.5627 116.985 80.4232 113.486C77.7581 109.127 75.146 104.854 78.346 99.3687C79.1164 98.2232 80.0137 97.0925 80.9172 95.954C84.3368 91.6453 87.8446 87.2253 84.8927 81.4715C84.1104 79.8911 83.0355 78.5368 81.9758 77.2016C80.0133 74.729 78.1027 72.3218 78.1973 68.6644L78.356 67.7187C78.8169 65.2673 79.7083 62.8561 80.5998 60.4445C82.6133 54.9979 84.6274 49.5494 81.6845 43.6328C80.5688 41.1121 78.339 38.5423 75.8642 37.086L75.7146 37.2355C80.6647 42.0374 82.1707 49.938 79.5018 56.289C79.0133 57.7507 78.2959 59.2102 77.5708 60.6853C76.4475 62.9705 75.3057 65.2934 74.9681 67.72C74.7039 69.6027 74.9267 71.5539 76.0146 73.6093C76.584 74.5109 77.2309 75.4225 77.8884 76.349C80.8711 80.5519 84.0721 85.0624 81.2455 90.3505C80.4996 91.445 79.6512 92.5334 78.7948 93.6321C75.4799 97.8847 72.045 102.291 73.9701 107.8C74.6179 109.273 75.4368 110.728 76.2625 112.196C78.6746 116.483 81.1449 120.873 79.5774 126.091C78.134 126.452 76.6711 126.764 75.1906 127.025C77.2934 121.272 74.2214 115.582 71.4086 110.372C70.8303 109.301 70.263 108.25 69.7538 107.223C67.5804 102.053 70.5183 98.4111 73.5062 94.7069C75.7889 91.8768 78.1008 89.0106 78.1846 85.3996C78.1592 82.4091 76.3811 80.1368 74.5987 77.859C73.1737 76.038 71.746 74.2135 71.2088 72.0156C69.7699 70.8018 68.3006 71.2791 66.7412 71.7857C65.6171 72.1509 64.4462 72.5313 63.2062 72.3043C62.4421 72.4578 61.5349 72.1362 60.6222 71.8128C58.9246 71.211 57.2083 70.6027 56.3599 73.0329C55.8094 74.974 54.5654 76.7329 53.3268 78.4842C51.0699 81.6753 48.8311 84.8408 50.8395 89.0359C51.7532 90.8185 53.0636 92.4532 54.3688 94.0812C57.2913 97.7268 60.1874 101.339 58.5426 106.505C57.9138 108.565 56.8575 110.596 55.7931 112.643C53.4146 117.216 50.9956 121.867 53.215 127.095C51.6756 126.834 50.1549 126.518 48.655 126.149C48.6478 126.053 48.645 125.953 48.6468 125.847C47.3 121.096 49.4085 117.312 51.5029 113.552C53.7062 109.598 55.8941 105.671 54.0281 100.675C53.3595 98.3198 51.7525 96.3803 50.1565 94.4541C47.7088 91.4999 45.2869 88.5769 46.3154 84.2319C46.8409 81.76 48.307 79.5992 49.7666 77.4479C51.796 74.457 53.813 71.4844 53.272 67.7196C53.1966 67.1776 53.0632 66.623 52.8726 66.0448C52.3011 64.4319 51.5923 62.8189 50.8772 61.1915C48.4956 55.7715 46.0437 50.1916 48.3581 43.9223C49.0192 42.0593 50.2079 40.4141 51.3995 38.7648C51.6971 38.353 51.9951 37.9404 52.2849 37.5246C47.4826 40.0945 45.0601 45.5285 45.1595 51.0568C45.0425 54.418 46.379 57.5097 47.6908 60.544C48.7252 62.9369 49.7443 65.2941 50.0228 67.7196C50.2714 69.9398 49.9077 72.2132 48.3581 74.6248C48.0314 75.068 47.6943 75.5138 47.3546 75.9631L47.3538 75.9641C44.4175 79.847 41.284 83.9907 42.9768 89.0351C43.719 91.3814 45.364 93.3455 47.0079 95.3084C49.3416 98.095 51.6733 100.879 51.4172 104.751C51.3963 108.153 49.6611 110.996 47.923 113.844C45.8509 117.239 43.7747 120.64 44.5939 125.005C43.0857 124.526 41.6018 123.992 40.1444 123.406C39.7895 119.778 41.6288 116.976 43.4775 114.16C45.1643 111.591 46.8588 109.01 46.9014 105.778C47.498 101.558 45.0374 98.6946 42.5743 95.8287C40.2201 93.0893 37.8636 90.3473 38.1723 86.4151C38.1432 82.488 40.3533 79.4859 42.5679 76.4778C43.8008 74.8031 45.035 73.1266 45.885 71.2875C46.2927 70.0361 46.4283 68.8537 46.3738 67.72C46.2456 65.2177 45.1815 62.9557 44.1026 60.6622C42.7301 57.7445 41.3336 54.7758 41.8096 51.1968C42.0956 46.4921 43.6962 42.3683 46.7531 38.83C42.5356 40.5244 40.7932 45.3794 39.6282 49.4544C38.3736 53.509 39.7559 57.3108 41.1013 61.011C41.924 63.2739 42.733 65.4988 42.9166 67.7205C43.1312 70.3056 42.4994 72.8759 40.0668 75.5038C36.5726 79.6215 33.0291 84.8171 35.5519 90.3514C36.4122 92.3179 37.8659 94.1441 39.32 95.9707C42.3811 99.8161 45.4439 103.664 42.9759 108.827C42.2611 110.556 41.1874 112.133 40.115 113.709C38.4144 116.208 36.7168 118.702 36.4578 121.787C35.2347 121.203 34.0331 120.581 32.8544 119.924C33.1815 117.364 34.7305 115.132 36.2503 112.942C38.6881 109.43 41.0505 106.026 38.1728 101.551C37.919 102.43 37.7817 103.494 37.6435 104.565C37.5454 105.325 37.4469 106.089 37.306 106.793C36.5241 108.825 35.3322 110.67 34.1406 112.515C32.8537 114.507 31.567 116.499 30.7974 118.725C28.6132 117.397 26.5149 115.942 24.5126 114.37L26.6833 113.041C26.4325 112.204 25.8231 111.477 25.2259 110.765C25.1297 110.65 25.0338 110.536 24.9397 110.421C23.8035 110.261 22.9277 110.706 22.0537 111.149C21.7654 111.295 21.4771 111.442 21.1798 111.566C19.9246 110.435 18.7144 109.256 17.5522 108.03C18.0744 107.301 19.2512 107.084 20.3327 106.884C22.102 106.558 23.6162 106.278 21.5915 103.883C19.754 102.734 17.9111 103.79 16.2139 104.762C15.852 104.969 15.4967 105.172 15.1495 105.35C14.1858 104.213 13.2612 103.041 12.3776 101.838C12.6871 101.644 12.997 101.441 13.3083 101.238C15.306 99.9346 17.3673 98.5894 19.8374 99.0787C20.0803 99.516 20.2478 100.022 20.4152 100.527C20.7501 101.539 21.0844 102.548 22.0201 103.005C26.1264 102.925 29.2492 100.358 32.3577 97.8036C33.0317 97.2496 33.7051 96.6962 34.3877 96.1687C31.718 92.1962 29.5449 86.712 31.9164 81.908C32.6567 80.0324 33.8601 78.2721 35.0667 76.5072C36.957 73.7422 38.855 70.9659 38.9921 67.7174C39.0426 66.5061 38.8538 65.2317 38.3241 63.86C35.7062 57.117 34.7823 48.0038 39.7791 42.0356C37.0622 42.7655 35.4603 46.1516 34.5373 48.7228C32.5836 53.0053 33.5078 57.0829 34.4288 61.1466C34.9238 63.3308 35.4179 65.5111 35.4638 67.717C35.4817 68.8519 35.3897 69.9895 35.1146 71.1353C34.31 72.7589 33.3493 74.3203 32.3882 75.8822C30.2774 79.3128 28.1647 82.7464 27.6997 86.8498C26.9917 87.3014 26.3141 87.8339 25.635 88.3674C23.4753 90.0645 21.3013 91.7728 18.0929 90.9252C17.9447 92.0397 18.2844 93.7384 18.6711 95.0006C16.4417 94.9071 14.6851 95.9713 12.9274 97.0361C12.0486 97.5685 11.1693 98.1012 10.2307 98.4892C10.1883 98.5068 10.1468 98.5212 10.1062 98.5324C9.30255 97.2807 8.54127 95.9992 7.82444 94.6898C9.09995 94.2464 10.2392 93.478 11.3785 92.7095C13.1532 91.5125 14.9278 90.3154 17.2174 90.3471C17.5225 89.4995 17.2843 88.7014 17.046 87.9027C16.9416 87.5529 16.8372 87.203 16.7784 86.8489C14.8758 86.0044 12.5232 87.5299 10.3538 88.9366C8.64358 90.0455 7.04718 91.0807 5.87481 90.8227C5.20766 89.3793 4.59268 87.9069 4.0323 86.4079C6.40149 86.2462 8.34077 85.0527 10.2816 83.8582C12.1704 82.6957 14.0607 81.5323 16.3502 81.3185L16.4893 77.8312C13.846 77.5642 11.6742 78.7893 9.50264 80.0142C7.361 81.2223 5.21965 82.4302 2.62667 82.2065C2.17354 80.6766 1.77605 79.1228 1.43655 77.5475C4.64076 77.72 7.16696 76.2845 9.69246 74.8494C11.9448 73.5695 14.1966 72.29 16.9283 72.1517C17.6378 71.2187 17.775 69.8763 17.908 68.5761C17.92 68.4587 17.9319 68.3417 17.9443 68.2254C15.0158 67.8438 12.5107 69.1337 10.0007 70.4262C7.0779 71.9312 4.1483 73.4398 0.535359 72.3166C0.292246 70.4431 0.130157 68.5441 0.05272 66.6233C4.72362 68.4322 8.95427 66.2289 13.0216 64.1107C14.1887 63.5028 15.3425 62.902 16.4893 62.405C16.9266 62.2741 17.4457 62.2628 17.9649 62.2515C18.9993 62.229 20.0345 62.2065 20.4252 61.2386C20.4065 60.83 20.6677 60.396 20.9229 59.9717C21.3646 59.2378 21.7886 58.5331 20.7151 58.0396C17.4167 57.592 14.6038 59.0853 11.8346 60.5554C8.28881 62.4377 4.81452 64.2821 0.484011 61.9659L0.0385742 61.755C0.848881 38.2505 14.3339 17.9651 33.8715 7.52103C34.0433 7.43251 34.2154 7.34445 34.3877 7.25683C34.4489 7.22189 34.5101 7.18708 34.5715 7.15239C43.3293 2.60942 53.2702 0.0308569 63.8105 0.000275096C63.8747 9.4531e-05 63.9389 2.87416e-06 64.0032 0C76.3829 0.000571691 87.9416 3.51612 97.7356 9.60303C97.8673 9.69409 97.9984 9.7858 98.1289 9.87815C98.8359 10.3119 99.5406 10.7672 100.241 11.2427C116.403 22.3659 127.199 40.7231 127.957 61.6405ZM36.5678 40.7206C32.0183 37.7454 26.37 39.9793 21.8563 41.7645L21.854 41.7654L21.8525 41.766C21.3621 41.96 20.8851 42.1486 20.4243 42.3247C19.9879 37.9087 18.1945 33.8856 14.4553 30.9756C14.3581 30.9273 14.2509 30.8646 14.1374 30.7982C13.8273 30.6169 13.47 30.4079 13.1394 30.3875C12.869 30.3705 12.6118 30.4795 12.4121 30.8252C13.7936 39.3244 9.54525 45.7297 5.32583 52.0914C4.36903 53.534 3.41371 54.9744 2.52587 56.4364C4.12518 57.7435 6.69462 57.5482 8.63445 57.1641C9.82198 56.6892 10.9964 56.1323 12.1761 55.5729C16.0546 53.7337 19.9905 51.8672 24.6393 52.7987C26.4322 49.7431 29.4446 46.7834 31.9146 44.3583C32.5017 43.8503 33.1741 43.4144 33.8396 42.983C34.885 42.3053 35.9135 41.6386 36.5678 40.7206ZM51.9949 47.2687C51.8981 47.8966 52.0433 49.0158 53.0113 48.5833C54.1214 47.046 55.862 47.5384 57.3605 47.9624C57.8949 48.1135 58.3984 48.256 58.8317 48.2946V47.7078C57.9274 46.2877 56.0669 45.5743 54.1776 45.6454C53.7416 45.6607 53.2986 45.7243 52.8722 45.8233C52.24 45.9637 51.8 46.5423 51.9949 47.2687ZM75.7124 41.0201C74.3582 38.0121 71.2537 36.7947 68.4366 36.0674C67.0558 35.8974 65.6226 35.7823 64.2012 35.7688L64.134 35.7681C63.8902 35.7656 63.6464 35.7632 63.4037 35.7688C59.4277 35.849 55.6287 36.8697 53.3078 40.1424C53.2204 40.3847 53.0552 40.6527 52.8836 40.9312C52.4007 41.7147 51.8667 42.5811 52.87 43.1919C53.0277 43.1819 53.1864 43.1713 53.3461 43.1606L53.3489 43.1605C56.284 42.9649 59.519 42.7494 61.4504 45.236C61.4504 45.8685 61.5612 46.5578 61.6723 47.2488C61.9706 49.1034 62.2708 50.9698 60.434 51.7828C59.3493 50.7784 58.1608 51.0391 56.9506 51.3045C55.8301 51.5502 54.6909 51.8 53.5982 51.0537C52.5295 50.4224 51.8532 51.1593 51.4155 52.0806C50.7837 58.0937 53.9321 64.7298 59.5576 68.0754C61.8375 68.8977 64.9023 69.6799 67.2816 68.5131C73.0048 65.8482 75.3754 59.7405 76.441 54.1133C76.4206 53.9606 76.4042 53.7873 76.3866 53.6022C76.281 52.4888 76.1348 50.9484 74.8465 50.9051C73.1824 51.9576 70.7698 51.3677 68.9813 50.9304L68.8774 50.9051C68.3712 51.0685 68.095 51.5068 67.8138 51.953C67.5046 52.4437 67.1894 52.9438 66.5556 53.0982L65.8184 52.51C65.187 49.8464 64.7976 46.0618 67.2738 44.2188C70.0407 43.103 73.2904 42.6155 76.1519 43.491C76.5085 42.8763 76.2596 42.3488 76.0103 41.8206C75.8862 41.5576 75.762 41.2944 75.7124 41.0201ZM72.4598 45.8144C72.3812 45.8176 72.3027 45.8208 72.2239 45.8233C71.9157 46.0288 71.4288 46.1273 70.9297 46.2282C69.7822 46.4602 68.5697 46.7053 69.3148 48.2946C71.1499 46.843 73.7041 47.848 75.5452 48.5724L75.5729 48.5833C76.1258 48.3088 76.1328 47.8099 76.1398 47.3187C76.1414 47.2045 76.143 47.0905 76.1515 46.98C75.5598 45.8791 74.1458 45.7758 72.7924 45.8028C72.6805 45.8056 72.5697 45.81 72.4598 45.8144ZM93.9104 25.2952C91.5181 25.1683 89.3851 26.0308 87.252 26.8933C86.1839 27.3252 85.1157 27.7571 84.015 28.0648C83.8433 26.3875 84.5357 24.6539 85.2246 22.929C85.6886 21.7673 86.151 20.6094 86.3468 19.4753C81.9552 19.7578 78.3156 21.9841 74.7038 24.1933C73.929 24.6673 73.1554 25.1405 72.376 25.5935C71.3549 23.1261 70.3307 20.646 69.3165 18.1694L75.1369 12.6386L75.286 11.91L67.4242 11.4722C66.8398 10.4483 66.4082 9.33397 65.9777 8.22255C65.4106 6.7585 64.8455 5.29942 63.9356 4.05865C63.2806 5.29574 62.733 6.56894 62.1856 7.84185C61.6386 9.11394 61.0915 10.3861 60.4375 11.6213L52.5849 12.0604V12.6386L58.5448 18.0199C58.4885 18.2334 58.4326 18.4484 58.3764 18.6642L58.3757 18.6668C57.7045 21.2463 57.0001 23.9535 55.3461 25.8821C54.7567 25.5291 54.1686 25.1707 53.5799 24.812C50.6809 23.0455 47.7655 21.2689 44.5831 20.0617L44.5399 20.0478L44.4206 20.0089C43.5126 19.7125 42.3012 19.3171 41.524 19.9126C41.7208 20.3464 41.9305 20.7855 42.1423 21.2293C43.2337 23.5153 44.3841 25.9248 44.1453 28.3639C43.2531 28.1997 42.4673 27.8083 41.686 27.4191C41.0649 27.1098 40.4468 26.8019 39.7804 26.6107C39.4143 26.5108 39.0343 26.3916 38.6465 26.2698C37.1284 25.7933 35.4905 25.2792 34.1 25.7439C37.0108 29.8158 39.3867 34.0775 40.2085 38.9778C49.865 34.3173 61.1264 31.7539 72.816 33.7457C77.3012 34.4595 81.491 36.0845 85.551 37.6591C86.451 38.0082 87.3445 38.3547 88.2335 38.6883C88.3834 34.6629 90.4102 31.2569 92.3562 27.9868C92.8942 27.0826 93.4261 26.1889 93.9104 25.2952ZM110.493 53.2369C112.029 53.6435 113.567 54.4441 115.115 55.2495C118.546 57.0355 122.023 58.8453 125.631 56.4368C124.73 54.9425 123.743 53.4708 122.752 51.9948C118.729 45.9984 114.659 39.9308 116.173 31.992C116.37 31.3166 115.934 30.6329 115.306 30.537C112.349 31.7457 110.058 34.6595 108.888 37.5237C108.727 38.09 108.588 38.6681 108.449 39.2466C108.172 40.3987 107.895 41.5521 107.443 42.6151C103.9 40.7712 100.12 38.9848 95.8032 39.4165C95.6634 39.4339 95.5183 39.4506 95.3696 39.4676C93.8617 39.6409 91.9893 39.856 91.7277 41.3105C96.6264 43.9284 100.655 48.2973 103.657 52.9495C105.747 52.6086 108.31 52.8998 110.493 53.2369Z" fill="#006B4D"/>
</svg>
