<svg width="128" height="128" viewBox="0 0 128 128" fill="none" xmlns="http://www.w3.org/2000/svg">
<circle cx="64" cy="64" r="64" fill="#D0FA34"/>
<path fill-rule="evenodd" clip-rule="evenodd" d="M35.773 101.589C35.7025 94.5236 35.0936 86.3562 34.4747 80.1112C34.4077 79.4523 34.5965 78.7929 35.0021 78.2693C35.4077 77.7457 35.9989 77.3981 36.6536 77.2982L36.7543 77.2831C37.3911 77.1847 38.0418 77.3257 38.5808 77.6788C39.1198 78.032 39.5089 78.5722 39.673 79.1953C40.4323 82.3405 41.6931 85.343 43.4069 88.0873C44.9569 90.523 50.3817 98.9319 61.7747 98.9319C70.0779 98.9319 76.167 93.0643 76.167 85.6467C76.167 78.7928 70.6315 76.025 59.787 71.9287C56.5814 70.6002 53.2601 69.3875 50.0495 67.9482C45.6211 65.8397 35.2144 60.9735 35.2144 47.4669C35.2144 32.4255 47.2818 23.5687 62.6654 23.5687C66.3994 23.5687 71.7134 24.092 77.0376 26.5377C78.2151 27.0762 79.604 26.6585 80.2985 25.5715L81.1791 24.1826C81.4065 23.8222 81.7193 23.5235 82.0897 23.3128C82.4601 23.1022 82.8767 22.9861 83.3027 22.9749C83.9722 22.9588 84.6223 23.2005 85.1186 23.65C85.615 24.0996 85.9197 24.7226 85.9698 25.3904C86.4588 31.6908 87.1604 37.973 88.0733 44.2261C88.2146 44.5709 88.2803 44.9419 88.266 45.3142C88.2518 45.6864 88.1579 46.0514 87.9907 46.3843C87.8235 46.7172 87.5869 47.0104 87.2968 47.2442C87.0067 47.478 86.6698 47.6468 86.309 47.7394C85.9481 47.832 85.5716 47.8461 85.2048 47.7809C84.838 47.7156 84.4894 47.5725 84.1826 47.3612C83.8758 47.1499 83.6178 46.8752 83.4261 46.5558C83.2344 46.2363 83.1134 45.8795 83.0712 45.5094C81.6823 41.8408 80.8973 40.1248 79.3725 37.8402C75.7241 32.8633 70.8529 29.4363 64.7689 29.4363C56.9085 29.4363 52.2637 35.8474 52.2637 41.0508C52.2637 47.0241 57.5728 49.5704 59.8977 50.6775C64.6582 53.0024 69.6351 54.5523 74.617 56.5451C82.5831 59.645 93.5384 64.4055 93.5384 79.0142C93.5384 93.3964 82.0296 105.459 63.7725 105.459C54.6993 105.459 48.7864 102.59 45.3544 100.411C45.0633 100.228 44.7386 100.105 44.3993 100.049C44.0599 99.9929 43.7128 100.005 43.3783 100.085C43.0437 100.164 42.7284 100.31 42.4508 100.513C42.1731 100.716 41.9388 100.972 41.7614 101.267L40.7801 102.887C40.5648 103.239 40.2692 103.534 39.9175 103.75C39.5659 103.965 39.1682 104.094 38.7571 104.125L38.5709 104.14C38.2169 104.169 37.8606 104.125 37.5244 104.01C37.1881 103.896 36.8791 103.713 36.6166 103.474C36.3541 103.234 36.1437 102.943 35.9986 102.619C35.8534 102.295 35.7766 101.944 35.773 101.589Z" fill="#221F20"/>
</svg>
