<svg width="32" height="32" viewBox="0 0 32 32" fill="none" xmlns="http://www.w3.org/2000/svg">
<path d="M16 32C24.8366 32 32 24.8366 32 16C32 7.16344 24.8366 0 16 0C7.16344 0 0 7.16344 0 16C0 24.8366 7.16344 32 16 32Z" fill="url(#paint0_linear_49015_11039)"/>
<path d="M12.6111 7.67027C12.3569 7.6311 12.3461 7.62651 12.4657 7.60823C12.695 7.57321 13.2361 7.62095 13.609 7.70907C14.4796 7.91475 15.2717 8.44163 16.1173 9.37742L16.342 9.62593L16.6633 9.57465C18.0172 9.35836 19.3945 9.53026 20.5465 10.0592C20.8634 10.2047 21.3631 10.4943 21.4255 10.5688C21.4454 10.5925 21.4819 10.7452 21.5066 10.9081C21.5922 11.4719 21.5494 11.904 21.376 12.2267C21.2815 12.4024 21.2762 12.458 21.3398 12.6083C21.3905 12.7283 21.5317 12.817 21.6715 12.8169C21.9577 12.8165 22.2658 12.3566 22.4087 11.7165L22.4654 11.4623L22.5777 11.5888C23.1939 12.2827 23.678 13.2291 23.7611 13.9027L23.7828 14.0783L23.6792 13.9186C23.501 13.6439 23.3218 13.4568 23.0925 13.306C22.679 13.0341 22.2418 12.9416 21.0841 12.881C20.0383 12.8262 19.4465 12.7374 18.8597 12.5472C17.8613 12.2237 17.358 11.7927 16.172 10.2462C15.6452 9.55934 15.3196 9.17927 14.9958 8.87319C14.2598 8.17771 13.5367 7.81298 12.6111 7.67027Z" fill="#FE007A"/>
<path d="M21.6614 9.2046C21.6878 8.74436 21.7504 8.44071 21.8768 8.16344C21.9268 8.0537 21.9736 7.96387 21.9809 7.96387C21.988 7.96387 21.9663 8.04487 21.9324 8.14387C21.8407 8.41295 21.8256 8.78105 21.8889 9.20926C21.9691 9.75251 22.0147 9.83095 22.5927 10.4179C22.8636 10.6932 23.1789 11.0404 23.293 11.1894L23.5009 11.4605L23.293 11.2667C23.039 11.0298 22.4546 10.5679 22.3256 10.5019C22.2389 10.4576 22.2262 10.4583 22.1728 10.5111C22.1236 10.5599 22.1132 10.633 22.1064 10.9787C22.0957 11.5175 22.0218 11.8633 21.8436 12.2091C21.7471 12.3961 21.7318 12.3561 21.8191 12.1451C21.8842 11.9874 21.8909 11.9182 21.8905 11.3966C21.8894 10.3486 21.7642 10.0967 21.0302 9.66504C20.8442 9.55568 20.5377 9.39808 20.3492 9.31467C20.1607 9.23125 20.0109 9.15858 20.0164 9.15311C20.0372 9.13264 20.753 9.34031 21.0413 9.45048C21.4699 9.61426 21.5406 9.63555 21.5926 9.61578C21.6276 9.60251 21.6445 9.50156 21.6614 9.2046Z" fill="#FE007A"/>
<path d="M13.1047 10.9972C12.5888 10.2912 12.2697 9.2089 12.3387 8.39979L12.3601 8.14941L12.4775 8.17071C12.6981 8.21068 13.0783 8.35135 13.2563 8.45883C13.7449 8.75373 13.9565 9.14201 14.1716 10.1391C14.2347 10.4312 14.3174 10.7617 14.3555 10.8736C14.4167 11.0537 14.6482 11.4743 14.8364 11.7476C14.972 11.9444 14.8819 12.0376 14.5822 12.0107C14.1246 11.9696 13.5046 11.5444 13.1047 10.9972Z" fill="#FE007A"/>
<path d="M21.0356 16.2507C18.6246 15.2859 17.7755 14.4484 17.7755 13.0354C17.7755 12.8274 17.7827 12.6572 17.7915 12.6572C17.8003 12.6572 17.8936 12.7258 17.9988 12.8098C18.4877 13.1995 19.0351 13.366 20.5507 13.5857C21.4426 13.715 21.9445 13.8195 22.4075 13.9721C23.8789 14.4571 24.7894 15.4415 25.0066 16.7823C25.0696 17.1719 25.0326 17.9024 24.9304 18.2874C24.8497 18.5916 24.6032 19.1397 24.5377 19.1608C24.5197 19.1667 24.5019 19.0975 24.4972 19.0037C24.4725 18.5002 24.2165 18.01 23.7867 17.6429C23.2979 17.2255 22.6412 16.8931 21.0356 16.2507Z" fill="#FE007A"/>
<path d="M19.3431 16.6521C19.3129 16.4734 19.2605 16.2453 19.2266 16.145L19.1651 15.9629L19.2794 16.0903C19.4375 16.2667 19.5625 16.4925 19.6684 16.7931C19.7492 17.0225 19.7583 17.0908 19.7577 17.4637C19.7571 17.8297 19.747 17.9065 19.6724 18.113C19.5547 18.4387 19.4085 18.6696 19.1635 18.9175C18.7231 19.363 18.1568 19.6096 17.3397 19.712C17.1978 19.7296 16.7838 19.7596 16.4199 19.7785C15.5027 19.8259 14.8991 19.9238 14.3566 20.1132C14.2787 20.1403 14.2091 20.1569 14.202 20.1499C14.18 20.1282 14.5493 19.9094 14.8544 19.7633C15.2844 19.5573 15.7126 19.445 16.6719 19.2863C17.1458 19.2078 17.6351 19.1126 17.7594 19.0748C18.9329 18.7171 19.5361 17.7943 19.3431 16.6521Z" fill="#FE007A"/>
<path d="M20.4484 18.6028C20.1281 17.9183 20.0546 17.2575 20.23 16.6413C20.2489 16.5754 20.279 16.5215 20.2972 16.5215C20.3154 16.5215 20.391 16.5621 20.4652 16.6117C20.6127 16.7105 20.9089 16.8768 21.6975 17.3042C22.6817 17.8375 23.2429 18.2506 23.6245 18.7223C23.9588 19.1356 24.1655 19.6062 24.2651 20.1802C24.3214 20.5051 24.2884 21.2874 24.2045 21.6146C23.9398 22.6468 23.3248 23.4575 22.4476 23.9306C22.3191 24 22.2038 24.0568 22.1913 24.0571C22.1787 24.0573 22.2257 23.9389 22.2954 23.7941C22.5903 23.181 22.624 22.5847 22.4009 21.9208C22.2643 21.5144 21.9858 21.0184 21.4235 20.1802C20.7695 19.2057 20.6093 18.9463 20.4484 18.6028Z" fill="#FE007A"/>
<path d="M11.3926 22.2955C12.2872 21.5447 13.4004 21.0114 14.4145 20.8476C14.8514 20.7771 15.5794 20.8051 15.9841 20.908C16.6328 21.073 17.213 21.4426 17.5148 21.8828C17.8098 22.3132 17.9362 22.6882 18.068 23.5225C18.12 23.8517 18.1765 24.1821 18.1936 24.2569C18.2925 24.6894 18.4851 25.0349 18.7237 25.2086C19.1025 25.4843 19.755 25.5013 20.3969 25.2525C20.5057 25.2102 20.6003 25.181 20.607 25.1876C20.6303 25.2106 20.3071 25.4256 20.079 25.5388C19.7722 25.6911 19.5283 25.75 19.2042 25.75C18.6163 25.75 18.1282 25.4529 17.721 24.8468C17.6408 24.7275 17.4607 24.3703 17.3207 24.0529C16.8907 23.0782 16.6784 22.7812 16.1791 22.4563C15.7447 22.1735 15.1843 22.1228 14.7628 22.3283C14.2091 22.5982 14.0547 23.3014 14.4513 23.7471C14.6089 23.9243 14.9028 24.0769 15.1431 24.1067C15.5928 24.1623 15.9791 23.8223 15.9791 23.3711C15.9791 23.0782 15.8658 22.911 15.5806 22.783C15.1911 22.6083 14.7724 22.8126 14.7744 23.1763C14.7753 23.3314 14.8432 23.4287 14.9997 23.4991C15.1 23.5442 15.1023 23.5478 15.0205 23.5308C14.6631 23.4572 14.5794 23.0289 14.8667 22.7446C15.2117 22.4034 15.9252 22.554 16.1702 23.0199C16.2732 23.2156 16.285 23.6053 16.1953 23.8406C15.9944 24.3674 15.4089 24.6443 14.8148 24.4936C14.4104 24.3909 14.2457 24.2798 13.7581 23.7806C12.9107 22.913 12.5818 22.7449 11.3602 22.5554L11.1261 22.5191L11.3926 22.2955Z" fill="#FE007A"/>
<path fill-rule="evenodd" clip-rule="evenodd" d="M7.41674 6.7689C10.2464 10.1824 12.1954 11.5908 12.412 11.8883C12.5908 12.1339 12.5235 12.3549 12.2172 12.528C12.0468 12.6242 11.6966 12.7217 11.5212 12.7217C11.3229 12.7217 11.2548 12.6457 11.2548 12.6457C11.1397 12.5372 11.075 12.5563 10.4844 11.5143C9.66445 10.2498 8.97829 9.20081 8.95954 9.18318C8.91627 9.14264 8.91698 9.14396 10.4008 11.7827C10.6405 12.3326 10.4484 12.5345 10.4484 12.6128C10.4484 12.7722 10.4047 12.8559 10.2069 13.0752C9.87729 13.4407 9.72982 13.8515 9.6235 14.7015C9.50421 15.6545 9.16884 16.3276 8.23944 17.4797C7.69536 18.1541 7.60634 18.2776 7.46906 18.5494C7.29614 18.8917 7.2486 19.0835 7.22933 19.5156C7.20896 19.9726 7.24863 20.268 7.3891 20.7048C7.51209 21.0874 7.64046 21.34 7.96863 21.8451C8.2518 22.281 8.41488 22.6051 8.41488 22.7318C8.41488 22.8327 8.43424 22.8328 8.87309 22.7343C9.9234 22.4986 10.7762 22.084 11.2558 21.5759C11.5526 21.2614 11.6223 21.0878 11.6246 20.6569C11.626 20.3751 11.6161 20.316 11.5395 20.1538C11.4146 19.8899 11.1875 19.6705 10.6868 19.3303C10.0307 18.8846 9.7505 18.5257 9.67306 18.0322C9.60962 17.6273 9.6833 17.3416 10.0461 16.5855C10.4219 15.803 10.5149 15.4695 10.5779 14.6807C10.6186 14.1711 10.6749 13.9701 10.8222 13.8088C10.9758 13.6405 11.1142 13.5836 11.4945 13.532C12.1143 13.4478 12.5091 13.2884 12.8335 12.9913C13.115 12.7334 13.2328 12.485 13.2508 12.1111L13.2646 11.8277L13.1073 11.6454C12.5377 10.9853 7.03527 6.25 7.00022 6.25C6.99274 6.25 7.18018 6.48352 7.41674 6.7689ZM8.73464 20.0328C8.86346 19.806 8.79505 19.5147 8.57958 19.3722C8.37606 19.2378 8.05984 19.3012 8.05984 19.4764C8.05984 19.5299 8.08964 19.5688 8.15663 19.6032C8.26964 19.6609 8.27785 19.7259 8.18897 19.8586C8.09896 19.9931 8.10626 20.1113 8.20944 20.1915C8.37586 20.3211 8.6113 20.2498 8.73464 20.0328Z" fill="#FE007A"/>
<path fill-rule="evenodd" clip-rule="evenodd" d="M13.6557 13.6803C13.3648 13.7692 13.0819 14.0757 12.9943 14.3972C12.9409 14.5933 12.9712 14.9372 13.0512 15.0435C13.1805 15.215 13.3055 15.2602 13.644 15.2579C14.3067 15.2533 14.8828 14.9708 14.9498 14.6176C15.0047 14.3282 14.7517 13.9269 14.4032 13.7508C14.2233 13.66 13.8408 13.6239 13.6557 13.6803ZM14.4305 14.2825C14.5327 14.1381 14.4879 13.9822 14.3142 13.8767C13.9832 13.6758 13.4826 13.842 13.4826 14.1528C13.4826 14.3075 13.7436 14.4763 13.9829 14.4763C14.1421 14.4763 14.3601 14.3819 14.4305 14.2825Z" fill="#FE007A"/>
<defs>
<linearGradient id="paint0_linear_49015_11039" x1="3.5" y1="4.75" x2="26.75" y2="28" gradientUnits="userSpaceOnUse">
<stop stop-color="#FCF6F9"/>
<stop offset="1" stop-color="#FEE8F2"/>
</linearGradient>
</defs>
</svg>
