<svg width="128" height="128" viewBox="0 0 128 128" fill="none" xmlns="http://www.w3.org/2000/svg">
<g clip-path="url(#clip0_50826_129867)">
<path d="M0 0H128V128H0V0Z" fill="white"/>
<path d="M78.2222 28.4444H128V0H78.2222V28.4444ZM0 128H128V99.5556H0V128ZM78.2222 78.2222H128V49.7778H78.2222V78.2222Z" fill="#EF5350"/>
<path d="M0 0H78.2222V78.2222H0V0Z" fill="#1E88E5"/>
<path d="M17.2088 8.67566C17.2626 8.57119 17.3442 8.48357 17.4445 8.42239C17.5449 8.36122 17.6601 8.32886 17.7777 8.32886C17.8952 8.32886 18.0105 8.36122 18.1108 8.42239C18.2112 8.48357 18.2927 8.57119 18.3466 8.67566L20.2666 13.7245C20.3377 14.009 20.6221 14.1512 20.8355 14.1512L26.2399 14.4357C26.8088 14.4357 27.0221 15.1468 26.5955 15.5734L22.3288 18.9157C22.2359 19.0059 22.1726 19.1222 22.1472 19.2491C22.1218 19.3761 22.1356 19.5078 22.1866 19.6268L23.6088 24.7468C23.6521 24.8766 23.6526 25.0169 23.6103 25.1471C23.568 25.2773 23.485 25.3905 23.3736 25.47C23.2623 25.5496 23.1283 25.5913 22.9914 25.5891C22.8546 25.587 22.722 25.541 22.6132 25.4579L18.1332 22.5423C18.028 22.472 17.9043 22.4345 17.7777 22.4345C17.6511 22.4345 17.5274 22.472 17.4221 22.5423L12.9421 25.4579C12.8333 25.541 12.7008 25.587 12.5639 25.5891C12.427 25.5913 12.2931 25.5496 12.1817 25.47C12.0703 25.3905 11.9874 25.2773 11.9451 25.1471C11.9027 25.0169 11.9033 24.8766 11.9466 24.7468L13.3688 19.5557C13.4116 19.4297 13.414 19.2935 13.3758 19.166C13.3375 19.0386 13.2605 18.9262 13.1555 18.8445L8.9599 15.5734C8.85945 15.4929 8.78562 15.384 8.74806 15.2608C8.7105 15.1377 8.71095 15.0061 8.74935 14.8832C8.78775 14.7603 8.86231 14.6519 8.96331 14.572C9.0643 14.4922 9.18703 14.4447 9.31545 14.4357L14.7199 14.1512C14.9332 14.1512 15.2177 14.009 15.2888 13.7245L17.2088 8.74677V8.67566ZM17.2088 30.009C17.2626 29.9045 17.3442 29.8169 17.4445 29.7557C17.5449 29.6946 17.6601 29.6622 17.7777 29.6622C17.8952 29.6622 18.0105 29.6946 18.1108 29.7557C18.2112 29.8169 18.2927 29.9045 18.3466 30.009L20.2666 35.0579C20.3377 35.3423 20.6221 35.4845 20.8355 35.4845L26.2399 35.769C26.8088 35.769 27.0221 36.4801 26.5955 36.9068L22.3288 40.249C22.2359 40.3392 22.1726 40.4555 22.1472 40.5825C22.1218 40.7094 22.1356 40.8411 22.1866 40.9601L23.6088 46.0801C23.6521 46.21 23.6526 46.3503 23.6103 46.4804C23.568 46.6106 23.485 46.7238 23.3736 46.8034C23.2623 46.8829 23.1283 46.9247 22.9914 46.9225C22.8546 46.9203 22.722 46.8743 22.6132 46.7912L18.1332 43.8757C18.028 43.8053 17.9043 43.7678 17.7777 43.7678C17.6511 43.7678 17.5274 43.8053 17.4221 43.8757L12.9421 46.7912C12.8333 46.8743 12.7008 46.9203 12.5639 46.9225C12.427 46.9247 12.2931 46.8829 12.1817 46.8034C12.0703 46.7238 11.9874 46.6106 11.9451 46.4804C11.9027 46.3503 11.9033 46.21 11.9466 46.0801L13.3688 40.889C13.4116 40.763 13.414 40.6268 13.3758 40.4993C13.3375 40.3719 13.2605 40.2595 13.1555 40.1779L8.9599 36.9068C8.85945 36.8262 8.78562 36.7173 8.74806 36.5942C8.7105 36.471 8.71095 36.3394 8.74935 36.2165C8.78775 36.0937 8.86231 35.9852 8.96331 35.9054C9.0643 35.8255 9.18703 35.778 9.31545 35.769L14.7199 35.4845C14.9332 35.4845 15.2177 35.3423 15.2888 35.0579L17.2088 30.0801V30.009ZM17.2088 51.3423C17.2626 51.2379 17.3442 51.1502 17.4445 51.0891C17.5449 51.0279 17.6601 50.9955 17.7777 50.9955C17.8952 50.9955 18.0105 51.0279 18.1108 51.0891C18.2112 51.1502 18.2927 51.2379 18.3466 51.3423L20.2666 56.3912C20.3377 56.6757 20.6221 56.8179 20.8355 56.8179L26.2399 57.1023C26.8088 57.1023 27.0221 57.8134 26.5955 58.2401L22.3288 61.5823C22.2359 61.6726 22.1726 61.7888 22.1472 61.9158C22.1218 62.0428 22.1356 62.1744 22.1866 62.2934L23.6088 67.4134C23.6521 67.5433 23.6526 67.6836 23.6103 67.8138C23.568 67.944 23.485 68.0571 23.3736 68.1367C23.2623 68.2162 23.1283 68.258 22.9914 68.2558C22.8546 68.2536 22.722 68.2076 22.6132 68.1246L18.1332 65.209C18.028 65.1387 17.9043 65.1011 17.7777 65.1011C17.6511 65.1011 17.5274 65.1387 17.4221 65.209L12.9421 68.1246C12.8333 68.2076 12.7008 68.2536 12.5639 68.2558C12.427 68.258 12.2931 68.2162 12.1817 68.1367C12.0703 68.0571 11.9874 67.944 11.9451 67.8138C11.9027 67.6836 11.9033 67.5433 11.9466 67.4134L13.3688 62.2223C13.4116 62.0963 13.414 61.9601 13.3758 61.8327C13.3375 61.7052 13.2605 61.5929 13.1555 61.5112L8.9599 58.2401C8.85945 58.1596 8.78562 58.0506 8.74806 57.9275C8.7105 57.8043 8.71095 57.6727 8.74935 57.5499C8.78775 57.427 8.86231 57.3185 8.96331 57.2387C9.0643 57.1589 9.18703 57.1113 9.31545 57.1023L14.7199 56.8179C14.9332 56.8179 15.2177 56.6757 15.2888 56.3912L17.2088 51.4134V51.3423ZM38.5421 8.67566C38.596 8.57119 38.6775 8.48357 38.7779 8.42239C38.8782 8.36122 38.9935 8.32886 39.111 8.32886C39.2285 8.32886 39.3438 8.36122 39.4441 8.42239C39.5445 8.48357 39.6261 8.57119 39.6799 8.67566L41.5999 13.7245C41.671 14.009 41.9555 14.1512 42.1688 14.1512L47.5732 14.4357C48.1421 14.4357 48.3555 15.1468 47.9288 15.5734L43.6621 18.9157C43.5693 19.0059 43.506 19.1222 43.4806 19.2491C43.4552 19.3761 43.4689 19.5078 43.5199 19.6268L44.9421 24.7468C44.9854 24.8766 44.9859 25.0169 44.9436 25.1471C44.9013 25.2773 44.8184 25.3905 44.707 25.47C44.5956 25.5496 44.4616 25.5913 44.3248 25.5891C44.1879 25.587 44.0554 25.541 43.9466 25.4579L39.4666 22.5423C39.3613 22.472 39.2376 22.4345 39.111 22.4345C38.9844 22.4345 38.8607 22.472 38.7555 22.5423L34.2755 25.4579C34.1667 25.541 34.0341 25.587 33.8972 25.5891C33.7604 25.5913 33.6264 25.5496 33.515 25.47C33.4037 25.3905 33.3207 25.2773 33.2784 25.1471C33.2361 25.0169 33.2366 24.8766 33.2799 24.7468L34.7021 19.5557C34.7449 19.4297 34.7473 19.2935 34.7091 19.166C34.6709 19.0386 34.5939 18.9262 34.4888 18.8445L30.2932 15.5734C30.1928 15.4929 30.119 15.384 30.0814 15.2608C30.0438 15.1377 30.0443 15.0061 30.0827 14.8832C30.1211 14.7603 30.1956 14.6519 30.2966 14.572C30.3976 14.4922 30.5204 14.4447 30.6488 14.4357L36.0532 14.1512C36.2666 14.1512 36.551 14.009 36.6221 13.7245L38.5421 8.74677V8.67566ZM38.5421 30.009C38.596 29.9045 38.6775 29.8169 38.7779 29.7557C38.8782 29.6946 38.9935 29.6622 39.111 29.6622C39.2285 29.6622 39.3438 29.6946 39.4441 29.7557C39.5445 29.8169 39.6261 29.9045 39.6799 30.009L41.5999 35.0579C41.671 35.3423 41.9555 35.4845 42.1688 35.4845L47.5732 35.769C48.1421 35.769 48.3555 36.4801 47.9288 36.9068L43.6621 40.249C43.5693 40.3392 43.506 40.4555 43.4806 40.5825C43.4552 40.7094 43.4689 40.8411 43.5199 40.9601L44.9421 46.0801C44.9854 46.21 44.9859 46.3503 44.9436 46.4804C44.9013 46.6106 44.8184 46.7238 44.707 46.8034C44.5956 46.8829 44.4616 46.9247 44.3248 46.9225C44.1879 46.9203 44.0554 46.8743 43.9466 46.7912L39.4666 43.8757C39.3613 43.8053 39.2376 43.7678 39.111 43.7678C38.9844 43.7678 38.8607 43.8053 38.7555 43.8757L34.2755 46.7912C34.1667 46.8743 34.0341 46.9203 33.8972 46.9225C33.7604 46.9247 33.6264 46.8829 33.515 46.8034C33.4037 46.7238 33.3207 46.6106 33.2784 46.4804C33.2361 46.3503 33.2366 46.21 33.2799 46.0801L34.7021 40.889C34.7449 40.763 34.7473 40.6268 34.7091 40.4993C34.6709 40.3719 34.5939 40.2595 34.4888 40.1779L30.2932 36.9068C30.1928 36.8262 30.119 36.7173 30.0814 36.5942C30.0438 36.471 30.0443 36.3394 30.0827 36.2165C30.1211 36.0937 30.1956 35.9852 30.2966 35.9054C30.3976 35.8255 30.5204 35.778 30.6488 35.769L36.0532 35.4845C36.2666 35.4845 36.551 35.3423 36.6221 35.0579L38.5421 30.0801V30.009ZM38.5421 51.3423C38.596 51.2379 38.6775 51.1502 38.7779 51.0891C38.8782 51.0279 38.9935 50.9955 39.111 50.9955C39.2285 50.9955 39.3438 51.0279 39.4441 51.0891C39.5445 51.1502 39.6261 51.2379 39.6799 51.3423L41.5999 56.3912C41.671 56.6757 41.9555 56.8179 42.1688 56.8179L47.5732 57.1023C48.1421 57.1023 48.3555 57.8134 47.9288 58.2401L43.6621 61.5823C43.5693 61.6726 43.506 61.7888 43.4806 61.9158C43.4552 62.0428 43.4689 62.1744 43.5199 62.2934L44.9421 67.4134C44.9854 67.5433 44.9859 67.6836 44.9436 67.8138C44.9013 67.944 44.8184 68.0571 44.707 68.1367C44.5956 68.2162 44.4616 68.258 44.3248 68.2558C44.1879 68.2536 44.0554 68.2076 43.9466 68.1246L39.4666 65.209C39.3613 65.1387 39.2376 65.1011 39.111 65.1011C38.9844 65.1011 38.8607 65.1387 38.7555 65.209L34.2755 68.1246C34.1667 68.2076 34.0341 68.2536 33.8972 68.2558C33.7604 68.258 33.6264 68.2162 33.515 68.1367C33.4037 68.0571 33.3207 67.944 33.2784 67.8138C33.2361 67.6836 33.2366 67.5433 33.2799 67.4134L34.7021 62.2223C34.7449 62.0963 34.7473 61.9601 34.7091 61.8327C34.6709 61.7052 34.5939 61.5929 34.4888 61.5112L30.2932 58.2401C30.1928 58.1596 30.119 58.0506 30.0814 57.9275C30.0438 57.8043 30.0443 57.6727 30.0827 57.5499C30.1211 57.427 30.1956 57.3185 30.2966 57.2387C30.3976 57.1589 30.5204 57.1113 30.6488 57.1023L36.0532 56.8179C36.2666 56.8179 36.551 56.6757 36.6221 56.3912L38.5421 51.4134V51.3423ZM59.8755 8.67566C59.9293 8.57119 60.0109 8.48357 60.1112 8.42239C60.2116 8.36122 60.3268 8.32886 60.4443 8.32886C60.5619 8.32886 60.6771 8.36122 60.7775 8.42239C60.8778 8.48357 60.9594 8.57119 61.0132 8.67566L62.9332 13.7245C63.0043 14.009 63.2888 14.1512 63.5021 14.1512L68.9066 14.4357C69.4755 14.4357 69.6888 15.1468 69.2621 15.5734L64.9955 18.9157C64.9026 19.0059 64.8393 19.1222 64.8139 19.2491C64.7885 19.3761 64.8022 19.5078 64.8532 19.6268L66.2755 24.7468C66.3188 24.8766 66.3193 25.0169 66.277 25.1471C66.2346 25.2773 66.1517 25.3905 66.0403 25.47C65.9289 25.5496 65.795 25.5913 65.6581 25.5891C65.5212 25.587 65.3887 25.541 65.2799 25.4579L60.7999 22.5423C60.6947 22.472 60.5709 22.4345 60.4443 22.4345C60.3178 22.4345 60.194 22.472 60.0888 22.5423L55.6088 25.4579C55.5 25.541 55.3674 25.587 55.2306 25.5891C55.0937 25.5913 54.9598 25.5496 54.8484 25.47C54.737 25.3905 54.654 25.2773 54.6117 25.1471C54.5694 25.0169 54.5699 24.8766 54.6132 24.7468L56.0355 19.5557C56.0782 19.4297 56.0807 19.2935 56.0424 19.166C56.0042 19.0386 55.9272 18.9262 55.8221 18.8445L51.6266 15.5734C51.5261 15.4929 51.4523 15.384 51.4147 15.2608C51.3772 15.1377 51.3776 15.0061 51.416 14.8832C51.4544 14.7603 51.529 14.6519 51.63 14.572C51.731 14.4922 51.8537 14.4447 51.9821 14.4357L57.3866 14.1512C57.5999 14.1512 57.8843 14.009 57.9555 13.7245L59.8755 8.74677V8.67566ZM59.8755 30.009C59.9293 29.9045 60.0109 29.8169 60.1112 29.7557C60.2116 29.6946 60.3268 29.6622 60.4443 29.6622C60.5619 29.6622 60.6771 29.6946 60.7775 29.7557C60.8778 29.8169 60.9594 29.9045 61.0132 30.009L62.9332 35.0579C63.0043 35.3423 63.2888 35.4845 63.5021 35.4845L68.9066 35.769C69.4755 35.769 69.6888 36.4801 69.2621 36.9068L64.9955 40.249C64.9026 40.3392 64.8393 40.4555 64.8139 40.5825C64.7885 40.7094 64.8022 40.8411 64.8532 40.9601L66.2755 46.0801C66.3188 46.21 66.3193 46.3503 66.277 46.4804C66.2346 46.6106 66.1517 46.7238 66.0403 46.8034C65.9289 46.8829 65.795 46.9247 65.6581 46.9225C65.5212 46.9203 65.3887 46.8743 65.2799 46.7912L60.7999 43.8757C60.6947 43.8053 60.5709 43.7678 60.4443 43.7678C60.3178 43.7678 60.194 43.8053 60.0888 43.8757L55.6088 46.7912C55.5 46.8743 55.3674 46.9203 55.2306 46.9225C55.0937 46.9247 54.9598 46.8829 54.8484 46.8034C54.737 46.7238 54.654 46.6106 54.6117 46.4804C54.5694 46.3503 54.5699 46.21 54.6132 46.0801L56.0355 40.889C56.0782 40.763 56.0807 40.6268 56.0424 40.4993C56.0042 40.3719 55.9272 40.2595 55.8221 40.1779L51.6266 36.9068C51.5261 36.8262 51.4523 36.7173 51.4147 36.5942C51.3772 36.471 51.3776 36.3394 51.416 36.2165C51.4544 36.0937 51.529 35.9852 51.63 35.9054C51.731 35.8255 51.8537 35.778 51.9821 35.769L57.3866 35.4845C57.5999 35.4845 57.8843 35.3423 57.9555 35.0579L59.8755 30.0801V30.009ZM59.8755 51.3423C59.9293 51.2379 60.0109 51.1502 60.1112 51.0891C60.2116 51.0279 60.3268 50.9955 60.4443 50.9955C60.5619 50.9955 60.6771 51.0279 60.7775 51.0891C60.8778 51.1502 60.9594 51.2379 61.0132 51.3423L62.9332 56.3912C63.0043 56.6757 63.2888 56.8179 63.5021 56.8179L68.9066 57.1023C69.4755 57.1023 69.6888 57.8134 69.2621 58.2401L64.9955 61.5823C64.9026 61.6726 64.8393 61.7888 64.8139 61.9158C64.7885 62.0428 64.8022 62.1744 64.8532 62.2934L66.2755 67.4134C66.3188 67.5433 66.3193 67.6836 66.277 67.8138C66.2346 67.944 66.1517 68.0571 66.0403 68.1367C65.9289 68.2162 65.795 68.258 65.6581 68.2558C65.5212 68.2536 65.3887 68.2076 65.2799 68.1246L60.7999 65.209C60.6947 65.1387 60.5709 65.1011 60.4443 65.1011C60.3178 65.1011 60.194 65.1387 60.0888 65.209L55.6088 68.1246C55.5 68.2076 55.3674 68.2536 55.2306 68.2558C55.0937 68.258 54.9598 68.2162 54.8484 68.1367C54.737 68.0571 54.654 67.944 54.6117 67.8138C54.5694 67.6836 54.5699 67.5433 54.6132 67.4134L56.0355 62.2223C56.0782 62.0963 56.0807 61.9601 56.0424 61.8327C56.0042 61.7052 55.9272 61.5929 55.8221 61.5112L51.6266 58.2401C51.5261 58.1596 51.4523 58.0506 51.4147 57.9275C51.3772 57.8043 51.3776 57.6727 51.416 57.5499C51.4544 57.427 51.529 57.3185 51.63 57.2387C51.731 57.1589 51.8537 57.1113 51.9821 57.1023L57.3866 56.8179C57.5999 56.8179 57.8843 56.6757 57.9555 56.3912L59.8755 51.4134V51.3423Z" fill="white"/>
</g>
<defs>
<clipPath id="clip0_50826_129867">
<rect width="128" height="128" rx="64" fill="white"/>
</clipPath>
</defs>
</svg>
