<svg width="128" height="128" viewBox="0 0 128 128" fill="none" xmlns="http://www.w3.org/2000/svg">
<circle cx="64" cy="64" r="64" fill="#1732D5"/>
<path d="M86.1531 48.9406C84.5233 48.294 81.9384 47.5801 78.7421 47.5801C70.5824 47.5801 64.8364 51.9313 64.8011 58.1521C64.7334 62.7419 68.9151 65.2911 72.0427 66.8215C75.2394 68.3853 76.3261 69.406 76.3261 70.7999C76.2936 72.9407 73.743 73.9275 71.364 73.9275C68.0652 73.9275 66.2976 73.4187 63.6115 72.2277L62.5234 71.7171L61.3672 78.8905C63.3051 79.7734 66.8755 80.5568 70.5824 80.5912C79.2522 80.5912 84.8965 76.3073 84.9634 69.678C84.9964 66.0403 82.7883 63.2529 78.0277 60.9752C75.1378 59.5131 73.3679 58.5271 73.3679 57.0311C73.4018 55.6711 74.8649 54.2781 78.1271 54.2781C80.8133 54.2099 82.7869 54.8555 84.282 55.5017L85.0294 55.841L86.1531 48.9406Z" fill="#F9FAFB"/>
<path d="M56.1992 80.1148H47.9365L53.1046 48.1592H61.3669L56.1992 80.1148Z" fill="#F9FAFB"/>
<path fill-rule="evenodd" clip-rule="evenodd" d="M100.943 48.1592H107.334L114 80.1143H106.35C106.35 80.1143 105.601 76.4427 105.364 75.3208H94.755C94.4482 76.1703 93.0209 80.1143 93.0209 80.1143H84.3511L96.6243 50.8105C97.4746 48.7366 98.972 48.1592 100.943 48.1592ZM100.434 59.8531C100.434 59.8531 97.8153 66.9582 97.1349 68.7941H104.003C103.663 67.1964 102.098 59.5472 102.098 59.5472L101.521 56.7938C101.278 57.5028 100.926 58.4777 100.689 59.1352L100.688 59.1362C100.528 59.5813 100.42 59.8807 100.434 59.8531Z" fill="#F9FAFB"/>
<path d="M41.0357 48.1592L32.9437 69.9499L32.0595 65.5304C32.0594 65.5302 32.0596 65.5307 32.0595 65.5304L29.1698 50.8453C28.694 48.8044 27.2318 48.2265 25.4299 48.1592H12.136L12 48.8049C15.2422 49.634 18.1421 50.8287 20.6831 52.3142L28.0477 80.0809H36.7852L49.7728 48.1592H41.0357Z" fill="#F9FAFB"/>
</svg>
