<svg width="128" height="128" viewBox="0 0 128 128" fill="none" xmlns="http://www.w3.org/2000/svg">
<circle cx="64" cy="64" r="64" fill="#007DC3"/>
<path d="M67.4506 49.3681C67.2518 50.572 65.7802 51.5039 63.998 51.5039C62.2159 51.5039 60.7434 50.572 60.5472 49.3681L58.7847 29.353C58.7847 27.3737 61.0932 25.75 63.998 25.75C66.9071 25.75 69.2174 27.3737 69.2174 29.353L67.4506 49.3681Z" fill="#FDBB30"/>
<path d="M53.3905 57.389C53.3316 57.5121 53.2677 57.6344 53.1977 57.7558L53.2045 57.7447C52.313 59.294 50.7646 60.1063 49.6274 59.6839L31.4545 51.2021C29.7509 50.2129 29.4932 47.3956 30.9503 44.8767C32.4023 42.3527 34.9617 41.16 36.6679 42.1492L53.0825 53.6885C53.1687 53.7595 53.248 53.839 53.3197 53.9253C53.3717 53.9886 53.4204 54.0553 53.4647 54.1254C53.5304 54.2297 53.5876 54.3417 53.6362 54.4606C53.8768 55.0514 53.8981 55.8055 53.6882 56.5836C53.6618 56.6819 53.6319 56.7811 53.5978 56.8803C53.5398 57.0496 53.4707 57.2197 53.3905 57.389Z" fill="#FDBB30"/>
<path d="M74.7933 57.7447C75.689 59.294 77.2306 60.1063 78.3686 59.6839L96.5433 51.2021C98.2554 50.2129 98.5003 47.3956 97.0543 44.8767C95.5955 42.3527 93.0319 41.16 91.3299 42.1492L74.9153 53.6885C73.9768 54.4614 73.9069 56.2057 74.8001 57.7558L74.7933 57.7447Z" fill="#FDBB30"/>
<path d="M66.5966 77.3109C65.9593 76.8141 65.0286 76.5029 63.998 76.5029C62.2159 76.5029 60.7434 77.4289 60.5472 78.6327L58.7847 98.6453C58.7847 100.628 61.0932 102.25 63.998 102.25C66.9071 102.25 69.2174 100.628 69.2174 98.6453L67.4506 78.6327C67.367 78.1274 67.059 77.6709 66.5966 77.3109Z" fill="#FDBB30"/>
<path d="M74.7933 70.2519C75.689 68.7 77.2306 67.892 78.3686 68.3213L96.5433 76.7936C98.2554 77.7854 98.5003 80.6044 97.0543 83.1284C95.5955 85.643 93.0319 86.8383 91.3299 85.8516L74.9153 74.3226C74.336 73.8395 74.0869 72.9896 74.1927 72.0457C74.2575 71.4617 74.4589 70.841 74.8001 70.2493L74.7933 70.2519Z" fill="#FDBB30"/>
<path d="M53.0825 74.3226C54.0261 73.5411 54.0952 71.7969 53.1977 70.2493L53.2045 70.2519C52.313 68.7 50.7646 67.892 49.6274 68.3213L31.4545 76.7936C29.7509 77.7854 29.4932 80.6044 30.9503 83.1284C32.4023 85.6439 34.9617 86.8383 36.6679 85.8516L53.0825 74.3226Z" fill="#FDBB30"/>
</svg>
