<svg width="32" height="32" viewBox="0 0 32 32" fill="none" xmlns="http://www.w3.org/2000/svg">
    <g clip-path="url(#clip0_689_3066)">
        <path
            d="M16 32C24.8366 32 32 24.8366 32 16C32 7.16344 24.8366 0 16 0C7.16344 0 0 7.16344 0 16C0 24.8366 7.16344 32 16 32Z"
            fill="#191919" />
        <path
            d="M10.9879 26.5L11.5254 23.9875C11.6668 23.333 11.6603 22.6551 11.5064 22.0034C11.3526 21.3517 11.0552 20.7426 10.636 20.2204C10.2168 19.6982 9.6864 19.2762 9.08339 18.985C8.48038 18.6939 7.82 18.541 7.15039 18.5375H4.65039C5.03684 20.2589 5.8092 21.87 6.9092 23.2494C8.00921 24.6287 9.40812 25.7402 11.0004 26.5H10.9879Z"
            fill="url(#paint0_linear_689_3066)" />
        <path
            d="M12.0742 26.9501C13.625 27.5054 15.2761 27.7249 16.9182 27.5939C18.5602 27.4628 20.1556 26.9844 21.5988 26.1901C23.0419 25.3959 24.2997 24.304 25.289 22.9868C26.2782 21.6697 26.9762 20.1574 27.3367 18.5501H19.7617C18.1017 18.5473 16.491 19.1142 15.1987 20.1562C13.9064 21.1982 13.0109 22.6522 12.6617 24.2751L12.0742 26.9501Z"
            fill="url(#paint1_linear_689_3066)" />
        <path
            d="M27.5495 17.375C27.7346 15.8237 27.605 14.2511 27.1687 12.751C26.7323 11.251 25.9981 9.85425 25.0098 8.6443C24.0215 7.43436 22.7996 6.43603 21.4168 5.70893C20.0341 4.98184 18.519 4.54091 16.962 4.41248L15.337 11.9375C15.1978 12.5911 15.2059 13.2676 15.3607 13.9177C15.5156 14.5678 15.8133 15.1753 16.2322 15.696C16.6512 16.2167 17.1809 16.6375 17.7828 16.928C18.3847 17.2184 19.0437 17.3711 19.712 17.375H27.5495Z"
            fill="url(#paint2_linear_689_3066)" />
        <path
            d="M15.774 4.375C14.1499 4.40548 12.5501 4.77603 11.0779 5.46274C9.60575 6.14945 8.29384 7.13709 7.2268 8.36195C6.15975 9.58681 5.36126 11.0217 4.88282 12.5741C4.40438 14.1265 4.25661 15.762 4.44904 17.375H7.09904C8.75907 17.3778 10.3698 16.8108 11.6621 15.7688C12.9543 14.7268 13.8499 13.2729 14.199 11.65L15.774 4.375Z"
            fill="url(#paint3_linear_689_3066)" />
    </g>
    <defs>
        <linearGradient id="paint0_linear_689_3066" x1="18.0879" y1="4.37498" x2="13.5004" y2="27.65"
            gradientUnits="userSpaceOnUse">
            <stop stop-color="#F4D5B1" />
            <stop offset="1" stop-color="#FFD29F" />
        </linearGradient>
        <linearGradient id="paint1_linear_689_3066" x1="18.0867" y1="4.37506" x2="13.4992" y2="27.6501"
            gradientUnits="userSpaceOnUse">
            <stop stop-color="#F4D5B1" />
            <stop offset="1" stop-color="#FFD29F" />
        </linearGradient>
        <linearGradient id="paint2_linear_689_3066" x1="18.087" y1="4.37498" x2="13.4995" y2="27.65"
            gradientUnits="userSpaceOnUse">
            <stop stop-color="#F4D5B1" />
            <stop offset="1" stop-color="#FFD29F" />
        </linearGradient>
        <linearGradient id="paint3_linear_689_3066" x1="18.0865" y1="4.375" x2="13.499" y2="27.65"
            gradientUnits="userSpaceOnUse">
            <stop stop-color="#F4D5B1" />
            <stop offset="1" stop-color="#FFD29F" />
        </linearGradient>
        <clipPath id="clip0_689_3066">
            <rect width="32" height="32" fill="white" />
        </clipPath>
    </defs>
</svg>