<svg width="32" height="32" viewBox="0 0 32 32" fill="none" xmlns="http://www.w3.org/2000/svg">
    <circle cx="16" cy="16" r="16" fill="black" />
    <path
        d="M7.46094 20.6692V19.3791C7.90634 17.5463 8.75106 14.5309 10.4303 13.4353C10.5199 13.3772 10.5936 13.2975 10.6446 13.2036C10.6955 13.1097 10.7222 13.0046 10.7221 12.8977C10.7153 10.7475 10.763 9.14001 10.8654 8.07514C10.9422 7.28161 11.8074 6.42665 12.6573 6.3345C14.2819 6.16043 15.2034 6.92324 15.4218 8.62293C15.4264 8.65335 15.4388 8.68215 15.4578 8.70638C15.4767 8.73061 15.5015 8.74942 15.5296 8.76087C15.5577 8.77233 15.5882 8.77602 15.6178 8.77157C15.6474 8.76713 15.6752 8.7547 15.6983 8.73556C15.7972 8.65706 15.9082 8.38402 16.0311 7.91644C16.4355 6.37545 17.7563 5.45394 19.2359 5.95565C19.7513 6.13313 20.2512 6.63826 20.7359 7.47104C20.773 7.53248 20.822 7.58587 20.88 7.62808C20.938 7.67028 21.0039 7.70044 21.0738 7.71677C23.1182 8.16388 23.823 9.32943 23.1882 11.2134C23.1807 11.237 23.1791 11.2621 23.1834 11.2864C23.1877 11.3107 23.1978 11.3337 23.2129 11.3533C23.228 11.3729 23.2476 11.3886 23.27 11.399C23.2925 11.4094 23.317 11.4143 23.3418 11.4131C25.2155 11.2902 26.1933 13.4455 25.3435 14.8944C25.2721 15.0168 25.1879 15.1302 25.0926 15.2323C24.2991 16.0719 22.6557 17.2596 21.9544 18.56C21.2479 19.8757 21.0482 21.432 20.1932 22.7989C18.9646 24.7717 17.1693 25.8928 14.8075 26.1625C13.9815 26.2581 12.8655 26.0003 11.4593 25.3894C9.32275 24.4577 7.98996 22.8843 7.46094 20.6692ZM19.9833 8.50006C20.7871 7.09731 18.0533 5.19796 16.9014 7.48639C16.8024 7.68435 16.1505 9.15195 14.9457 11.8892C14.9301 11.9221 14.9037 11.9485 14.871 11.9642C14.8382 11.98 14.801 11.984 14.7657 11.9756C14.7303 11.9672 14.6989 11.9469 14.6767 11.9182C14.6545 11.8894 14.6428 11.8539 14.6437 11.8175L14.8126 8.68437C14.8344 8.26513 14.6939 7.8536 14.4203 7.5352C14.1468 7.2168 13.761 7.01599 13.3433 6.97444L13.072 6.94884C12.8633 6.92809 12.6527 6.95146 12.4536 7.01742C12.2545 7.08339 12.0714 7.1905 11.916 7.33184C11.7607 7.47318 11.6366 7.64561 11.5518 7.83801C11.4669 8.03041 11.4232 8.23851 11.4235 8.44887V13.379C11.4233 13.4561 11.4012 13.532 11.3596 13.598C11.318 13.664 11.2586 13.7176 11.188 13.7527C9.59067 14.5565 9.20158 16.1179 8.577 17.7818C7.48483 20.7136 8.41147 22.9764 11.3569 24.5703C14.1658 26.0925 16.6488 25.7495 18.8058 23.5413C20.5209 21.7904 20.6182 19.3125 21.8417 17.5053C22.7018 16.2306 26.6592 14.2493 24.2735 12.3039C24.0338 12.1082 23.7238 12.0064 23.3928 12.0147C23.0617 12.0231 22.7285 12.141 22.4458 12.35C22.439 12.3534 22.1114 12.6332 21.4629 13.1896C21.4406 13.2072 21.4133 13.2173 21.385 13.2182C21.3566 13.2193 21.3287 13.2112 21.3052 13.1951C21.2818 13.1791 21.264 13.156 21.2546 13.1293C21.2453 13.1025 21.2447 13.0733 21.253 13.0462C21.5141 12.2988 22.8708 11.0854 22.8042 10.0359C22.753 9.24411 22.2871 8.71338 21.4066 8.44375C21.2339 8.39058 21.0485 8.39598 20.8793 8.45911L20.1728 8.72532C20.1432 8.73743 20.1108 8.73978 20.0799 8.73207C20.0491 8.72435 20.0214 8.70695 20.0006 8.68225C19.9799 8.65755 19.9671 8.62677 19.9639 8.59415C19.9609 8.56152 19.9676 8.52865 19.9833 8.50006Z"
        fill="#FEFFFE" fill-opacity="0.996" />
    <path
        d="M20.1736 8.72506L20.8801 8.45884C21.0494 8.39571 21.2348 8.39031 21.4075 8.44348C22.288 8.71311 22.7539 9.24384 22.8051 10.0357C22.8716 11.0852 21.515 12.2985 21.2539 13.046C21.2456 13.0731 21.2461 13.1022 21.2556 13.129C21.2649 13.1558 21.2826 13.1789 21.3061 13.1948C21.3295 13.2109 21.3575 13.219 21.3859 13.218C21.4142 13.217 21.4416 13.2069 21.4638 13.1893C22.1123 12.633 22.4399 12.3531 22.4468 12.3497C22.7294 12.1408 23.0627 12.0228 23.3937 12.0144C23.7248 12.0061 24.0347 12.1079 24.2744 12.3036C26.6601 14.2491 22.7028 16.2303 21.8426 17.5051C20.6191 19.3123 20.5218 21.7901 18.8067 23.541C16.6497 25.7492 14.1667 26.0923 11.3578 24.5701C8.41238 22.9761 7.48574 20.7133 8.57791 17.7815C9.2025 16.1177 9.59158 14.5562 11.1889 13.7525C11.2595 13.7173 11.3189 13.6637 11.3605 13.5978C11.4021 13.5317 11.4242 13.4559 11.4244 13.3787V8.4486C11.4241 8.23824 11.4678 8.03014 11.5527 7.83774C11.6375 7.64534 11.7616 7.47291 11.9169 7.33158C12.0723 7.19024 12.2554 7.08312 12.4545 7.01716C12.6536 6.95119 12.8642 6.92783 13.0728 6.94858L13.3442 6.97418C13.7619 7.01572 14.1476 7.21653 14.4212 7.53493C14.6948 7.85333 14.8353 8.26486 14.8135 8.6841L14.6445 11.8173C14.6437 11.8536 14.6554 11.8891 14.6776 11.9179C14.6998 11.9466 14.7312 11.9669 14.7666 11.9753C14.802 11.9837 14.8391 11.9797 14.8719 11.964C14.9047 11.9483 14.931 11.9218 14.9466 11.889C16.1514 9.15169 16.8033 7.68408 16.9023 7.48613C18.0542 5.19769 20.788 7.09704 19.9842 8.4998C19.9686 8.52839 19.9618 8.56125 19.9649 8.59388C19.9679 8.6265 19.9808 8.65729 20.0015 8.68198C20.0223 8.70668 20.05 8.72409 20.0808 8.7318C20.1117 8.73951 20.1441 8.73716 20.1736 8.72506ZM13.7896 13.2508L13.9227 8.64315C13.9283 8.43539 13.8522 8.23335 13.7101 8.07894C13.5681 7.92452 13.3711 7.82957 13.1599 7.81378H13.1292C13.0279 7.80676 12.9264 7.81986 12.8306 7.85227C12.7349 7.88469 12.647 7.93574 12.5723 8.00232C12.4976 8.0689 12.4376 8.14961 12.396 8.23954C12.3545 8.32947 12.3322 8.42673 12.3305 8.5254L12.223 13.9009L12.1002 15.6211C12.0949 15.7098 12.056 15.7932 11.9912 15.8541C11.9265 15.915 11.8409 15.9489 11.752 15.9487H11.6087C11.5272 15.9487 11.4491 15.9158 11.3915 15.8573C11.3339 15.7987 11.3015 15.7192 11.3015 15.6365V15.0631C11.3012 15.008 11.283 14.9548 11.2496 14.9113C11.2162 14.8678 11.1695 14.8363 11.1162 14.8214C11.0629 14.8065 11.0058 14.809 10.9535 14.8285C10.9012 14.8481 10.8563 14.8836 10.8254 14.93C9.90899 16.3788 8.71102 18.9846 9.15642 20.971C9.34072 21.7833 9.79124 22.4557 10.508 22.9881C13.3032 25.3175 16.59 25.1793 18.8273 22.2048C19.7999 20.9147 20.0559 18.3089 21.2641 16.901C21.8648 16.2047 22.7624 15.3344 23.957 14.29C24.0573 14.2032 24.1303 14.0875 24.1669 13.9572C24.2522 13.6501 24.1515 13.3548 23.8649 13.0716C23.7515 12.9582 23.6011 12.8896 23.4412 12.8783C23.2813 12.867 23.1227 12.9138 22.9945 13.0101L18.6532 16.2457C19.5645 14.1125 20.6037 12.2097 21.771 10.5374C22.0372 10.1551 21.957 9.76774 21.5303 9.37524C21.4673 9.31662 21.3921 9.27255 21.3102 9.24613C21.2283 9.21971 21.1415 9.21158 21.0561 9.22232C20.9707 9.23306 20.8886 9.26241 20.8158 9.30829C20.7429 9.35417 20.681 9.41547 20.6344 9.48787L16.9176 15.2781C16.4296 15.1791 16.2589 14.9675 16.4057 14.6433C17.3409 12.6091 18.2641 10.563 19.1753 8.50492C19.263 8.30887 19.2732 8.08691 19.2039 7.88366C19.1345 7.68041 18.9908 7.51094 18.8016 7.40934L18.776 7.39398C18.6855 7.34382 18.5856 7.313 18.4825 7.30348C18.3795 7.29396 18.2756 7.30594 18.1774 7.33867C18.0792 7.37139 17.9889 7.42415 17.9122 7.49359C17.8355 7.56304 17.774 7.64767 17.7316 7.74211L14.7111 14.505C14.6686 14.5996 14.5954 14.6771 14.5034 14.7249C14.4114 14.7727 14.3059 14.7881 14.2041 14.7686C14.1022 14.749 14.0099 14.6957 13.9421 14.6172C13.8744 14.5387 13.835 14.4397 13.8305 14.3361L13.7896 13.2508Z"
        fill="black" />
    <path
        d="M9.15656 20.9712C9.34086 21.7835 9.79136 22.4559 10.5081 22.9883C12.3443 21.7187 14.1361 20.4235 15.8836 19.1026C17.1703 18.1299 18.0935 17.1777 18.6533 16.2459C19.5645 14.1128 20.6038 12.21 21.7711 10.5376C22.0373 10.1554 21.9571 9.768 21.5304 9.3755C21.4674 9.31689 21.3923 9.27282 21.3103 9.2464C21.2284 9.21998 21.1416 9.21185 21.0562 9.22259C20.9708 9.23333 20.8888 9.26267 20.8159 9.30855C20.7431 9.35443 20.6812 9.41573 20.6345 9.48813L16.9178 15.2783C16.4297 15.1793 16.2591 14.9677 16.4058 14.6435C17.341 12.6093 18.2642 10.5632 19.1755 8.50515C19.2632 8.3091 19.2733 8.08714 19.204 7.88389C19.1347 7.68064 18.991 7.51117 18.8018 7.40956L18.7762 7.39421C18.6857 7.34404 18.5857 7.31323 18.4827 7.30371C18.3796 7.29419 18.2757 7.30617 18.1775 7.33889C18.0794 7.37162 17.9891 7.42438 17.9123 7.49382C17.8356 7.56327 17.7741 7.64789 17.7318 7.74233L14.7113 14.5053C14.6687 14.5998 14.5956 14.6773 14.5035 14.7252C14.4115 14.773 14.3061 14.7884 14.2042 14.7688C14.1024 14.7493 14.0101 14.696 13.9423 14.6174C13.8745 14.539 13.8352 14.4399 13.8307 14.3363L13.7898 13.251L13.9227 8.64345C13.9283 8.43569 13.8522 8.23366 13.7101 8.07924C13.5681 7.92482 13.3711 7.82987 13.1599 7.81408H13.1292C13.028 7.80707 12.9264 7.82016 12.8307 7.85258C12.7349 7.88499 12.647 7.93604 12.5723 8.00262C12.4975 8.0692 12.4376 8.14991 12.396 8.23984C12.3545 8.32977 12.3322 8.42703 12.3305 8.5257L12.223 13.9012L12.1003 15.6213C12.0951 15.71 12.0561 15.7934 11.9914 15.8543C11.9266 15.9152 11.8411 15.9491 11.7522 15.949H11.6088C11.5273 15.949 11.4492 15.9161 11.3916 15.8575C11.334 15.7989 11.3016 15.7195 11.3016 15.6367V15.0633C11.3013 15.0083 11.2831 14.9551 11.2497 14.9116C11.2164 14.8681 11.1696 14.8366 11.1163 14.8217C11.063 14.8068 11.006 14.8093 10.9536 14.8288C10.9013 14.8483 10.8564 14.8839 10.8255 14.9302C9.90913 16.379 8.71116 18.9849 9.15656 20.9712Z"
        fill="url(#paint0_linear_717_3957)" />
    <path
        d="M15.8833 19.1026C14.1359 20.4235 12.344 21.7187 10.5078 22.9884C13.3031 25.3178 16.5899 25.1795 18.8271 22.2051C19.2757 21.6101 19.5719 20.7353 19.8793 19.8272C20.2385 18.7662 20.613 17.6598 21.264 16.9012C21.8647 16.205 22.7624 15.3347 23.9569 14.2903C24.0572 14.2035 24.1302 14.0878 24.1668 13.9575C24.2522 13.6503 24.1515 13.3551 23.8648 13.0718C23.7514 12.9585 23.601 12.8899 23.4411 12.8786C23.2812 12.8673 23.1226 12.9141 22.9945 13.0104L18.653 16.2459C18.0933 17.1777 17.1701 18.1299 15.8833 19.1026Z"
        fill="url(#paint1_linear_717_3957)" />
    <defs>
        <linearGradient id="paint0_linear_717_3957" x1="13.6054" y1="9.14587" x2="16.6285" y2="24.6007"
            gradientUnits="userSpaceOnUse">
            <stop stop-color="#73F857" />
            <stop offset="1" stop-color="#25D6D9" />
        </linearGradient>
        <linearGradient id="paint1_linear_717_3957" x1="13.6051" y1="9.1459" x2="16.6282" y2="24.6007"
            gradientUnits="userSpaceOnUse">
            <stop stop-color="#73F857" />
            <stop offset="1" stop-color="#25D6D9" />
        </linearGradient>
    </defs>
</svg>