<svg width="32" height="32" viewBox="0 0 32 32" fill="none" xmlns="http://www.w3.org/2000/svg">
    <g clip-path="url(#clip0_717_3987)">
        <path
            d="M16 32C24.8365 32 32 24.8365 32 16C32 7.1635 24.8365 0 16 0C7.1635 0 0 7.1635 0 16C0 24.8365 7.1635 32 16 32Z"
            fill="white" />
        <path
            d="M17.8495 17.2815C18.242 12.674 22.3058 10.7105 24.8354 11.789C27.365 12.8675 28.2088 16.3613 26.9454 19.6824C24.9173 25.0134 17.8868 28.499 12.2754 26.1065C17.433 25.152 17.505 21.325 17.8495 17.2815Z"
            fill="#FFD702" />
        <path
            d="M14.364 15.4668C14.5253 20.1018 10.7311 22.5405 8.09452 21.7673C5.45789 20.994 4.20389 17.6153 5.05977 14.1575C6.43352 8.60738 12.987 4.30013 18.8358 6.01525C13.8366 7.57925 14.2224 11.3989 14.364 15.4668Z"
            fill="#1F198A" />
    </g>
    <defs>
        <clipPath id="clip0_717_3987">
            <rect width="32" height="32" fill="white" />
        </clipPath>
    </defs>
</svg>