<svg width="32" height="32" viewBox="0 0 32 32" fill="none" xmlns="http://www.w3.org/2000/svg">
    <circle cx="16" cy="16" r="16" fill="url(#paint0_linear_717_3585)" />
    <path
        d="M25.5156 19.8384V18.329H6.48438V19.8384C6.48438 23.054 10.75 25.679 16 25.679C21.25 25.679 25.5156 23.054 25.5156 19.8384Z"
        fill="#FEDC90" />
    <path fill-rule="evenodd" clip-rule="evenodd"
        d="M10.1594 8.6181C9.89687 7.43685 10.8156 6.32123 11.9969 6.32123C13.0469 6.32123 13.9 7.17435 13.9 8.22435V12.5556C14.5563 12.49 15.2125 12.4244 15.9344 12.4244C16.5906 12.4244 17.2469 12.49 17.9031 12.5556V8.22435C17.9031 7.17435 18.7563 6.32123 19.8063 6.32123C20.9875 6.32123 21.9063 7.43685 21.7094 8.6181L20.8562 13.3431C23.6125 14.3931 25.5156 16.2306 25.5156 18.3306C25.5156 21.5462 21.25 24.1712 16 24.1712C10.75 24.1712 6.48438 21.5462 6.48438 18.3306C6.48438 16.2306 8.32187 14.3931 11.0781 13.3431L10.1594 8.6181Z"
        fill="#D1884F" />
    <path fill-rule="evenodd" clip-rule="evenodd"
        d="M5.5 18.3291C5.50053 15.8523 7.43681 13.9045 9.95912 12.745L9.19535 8.81701C8.80508 7.01944 10.1976 5.3363 11.9969 5.3363C13.5905 5.3363 14.8844 6.63015 14.8844 8.2238V11.4785C15.2194 11.4551 15.5686 11.4394 15.9344 11.4394C16.2659 11.4394 16.5957 11.4548 16.9187 11.4778V8.2238C16.9187 6.63015 18.2126 5.3363 19.8063 5.3363C21.6198 5.3363 22.9732 7.02204 22.6804 8.77938L22.6793 8.78593L21.9654 12.7398C24.4899 13.893 26.4994 15.8388 26.5 18.3291V18.3301V19.8387C26.5 21.918 25.1254 23.6465 23.2418 24.8036C21.341 25.9713 18.7776 26.6637 16 26.6637C13.2224 26.6637 10.659 25.9713 8.7582 24.8036C6.87461 23.6465 5.5 21.918 5.5 19.8387V18.3291ZM20.8562 13.3426L21.7094 8.61755C21.9062 7.4363 20.9875 6.32068 19.8063 6.32068C18.7563 6.32068 17.9031 7.1738 17.9031 8.2238V12.5551C17.575 12.5222 17.2469 12.4894 16.9187 12.4648C16.5906 12.4402 16.2625 12.4238 15.9344 12.4238C15.5705 12.4238 15.2233 12.4405 14.8844 12.4654C14.5509 12.49 14.2255 12.5225 13.9 12.5551V8.2238C13.9 7.1738 13.0469 6.32068 11.9969 6.32068C10.8156 6.32068 9.89687 7.4363 10.1594 8.61755L11.0781 13.3426C8.32221 14.3924 6.48482 16.2296 6.48438 18.3293V19.8387C6.48438 23.0543 10.75 25.6793 16 25.6793C21.25 25.6793 25.5156 23.0543 25.5156 19.8387L25.5156 18.3301L25.5156 18.3293C25.5152 16.2296 23.6122 14.3924 20.8562 13.3426Z"
        fill="#633001" />
    <path
        d="M13.3754 17.8702C13.3754 18.7233 12.916 19.4452 12.3254 19.4452C11.7348 19.4452 11.2754 18.7233 11.2754 17.8702C11.2754 17.017 11.7348 16.2952 12.3254 16.2952C12.916 16.2952 13.3754 17.017 13.3754 17.8702Z"
        fill="#633001" />
    <path
        d="M20.6586 17.8702C20.6586 18.7233 20.1992 19.4452 19.6086 19.4452C19.018 19.4452 18.5586 18.7233 18.5586 17.8702C18.5586 17.017 19.018 16.2952 19.6086 16.2952C20.1992 16.2952 20.6586 17.017 20.6586 17.8702Z"
        fill="#633001" />
    <defs>
        <linearGradient id="paint0_linear_717_3585" x1="16" y1="0" x2="16" y2="32" gradientUnits="userSpaceOnUse">
            <stop stop-color="#2FC7D3" />
            <stop offset="1" stop-color="#00BFCE" />
        </linearGradient>
    </defs>
</svg>