<svg width="32" height="32" viewBox="0 0 32 32" fill="none" xmlns="http://www.w3.org/2000/svg">
    <rect width="32" height="32" rx="16" fill="black" />
    <path
        d="M24 19.2276C24 24.1307 20.8628 27 16.0207 27C13.5082 27 11.5433 26.3469 10.126 25.0409C8.70866 23.7263 8 21.9507 8 19.7142C8 18.6045 8.17486 17.6227 8.52459 16.7692C8.88352 15.907 9.36669 15.1728 9.97411 14.5668C10.5631 13.9862 11.2442 13.5296 12.0173 13.1967C12.7903 12.8552 14.4538 12.6204 15.3006 12.4412C13.3378 10.1424 10.7576 9.75223 8 9.75223V6H24V9.75223H17.3989C20.641 11.6672 24 15.1618 24 19.2276ZM18.3149 17.049C17.0836 14.5668 14.9787 15.2647 13.9915 17.049C12.9368 18.9553 13.3106 20.8235 13.6851 21.75C14.0596 22.6765 15.1312 23.4419 16.0207 23.4419C16.9872 23.4419 17.8358 22.6422 18.2128 21.75C18.7871 20.391 18.9073 18.2433 18.3149 17.049Z"
        fill="white" />
</svg>