<svg width="32" height="32" viewBox="0 0 32 32" fill="none" xmlns="http://www.w3.org/2000/svg">
    <circle cx="16" cy="16" r="16" fill="#13161F" />
    <path
        d="M26.6865 11.9947L18.5909 26.0168C18.3462 26.4397 17.9945 26.7908 17.5712 27.0349C17.1479 27.2789 16.6678 27.4074 16.1793 27.4074C15.6906 27.4074 15.2106 27.2789 14.7873 27.0349C14.364 26.7908 14.0123 26.4397 13.7675 26.0168L12.3484 23.5606C12.3438 23.5545 12.3418 23.5469 12.343 23.5393C12.344 23.5318 12.348 23.5249 12.3541 23.5203C12.3602 23.5158 12.3679 23.5138 12.3754 23.5149C12.383 23.516 12.3898 23.52 12.3944 23.5261C12.6475 23.776 12.9545 23.9647 13.2917 24.0778C13.629 24.1909 13.9877 24.2253 14.3404 24.1784C14.693 24.1316 15.0303 24.0047 15.3263 23.8075C15.6223 23.6102 15.8694 23.348 16.0485 23.0406L22.8254 11.2909C23.0041 10.9807 23.109 10.6335 23.1319 10.2763C23.1549 9.91902 23.0953 9.56129 22.9579 9.23076C22.8203 8.90023 22.6086 8.60577 22.3391 8.3702C22.0695 8.13463 21.7494 7.96426 21.4034 7.87228C21.3958 7.87228 21.3885 7.86925 21.3831 7.86386C21.3777 7.85848 21.3747 7.85117 21.3747 7.84355C21.3747 7.83593 21.3777 7.82862 21.3831 7.82324C21.3885 7.81785 21.3958 7.81482 21.4034 7.81482H24.2762C24.7651 7.81535 25.2453 7.94449 25.6685 8.18928C26.0916 8.43407 26.443 8.78589 26.6872 9.20942C26.9314 9.63295 27.0599 10.1133 27.0598 10.6022C27.0597 11.0911 26.9309 11.5713 26.6865 11.9947ZM17.1028 7.81482H14.2961C14.2904 7.81671 14.2854 7.82037 14.2818 7.82527C14.2783 7.83017 14.2764 7.83606 14.2764 7.84211C14.2764 7.84816 14.2783 7.85406 14.2818 7.85896C14.2854 7.86386 14.2904 7.86751 14.2961 7.8694C14.4852 7.94242 14.6562 8.05539 14.7976 8.2006C14.9389 8.34581 15.0473 8.51982 15.1152 8.71075C15.1831 8.90168 15.209 9.10503 15.1911 9.30689C15.1732 9.50875 15.1119 9.70436 15.0115 9.88036L10.9206 16.956C10.8149 17.1355 10.6708 17.2892 10.4986 17.4064C10.3264 17.5235 10.1305 17.6011 9.92476 17.6335C9.71906 17.6659 9.50874 17.6523 9.30889 17.5938C9.10904 17.5353 8.92462 17.4333 8.76889 17.295C8.76431 17.2889 8.75751 17.2849 8.74996 17.2838C8.74242 17.2827 8.73476 17.2847 8.72866 17.2893C8.72257 17.2938 8.71854 17.3007 8.71746 17.3082C8.71638 17.3157 8.71835 17.3234 8.72292 17.3295L10.1593 19.8231C10.3206 20.1029 10.5527 20.3353 10.8324 20.4969C11.112 20.6585 11.4293 20.7436 11.7523 20.7436C12.0752 20.7436 12.3925 20.6585 12.6722 20.4969C12.9518 20.3353 13.184 20.1029 13.3452 19.8231L18.6973 10.5727C18.8587 10.293 18.9436 9.9758 18.9436 9.65287C18.9435 9.32995 18.8584 9.01275 18.6967 8.73319C18.5351 8.45363 18.3027 8.22156 18.0229 8.06034C17.7431 7.89913 17.4258 7.81445 17.1028 7.81482ZM7.36122 7.81482C6.88224 7.81482 6.41402 7.95685 6.01576 8.22296C5.6175 8.48907 5.3071 8.8673 5.1238 9.30982C4.9405 9.75233 4.89254 10.2393 4.98599 10.709C5.07943 11.1788 5.31008 11.6103 5.64877 11.949C5.98746 12.2877 6.41898 12.5184 6.88875 12.6118C7.35853 12.7053 7.84547 12.6573 8.28798 12.474C8.7305 12.2907 9.10873 11.9803 9.37484 11.582C9.64094 11.1838 9.78298 10.7156 9.78298 10.2366C9.78336 9.91845 9.72097 9.60336 9.5994 9.30937C9.47783 9.01538 9.29946 8.74825 9.0745 8.5233C8.84955 8.29834 8.58242 8.11997 8.28843 7.9984C7.99444 7.87683 7.67935 7.81444 7.36122 7.81482Z"
        fill="url(#paint0_linear_717_4052)" />
    <defs>
        <linearGradient id="paint0_linear_717_4052" x1="26.7768" y1="23.3193" x2="1.48372" y2="6.14307"
            gradientUnits="userSpaceOnUse">
            <stop stop-color="#5433FF" />
            <stop offset="0.5" stop-color="#20BDFF" />
            <stop offset="1" stop-color="#5CFFA2" />
        </linearGradient>
    </defs>
</svg>