<svg width="22" height="22" viewBox="0 0 22 22" fill="none" xmlns="http://www.w3.org/2000/svg">
    <path
        d="M11 22C17.0751 22 22 17.0751 22 11C22 4.92487 17.0751 0 11 0C4.92487 0 0 4.92487 0 11C0 17.0751 4.92487 22 11 22Z"
        fill="#F0B90B" />
    <path
        d="M6.56772 5.39179L11 2.91504L15.4323 5.39179L13.8028 6.30679L11 4.74499L8.19723 6.30679L6.56772 5.39179ZM15.4323 8.51536L13.8028 7.60039L11 9.16216L8.19723 7.60039L6.56772 8.51536V10.3453L9.37049 11.9072V15.0308L11 15.9457L12.6295 15.0308V11.9072L15.4323 10.3453V8.51536ZM15.4323 13.4689V11.6389L13.8028 12.554V14.384L15.4323 13.4689ZM16.5893 14.1157L13.7865 15.6776V17.5076L18.2188 15.0308V10.0772L16.5893 10.9921V14.1157ZM14.9598 6.95359L16.5893 7.86856V9.69853L18.2188 8.78364V6.95359L16.5893 6.03859L14.9598 6.95359ZM9.37049 16.34V18.17L11 19.085L12.6295 18.17V16.34L11 17.2551L9.37049 16.34ZM6.56772 13.4689L8.19723 14.384V12.554L6.56772 11.6389V13.4689ZM9.37049 6.95359L11 7.86856L12.6295 6.95359L11 6.03859L9.37049 6.95359ZM5.41076 7.86856L7.04028 6.95359L5.41076 6.03859L3.78125 6.95359V8.78364L5.41076 9.69853V7.86856ZM5.41076 10.9921L3.78125 10.0772V15.0308L8.21351 17.5076V15.6776L5.41076 14.1157V10.9921Z"
        fill="#FFFDFA" />
</svg>