<svg width="22" height="22" viewBox="0 0 22 22" fill="none" xmlns="http://www.w3.org/2000/svg">
    <path
        d="M11 22C17.0751 22 22 17.0751 22 11C22 4.92487 17.0751 0 11 0C4.92487 0 0 4.92487 0 11C0 17.0751 4.92487 22 11 22Z"
        fill="#F7931A" />
    <path
        d="M15.9082 9.38658C16.1421 7.89848 15.0128 7.08933 13.4658 6.54371L13.9835 4.52883L12.7575 4.21439L12.2531 6.17606C11.9309 6.09271 11.6003 6.015 11.2703 5.93728L11.7785 3.96286L10.5526 3.64771L10.0349 5.66187C9.76806 5.59883 9.50552 5.53724 9.25153 5.47144L9.253 5.46506L7.56165 5.03L7.22529 6.33967C7.22529 6.33967 8.13565 6.55517 8.11638 6.56783C8.613 6.69578 8.70018 7.0255 8.68338 7.28694L8.094 9.58208C8.12807 9.59077 8.17203 9.60394 8.22165 9.62349L8.09183 9.59052L7.26554 12.8059C7.20334 12.9561 7.04748 13.1817 6.69983 13.0932C6.71249 13.1111 5.80877 12.8643 5.80877 12.8643L5.18884 14.2658L6.78514 14.676C7.08168 14.7527 7.37252 14.833 7.65843 14.9083L7.13558 16.9459L8.36082 17.2603L8.87856 15.2454C9.21334 15.3381 9.53825 15.4243 9.85615 15.5061L9.3399 17.5126L10.5658 17.8269L11.0887 15.7937C13.181 16.2053 14.7572 16.0567 15.4339 14.1666C15.9793 12.6453 15.4249 11.7606 14.3267 11.1791C15.1312 11.0001 15.739 10.4764 15.9082 9.38658ZM13.0725 13.3025C12.6828 14.8257 10.1193 13.9821 9.28782 13.7693L9.98251 11.0698C10.814 11.284 13.4812 11.7147 13.0725 13.3025ZM13.4812 9.34711C13.1251 10.7326 10.9922 10.0116 10.3006 9.83392L10.9294 7.38624C11.6212 7.56392 13.8527 7.90193 13.4812 9.34711Z"
        fill="white" />
</svg>