<svg width="22" height="22" viewBox="0 0 22 22" fill="none" xmlns="http://www.w3.org/2000/svg">
    <path
        d="M11 22C17.0751 22 22 17.0751 22 11C22 4.92487 17.0751 0 11 0C4.92487 0 0 4.92487 0 11C0 17.0751 4.92487 22 11 22Z"
        fill="#627EEA" />
    <path d="M10.999 3.66675V9.0873L15.5805 11.1345L10.999 3.66675Z" fill="white" fill-opacity="0.602" />
    <path d="M10.9991 3.66675L6.41699 11.1345L10.9991 9.0873V3.66675Z" fill="white" />
    <path d="M10.999 14.6471V18.3303L15.5836 11.9875L10.999 14.6471Z" fill="white" fill-opacity="0.602" />
    <path d="M10.9991 18.3303V14.6465L6.41699 11.9875L10.9991 18.3303Z" fill="white" />
    <path d="M10.999 13.7945L15.5805 11.1344L10.999 9.08838V13.7945Z" fill="white" fill-opacity="0.2" />
    <path d="M6.41699 11.1344L10.9991 13.7945V9.08838L6.41699 11.1344Z" fill="white" fill-opacity="0.602" />
</svg>