<svg width="22" height="22" viewBox="0 0 22 22" fill="none" xmlns="http://www.w3.org/2000/svg">
    <circle cx="11" cy="11" r="11" fill="white" />
    <path
        d="M6.48163 7.64626C6.48163 7.64626 6.4919 7.23126 6.5371 7.07512C6.5371 7.07512 5.60642 6.31907 5.66395 4.97339C5.72147 3.62772 7.08769 2.03756 10.381 1.74582C13.6743 1.45409 15.7596 3.60512 16.2753 4.12079C16.791 4.63646 17.508 6.06021 17.6867 6.20608C17.6867 6.20608 16.9019 6.25127 16.5876 6.16088C16.5876 6.16088 18.2455 10.6663 21.2266 11.8764C21.2266 11.8764 18.1777 14.5883 14.8618 12.2791C14.8618 12.2791 14.8721 12.7722 14.8063 13.0023C14.8063 13.0023 15.8377 13.9165 17.2265 13.7706C17.2265 13.7706 15.7699 16.7619 12.7108 16.3038C12.7108 16.3038 8.42515 17.1564 5.24689 20.2812C5.24689 20.2812 5.12978 16.7167 3.65056 13.7583C3.65056 13.7583 3.28076 10.313 3.8026 8.76595L4.55864 9.10288C4.55864 9.10288 5.17498 8.22356 6.47957 7.64626H6.48163Z"
        fill="black" />
    <path
        d="M7.26591 6.27799C7.26591 6.27799 6.39276 5.28568 7.17552 4.32213C7.95827 3.35859 9.32655 2.72992 11.6132 2.79772C13.8998 2.86551 15.568 4.65701 15.983 5.12954C15.983 5.12954 14.3251 4.15367 11.9932 4.63647C11.9932 4.63647 14.1402 4.78233 15.0976 5.90818C16.0549 7.03403 16.6939 10.0931 19.3174 11.7737C19.3174 11.7737 17.5013 12.1271 15.7447 9.87331C15.7447 9.87331 15.6687 10.5287 15.7365 10.7978C15.7365 10.7978 14.9517 10.3725 13.8977 7.92978C12.8438 5.48702 9.95316 6.00269 9.03481 6.51836C9.03481 6.51836 8.50887 6.46289 8.26644 6.44029C8.26644 6.44029 7.40767 5.82395 8.3178 4.43513C8.3178 4.43513 7.10772 4.71454 7.26386 6.27799H7.26591Z"
        fill="#6CE99E" />
    <path
        d="M7.51924 6.90024C7.51924 6.90024 7.47815 7.20225 7.51924 7.56384C7.51924 7.56384 8.03286 7.35428 9.00668 7.40359C9.00668 7.40359 8.9471 7.2947 8.91423 6.99269C8.91423 6.99269 8.14996 6.84888 7.51924 6.90024Z"
        fill="white" />
    <path
        d="M13.8896 13.3103C13.8896 13.3103 14.5162 14.2862 15.6605 14.43C15.6605 14.43 13.9245 16.3797 11.8721 14.7669C11.8721 14.7669 12.7349 14.8121 13.8896 13.3103Z"
        fill="white" />
    <path
        d="M11.392 11.2394C11.392 11.2394 10.977 10.8121 10.5969 11.3381C10.2168 11.864 10.5188 13.0309 11.392 12.4475C11.392 12.4475 10.7941 12.6057 10.9133 11.8414C11.0324 11.0771 11.392 11.2394 11.392 11.2394Z"
        fill="white" />
    <path
        d="M5.86299 18.574C5.86299 18.574 7.58052 16.9859 10.6068 15.9217C10.6068 15.9217 10.124 14.7445 10.1034 14.0275C10.0829 13.3105 10.5184 13.0311 10.5184 13.0311C10.5184 13.0311 9.88975 12.7825 9.90208 11.8415C9.91235 10.9992 10.4958 10.7444 10.4958 10.7444C10.4958 10.7444 10.0253 9.92677 8.63652 9.2981C8.63652 9.2981 10.1383 8.5359 11.9648 9.35357C11.9648 9.35357 9.0618 6.15887 5.36375 9.70078C5.36375 9.70078 6.61903 10.4178 7.92978 10.6767C7.92978 10.6767 6.46084 10.9232 4.55634 10.1733C4.55634 10.1733 4.39404 11.0752 4.48855 12.5257C4.48855 12.5257 6.39304 12.6325 8.46189 12.1538C8.46189 12.1538 8.46189 12.6079 8.49476 12.9181C8.49476 12.9181 7.49218 13.6248 4.67961 13.9823C4.67961 13.9823 5.55893 16.1292 5.86504 18.574H5.86299Z"
        fill="white" />
    <path
        d="M4.883 12.536C4.8111 11.067 4.94464 10.3151 4.94464 10.3151H4.94875C4.81932 10.272 4.68989 10.2247 4.55634 10.1733C4.55634 10.1733 4.39404 11.0753 4.48855 12.5257C4.48855 12.5257 4.63441 12.5339 4.883 12.536Z"
        fill="#6CE99E" />
    <path
        d="M5.36133 9.70266C5.36133 9.70266 6.30639 10.243 7.41169 10.5532C6.65359 10.2635 6.21599 9.46434 6.21599 9.46434C6.96587 8.66721 8.29511 8.24398 9.16004 8.04265C8.09172 7.97485 6.78508 8.33849 5.36133 9.70266Z"
        fill="#6CE99E" />
    <path
        d="M6.4528 18.0994C6.32747 17.3126 6.07067 15.7881 5.92275 15.406C5.72141 14.8862 5.5365 14.5308 5.75428 14.0953C5.81591 13.9699 5.94329 13.8528 6.08916 13.748C5.68032 13.8343 5.2119 13.9145 4.67773 13.9823C4.67773 13.9823 5.55705 16.1292 5.86316 18.574C5.86316 18.574 6.06861 18.387 6.4528 18.0994Z"
        fill="#6CE99E" />
    <path
        d="M7.92192 6.89219C7.78632 6.88808 7.65072 6.89219 7.51924 6.90041C7.51924 6.90041 7.47815 7.20242 7.51924 7.564C7.51924 7.564 7.65483 7.50853 7.91781 7.46128C7.90548 7.25789 7.91164 7.05244 7.92192 6.89014V6.89219Z"
        fill="#6CE99E" />
</svg>