<svg width="22" height="22" viewBox="0 0 22 22" fill="none" xmlns="http://www.w3.org/2000/svg">
    <path
        d="M11 22C17.0751 22 22 17.0751 22 11C22 4.92487 17.0751 0 11 0C4.92487 0 0 4.92487 0 11C0 17.0751 4.92487 22 11 22Z"
        fill="#2775CA" />
    <path
        d="M8.9375 18.6485C8.9375 18.9063 8.73125 19.0524 8.49063 18.975C5.15625 17.9094 2.75 14.7985 2.75 11.1118C2.75 7.43364 5.15625 4.31411 8.49063 3.24848C8.73984 3.17114 8.9375 3.31723 8.9375 3.57505V4.21958C8.9375 4.39145 8.80859 4.58911 8.64531 4.64926C6.00703 5.62036 4.125 8.15551 4.125 11.1118C4.125 14.0766 6.00703 16.6032 8.64531 17.5657C8.80859 17.6258 8.9375 17.8235 8.9375 17.9954V18.6485Z"
        fill="white" />
    <path
        d="M11.6878 16.2681C11.6878 16.4571 11.5331 16.6118 11.3441 16.6118H10.6566C10.4675 16.6118 10.3128 16.4571 10.3128 16.2681V15.1853C8.80891 14.979 8.07844 14.1454 7.88078 12.9938C7.84641 12.7962 8.00109 12.6243 8.19875 12.6243H8.98078C9.14406 12.6243 9.28156 12.7446 9.31594 12.8993C9.46203 13.5782 9.85734 14.1024 11.0605 14.1024C11.9456 14.1024 12.5816 13.604 12.5816 12.8649C12.5816 12.1259 12.212 11.8423 10.9058 11.6274C8.98078 11.3696 8.06984 10.7853 8.06984 9.28135C8.06984 8.12119 8.955 7.21025 10.3128 7.02119V5.95557C10.3128 5.7665 10.4675 5.61182 10.6566 5.61182H11.3441C11.5331 5.61182 11.6878 5.7665 11.6878 5.95557V7.04697C12.7964 7.24463 13.5011 7.87197 13.7331 8.92041C13.7761 9.11807 13.6214 9.29853 13.4152 9.29853H12.6933C12.5386 9.29853 12.4097 9.19541 12.3667 9.04932C12.1691 8.3876 11.6964 8.09541 10.8714 8.09541C9.96047 8.09541 9.48781 8.53369 9.48781 9.15244C9.48781 9.80557 9.75422 10.1321 11.155 10.3298C13.0456 10.5876 14.0253 11.129 14.0253 12.736C14.0253 13.9563 13.1144 14.9446 11.6964 15.1681V16.2681H11.6878Z"
        fill="white" />
    <path
        d="M13.5094 18.9749C13.2602 19.0523 13.0625 18.9062 13.0625 18.6484V18.0039C13.0625 17.8148 13.1742 17.6343 13.3547 17.5742C15.9844 16.6117 17.875 14.0765 17.875 11.1203C17.875 8.15542 15.993 5.62885 13.3547 4.66635C13.1914 4.6062 13.0625 4.40854 13.0625 4.23667V3.59214C13.0625 3.33432 13.2687 3.18823 13.5094 3.26557C16.8437 4.31401 19.25 7.43354 19.25 11.1117C19.25 14.7984 16.8437 17.9093 13.5094 18.9749Z"
        fill="white" />
</svg>