<svg width="22" height="22" viewBox="0 0 22 22" fill="none" xmlns="http://www.w3.org/2000/svg">
    <path fill-rule="evenodd" clip-rule="evenodd"
        d="M22 11C22 17.0752 17.0752 22 11 22C4.92481 22 0 17.0752 0 11C0 4.92481 4.92481 0 11 0C17.0752 0 22 4.92481 22 11"
        fill="#27A17C" />
    <path fill-rule="evenodd" clip-rule="evenodd"
        d="M16.1631 5.54688H5.74707V8.06136H9.69783V11.7574H12.2123V8.06136H16.1631V5.54688Z" fill="white" />
    <path fill-rule="evenodd" clip-rule="evenodd"
        d="M10.9787 12.151C7.71044 12.151 5.06098 11.6338 5.06098 10.9957C5.06098 10.3577 7.71044 9.84035 10.9787 9.84035C14.2468 9.84035 16.8962 10.3577 16.8962 10.9957C16.8962 11.6338 14.2468 12.151 10.9787 12.151M17.6232 11.1883C17.6232 10.3655 14.6484 9.69849 10.9786 9.69849C7.30893 9.69849 4.33398 10.3655 4.33398 11.1883C4.33398 11.9128 6.64079 12.5165 9.69747 12.6503V17.9561H12.212V12.6524C15.2923 12.5227 17.6232 11.9166 17.6232 11.1883"
        fill="white" />
</svg>