<svg width="32" height="32" viewBox="0 0 32 32" fill="none" xmlns="http://www.w3.org/2000/svg">
<path d="M10.6098 27.4403L11.1937 24.7429C11.8449 21.7343 9.55278 18.8927 6.47484 18.8927H3.80029C4.64375 22.6729 7.19885 25.8073 10.6098 27.4403Z" fill="url(#paint0_linear_85049_77639)"/>
<path d="M11.7822 27.9299C13.0998 28.402 14.5197 28.6593 15.9998 28.6593C21.964 28.6593 26.9527 24.4817 28.1998 18.8927H20.0406C16.3629 18.8927 13.1831 21.458 12.4049 25.0528L11.7822 27.9299Z" fill="url(#paint1_linear_85049_77639)"/>
<path d="M28.413 17.6428C28.4705 17.156 28.5002 16.6606 28.5002 16.1583C28.5002 9.60006 23.4506 4.22136 17.0277 3.69873L15.2757 11.7926C14.6245 14.8011 16.9166 17.6428 19.9946 17.6428H28.413Z" fill="url(#paint2_linear_85049_77639)"/>
<path d="M15.757 3.6593C8.96563 3.78877 3.5 9.33511 3.5 16.1582C3.5 16.6605 3.52962 17.1559 3.58722 17.6427H6.42804C10.1058 17.6427 13.2856 15.0774 14.0636 11.4825L15.757 3.6593Z" fill="url(#paint3_linear_85049_77639)"/>
<defs>
<linearGradient id="paint0_linear_85049_77639" x1="18.245" y1="3.65923" x2="13.306" y2="28.6921" gradientUnits="userSpaceOnUse">
<stop stop-color="#EFBE84"/>
<stop offset="1" stop-color="#EAAE67"/>
</linearGradient>
<linearGradient id="paint1_linear_85049_77639" x1="18.2445" y1="3.65924" x2="13.3055" y2="28.6921" gradientUnits="userSpaceOnUse">
<stop stop-color="#EFBE84"/>
<stop offset="1" stop-color="#EAAE67"/>
</linearGradient>
<linearGradient id="paint2_linear_85049_77639" x1="18.2449" y1="3.65941" x2="13.3059" y2="28.6923" gradientUnits="userSpaceOnUse">
<stop stop-color="#EFBE84"/>
<stop offset="1" stop-color="#EAAE67"/>
</linearGradient>
<linearGradient id="paint3_linear_85049_77639" x1="18.2447" y1="3.6593" x2="13.3057" y2="28.6922" gradientUnits="userSpaceOnUse">
<stop stop-color="#EFBE84"/>
<stop offset="1" stop-color="#EAAE67"/>
</linearGradient>
</defs>
</svg>
