<svg width="32" height="32" viewBox="0 0 32 32" fill="none" xmlns="http://www.w3.org/2000/svg">
    <circle cx="16" cy="16" r="16" fill="#F0B90B" />
    <path
        d="M9.54 7.8L16 4.24L22.46 7.8L20.09 9.13L16 6.89L11.91 9.13L9.54 7.8ZM22.46 12.39L20.09 11.06L16 13.31L11.91 11.06L9.54 12.39V15.05L13.63 17.3V21.84L16 23.17L18.37 21.84V17.3L22.46 15.05V12.39ZM22.46 19.56V16.89L20.09 18.23V20.89L22.46 19.56ZM24.15 20.49L20.09 23.03V25.7L26.54 21.82V14.56L24.15 15.89V20.49ZM21.77 10.12L24.15 11.45V13.78L26.54 12.45V9.79L24.15 8.46L21.77 10.12ZM13.63 23.78V26.44L16 27.76L18.37 26.44V23.78L16 25.1L13.63 23.78ZM9.54 19.56L11.91 20.89V18.23L9.54 16.89V19.56ZM13.63 10.12L16 11.45L18.37 10.12L16 8.79L13.63 10.12ZM7.85 11.45L10.23 10.12L7.85 8.79L5.46 10.12V12.45L7.85 13.78V11.45ZM7.85 15.89L5.46 14.56V21.82L11.91 25.7V23.03L7.85 20.49V15.89Z"
        fill="#FFFDFA" />
</svg>