<svg width="32" height="32" viewBox="0 0 32 32" fill="none" xmlns="http://www.w3.org/2000/svg">
<path d="M4.26025 22.4201V20.6462C4.87268 18.1261 6.03418 13.9799 8.34309 12.4735C8.46636 12.3936 8.56765 12.284 8.63774 12.1549C8.70782 12.0258 8.74447 11.8812 8.74433 11.7343C8.73495 8.77779 8.80065 6.56743 8.94144 5.10324C9.04703 4.01214 10.2367 2.83657 11.4052 2.70986C13.639 2.47052 14.9061 3.51938 15.2065 5.85646C15.2128 5.89828 15.2298 5.93787 15.2559 5.9712C15.2819 6.00452 15.316 6.03038 15.3547 6.04612C15.3933 6.06188 15.4352 6.06695 15.4759 6.06084C15.5167 6.05473 15.5549 6.03764 15.5866 6.01132C15.7227 5.90339 15.8752 5.52796 16.0442 4.88502C16.6003 2.76617 18.4164 1.49909 20.4508 2.18895C21.1595 2.43298 21.8469 3.12753 22.5133 4.2726C22.5643 4.35708 22.6317 4.4305 22.7115 4.48853C22.7913 4.54656 22.8819 4.58802 22.9779 4.61049C25.789 5.22526 26.7581 6.82789 25.8852 9.41837C25.875 9.45082 25.8727 9.48524 25.8787 9.51868C25.8846 9.55219 25.8984 9.5838 25.9192 9.61069C25.9399 9.63765 25.9669 9.65926 25.9977 9.67355C26.0286 9.68784 26.0624 9.69452 26.0964 9.69291C28.6728 9.52396 30.0173 12.4875 28.8488 14.4797C28.7506 14.6481 28.6348 14.8039 28.5038 14.9443C27.4127 16.0987 25.1531 17.7319 24.1887 19.5199C23.2173 21.329 22.9427 23.469 21.7672 25.3485C20.0777 28.0609 17.6092 29.6026 14.3618 29.9733C13.2261 30.1048 11.6915 29.7504 9.758 28.9104C6.82024 27.6292 4.98765 25.4658 4.26025 22.4201ZM21.4786 5.68751C22.5837 3.75872 18.8247 1.14712 17.2409 4.29372C17.1048 4.56591 16.2084 6.58386 14.5518 10.3476C14.5304 10.3928 14.4941 10.4292 14.449 10.4508C14.404 10.4724 14.3529 10.4779 14.3042 10.4664C14.2557 10.4548 14.2124 10.427 14.1819 10.3874C14.1513 10.3478 14.1354 10.299 14.1365 10.249L14.3688 5.94093C14.3988 5.36448 14.2056 4.79863 13.8294 4.36083C13.4532 3.92302 12.9229 3.6469 12.3485 3.58978L11.9754 3.55458C11.6886 3.52605 11.3989 3.55818 11.1251 3.64888C10.8514 3.73959 10.5996 3.88686 10.386 4.0812C10.1724 4.27555 10.0018 4.51264 9.88515 4.77719C9.7685 5.04174 9.7084 5.32787 9.70873 5.61712V12.396C9.70854 12.5021 9.67815 12.6064 9.62095 12.6972C9.56375 12.788 9.48202 12.8616 9.38492 12.9099C7.18863 14.0151 6.65364 16.1621 5.79484 18.4499C4.2931 22.4811 5.56723 25.5925 9.61722 27.7841C13.4795 29.8771 16.8936 29.4055 19.8595 26.3692C22.2177 23.9617 22.3514 20.5547 24.0338 18.0698C25.2165 16.317 30.6579 13.5927 27.3775 10.9178C27.0479 10.6486 26.6217 10.5087 26.1666 10.5202C25.7113 10.5316 25.2531 10.6938 24.8645 10.9811C24.8551 10.9858 24.4046 11.3706 23.5129 12.1356C23.4823 12.1598 23.4448 12.1737 23.4058 12.175C23.3667 12.1764 23.3284 12.1653 23.2961 12.1432C23.2639 12.1212 23.2395 12.0895 23.2266 12.0526C23.2137 12.0158 23.2129 11.9758 23.2243 11.9385C23.5833 10.9107 25.4488 9.24239 25.3572 7.79932C25.2869 6.71057 24.6463 5.98082 23.4355 5.61008C23.1981 5.53697 22.9432 5.54439 22.7104 5.6312L21.739 5.99724C21.6983 6.01388 21.6538 6.01712 21.6114 6.00651C21.569 5.99591 21.5309 5.97198 21.5023 5.93802C21.4738 5.90406 21.4562 5.86174 21.4519 5.81687C21.4477 5.77202 21.4569 5.72682 21.4786 5.68751Z" fill="#FEFFFE" fill-opacity="0.996"/>
<path d="M21.739 5.99703L22.7104 5.63099C22.9432 5.54418 23.1981 5.53676 23.4355 5.60987C24.6463 5.9806 25.2869 6.71035 25.3572 7.79911C25.4488 9.2422 23.5834 10.9105 23.2244 11.9383C23.2129 11.9756 23.2137 12.0156 23.2266 12.0524C23.2395 12.0893 23.2639 12.121 23.2961 12.143C23.3284 12.165 23.3668 12.1761 23.4058 12.1748C23.4448 12.1734 23.4824 12.1596 23.5129 12.1354C24.4046 11.3704 24.8551 10.9856 24.8646 10.9809C25.2532 10.6937 25.7114 10.5314 26.1666 10.5199C26.6218 10.5084 27.048 10.6484 27.3775 10.9176C30.6579 13.5925 25.2165 16.3168 24.0338 18.0696C22.3515 20.5545 22.2177 23.9615 19.8595 26.369C16.8936 29.4053 13.4795 29.8769 9.61725 27.7839C5.56727 25.5923 4.29314 22.4809 5.79487 18.4497C6.65368 16.1619 7.18867 14.0149 9.38495 12.9097C9.48205 12.8614 9.56379 12.7877 9.62098 12.697C9.67818 12.6062 9.70858 12.5019 9.70876 12.3958V5.61691C9.70843 5.32765 9.76853 5.04152 9.88518 4.77698C10.0018 4.51242 10.1725 4.27533 10.386 4.08099C10.5996 3.88665 10.8514 3.73937 11.1252 3.64867C11.3989 3.55796 11.6885 3.52584 11.9754 3.55437L12.3485 3.58957C12.9229 3.64669 13.4532 3.92281 13.8294 4.36061C14.2056 4.79841 14.3988 5.36426 14.3688 5.94072L14.1365 10.2488C14.1354 10.2987 14.1514 10.3476 14.182 10.3872C14.2125 10.4267 14.2557 10.4546 14.3043 10.4661C14.353 10.4777 14.4041 10.4722 14.4491 10.4506C14.4942 10.429 14.5304 10.3925 14.5518 10.3474C16.2085 6.58364 17.1048 4.56569 17.2409 4.2935C18.8248 1.14691 22.5837 3.75851 21.4786 5.6873C21.457 5.72661 21.4477 5.7718 21.4519 5.81666C21.4562 5.86152 21.4738 5.90385 21.5023 5.9378C21.5309 5.97176 21.569 5.99569 21.6114 6.0063C21.6538 6.0169 21.6984 6.01367 21.739 5.99703ZM12.9609 12.2199L13.1439 5.8844C13.1516 5.59874 13.047 5.32094 12.8517 5.10861C12.6564 4.89629 12.3854 4.76573 12.0951 4.74402H12.0528C11.9137 4.73437 11.774 4.75239 11.6424 4.79695C11.5107 4.84152 11.3899 4.91172 11.2871 5.00326C11.1844 5.09481 11.1019 5.20579 11.0448 5.32944C10.9876 5.45309 10.957 5.58683 10.9547 5.7225L10.8069 13.1139L10.638 15.4791C10.6308 15.6011 10.5772 15.7157 10.4882 15.7994C10.3992 15.8832 10.2815 15.9298 10.1593 15.9296H9.96218C9.85016 15.9296 9.74273 15.8843 9.66353 15.8038C9.58431 15.7233 9.53982 15.614 9.53982 15.5002V14.7118C9.53933 14.6361 9.51431 14.563 9.46843 14.5031C9.42256 14.4433 9.35824 14.4 9.28496 14.3795C9.21167 14.3591 9.13328 14.3625 9.06131 14.3893C8.98935 14.4162 8.9276 14.4651 8.88516 14.5288C7.62511 16.5209 5.9779 20.104 6.59032 22.8352C6.84374 23.9521 7.4632 24.8766 8.44871 25.6087C12.2922 28.8117 16.8115 28.6216 19.8877 24.5317C21.2251 22.7578 21.5771 19.1748 23.2384 17.2389C24.0644 16.2816 25.2986 15.0849 26.9412 13.6488C27.079 13.5295 27.1794 13.3704 27.2298 13.1913C27.3471 12.7689 27.2086 12.363 26.8145 11.9735C26.6585 11.8176 26.4517 11.7233 26.2319 11.7077C26.012 11.6923 25.794 11.7566 25.6177 11.889L19.6484 16.3379C20.9014 13.4048 22.3303 10.7885 23.9354 8.48897C24.3014 7.96336 24.1911 7.43071 23.6044 6.89103C23.5178 6.81043 23.4145 6.74984 23.3018 6.71351C23.1891 6.67718 23.0698 6.666 22.9524 6.68077C22.8349 6.69553 22.7221 6.73588 22.622 6.79897C22.5218 6.86206 22.4367 6.94635 22.3726 7.0459L17.262 15.0074C16.5909 14.8713 16.3563 14.5804 16.558 14.1346C17.8439 11.3375 19.1133 8.52417 20.3663 5.69434C20.4869 5.42477 20.5009 5.11957 20.4055 4.8401C20.3102 4.56063 20.1126 4.32762 19.8525 4.18791L19.8173 4.1668C19.6928 4.09782 19.5554 4.05545 19.4137 4.04236C19.272 4.02927 19.1292 4.04574 18.9942 4.09074C18.8591 4.13574 18.735 4.20828 18.6295 4.30377C18.524 4.39926 18.4394 4.51562 18.3812 4.64547L14.228 13.9445C14.1696 14.0745 14.0689 14.181 13.9424 14.2468C13.8159 14.3126 13.6709 14.3338 13.5308 14.3069C13.3908 14.28 13.2639 14.2067 13.1707 14.0987C13.0775 13.9908 13.0234 13.8546 13.0172 13.7122L12.9609 12.2199Z" fill="black"/>
<path d="M6.59051 22.8354C6.84393 23.9523 7.46337 24.8769 8.44888 25.6089C10.9737 23.8632 13.4374 22.0822 15.8402 20.2661C17.6095 18.9286 18.8789 17.6193 19.6485 16.3381C20.9015 13.4051 22.3305 10.7887 23.9355 8.48923C24.3015 7.96362 24.1913 7.43098 23.6046 6.89129C23.518 6.81069 23.4146 6.75009 23.3019 6.71377C23.1893 6.67744 23.07 6.66626 22.9526 6.68103C22.8351 6.6958 22.7223 6.73615 22.6221 6.79923C22.522 6.86231 22.4368 6.9466 22.3727 7.04615L17.2622 15.0077C16.5911 14.8715 16.3565 14.5806 16.5583 14.1348C17.8441 11.3377 19.1136 8.52437 20.3666 5.69455C20.4871 5.42498 20.5011 5.11978 20.4058 4.84032C20.3104 4.56085 20.1128 4.32783 19.8527 4.18812L19.8175 4.167C19.693 4.09803 19.5556 4.05566 19.4139 4.04257C19.2722 4.02947 19.1293 4.04595 18.9943 4.09095C18.8594 4.13594 18.7352 4.20849 18.6297 4.30397C18.5242 4.39947 18.4396 4.51582 18.3815 4.64568L14.2282 13.9447C14.1697 14.0747 14.0692 14.1812 13.9426 14.2471C13.8161 14.3128 13.6711 14.334 13.5311 14.3071C13.391 14.2802 13.2641 14.2069 13.1709 14.0989C13.0777 13.991 13.0237 13.8548 13.0175 13.7124L12.9612 12.2201L13.144 5.88471C13.1516 5.59905 13.047 5.32125 12.8517 5.10893C12.6564 4.8966 12.3855 4.76605 12.0951 4.74433H12.0529C11.9137 4.73469 11.774 4.75269 11.6424 4.79727C11.5107 4.84183 11.3898 4.91203 11.2871 5.00358C11.1844 5.09512 11.1019 5.2061 11.0448 5.32975C10.9876 5.4534 10.957 5.58713 10.9547 5.7228L10.8069 13.1141L10.6381 15.4793C10.631 15.6013 10.5774 15.7159 10.4884 15.7997C10.3994 15.8834 10.2817 15.93 10.1595 15.9298H9.96237C9.85035 15.9298 9.74292 15.8845 9.66372 15.804C9.58451 15.7235 9.54001 15.6143 9.54001 15.5004V14.712C9.53952 14.6363 9.51449 14.5632 9.46862 14.5034C9.42274 14.4436 9.35843 14.4002 9.28514 14.3797C9.21186 14.3593 9.13347 14.3627 9.0615 14.3895C8.98953 14.4164 8.92778 14.4653 8.88534 14.529C7.6253 16.5211 5.97808 20.1042 6.59051 22.8354Z" fill="url(#paint0_linear_85052_77670)"/>
<path d="M15.84 20.2661C13.4373 22.0823 10.9735 23.8633 8.44873 25.609C12.2922 28.8119 16.8116 28.6219 19.8878 24.532C20.5046 23.7139 20.9118 22.511 21.3345 21.2624C21.8284 19.8036 22.3434 18.2822 23.2386 17.2392C24.0645 16.2819 25.2988 15.0852 26.9413 13.6491C27.0791 13.5298 27.1795 13.3707 27.2299 13.1916C27.3472 12.7692 27.2088 12.3632 26.8146 11.9738C26.6587 11.8179 26.4518 11.7236 26.232 11.7081C26.0121 11.6925 25.7941 11.7569 25.6179 11.8893L19.6483 16.3382C18.8787 17.6193 17.6093 18.9287 15.84 20.2661Z" fill="url(#paint1_linear_85052_77670)"/>
<defs>
<linearGradient id="paint0_linear_85052_77670" x1="12.7077" y1="6.57554" x2="16.8644" y2="27.8259" gradientUnits="userSpaceOnUse">
<stop stop-color="#73F857"/>
<stop offset="1" stop-color="#25D6D9"/>
</linearGradient>
<linearGradient id="paint1_linear_85052_77670" x1="12.7075" y1="6.57562" x2="16.8643" y2="27.826" gradientUnits="userSpaceOnUse">
<stop stop-color="#73F857"/>
<stop offset="1" stop-color="#25D6D9"/>
</linearGradient>
</defs>
</svg>
