<svg width="32" height="32" viewBox="0 0 32 32" fill="none" xmlns="http://www.w3.org/2000/svg">
<path d="M20.4331 25.139V14.4582C20.4331 13.0091 18.8661 12.1019 17.6096 12.8234L8.29138 18.1733C6.92327 18.9631 5.17387 18.4943 4.38369 17.126C3.59378 15.7577 4.06265 14.0081 5.43076 13.2182C5.45475 13.2044 5.47818 13.1903 5.50244 13.1772L20.4987 4.51146C23.0123 3.05904 26.1552 4.87287 26.1552 7.77575V25.1392C26.1552 26.7192 24.8744 28 23.2946 28C21.7145 28 20.4337 26.7192 20.4331 25.139Z" fill="url(#paint0_linear_49611_118661)"/>
<path d="M15.1321 21.7602V26.584C15.1321 27.123 14.6434 27.5299 14.1134 27.4324C12.3112 27.1006 10.6593 26.16 9.44539 24.7872C9.08128 24.3755 9.18028 23.7281 9.65558 23.4521L13.845 21.0192C14.4162 20.6875 15.1321 21.0996 15.1321 21.7602Z" fill="url(#paint1_linear_49611_118661)"/>
<path d="M20.4184 14.2175C20.4485 12.7012 19.9632 11.2379 19.2796 10.2396C18.1697 8.61979 15.7082 8.03733 13.572 8.51464L5.50278 13.178L5.43082 13.2182C4.06243 14.0082 3.59384 15.7578 4.38375 17.1261C5.17365 18.4942 6.92305 18.9631 8.29144 18.1733L17.6094 12.8234C18.7951 12.1428 20.2566 12.9116 20.4184 14.2175Z" fill="url(#paint2_linear_49611_118661)"/>
<path d="M20.4332 14.6302L20.4803 14.6094C20.4803 14.2881 20.413 13.9894 20.2831 13.7137C20.3791 13.9385 20.4332 14.1889 20.4332 14.458V14.6302Z" fill="url(#paint3_linear_49611_118661)"/>
<path d="M19.8586 13.1016C19.121 12.3219 17.7585 11.7911 15.9397 11.524C14.0242 11.2428 10.3412 11.4932 6.33466 12.6961L5.50246 13.177L5.50286 13.1777C5.47875 13.1908 5.45474 13.2042 5.43086 13.218C4.06258 14.0079 3.59377 15.7576 4.38375 17.1258C5.17367 18.494 6.92312 18.9629 8.29136 18.1731L17.6095 12.8232C18.3892 12.3756 19.2884 12.5549 19.8586 13.1016Z" fill="url(#paint4_linear_49611_118661)"/>
<defs>
<linearGradient id="paint0_linear_49611_118661" x1="15.0776" y1="4" x2="15.0776" y2="28" gradientUnits="userSpaceOnUse">
<stop stop-color="#4DFC8D"/>
<stop offset="1" stop-color="#1FC3F1"/>
</linearGradient>
<linearGradient id="paint1_linear_49611_118661" x1="9.25137" y1="23.9458" x2="15.1321" y2="25.6813" gradientUnits="userSpaceOnUse">
<stop stop-color="#35D9C0"/>
<stop offset="1" stop-color="#2FC1D9"/>
</linearGradient>
<linearGradient id="paint2_linear_49611_118661" x1="15.4602" y1="8.35315" x2="13.8548" y2="13.455" gradientUnits="userSpaceOnUse">
<stop stop-color="#235E7D"/>
<stop offset="1" stop-color="#5EFBAC"/>
</linearGradient>
<linearGradient id="paint3_linear_49611_118661" x1="13.1072" y1="11.4193" x2="10.2067" y2="18.5567" gradientUnits="userSpaceOnUse">
<stop stop-color="#206478"/>
<stop offset="1" stop-color="#52E0AE"/>
</linearGradient>
<linearGradient id="paint4_linear_49611_118661" x1="13.1072" y1="11.4193" x2="10.2067" y2="18.5567" gradientUnits="userSpaceOnUse">
<stop stop-color="#206478"/>
<stop offset="1" stop-color="#52E0AE"/>
</linearGradient>
</defs>
</svg>
